<?xml version="1.0" encoding="UTF-8" standalone="no"?>
<!-- Created with Inkscape (http://www.inkscape.org/) -->

<svg
   version="1.1"
   id="svg1"
   width="1300"
   height="1294"
   viewBox="0 0 1300 1294"
   sodipodi:docname="volpe.svg"
   inkscape:version="1.3 (0e150ed6c4, 2023-07-21)"
   xml:space="preserve"
   xmlns:inkscape="http://www.inkscape.org/namespaces/inkscape"
   xmlns:sodipodi="http://sodipodi.sourceforge.net/DTD/sodipodi-0.dtd"
   xmlns="http://www.w3.org/2000/svg"
   xmlns:svg="http://www.w3.org/2000/svg"><defs
     id="defs1" /><sodipodi:namedview
     id="namedview1"
     pagecolor="#505050"
     bordercolor="#ffffff"
     borderopacity="1"
     inkscape:showpageshadow="0"
     inkscape:pageopacity="0"
     inkscape:pagecheckerboard="1"
     inkscape:deskcolor="#505050"
     inkscape:zoom="0.62673879"
     inkscape:cx="649.39335"
     inkscape:cy="647"
     inkscape:window-width="1920"
     inkscape:window-height="1046"
     inkscape:window-x="-11"
     inkscape:window-y="-11"
     inkscape:window-maximized="1"
     inkscape:current-layer="g1" /><g
     inkscape:groupmode="layer"
     inkscape:label="Image"
     id="g1"><path
       style="fill:#000000"
       d="m 731.15871,1340.94 c 2.34595,-0.4625 4.62738,-1.0647 5.06986,-1.3382 0.44248,-0.2734 2.79807,0.1242 5.23464,0.8836 l 4.43014,1.3808 -9.5,-0.043 c -7.92425,-0.035 -8.79251,-0.1821 -5.23464,-0.8835 z M 597.88173,1063.9892 c -1.65228,-1.8242 -1.98838,-3.6142 -1.98838,-10.59 0,-4.6171 -0.225,-8.2791 -0.5,-8.1379 -19.01037,9.7622 -24.01934,11.8464 -35.40997,14.7337 -11.07931,2.8084 -17.00998,2.676 -20.13549,-0.4495 -2.65351,-2.6536 -3.01923,-4.9301 -1.45355,-9.0481 0.86854,-2.2845 0.76931,-2.5612 -0.75,-2.0914 -5.54915,1.7157 -28.103,4.5936 -36.00099,4.5938 -7.91683,2e-4 -9.53826,-0.2881 -11.25,-1.9998 -3.17445,-3.1744 -2.35376,-6.6986 2.87218,-12.3334 l 2.62782,-2.8334 -3.5,0.5572 c -27.9248,4.4458 -45.37013,4.5234 -48.23469,0.2147 -2.65295,-3.9905 0.37914,-6.558 11.82449,-10.013 4.49952,-1.3583 7.26343,-2.6384 6.4102,-2.969 -0.825,-0.3196 -7.575,-2.1517 -15,-4.0712 -28.60362,-7.3946 -33,-9.1202 -33,-12.9526 0,-2.6982 2.83741,-3.5969 11.375,-3.6029 l 5.125,-0 -13.5,-7.42279 c -15.43116,-8.48466 -28.81177,-17.23172 -30.40878,-19.87858 -2.14122,-3.5488 1.18893,-4.43148 14.74832,-3.90913 16.63132,0.64069 17.771,-0.10068 9.37018,-6.09539 -3.56546,-2.54426 -11.59625,-7.91116 -17.84619,-11.92644 -28.31094,-18.18837 -33.6242,-22.33582 -32.46941,-25.34514 0.88268,-2.30025 4.61322,-1.41424 15.66427,3.7203 4.93413,2.29249 9.20229,3.93702 9.4848,3.65451 0.28251,-0.28251 -1.19301,-2.78502 -3.27894,-5.56113 -4.22529,-5.62332 -14.9396,-15.50817 -29.26425,-26.9987 -12.90889,-10.35488 -17,-14.3096 -17,-16.43325 0,-2.93882 3.90272,-2.16621 13.31309,2.63554 4.7778,2.43793 8.68691,4.17854 8.68691,3.86803 0,-0.78049 -2.71832,-5.22581 -14.78045,-24.17075 -11.90124,-18.69225 -15.62222,-25.63817 -14.83438,-27.69123 1.12775,-2.93887 4.86735,-1.36239 11.20554,4.72386 3.52969,3.38938 6.7282,5.85191 7.10781,5.47231 1.30551,-1.30551 -1.86911,-13.17944 -9.39366,-35.13482 -4.14691,-12.1 -7.7612,-23.4625 -8.03176,-25.25 -0.66063,-4.36466 1.70033,-4.34326 6.23059,0.0565 3.48666,3.3862 8.1901,6.35905 8.87845,5.6117 0.64636,-0.70175 2.61786,-37.73366 2.61786,-49.17275 0,-9.84517 0.1573,-10.74543 1.87755,-10.74543 2.87451,0 4.2904,2.40737 6.65861,11.32134 l 2.17287,8.17866 1.66919,-7.30166 c 0.91806,-4.01591 2.31689,-15.49091 3.1085,-25.5 1.50881,-19.07722 2.92183,-25.59941 7.51988,-34.71017 1.52995,-3.03151 5.35883,-12.93151 8.50861,-22 C 385.70054,647.43349 385.90659,647 388.40948,647 c 2.48518,0 2.31319,-0.86577 6.48245,32.63191 2.51298,20.19037 3.52956,32.47025 3.6011,43.5 0.14163,21.83608 0.48675,22.43108 5.79714,9.99449 4.13874,-9.69266 6.81355,-13.04146 9.22588,-11.55056 2.7162,1.6787 3.84382,8.03564 4.88633,27.54657 0.59884,11.20768 1.18015,21.02505 1.2918,21.81639 0.11164,0.79134 1.9865,-3.89095 4.16636,-10.40508 2.17985,-6.51413 4.73746,-12.78659 5.68358,-13.93879 1.53771,-1.87268 1.88374,-1.93444 3.26178,-0.58214 0.88733,0.87074 2.00252,4.90263 2.62765,9.5 1.08291,7.96403 6.95363,33.74157 8.7653,38.48721 0.81125,2.12508 1.06721,1.4502 1.7067,-4.5 1.10571,-10.2882 2.88947,-14.05056 6.08086,-12.82591 0.70094,0.26898 3.15075,6.18984 5.44402,13.15748 C 464.27795,810.63634 472.21378,830 473.8927,830 c 0.16599,0 0.23404,-4.8375 0.15122,-10.75 l -0.15057,-10.75 h 2.44064 c 3.62816,0 6.51864,6.55302 10.0628,22.81344 1.65594,7.59739 3.67361,15.09515 4.4837,16.6617 2.14504,4.14806 6.2863,7.02486 10.11253,7.02486 4.05286,0 5.40033,-2.07778 5.40033,-8.32727 0,-4.80459 2.00131,-6.74645 4.67021,-4.53146 0.77919,0.64667 5.85858,7.06693 11.28754,14.26725 15.11035,20.04057 21.81682,25.98785 24.76252,21.95935 1.88789,-2.58184 1.5723,-7.69097 -1.15552,-18.70714 -1.33939,-5.40905 -2.2046,-10.4357 -1.92268,-11.17036 1.45118,-3.78172 3.90533,-2.18624 18.23097,11.85222 14.28812,14.0017 20.06579,18.43128 22.26654,17.07115 1.72081,-1.06352 0.381,-6.32206 -4.55482,-17.87696 -4.87421,-11.41067 -5.5445,-14.95451 -3.01232,-15.9262 1.97157,-0.75656 3.80716,0.189 14.66293,7.55335 9.76496,6.62436 15.25204,9.24675 17.52378,8.375 1.28287,-0.49228 1.43553,-2.21312 0.95919,-10.8122 -0.31157,-5.6247 -1.31836,-13.76153 -2.23731,-18.08184 -2.39227,-11.24693 -1.13057,-11.89511 6.84559,-3.51686 5.29886,5.566 10.46564,9.72733 10.74885,8.65716 0.0415,-0.15685 0.41546,-5.98561 0.831,-12.95279 0.79327,-13.30045 2.02696,-17.05871 5.93517,-18.08073 3.28548,-0.85918 9.26199,2.70707 17.15836,10.23855 4.125,3.93438 8.82469,7.85275 10.44376,8.70748 2.84464,1.50173 3.01759,1.46146 5.13646,-1.19584 C 669.12352,817.29732 684.64945,784 682.92628,784 c -0.24744,0 -3.7839,5.07038 -7.8588,11.2675 -8.3383,12.68091 -10.1585,14.64814 -11.92183,12.8848 -1.25077,-1.25076 -1.20863,-1.50993 3.68306,-22.6523 1.39978,-6.05 2.80448,-13.25 3.12154,-16 0.68013,-5.89887 1.54686,-6.63729 -11.26596,9.59812 -14.55429,18.44208 -18.28763,21.63841 -19.78039,16.93515 -0.34332,-1.08171 -0.14864,-4.53936 0.43262,-7.68366 1.29374,-6.99851 1.38011,-15.51901 0.13532,-13.34961 -0.47338,0.825 -1.64422,5.1 -2.60186,9.5 -2.9584,13.59274 -5.49941,16.2045 -10.70296,11.00095 -2.29912,-2.29912 -2.54482,-3.43922 -3.07108,-14.25 -0.41328,-8.48988 -1.56145,-15.84765 -4.13731,-26.51304 -1.96091,-8.11915 -3.56528,-15.56774 -3.56528,-16.55243 0,-0.98468 -1.60475,-7.39174 -3.5661,-14.2379 -3.84616,-13.42515 -4.07785,-19.07729 -1.07648,-26.26058 3.42088,-8.18732 7.97028,-3.37372 13.05488,13.813 2.11529,7.15 4.45914,14.50855 5.20856,16.35233 l 1.36259,3.35232 7.25827,-0.6766 c 10.01091,-0.9332 17.90629,-3.17954 26.93266,-7.66268 14.1306,-7.01827 12.4753,-7.83052 -15.99771,-7.85005 -25.9527,-0.0178 -26.90343,-0.50576 -14.18401,-7.27991 16.00207,-8.52243 25.46665,-16.7881 30.4232,-26.56938 4.09832,-8.08763 3.65154,-8.53867 -4.69173,-4.73652 C 652.4301,679.93276 638.94083,685 637.30236,685 c -2.73853,0 -1.48729,-3.75153 4.02126,-12.05666 8.37958,-12.63373 13.82388,-24.0669 15.62848,-32.82021 0.83646,-4.05728 1.39043,-7.49381 1.23104,-7.63673 -0.15939,-0.14293 -7.06363,8.12666 -15.34277,18.37687 -8.27914,10.2502 -15.70414,18.63673 -16.5,18.63673 -1.2187,0 -1.39053,-2.60354 -1.08902,-16.5 0.25891,-11.93305 -0.11458,-19.76556 -1.34938,-28.2982 -2.65777,-18.36554 -2.89264,-18.61711 -4.78662,-5.1268 -2.73331,19.46859 -7.45929,41.28153 -13.37225,61.72011 -4.42535,15.29651 -5.66265,21.16057 -6.07985,28.81466 -0.62772,11.51647 -0.26585,12.80243 10.92934,38.83876 8.77009,20.39633 12.3211,32.87405 11.45659,40.25665 -1.32992,11.35695 -8.91789,14.1707 -13.51444,5.01139 -1.02582,-2.04411 -3.10817,-7.54157 -4.62744,-12.21657 -1.51927,-4.675 -3.15643,-8.9275 -3.63813,-9.45 -1.98745,-2.15577 -0.68177,8.84571 2.20403,18.57088 7.14094,24.06505 7.22125,24.87912 2.45441,24.87912 -3.76791,0 -9.95448,-6.18032 -15.85469,-15.83869 -3.38717,-5.54465 -5.29812,-7.87017 -5.52213,-6.72015 -0.7531,3.86617 1.15281,8.68713 6.78712,17.1679 3.24875,4.89002 6.19021,10.03351 6.53659,11.42998 1.537,6.19673 -4.41203,11.95044 -12.36312,11.95723 -9.9909,0.009 -16.09059,-8.35486 -16.10826,-22.0863 -0.0123,-9.58258 2.54872,-19.6639 8.80982,-34.67892 6.80513,-16.31968 7.21158,-17.70468 7.84468,-26.73105 0.57125,-8.14446 -0.53468,-15.36588 -2.22784,-14.54723 -1.40634,0.67997 -13.84104,31.66713 -18.87938,47.04723 -7.57129,23.11224 -7.94027,29.24388 -2.89251,48.06795 2.73435,10.1969 2.62304,14.37195 -0.40361,15.13984 -5.90818,1.49897 -14.44479,-5.65589 -19.56896,-16.40151 -1.75558,-3.68154 -3.4616,-6.71904 -3.79115,-6.75 -0.32955,-0.0309 -0.88198,4.24894 -1.22762,9.51088 -0.74118,11.28342 -2.13094,14.93284 -5.68668,14.93284 -3.96461,0 -6.02761,-5.47126 -6.4152,-17.01368 -0.17801,-5.30126 -0.71688,-10.02207 -1.19749,-10.49071 -0.48061,-0.46863 -5.19717,-1.32918 -10.48125,-1.91233 -21.10824,-2.32949 -32.00551,-8.54266 -35.87047,-20.45186 -3.10709,-9.57396 0.6714,-16.52556 12.63268,-23.24138 7.11213,-3.99319 8.62216,-5.50474 7.75547,-7.76329 -0.97636,-2.54435 -4.9625,-1.94394 -13.7844,2.07628 -12.36992,5.63708 -27.34852,5.92556 -33.62111,0.64752 -6.07093,-5.10835 -2.41663,-12.39228 7.94352,-15.83336 5.80346,-1.92761 19.37206,-3.47471 30.69094,-3.49942 6.26415,-0.0137 8.62422,-0.42092 10.24449,-1.76777 1.85511,-1.54205 1.95392,-2.04706 0.83152,-4.25 -2.20866,-4.33495 -6.10282,-5.5 -18.3837,-5.5 H 469.5564 l -10.06028,5.25 c -11.10661,5.79604 -14.70459,6.40232 -17.8035,3 -7.9896,-8.77185 -4.34637,-18.94238 8.52845,-23.8082 9.21498,-3.48265 24.03236,-6.9418 29.7354,-6.9418 6.56803,0 9.11893,0.951 17.68057,6.59143 6.15733,4.05647 12.75631,6.64564 12.75631,5.00506 0,-0.35944 -1.31937,-3.26718 -2.93194,-6.46165 C 501.63471,709.59221 495.86572,707 476.00409,707 c -13.46082,0 -22.79422,2.09614 -35.6007,7.99538 -11.28451,5.19814 -16.95442,6.06025 -19.97716,3.0375 -2.66551,-2.66551 -2.1715,-5.72606 1.79086,-11.09496 10.06172,-13.63339 27.26279,-20.83144 46.67626,-19.53239 11.22045,0.75081 25.28173,4.45223 34.44647,9.06752 3.85198,1.93982 7.23983,3.52695 7.52856,3.52695 1.61013,0 0.19029,-6.75 -2.03297,-9.66484 -5.32506,-6.98152 -17.42914,-10.54657 -35.94206,-10.58611 -20.44892,-0.0437 -36.1887,4.94957 -54.4738,17.28112 -15.06662,10.161 -17.46646,10.392 -18.51158,1.7818 -0.48746,-4.01588 -0.11895,-7.01992 1.51032,-12.31197 1.88659,-6.12785 2.98488,-7.81415 8.81508,-13.53449 10.5498,-10.35102 24.09356,-15.49694 43.84817,-16.66001 13.52281,-0.79616 22.16925,0.67911 42.31181,7.21934 24.64548,8.00232 27.90465,8.16525 20.75,1.03729 -8.68894,-8.6565 -43.31934,-16.77256 -64.25,-15.05777 -11.98199,0.98165 -26.79512,4.19892 -37.09505,8.0567 -5.04993,1.89142 -9.68193,3.43894 -10.29332,3.43894 -1.55299,0 -1.38685,-5.09716 0.29753,-9.12787 2.1076,-5.0435 4.99579,-8.28329 10.83266,-12.15142 8.34808,-5.53232 17.10004,-7.76088 33.10267,-8.42912 16.34597,-0.68257 22.88256,0.26698 40.65551,5.90596 6.875,2.18129 14.975,4.18399 18,4.45044 l 5.5,0.48446 -3,-2.58315 C 506.65982,635.90401 486.60145,630 478.45041,630 c -3.74168,0 -5.30499,-2.11918 -5.23627,-7.09817 0.0687,-4.97841 1.94879,-7.26651 7.81001,-9.50493 7.26173,-2.77328 13.80815,-1.4825 28.16984,5.55436 6.78976,3.32681 12.56604,6.04874 12.83617,6.04874 1.43576,0 -4.6707,-8.65079 -7.92689,-11.22974 -11.38816,-9.01959 -27.26924,-8.4167 -46.65689,1.77121 -3.81678,2.00567 -7.41513,3.35278 -7.99632,2.99358 -1.55256,-0.95953 -1.28683,-7.04756 0.49397,-11.31716 2.2578,-5.41326 7.12138,-10.06392 13.94932,-13.33866 7.93955,-3.80787 17.64512,-3.89755 34.59113,-0.31961 6.66764,1.40778 12.34262,2.33996 12.61108,2.0715 1.10833,-1.10833 -1.03666,-6.77763 -3.60428,-9.52628 -4.34824,-4.65481 -12.15828,-6.4452 -25.51474,-5.84906 -13.53205,0.60397 -19.2928,2.56272 -25.71708,8.74422 -4.00875,3.85726 -5.05136,5.73462 -7.29957,13.14389 -3.93018,12.95239 -8.74959,18.85944 -15.65897,19.19286 -3.29996,0.15924 -3.41727,0.0281 -4.77447,-5.33675 -3.74944,-14.82108 4.3253,-33.57275 18.10905,-42.05398 8.42135,-5.1817 15.02819,-7.00013 28.37866,-7.81075 12.29423,-0.74649 15.86394,-1.87926 19.09738,-6.06013 3.14122,-4.06162 2.03074,-4.37476 -13.46819,-3.79787 -21.49516,0.80008 -33.51023,4.85758 -45.01541,15.20172 -7.03258,6.3229 -10.5864,13.73404 -13.5873,28.33503 -1.39197,6.77271 -3.508,14.33251 -4.70228,16.79956 -5.01527,10.36018 -17.86884,19.4904 -27.64679,19.63821 -3.88817,0.0588 -5.01439,-0.38305 -7.07111,-2.77414 -2.06555,-2.40134 -2.37383,-3.59896 -1.9804,-7.69349 0.55717,-5.7985 2.68641,-8.38879 11.49918,-13.98912 6.86843,-4.36474 10.25411,-8.01029 10.25411,-11.04119 0,-1.73912 -0.45026,-1.89409 -3.75,-1.29065 -4.94755,0.90478 -11.25963,4.6448 -14.96874,8.86924 -1.6623,1.89326 -4.89188,8.34289 -7.26386,14.50625 C 382.24974,633.65073 376.81437,642 373.93674,642 c -2.93395,0 -5.86922,-11.89755 -5.32851,-21.59811 0.60582,-10.8689 3.58383,-18.08201 10.30944,-24.9708 7.98884,-8.18267 16.16385,-11.67996 28.9419,-12.38142 8.2468,-0.45272 10.06848,-0.84146 10.32821,-2.204 0.50083,-2.62725 -5.82732,-4.14723 -15.21492,-3.65451 -18.66866,0.97986 -33.34549,13.43649 -39.08223,33.17018 -2.07659,7.14324 -2.12894,21.79487 -0.10758,30.11242 0.79847,3.28556 1.23587,6.32306 0.97201,6.75 -0.78074,1.26326 -5.24561,0.88764 -8.31483,-0.69951 -1.56959,-0.81167 -3.75643,-2.94917 -4.85965,-4.75 -2.779,-4.53631 -5.9995,-16.09158 -6.4866,-23.27425 -0.44539,-6.56755 2.18717,-21.51614 4.82238,-27.38312 4.02795,-8.96773 5.39348,-10.97577 12.02331,-17.68044 7.57226,-7.65773 17.11833,-13.20413 27.45368,-15.95096 7.27686,-1.93398 21.39035,-1.87551 30.18615,0.12505 11.14015,2.53378 17.09478,1.66159 25.91377,-3.79563 4.07004,-2.51856 9.20008,-5.48032 11.40008,-6.58168 6.35709,-3.18249 19.60398,-7.03971 26.58552,-7.74116 16.38055,-1.64579 15.62885,-6.3033 -1.17193,-7.26124 -11.7372,-0.66922 -19.90134,1.43064 -32.38872,8.33056 -10.62266,5.86957 -19.35137,9.10292 -21.91667,8.11852 -1.19956,-0.46031 -1.6082,-1.9729 -1.6082,-5.95273 0,-17.35842 25.79114,-30.16368 56.6647,-28.13393 10.07933,0.66266 10.18714,0.64583 12.83752,-2.00455 2.06036,-2.06036 2.41589,-2.98242 1.55155,-4.0239 -1.88577,-2.2722 -13.52951,-3.89304 -23.43944,-3.26283 -20.4197,1.29857 -36.59026,9.88705 -50.36719,26.75093 -5.64973,6.91565 -9.84086,9.70073 -12.85665,8.54346 -1.38944,-0.53317 -1.57329,-1.83441 -1.18169,-8.36388 0.58214,-9.70647 3.83349,-16.49438 11.47348,-23.95339 9.93743,-9.70204 20.67085,-13.60467 47.60799,-17.31006 14.96617,-2.0587 19.70973,-3.61187 19.70973,-6.45353 0,-3.6019 -18.77268,-4.92478 -29.70096,-2.09298 -21.74622,5.63502 -45.79649,20.88883 -52.57696,33.34679 -1.4958,2.74827 -3.43276,8.75615 -4.30436,13.35084 -2.583,13.61648 -5.21732,16.26961 -17.72934,17.85598 -4.09724,0.51948 -9.41577,1.71609 -11.81896,2.65913 -11.32545,4.44425 -22.5878,15.20891 -27.5674,26.34917 -3.68095,8.23496 -5.19634,16.86191 -5.88728,33.51558 -1.05473,25.42225 1.25375,32.54147 15.30115,47.1879 8.44096,8.80091 13.25584,16.54508 13.27434,21.35021 0.0145,3.75781 -4.12452,11.27389 -6.99023,12.69375 -3.84364,1.90438 -9.69497,1.57318 -11.94423,-0.67608 -1.06932,-1.06932 -2.19556,-3.65682 -2.50275,-5.75 -1.44799,-9.8664 -2.6372,-14.7853 -4.12262,-17.05233 -2.81235,-4.2922 -3.9304,-1.27024 -3.9304,10.62341 0,10.05597 0.18138,11.04656 2.72673,14.89127 2.10367,3.17755 4.45319,4.93795 10.2822,7.70406 10.08153,4.7841 13.90447,10.84502 10.11196,16.03159 -1.86131,2.54549 -12.72894,3.31524 -17.65682,1.25063 -8.00019,-3.35181 -13.14797,-10.12943 -14.4898,-19.07742 -0.39392,-2.62684 -1.41883,-5.47868 -2.27757,-6.33743 -1.41514,-1.41513 -1.68475,-1.3926 -2.87903,0.24068 -1.84538,2.52371 -1.65137,11.8695 0.32633,15.71942 0.90421,1.76019 3.90293,5.67534 6.66384,8.70034 2.76091,3.025 6.17675,7.975 7.59074,11 2.31295,4.94814 2.57086,6.70407 2.57044,17.5 -5.3e-4,13.33599 -1.32481,18.04895 -5.91697,21.05786 -3.80899,2.49574 -8.50232,0.94991 -10.86934,-3.58001 -2.40032,-4.59364 -1.81921,-18.13312 1.10425,-25.72785 1.98702,-5.16202 1.98846,-5.25 0.0856,-5.25 -1.06442,0 -2.21942,0.7875 -2.56665,1.75 -2.44781,6.78503 -6.5638,8.71936 -12.27226,5.7674 -5.42901,-2.80745 -6.20411,-10.71081 -1.99188,-20.31025 1.03603,-2.36107 2.17555,-5.84857 2.53226,-7.75 0.63893,-3.40579 0.59678,-3.45715 -2.83772,-3.45715 -1.91746,0 -4.89254,-0.28125 -6.61129,-0.625 -2.96377,-0.59275 -3.12387,-0.86362 -3.10304,-5.25 0.0468,-9.86324 6.15177,-17.68863 16.48141,-21.12612 6.86093,-2.28317 10.11596,-5.44025 6.88667,-6.67944 -1.75139,-0.67208 -5.03569,0.13248 -14.22577,3.48488 -9.57226,3.49182 -16.16427,0.12034 -16.16427,-8.26722 0,-9.63116 6.93615,-14.53892 22.02695,-15.58546 12.98556,-0.90054 16.72757,-3.14885 12.14431,-7.29665 -2.83444,-2.56512 -8.87758,-2.03011 -16.17126,1.43168 -8.64868,4.10491 -14.43229,4.27466 -17.66327,0.51842 -2.9914,-3.47771 -3.12775,-9.79541 -0.3111,-14.41526 3.09423,-5.07514 7.70644,-6.60486 20.37873,-6.75895 11.99634,-0.14588 13.59564,-0.92026 13.59564,-6.58305 0,-7.13724 -9.12598,-9.05129 -18.34601,-3.84783 -6.31843,3.56591 -12.23043,3.97332 -15.79321,1.08836 -2.04172,-1.65329 -2.36078,-2.78788 -2.36078,-8.39502 0,-5.07748 0.43317,-6.96202 1.99764,-8.69073 4.06341,-4.49002 7.34807,-5.39621 21.7555,-6.00202 11.18023,-0.47011 14.07677,-0.90192 15.48305,-2.30821 1.33545,-1.33545 1.48215,-2.12466 0.64335,-3.46114 -1.51837,-2.41925 -9.64644,-2.6905 -23.34971,-0.77922 -14.16343,1.97545 -16.31748,1.9454 -19.04821,-0.26581 l -2.23995,-1.8138 2.00607,-4.4362 c 2.54098,-5.61912 8.20659,-11.02669 15.25226,-14.55761 4.76734,-2.38914 7.09852,-2.83571 17.5,-3.35242 12.34311,-0.61315 16.48615,-1.94176 17.9499,-5.75622 0.855,-2.22811 -0.88453,-3.05022 -8.08586,-3.82142 -7.5778,-0.81151 -16.39052,0.13453 -24.64893,2.64606 -10.56676,3.21354 -13.53103,2.06815 -12.25472,-4.73518 0.883,-4.70678 9.93361,-14.36234 16.37513,-17.46965 6.41778,-3.09586 19.12015,-3.06808 32.06881,0.0701 7.0615,1.71141 11.29659,2.16694 17,1.82851 7.84518,-0.4655 14.54654,-2.93577 13.82625,-5.09664 -0.21833,-0.65501 -2.60954,-2.0526 -5.31378,-3.10575 -6.32534,-2.46338 -35.8529,-3.43821 -48.58004,-1.60384 -16.15121,2.32789 -17.34907,2.36267 -19.15552,0.55622 -2.46477,-2.46477 -2.06327,-5.71094 1.27659,-10.32148 6.23946,-8.61332 17.42436,-12.62525 35.04217,-12.56934 13.69842,0.0435 21.17069,1.64885 36.63798,7.87151 7.72977,3.10976 12.58752,4.48092 15.875,4.48092 h 4.73702 l -0.6333,-3.16648 c -1.32527,-6.62636 -8.9368,-13.24412 -18.1167,-15.75136 -11.63109,-3.17672 -33.28754,-3.32908 -59.24795,-0.41681 l -5.24795,0.58872 -1.55876,-3.73062 c -2.65639,-6.35765 0.33427,-14.63684 6.80213,-18.83068 5.91371,-3.83452 13.40583,-5.05868 26.06907,-4.25952 13.60879,0.85883 22.46828,3.11773 36.94007,9.41857 19.06537,8.30083 27.70578,10.0572 31.0884,6.31944 9.54532,-10.54746 -21.43207,-23.07359 -61.34501,-24.8057 -15.99898,-0.6943 -20.49068,-1.89572 -22.008,-5.88659 -2.25237,-5.92417 2.19296,-11.25965 11.8245,-14.19229 8.9781,-2.73368 32.78238,-2.38809 45.15909,0.65562 13.84706,3.40531 25.09861,8.47471 37.49733,16.8945 14.01016,9.51408 16.15513,10.37166 25.99952,10.39479 17.19622,0.0404 30.52756,-6.71797 30.52756,-15.47608 0,-5.06131 -4.78759,-4.86677 -22.34889,0.90816 -12.85546,4.22744 -19.90697,4.3235 -24.1588,0.32911 -5.8257,-5.47295 -1.47227,-13.42782 9.5732,-17.49278 4.55643,-1.67685 7.91265,-2 20.77241,-2 14.98586,0 15.38257,-0.0551 17.28287,-2.40138 2.52996,-3.12367 2.09793,-4.18484 -2.67525,-6.57115 -3.13125,-1.56543 -6.00937,-1.97503 -13.94554,-1.98469 -11.65648,-0.0142 -14.15534,0.68643 -29.23083,8.19547 -15.57924,7.75995 -25.28089,8.48548 -25.2636,1.88931 0.0211,-8.05191 7.21425,-17.67036 16.28066,-21.77 4.91633,-2.22306 6.35472,-2.35811 25.21377,-2.36719 21.16529,-0.0102 23.73759,-0.51288 25.13372,-4.9117 1.92137,-6.05368 -16.98839,-8.66812 -33.22376,-4.59347 -5.28091,1.32537 -14.88978,5.4794 -28.90996,12.49812 -26.25025,13.14129 -33.0115,15.54943 -45.60154,16.24177 -13.94422,0.76682 -20.79464,-2.06784 -22.83237,-9.4479 -1.32986,-4.81635 1.32038,-10.9447 6.41284,-14.82892 4.86697,-3.71222 12.37805,-4.30686 24.5465,-1.94333 14.11777,2.74217 23.89839,0.65561 24.78525,-5.2876 0.61524,-4.12295 -2.50564,-4.46102 -21.02727,-2.2778 -18.45995,2.17596 -19.21544,2.05364 -17.79995,-2.88188 1.40368,-4.89435 3.84484,-8.66982 8.07939,-12.49548 6.22332,-5.62239 12.13635,-7.92919 20.43715,-7.97295 7.3591,-0.0388 10.18909,1.06109 21.5,8.356 2.475,1.59624 5.7375,3.21035 7.25,3.58692 2.59262,0.64549 2.74874,0.49248 2.72803,-2.67374 -0.0789,-12.06537 -11.8788,-20.37137 -27.97803,-19.69385 l -7.5,0.31563 -0.30286,-4.1451 c -0.25252,-3.45612 0.21825,-4.7386 2.83227,-7.7158 3.8673,-4.40462 7.9442,-5.60649 19.04245,-5.61371 15.11074,-0.01 22.50175,4.29451 25.48828,14.84372 5.15328,18.20278 15.33654,26.87533 25.42881,21.65642 3.50031,-1.81008 6.01105,-5.19226 6.01105,-8.09738 0,-2.58582 -3.54974,-3.38066 -15.17245,-3.39733 l -7.67245,-0.011 -1.1268,-3.41424 c -1.43189,-4.33865 0.3506,-9.0439 4.86516,-12.84266 3.76671,-3.16947 8.45583,-4.21772 14.68712,-3.28328 4.388,0.65802 4.52393,0.60398 3.46368,-1.37711 C 459.02197,347.43756 454.30499,345 450.60194,345 c -1.5899,0 -5.09975,0.67013 -7.79966,1.48918 -10.72319,3.25299 -17.94562,0.84974 -15.83615,-5.26946 1.17374,-3.40481 5.91851,-5.79538 15.57115,-7.84523 11.30121,-2.39996 19.03079,-1.26828 30.10607,4.40781 0.4125,0.2114 0.75,-0.32813 0.75,-1.19896 0,-0.89004 0.83367,-1.58334 1.90393,-1.58334 1.797,0 12.95752,5.81452 16.0006,8.33615 1.65383,1.37044 -1.02189,-4.19924 -4.16187,-8.66319 -2.79169,-3.9688 -1.11229,-5.54991 4.00799,-3.77341 5.95592,2.06644 22.9439,11.91506 28.84945,16.72519 2.96994,2.41905 5.3999,4.17981 5.3999,3.9128 0,-0.26701 -1.37221,-3.93979 -3.04934,-8.16174 -1.67714,-4.22194 -2.79795,-8.33139 -2.49068,-9.1321 0.68044,-1.77321 3.66361,-1.15363 10.63256,2.2083 2.6991,1.30209 4.90746,2.23018 4.90746,2.06243 0,-0.16776 -1.39727,-3.61463 -3.10504,-7.65972 -3.61135,-8.55397 -6.57749,-12.91575 -12.28376,-18.06353 -3.98732,-3.59706 -14.34933,-9.38638 -15.22783,-8.50788 -0.23883,0.23883 2.06943,2.36581 5.12948,4.72662 6.7962,5.24323 10.48715,9.50119 10.48715,12.09819 0,3.40027 -2.84971,3.27485 -8.33446,-0.36683 C 506.70019,317.18331 499.00527,313 497.8193,313 c -0.35955,0 2.08548,2.63902 5.43339,5.86449 6.38067,6.14731 8.99501,10.68116 7.19625,12.47992 -0.69164,0.69164 -4.15514,-0.47304 -10.78716,-3.62743 C 491.0751,323.6329 474.84193,317 473.43333,317 c -0.2781,0 1.84914,2.0599 4.72719,4.57755 5.03578,4.40517 6.27124,6.66265 4.30975,7.87491 -0.50769,0.31377 -6.47019,-0.33458 -13.25,-1.44079 -15.57512,-2.54125 -26.01747,-2.54443 -38.32692,-0.0117 -10.81769,2.22583 -23.42134,2.60126 -28.60078,0.85194 -5.15289,-1.74034 -9.77412,-5.47905 -18.7111,-15.13777 -9.29621,-10.04697 -11.57522,-14.94825 -8.87026,-19.07654 1.01077,-1.54263 7.32688,-5.26923 17.0185,-10.04118 12.48474,-6.14722 16.72785,-8.80715 22.34483,-14.00762 7.16669,-6.63526 7.52904,-7.22595 18.1506,-29.58883 5.69293,-11.98603 8.59519,-15.19016 19.78781,-21.84597 4.56942,-2.71726 8.81559,-6.11055 10.20347,-8.15403 2.57027,-3.78438 2.5719,-3.87524 0.56949,-31.66671 -0.92583,-12.8496 2.48468,-37.60352 5.61259,-40.73687 2.47581,-2.48012 17.22128,6.21869 23.0579,13.60257 l 3.84797,4.86805 0.29449,-7.27291 c 0.37539,-9.27092 1.7669,-9.72648 8.65866,-2.83472 6.34808,6.34808 9.08079,11.00268 14.77146,25.16004 9.72876,24.20341 12.62366,28.23908 29.27781,40.8152 20.7048,15.63488 29.42618,27.14047 48.56232,64.06535 6.41329,12.375 12.6083,23.5125 13.76669,24.75 3.79589,4.05511 5.75755,2.47577 5.75755,-4.63544 0,-5.08392 -4.04982,-12.79734 -10.53514,-20.06557 -8.38579,-9.39813 -13.27875,-16.27002 -14.94274,-20.98628 -1.73177,-4.90835 -2.02171,-12.63591 -0.50919,-13.5707 0.55711,-0.34431 3.54336,0.32073 6.63611,1.47787 16.60577,6.21302 28.45233,20.0876 31.99837,37.4762 1.94931,9.55876 1.2465,17.30856 -2.56895,28.32732 -1.77156,5.11614 -2.47314,8.55515 -1.91722,9.39773 2.5369,3.84506 7.75327,-11.5341 8.55026,-25.20833 0.99148,-17.01107 -4.30027,-34.23569 -14.66458,-47.73308 -5.61531,-7.3128 -5.42336,-8.59423 1.20308,-8.03167 6.80366,0.5776 12.20211,3.2138 17.57981,8.58465 6.30944,6.30141 8.64653,11.96587 12.87991,31.2173 l 0.54974,2.5 0.90555,-3 c 1.27017,-4.20795 0.39011,-8.86189 -3.6578,-19.34326 -4.41709,-11.43731 -4.79998,-18.61059 -1.08374,-20.30382 4.20991,-1.91816 9.29065,-0.23024 12.45479,4.13773 4.64724,6.41533 8.38047,19.07562 8.89733,30.173 0.40498,8.69533 0.20319,10.20294 -2.01387,15.04564 -3.36391,7.34775 -7.9882,12.32988 -13.34207,14.37455 -4.87392,1.86137 -5.15774,3.1276 -1.20111,5.3587 2.33255,1.31529 2.98618,1.22228 7.41059,-1.05461 9.22466,-4.74717 15.56068,-16.70849 15.56707,-29.38793 0.003,-5.25167 -0.77069,-9.22537 -3.09634,-15.91004 -3.54336,-10.18479 -4.00957,-17.26311 -1.34986,-20.49462 l 1.75,-2.12623 4.24792,2.11892 c 5.6425,2.81456 9.90711,8.41396 13.09862,17.19839 2.37134,6.52697 2.62235,8.59374 2.63713,21.71358 0.0146,13.00521 -0.23743,15.16902 -2.44522,20.98966 -3.24098,8.54453 -10.36691,15.95814 -18.05161,18.78034 -3.03224,1.11359 -9.78224,2.53995 -15,3.16969 -10.40105,1.25532 -16.3219,3.63948 -16.78773,6.75994 -0.47087,3.1542 4.50744,4.70779 12.65817,3.95026 27.11744,-2.5203 47.14272,-23.45007 47.14272,-49.27202 0,-7.42854 -2.04853,-18.6468 -5.6243,-30.80009 -2.51703,-8.55488 -2.55036,-8.9769 -0.80928,-10.25 2.63511,-1.92685 8.4403,-1.62106 12.14846,0.63991 6.69637,4.08297 11.30076,19.56726 11.26775,37.89278 -0.0235,13.02968 -2.05058,21.90603 -7.46399,32.68349 -9.64853,19.2091 -25.07127,29.74233 -47.29337,32.29987 -8.68968,1.00009 -11.22527,2.18723 -11.22527,5.25557 0,3.81327 4.62913,5.40682 15.4583,5.32139 17.05208,-0.13452 30.18981,-6.07568 44.05098,-19.92079 19.77216,-19.74924 23.43907,-43.07176 12.0206,-76.45435 -3.15063,-9.21106 -2.39985,-10.54565 5.9325,-10.54565 6.66566,0 10.02117,2.25007 13.37006,8.9654 2.00259,4.0157 2.47682,6.80294 2.92563,17.19532 0.2946,6.82152 0.92899,12.64588 1.40974,12.943 0.48075,0.29712 1.58714,-1.16632 2.45863,-3.25209 1.38545,-3.31585 1.43074,-5.11526 0.36048,-14.32197 -1.49327,-12.84557 -1.18477,-16.37999 1.47382,-16.88502 5.30345,-1.00743 12.89141,7.35239 14.12199,15.55852 0.36523,2.43553 0.3902,8.11117 0.0555,12.61254 l -0.60856,8.1843 2.94154,-9.5 c 1.61784,-5.225 3.42852,-11.4125 4.02371,-13.75 1.4584,-5.72755 3.65623,-5.5441 9.34194,0.77976 5.9676,6.63741 8.05592,12.94827 7.44334,22.49357 -0.54171,8.44111 -3.48296,14.43625 -9.5292,19.42336 -7.29275,6.01526 -19.2851,8.6247 -28.06489,6.10669 -4.19292,-1.20252 -6.1861,-0.4359 -6.1861,2.3793 0,7.51806 16.68188,11.25694 27.58125,6.18174 10.19009,-4.74493 13.38387,-10.04273 18.36279,-30.45995 C 791.75473,284.24159 795.92052,276 798.51373,276 c 2.79192,0 4.30374,6.97227 4.33668,20 0.0313,12.37796 -1.32568,18.28719 -6.20017,27 -10.39797,18.58568 -32.04581,25.83607 -50.75689,16.99973 -7.95225,-3.75546 -12.15297,-4.19481 -14.13896,-1.4788 -1.8392,2.51525 -0.003,5.32051 5.21714,7.96894 3.36704,1.70838 5.90224,1.98721 17.92182,1.97104 12.8052,-0.0172 14.64007,-0.25549 21.5,-2.79181 11.03382,-4.07953 12.10488,-4.24614 13.65632,-2.12443 3.06249,4.18822 0.78477,11.49164 -4.94746,15.86383 -6.86362,5.23513 -14.43663,7.85596 -24.17157,8.36516 -11.62745,0.60819 -17.35224,-0.65195 -29.36826,-6.46453 -13.29566,-6.43158 -17.64638,-6.72135 -25.66903,-1.70963 -13.78357,8.61054 -13.85442,8.6325 -25.52642,7.91131 -9.78189,-0.60439 -10.71904,-0.49887 -13.25,1.49198 -5.04932,3.9718 -2.31752,10.23236 5.0696,11.61819 7.79246,1.46188 28.41965,-5.82089 40.41955,-14.27078 7.19256,-5.06473 8.78727,-4.61822 8.78727,2.46037 0,9.43272 -6.60769,14.99191 -22.15189,18.63687 -12.81041,3.00391 -15.89108,4.39581 -17.85625,8.06777 -1.28856,2.40769 -1.25728,2.81755 0.30203,3.95774 3.02476,2.21176 14.51575,2.75492 21.20611,1.00237 8.22763,-2.15524 11.83082,-4.84 17.04868,-12.70304 C 724.76255,380.50801 728.31304,378 733.7763,378 c 2.65237,0 3.64013,0.49737 4.14464,2.08694 1.69744,5.34815 -3.19774,16.57546 -9.84566,22.58145 -5.03243,4.5465 -12.35982,7.88666 -23.13854,10.5476 -7.49379,1.85 -8.54339,2.37917 -8.54339,4.30727 0,1.89106 0.6959,2.28058 4.98111,2.7881 21.03545,2.49134 40.45645,-12.67311 44.20304,-34.51494 C 746.90935,378.03203 750.63265,374 756.47071,374 c 7.23113,0 11.76018,6.82604 10.53299,15.87497 -0.97333,7.17709 -5.28461,19.14926 -8.87478,24.64479 -5.70456,8.73205 -11.82145,11.75244 -29.37375,14.50416 -6.78539,1.06376 -11.36182,3.50579 -11.36182,6.06279 0,2.14838 5.37015,5.84592 9.34533,6.43458 9.61166,1.42333 21.98415,-3.91164 30.71381,-13.24367 6.24284,-6.67361 13.13432,-19.40168 16.56544,-30.59517 1.89018,-6.16638 5.69171,-10.96076 8.29363,-10.45968 0.86161,0.16593 2.18606,1.59424 2.94323,3.17402 1.98996,4.15191 2.64728,18.28298 1.14973,24.71686 -3.66649,15.75219 -17.28071,29.71204 -33.02792,33.8664 -8.84118,2.33244 -11.53937,6.29901 -6.52135,9.58695 6.64721,4.35542 17.27164,2.17535 25.51413,-5.23536 5.28673,-4.75322 9.5197,-11.66276 15.06565,-24.59189 C 791.30427,419.7195 793.51004,417 796.95705,417 c 3.26686,0 4.4363,3.15695 4.4363,11.97601 0,17.15499 -9.86659,32.69295 -25.5,40.15755 -3.3,1.57568 -6.51436,2.86522 -7.14302,2.86565 -1.0942,7.6e-4 -2.35698,2.17428 -2.35698,4.0569 0,1.40617 5.6144,3.94489 8.70034,3.93412 4.20928,-0.0147 12.64666,-4.33122 16.91667,-8.65451 2.08364,-2.10964 6.73472,-9.46072 10.33571,-16.33572 5.4813,-10.46484 6.95445,-12.5476 9.04818,-12.79238 11.86011,-1.38659 8.57602,25.63173 -4.59077,37.76845 -2.5245,2.32701 -7.47453,5.53883 -11.00007,7.13738 -6.80328,3.08476 -8.34126,5.78264 -4.47581,7.85137 7.71266,4.12769 19.76817,-3.59135 26.49544,-16.96482 4.2076,-8.36449 5.74977,-14.74715 5.72647,-23.70045 -0.0234,-8.97062 -2.25901,-14.37612 -8.91299,-21.55031 -8.28566,-8.93344 -9.24317,-10.56737 -9.24317,-15.7728 0,-4.58498 0.11706,-4.77581 3.29525,-5.37205 5.85832,-1.09902 13.38105,1.93828 19.14122,7.72827 20.23113,20.33586 14.80768,61.48037 -10.53614,79.93144 -11.51344,8.38214 -12.02364,8.86628 -11.70408,11.10648 0.77736,5.44963 14.43869,1.55476 23.46939,-6.69118 12.50778,-11.42085 18.11023,-25.86036 19.86541,-51.20023 1.291,-18.63844 -2.182,-31.28274 -10.6946,-38.9363 -5.46633,-4.9147 -12.81202,-7.75314 -24.54528,-9.48449 -9.40887,-1.38837 -11.84332,-2.59483 -13.87489,-6.87604 -1.92633,-4.05945 -1.12534,-6.24557 2.67836,-7.30991 4.29134,-1.2008 19.26985,-0.88477 24.53696,0.5177 12.72669,3.38872 26.36504,13.99089 31.3684,24.38514 3.03557,6.30626 4.48838,6.7012 3.58558,0.97473 -1.46082,-9.26606 -14.23859,-25.01702 -24.51294,-30.21672 -7.39002,-3.73999 -17.27605,-4.36691 -32.52144,-2.06233 -12.86279,1.9444 -17.25206,1.56855 -20.27634,-1.73626 -4.99084,-5.45379 -3.35827,-10.46886 4.55948,-14.0062 3.52883,-1.57654 7.39122,-2.19296 15.85172,-2.52985 13.98532,-0.55688 21.96324,1.17258 35.81394,7.76378 10.63898,5.06283 17.3213,7.54961 18.12558,6.74533 1.02485,-1.02485 -2.86871,-8.35704 -6.31701,-11.89595 -1.97658,-2.02851 -5.89211,-4.72851 -8.70118,-6 -4.69065,-2.12316 -6.49454,-2.3126 -22.10739,-2.32167 -14.42351,-0.008 -17.49927,-0.28097 -20.29423,-1.79855 -4.42515,-2.40274 -7.19744,-7.20424 -7.20204,-12.47369 -0.005,-5.45685 1.76006,-9.62711 7.44643,-17.59584 6.77387,-9.49274 7.54984,-12.5273 7.54984,-29.52527 0,-17.59051 0.7884,-19.65675 7.17357,-18.80032 11.144,1.49472 18.49244,15.88268 15.79976,30.93531 -1.61066,9.00389 -5.62489,17.26247 -12.22009,25.14073 -3.16428,3.77987 -5.75324,7.46685 -5.75324,8.19329 0,2.01437 4.08209,4.43466 7.4725,4.43048 3.75881,-0.005 8.8387,-3.01592 11.22316,-6.65291 1.47927,-2.2563 1.90237,-5.64289 2.34848,-18.79774 0.61531,-18.14399 2.08861,-23.21872 7.25862,-25.00204 3.76469,-1.29857 5.65091,-0.0176 8.58554,5.8306 4.28316,8.53562 3.85657,24.07702 -1.01907,37.12582 -1.02752,2.75 -1.86845,5.3375 -1.86873,5.75 -0.001,1.4828 3.66517,0.71013 5.7218,-1.20591 2.59352,-2.41623 2.99528,-4.47204 3.81945,-19.54409 0.70197,-12.83717 1.73316,-15.5 6.00245,-15.5 1.22883,0 3.19553,0.7875 4.37045,1.75 4.92493,4.03453 4.70762,23.33255 -0.43332,38.47999 -2.98988,8.8095 -2.98801,8.77001 -0.41559,8.77001 5.81527,0 8.88348,-4.98242 9.05257,-14.70034 0.17484,-10.04804 0.93861,-12.59567 4.11057,-13.71119 6.66378,-2.34352 12.05713,5.7752 12.16902,18.31828 0.11376,12.75146 -0.62763,14.63043 -8.98638,22.77499 -5.38719,5.24916 -7.41152,7.91765 -7.41152,9.76994 0,3.14819 2.64281,3.35634 8.5,0.66948 8.60751,-3.94851 12.39827,-9.97485 13.09303,-20.81455 0.56522,-8.81882 1.37548,-10.72184 5.4656,-12.83693 2.52808,-1.30732 3.42544,-1.3468 5.71125,-0.25124 4.01148,1.92266 5.35334,5.72524 5.37988,15.24555 0.0412,14.76497 -4.16423,23.99194 -13.14976,28.85177 -3.4693,1.87637 -6.67594,2.58048 -14,3.07407 -12.47137,0.8405 -14,1.29427 -14,4.15591 0,1.99936 0.74853,2.46786 5.52835,3.46015 6.7526,1.40184 13.51442,0.1842 20.70243,-3.72801 6.03159,-3.2828 10.24287,-8.43492 12.67658,-15.50863 2.99244,-8.69768 5.96483,-13.72092 9.33,-15.7674 4.00671,-2.43663 5.28396,-1.46106 6.69378,5.11267 1.59649,7.4442 1.30448,13.24913 -1.01245,20.12685 -3.3826,10.0411 -9.29099,16.73628 -18.91869,21.43803 -4.68415,2.28753 -7.23593,2.77011 -17.2026,3.25328 -12.52768,0.60732 -14.43941,1.37323 -13.4333,5.38188 1.70343,6.78702 19.28351,7.42627 31.6359,1.15036 6.97705,-3.54485 10.28981,-7.85249 17.53767,-22.80451 7.44081,-15.35005 10.23006,-18.33454 15.43829,-16.51894 1.5116,0.52695 3.26039,2.08186 3.8862,3.45536 1.55264,3.40767 1.43116,12.11066 -0.24687,17.68633 -3.50353,11.64135 -19.66731,29.72187 -30.04078,33.60308 -8.68357,3.24894 -15.12419,3.59808 -29.62968,1.60619 -19.56756,-2.68701 -24.12723,-0.59516 -26.08283,11.96607 -1.31777,8.46428 -0.51692,12.88118 2.81004,15.49817 4.04575,3.18239 5.3248,2.65483 5.34992,-2.20667 0.0485,-9.3886 7.06124,-17.81125 16.41761,-19.7184 6.95019,-1.41669 10.78272,-0.23888 11.90008,3.6571 1.36981,4.77625 -1.53405,9.6897 -8.53731,14.44553 -6.13587,4.16679 -8.52899,7.52977 -7.41817,10.42454 0.53073,1.38304 1.64084,1.60389 6.17293,1.22806 7.59954,-0.63022 10.17458,-2.85369 15.4429,-13.3345 C 907.24542,453.79958 911.25587,450 916.59226,450 c 2.36753,0 3.17046,0.6398 4.35211,3.46789 4.45139,10.65367 -2.02664,25.13426 -14.19562,31.73201 -6.3734,3.45552 -15.6596,5.78579 -25.71837,6.45375 -7.42073,0.49278 -8.55984,0.31173 -12.93995,-2.05665 -2.6416,-1.42835 -5.43827,-2.597 -6.21481,-2.597 -2.15354,0 -3.62352,3.50041 -2.59718,6.18453 1.49238,3.90292 4.52115,5.79492 11.71721,7.31944 9.56687,2.02678 18.02824,1.85395 25.73241,-0.52563 5.51488,-1.70337 7.77499,-3.17616 14.35534,-9.35455 C 919.55257,482.67194 923.8025,480 927.98137,480 c 2.68275,0 2.68619,0.01 2.01259,5.7411 -0.94775,8.06385 -4.59818,15.35643 -11.09798,22.17079 -12.10069,12.68631 -24.8094,14.61501 -51.20176,7.77048 -18.02489,-4.67453 -27.3055,-4.97934 -34.99147,-1.14926 -6.18778,3.0835 -10.53234,8.85852 -10.69533,14.21679 -0.10345,3.40091 0.11139,3.7251 2.30727,3.48154 1.33173,-0.14772 5.15673,-1.97463 8.5,-4.0598 13.13524,-8.19239 22.6441,-10.2678 27.9438,-6.09906 2.03144,1.59794 2.63486,2.9544 2.63486,5.92308 0,6.10151 -3.79685,9.1147 -15.66682,12.43325 -23.04363,6.44242 -23.33318,6.55651 -23.33318,9.19325 0,3.21333 3.21773,4.37784 12.09664,4.37784 16.32651,0 30.78235,-8.9949 38.36165,-23.8699 1.61622,-3.17197 1.95585,-3.33789 5.78197,-2.8247 14.34373,1.9239 12.11936,22.84701 -3.56697,33.55213 -5.15816,3.52018 -15.22209,6.88825 -23.17329,7.75533 -8.459,0.92247 -9.19408,1.47448 -6.33971,4.76086 3.30861,3.80935 7.92424,4.25232 17.94599,1.72231 19.47834,-4.91734 26.57863,-11.419 32.5036,-29.76318 5.02392,-15.55447 9.31215,-21.05049 14.32943,-18.36533 3.18712,1.7057 4.06069,4.36498 4.06069,12.36141 0,9.33404 -2.6817,18.33161 -7.82171,26.2432 -7.86827,12.11098 -18.65453,18.99848 -36.67829,23.4207 -4.95,1.21451 -9.36752,2.55298 -9.8167,2.97438 -0.44918,0.4214 0.30198,2.06367 1.66924,3.64949 2.28766,2.65333 2.99235,2.87153 8.83522,2.73574 7.07269,-0.16437 18.52941,-3.62824 26.15142,-7.90672 12.38141,-6.95009 22.14523,-20.09435 24.71712,-33.2747 1.19422,-6.12007 0.91265,-20.64248 -0.6335,-32.6743 -0.5293,-4.11889 -0.29274,-5.43577 1.33828,-7.45 2.96526,-3.66194 8.72401,-3.41818 11.88966,0.50328 3.35958,4.16168 5.42412,11.5326 6.06853,21.66611 1.23016,19.34462 -6.00525,38.02639 -20.24101,52.26215 -9.15451,9.15451 -17.51972,13.92297 -36.80223,20.97854 -5.72157,2.09355 -6.73301,3.93244 -3.78226,6.87648 1.80361,1.7995 3.26589,2.15105 8.62789,2.07426 11.62095,-0.16642 25.85851,-9.12954 39.61663,-24.94028 16.2766,-18.70495 23.21002,-33.9073 23.24492,-50.96726 0.022,-10.73672 -1.61295,-16.5725 -7.20026,-25.70108 -8.19867,-13.39504 -8.42429,-14.10453 -9.15836,-28.79892 -0.64866,-12.98481 -0.83769,-13.88099 -4.95322,-23.48356 -3.51733,-8.20682 -4.191,-10.76279 -3.78531,-14.36201 1.03,-9.13816 6.7196,-10.30998 12.57957,-2.59087 6.04366,7.96108 8.09556,14.766 8.78445,29.13277 0.37247,7.76776 1.19865,14.18029 2.10053,16.30367 l 1.48659,3.5 0.85874,-2.98866 c 3.34973,-11.65797 1.58353,-22.74754 -6.487,-40.73044 -7.03137,-15.66741 -8.5945,-23.87888 -6.14774,-32.29544 3.48577,-11.99062 13.75444,-16.77049 18.07578,-8.41393 2.12366,4.10669 1.83379,6.8514 -1.63972,15.52609 -2.24772,5.61339 -2.94843,8.69965 -2.54277,11.19946 0.30799,1.8979 0.73981,3.63057 0.95961,3.85037 1.16174,1.16173 3.54233,-1.28226 5.75748,-5.91084 1.74567,-3.64757 3.33001,-5.50552 5.27937,-6.19107 4.04418,-1.42226 7.89505,1.00102 9.06783,5.70621 0.81804,3.282 0.55381,4.26516 -2.41001,8.9672 -5.01808,7.96107 -6.09773,10.38566 -5.41589,12.16251 0.98428,2.56499 3.08895,1.90224 5.97491,-1.88146 3.36371,-4.41004 7.31185,-4.73975 10.35963,-0.86514 1.13992,1.44917 2.07089,3.36167 2.06884,4.25 -0.007,3.1943 -3.99743,8.06081 -9.69369,11.82307 -4.38843,2.89846 -5.87982,4.49914 -6.11954,6.56796 -0.46983,4.0546 1.85625,4.28341 8.04399,0.79126 9.58298,-5.4083 14.77298,-3.38785 14.77298,5.75107 0,8.50455 -4.66076,12.72424 -18.96613,17.17125 -5.01302,1.55837 -10.16136,3.51927 -11.44075,4.35756 -3.17442,2.07996 -3.81503,5.14218 -1.51178,7.22658 2.71724,2.45908 6.74531,1.30093 16.69333,-4.79966 7.68741,-4.71428 9.18898,-5.26302 15.35521,-5.61144 6.73877,-0.38078 6.85007,-0.34606 7.93737,2.47565 1.6771,4.35205 0.5071,10.14947 -2.73706,13.5627 -3.85982,4.06099 -6.86255,5.47719 -16.24554,7.66202 -10.13366,2.35962 -13.3142,4.32041 -12.89503,7.94974 0.29921,2.59073 0.55671,2.6981 7.15934,2.98533 5.90752,0.25699 7.74427,-0.12102 13.36227,-2.75 9.4863,-4.43917 15.16962,-4.11283 17.82572,1.02358 3.1797,6.14881 0.8253,12.67078 -5.8076,16.08751 -3.35436,1.72794 -6.50508,2.27267 -15.22935,2.63305 -11.58583,0.47858 -15.62648,1.7072 -17.57238,5.34314 -1.45887,2.72594 1.42903,6.9151 5.52164,8.00963 3.28766,0.87926 5.3152,0.5479 20.05074,-3.27691 13.38785,-3.47498 14.25505,-3.49962 15.64705,-0.44447 2.9174,6.403 -2.8464,15.51885 -11.42267,18.06573 -5.79598,1.72122 -15.20624,1.92742 -21.51804,0.4715 -2.36152,-0.54472 -6.99294,-1.06479 -10.29206,-1.15572 -4.85296,-0.13375 -6.38959,0.22588 -8.04699,1.88327 -4.34467,4.34467 1.80085,8.34944 15.74177,10.25822 7.9245,1.08501 11.76358,0.73021 21.44999,-1.98241 6.1256,-1.71544 9.3346,-0.76162 11.2882,3.35521 5.1114,10.77145 -9.0654,19.85096 -26.36371,16.88463 -7.6622,-1.31392 -17.48069,-5.37306 -24.57039,-10.15784 C 954.32412,602.37073 951.71039,601 950.9982,601 c -1.97561,0 -4.60485,3.38266 -4.60485,5.92437 0,4.48405 6.49883,11.5753 13.82404,15.0842 10.38839,4.97621 18.77046,4.5449 32.54115,-1.67448 9.82616,-4.43787 17.29706,-5.51645 19.29396,-2.78548 3.3273,4.55033 -0.07,13.95565 -6.9981,19.37257 -6.86817,5.3702 -13.8403,7.31847 -24.66105,6.8912 -12.99694,-0.5132 -20.26146,-3.87391 -29.5929,-13.69024 -6.68167,-7.02889 -12.46138,-10.82466 -14.53292,-9.54438 -1.54089,0.95233 -0.60733,9.08852 1.56797,13.66519 0.97847,2.05862 3.53565,5.49957 5.68263,7.64655 9.56767,9.56766 24.41556,12.02449 45.06625,7.45695 5.34573,-1.18238 7.15527,-1.23535 9,-0.26348 3.11532,1.64125 3.77562,2.8222 3.79362,6.78468 0.049,10.71322 -23.4055,19.22199 -40.73321,14.77729 -12.10597,-3.10529 -19.28574,-8.4086 -28.8193,-21.28726 -6.7039,-9.05614 -9.87011,-11.9748 -15.20055,-14.01208 -7.56726,-2.89219 -21.35184,-0.39961 -26.96795,4.87645 -2.8541,2.68129 -3.01486,7.78814 -0.32187,10.22526 1.85053,1.6747 2.09721,1.675 5.25,0.006 1.81952,-0.96309 5.09813,-2.68181 7.2858,-3.81939 2.37847,-1.23679 6.56775,-2.23325 10.4203,-2.47856 5.37434,-0.34222 6.66323,-0.10869 7.77243,1.40822 2.93504,4.01391 0.53844,10.70026 -5.01011,13.97787 -2.05563,1.21429 -5.72488,1.94202 -11.11446,2.20435 -4.42515,0.21539 -9.30446,0.87404 -10.84289,1.46366 -3.48258,1.33474 -5.92201,5.64731 -4.56553,8.07122 1.40146,2.50427 4.72641,2.12826 13.53713,-1.53089 6.99595,-2.90546 8.85388,-3.25 17.52556,-3.25 11.59023,0 12.67556,0.63426 10.94863,6.39826 -1.7145,5.72248 -6.15547,8.1483 -16.91343,9.23872 -8.89043,0.90113 -12.35399,2.34794 -14.29266,5.97038 -1.54434,2.88564 -0.38865,3.73786 6.78166,5.00088 9.55226,1.6826 16.1292,-0.089 22.81813,-6.14657 7.2499,-6.56555 11.33802,-7.61067 21.32473,-5.45162 13.88704,3.00228 16.31824,3.00955 22.74339,0.068 3.19284,-1.46173 7.28682,-3.78781 9.09775,-5.16907 8.27102,-6.30862 14.69859,-6.28621 17.71089,0.0617 0.86946,1.83233 1.58086,4.07335 1.58086,4.98004 0,3.06846 -3.05276,7.57492 -7.13437,10.53163 -5.01396,3.63209 -22.24575,10.43624 -30.48482,12.03726 -6.68523,1.29907 -20.34704,0.89499 -29.98022,-0.88673 -5.26968,-0.97466 -7.16142,-0.85653 -13.90578,0.86839 -13.21137,3.3789 -17.30975,7.2982 -12.40749,11.86534 3.39155,3.15971 11.87261,4.44833 25.41273,3.86123 12.52601,-0.54314 17.66994,-1.75807 37,-8.73895 4.95,-1.78765 11.74952,-3.47303 15.11005,-3.74529 5.82368,-0.47182 6.13871,-0.38082 6.72159,1.94159 0.85704,3.41472 -0.94125,9.19733 -3.98518,12.81485 -10.29345,12.23306 -31.75716,16.1662 -57.57948,10.5512 -11.8699,-2.58107 -21.14281,-3.23299 -23.624,-1.66084 -1.69834,1.07612 -0.7061,4.74285 2.119,7.83051 3.50036,3.82569 8.20207,4.75303 23.73802,4.682 16.4234,-0.0751 31.07321,-2.45544 46.10339,-7.49102 4.92162,-1.64889 9.38674,-2.72707 9.9225,-2.39595 1.28715,0.7955 1.22889,6.02617 -0.12128,10.88902 -1.59571,5.74721 -10.04888,13.80683 -16.93663,16.14811 -7.92172,2.69276 -20.71845,2.27109 -43.78756,-1.44284 C 916.948,757.39964 908.0605,756 907.82377,756 c -0.81523,0 -0.42798,2.91125 0.72337,5.43819 1.87085,4.10608 8.06749,6.36665 20.70456,7.55315 10.69533,1.00418 33.35327,0.0159 37.67733,-1.6434 4.15183,-1.59321 5.92225,5.92033 2.8162,11.95172 -3.2903,6.38915 -9.62719,9.71327 -18.4679,9.68763 -2.58886,-0.008 -9.70713,-1.86586 -17.38398,-4.5384 -12.81289,-4.46055 -17.5,-4.99548 -17.5,-1.99722 0,1.61302 -0.4733,1.45568 15.5,5.15299 10.75329,2.48905 12.38959,3.16111 15.75,6.46884 3.25901,3.20792 3.75,4.29579 3.75,8.30886 0,8.90688 -7.05727,11.35618 -16.06542,5.57567 -4.93382,-3.16603 -10.93458,-5.38489 -10.93458,-4.04321 0,0.42637 0.96378,1.63245 2.14173,2.6802 3.17377,2.82294 6.83814,11.34001 6.84292,15.90498 0.009,8.60964 -3.35624,14.5 -8.28408,14.5 -1.01993,0 -3.19261,-1.33819 -4.82818,-2.97376 -2.71186,-2.71185 -2.94728,-3.4825 -2.67308,-8.75 0.22562,-4.33413 0.67518,-5.77624 1.80069,-5.77624 1.07492,0 1.6489,1.48081 2.02544,5.22545 0.61329,6.09902 2.16827,8.27283 4.75208,6.64325 2.23404,-1.40899 3.3317,-7.86994 2.1308,-12.54215 -0.5193,-2.0204 -2.75193,-6.0704 -4.96139,-9 -2.97647,-3.94662 -3.94333,-6.10375 -3.73206,-8.32655 0.27152,-2.8568 0.48954,-2.9908 4.56776,-2.80743 3.84558,0.17292 9.75106,2.73085 16.97082,7.35084 5.01383,3.20839 8.27116,-3.59564 4.05143,-8.46277 -1.91062,-2.20376 -4.78517,-3.26332 -16.80488,-6.19429 -8.7091,-2.12369 -14.99922,-4.18133 -15.75,-5.15219 -1.93101,-2.49704 -1.49487,-5.08019 1.33561,-7.91068 2.3018,-2.3018 3.15248,-2.52664 7.75,-2.04836 2.84041,0.29548 8.76439,2.01845 13.16439,3.82881 6.88551,2.83302 9.21594,3.29885 16.7283,3.34382 8.41655,0.0504 8.832,-0.0549 11.63157,-2.94775 1.5968,-1.65 3.19188,-4.24446 3.54463,-5.76548 l 0.64137,-2.76549 -4.27294,0.76549 c -2.35011,0.42102 -12.59793,0.75367 -22.77293,0.73923 -22.35322,-0.0317 -29.23441,-1.50843 -34.0065,-7.29779 -3.60619,-4.37494 -4.56153,-8.3904 -2.93212,-12.32415 1.10304,-2.66297 1.61163,-2.94918 4.34396,-2.44456 18.75888,3.46455 45.21399,6.69563 52.10052,6.36328 9.39761,-0.45353 16.13507,-3.29839 20.57864,-8.68921 2.55921,-3.10477 4.69916,-8.63099 3.721,-9.60915 -0.21165,-0.21165 -3.91296,0.70374 -8.22513,2.03419 -19.23025,5.93319 -50.58321,8.46378 -62.18313,5.01897 -8.42287,-2.50132 -13.29638,-9.13174 -12.23396,-16.64433 0.2728,-1.92903 1.28583,-2.62492 5.33672,-3.66599 5.87085,-1.50879 11.60369,-0.99454 26.44391,2.37212 5.80585,1.31712 13.7466,2.39883 17.64612,2.40381 8.48898,0.0109 21.09292,-3.02905 27.06149,-6.52687 4.51549,-2.64625 9.34848,-8.68004 9.34848,-11.6712 0,-2.39954 -2.89326,-1.78391 -22.67751,4.82533 -19.22661,6.42294 -32.0344,8.32204 -44.9191,6.66046 -13.39196,-1.72701 -18.81733,-5.39445 -18.61449,-12.58303 0.13023,-4.61538 4.56127,-8.08743 14.2118,-11.13604 9.60858,-3.03534 12.38036,-3.13218 25.34135,-0.88535 8.21022,1.42327 11.12096,1.51975 17.55543,0.58192 12.50768,-1.82302 30.7536,-8.81633 35.57094,-13.63367 C 997.75772,682.72654 996.91267,676 992.52728,676 c -0.80634,0 -4.65384,1.97034 -8.55,4.37854 -3.89616,2.40819 -8.52409,5.10819 -10.28427,6 -4.03598,2.04484 -13.92378,2.10123 -21.29966,0.12146 -9.86505,-2.64789 -13.23692,-2.11843 -18.97731,2.97985 -7.04179,6.2541 -10.45662,7.77349 -18.66822,8.30621 -7.03056,0.45609 -16.62119,-1.06975 -19.10447,-3.03946 -0.6875,-0.54532 -1.25,-2.71472 -1.25,-4.8209 0,-3.08395 0.70213,-4.51132 3.6068,-7.3323 3.6969,-3.59039 4.04862,-3.69254 17.67583,-5.13385 5.8781,-0.62171 12.17388,-4.33679 10.37887,-6.12447 -0.46117,-0.45929 -3.83617,-0.79317 -7.5,-0.74194 -5.09142,0.0712 -8.36954,0.82637 -13.90833,3.20409 -9.71083,4.16872 -13.28356,4.75554 -17.06082,2.80224 -6.87919,-3.55736 -4.96177,-13.11982 3.50534,-17.4817 1.20874,-0.62268 6.2978,-1.42318 11.30903,-1.77889 8.09193,-0.57438 9.44038,-0.95412 12.05231,-3.39402 1.61753,-1.511 2.94097,-3.25585 2.94097,-3.87745 0,-3.50793 -10.13103,-1.84281 -17.59752,2.8923 -8.71186,5.5249 -16.14571,2.91293 -17.05567,-5.9927 -0.88367,-8.64839 6.28091,-14.62313 20.15319,-16.80629 13.3435,-2.09995 21.42424,1.73702 31.2764,14.85094 8.89183,11.83565 11.84728,14.67994 18.7236,18.01934 11.69871,5.68134 25.38099,5.74907 36.47168,0.18054 5.89007,-2.95735 9.34109,-7.29876 7.36927,-9.27058 -0.83966,-0.83966 -3.51304,-0.72035 -10.41157,0.46465 -17.58545,3.02076 -30.66214,1.54117 -40.14186,-4.54195 -9.36313,-6.0083 -14.74092,-14.64756 -14.98817,-24.07802 -0.18971,-7.23591 1.32194,-9.78564 5.80157,-9.78564 4.90548,0 6.7658,1.16541 15.89908,9.96008 4.92595,4.74333 10.30553,8.82477 14,10.62167 5.30762,2.5815 7.03856,2.91276 15,2.87064 7.19755,-0.0381 10.06013,-0.51711 14.2935,-2.39186 6.83625,-3.02745 12.20645,-9.1276 12.20645,-13.86552 0,-3.32207 -0.111,-3.42279 -3.1122,-2.82255 -1.7118,0.34235 -7.22427,2.52999 -12.25002,4.86142 -8.7653,4.0662 -9.52493,4.23711 -18.63773,4.19334 -8.00198,-0.0384 -10.37573,-0.44756 -15.05361,-2.59454 -14.27384,-6.55119 -20.92662,-18.94899 -14.3575,-26.75595 3.73621,-4.44023 6.95169,-4.05883 17.60208,2.08788 10.1837,5.87736 16.54652,7.83539 25.46185,7.83539 9.46967,0 16.34713,-3.5979 16.34713,-8.55187 0,-4.23579 -2.1873,-4.75252 -10.03183,-2.36983 -5.92538,1.79978 -8.723,2.08893 -15.83262,1.63638 -15.59944,-0.99296 -23.66979,-4.86441 -24.78819,-11.89121 -0.48427,-3.04265 -0.15288,-4.10881 1.92204,-6.18373 3.49411,-3.49411 8.70155,-4.21103 18.73065,-2.57868 9.45036,1.53816 16.64425,1.73907 22.17836,0.6194 4.74799,-0.96061 9.82159,-5.65202 9.82159,-9.08167 0,-1.42933 -0.2513,-2.59879 -0.5584,-2.59879 -0.3072,0 -5.9059,1.35 -12.44155,3 -6.53566,1.65 -13.49879,3 -15.47363,3 -11.80591,0 -17.67965,-10.04672 -10.22945,-17.49692 4.20483,-4.20483 8.95365,-5.49054 20.30519,-5.4975 7.81203,-0.005 9.58372,-0.32901 12.50004,-2.2875 3.6935,-2.48046 5.0996,-7.56518 2.8436,-10.2834 -1.6902,-2.03659 -3.2333,-1.81968 -10.85618,1.52601 -8.07349,3.54348 -13.40624,4.51883 -19.61562,3.58768 -7.99951,-1.1996 -10.93646,-7.14808 -6.38566,-12.93349 2.80929,-3.57143 5.99701,-5.07251 15.0048,-7.06568 4.1762,-0.92408 9.03915,-2.55954 10.80656,-3.63436 3.53732,-2.15118 6.12668,-7.09814 5.32332,-10.17019 -0.77972,-2.98165 -8.00103,-1.82308 -14.52532,2.33041 -13.78171,8.77371 -20.51834,10.19517 -25.36203,5.35148 -2.1421,-2.14211 -2.47554,-3.18972 -1.98927,-6.25 0.89042,-5.60375 5.01898,-8.61076 16.87789,-12.29286 14.31206,-4.44379 19.84283,-10.30694 15.42364,-16.35055 -1.29344,-1.76888 -1.59166,-1.71208 -6.87173,1.30887 -6.41473,3.67014 -10.68045,4.02622 -13.31804,1.11172 -2.36292,-2.611 -2.26205,-8.3943 0.19472,-11.16381 1.01594,-1.14526 4.20359,-3.60145 7.08366,-5.45819 5.38622,-3.47242 7.58833,-7.4069 5.38102,-9.6142 -0.84807,-0.84808 -1.56193,-0.52804 -2.81607,1.2625 -4.53778,6.47859 -7.27242,7.40386 -11.66659,3.9474 -4.14612,-3.26134 -3.61679,-8.02618 1.80942,-16.28774 4.28703,-6.52711 4.79599,-9.07697 2.16221,-10.83247 -1.53083,-1.02035 -3.38716,0.90855 -5.52459,5.74056 -3.41833,7.72771 -10.83175,9.78936 -13.21233,3.6743 -1.5514,-3.98514 -0.36786,-13.85825 2.47276,-20.62763 2.9663,-7.06891 2.40395,-10.09444 -1.87625,-10.09444 -2.29628,0 -3.22738,0.79908 -5.13545,4.40729 -4.35221,8.23015 -2.93922,17.21231 5.679,36.10064 5.83418,12.7866 7.45374,20.34108 6.70679,31.28395 -0.60708,8.89368 -3.16364,17.70812 -5.1361,17.70812 -0.67743,0 -2.18865,-1.01864 -3.35827,-2.26364 -3.96897,-4.22478 -5.35674,-9.52426 -6.19432,-23.6543 -0.67006,-11.30402 -1.22796,-14.50454 -3.32627,-19.08206 -2.77238,-6.04802 -7.15268,-11.86592 -8.17304,-10.85544 -1.59953,1.58404 -0.59198,8.79649 1.92182,13.75723 4.15262,8.19481 6.54977,19.10056 6.54977,29.79801 0,10.1778 0.57959,11.91441 7.68196,23.0172 5.22231,8.16378 7.55632,15.50694 8.08985,25.45184 0.62382,11.62802 -1.67183,21.62065 -7.64619,33.28275 -5.79727,11.31641 -11.97857,19.47148 -23.5863,31.11772 C 912.51861,620.02786 900.97034,626 888.35973,626 c -7.92669,0 -12.34846,-2.97379 -12.76419,-8.58438 -0.39403,-5.31762 1.09165,-6.54979 13.63049,-11.30461 13.9671,-5.29643 20.34391,-9.29494 29.76537,-18.6641 12.86457,-12.79313 18.59327,-26.55123 18.50713,-44.44691 -0.0699,-14.53226 -3.37161,-24 -8.36947,-24 -1.87418,0 -1.91908,0.46122 -1.09501,11.25 2.29132,29.99818 -1.07229,41.42474 -16.46986,55.95002 -13.65723,12.88355 -37.94971,20.58554 -48.20358,15.28306 -4.53413,-2.34469 -7.52806,-9.81696 -5.20195,-12.98308 0.40408,-0.55 5.68469,-2.23639 11.73469,-3.74754 6.05,-1.51115 13.77169,-4.10676 17.15933,-5.76802 11.73976,-5.75709 21.48458,-18.5351 24.23896,-31.78366 2.32786,-11.19701 0.63656,-18.65924 -3.25456,-14.3596 -0.91292,1.00877 -3.38753,7.07135 -5.49912,13.47242 -4.38622,13.29632 -7.53173,18.40459 -14.63278,23.7635 -11.82851,8.92655 -32.29153,13.67379 -40.54457,9.40598 -5.23721,-2.70827 -7.8512,-11.6138 -3.96726,-13.51599 0.825,-0.40405 5.83438,-1.40463 11.13196,-2.22351 11.64219,-1.79962 19.30181,-5.12739 24.7692,-10.76117 7.27055,-7.4918 8.57073,-18.07948 2.55668,-20.81966 -2.24663,-1.02363 -2.59546,-0.81405 -4.34761,2.61216 -8.34593,16.31984 -29.24735,26.40673 -48.12161,23.22317 -8.86841,-1.49585 -10.17352,-2.73459 -9.78674,-9.28902 0.3441,-5.83113 -1.67176,-4.7968 21.79812,-11.18444 13.68982,-3.72587 18,-6.05425 18,-9.72368 0,-2.39242 -4.42618,-4.08301 -8.42373,-3.21745 -2.88236,0.62409 -10.25807,4.2044 -20.48356,9.94308 -4.96449,2.78615 -10.23416,3.21285 -12.08823,0.97884 -3.6927,-4.44944 0.66747,-16.86218 7.81195,-22.23943 9.91518,-7.46259 20.27365,-7.87133 44.04921,-1.73817 12.57986,3.24511 15.45447,3.65372 23.12467,3.287 7.81365,-0.37358 9.38139,-0.79093 14.52515,-3.86679 8.48936,-5.07646 17.48454,-17.45762 17.48454,-24.06611 0,-1.70341 -0.28682,-1.80363 -2.25,-0.78621 -1.2375,0.64133 -5.4723,4.26468 -9.41065,8.05189 -9.44242,9.08002 -14.10747,11.12216 -26.6476,11.66507 -23.73975,1.02778 -37.08029,-7.08677 -31.56203,-19.19801 2.25606,-4.95152 8.205,-5.58076 14.02465,-1.48345 1.92428,1.35479 4.41799,1.8688 9.06634,1.8688 22.9078,0 38.85324,-10.5831 39.08493,-25.94095 0.0913,-6.05058 -0.74281,-7.43063 -3.57493,-5.91493 -3.22713,1.72711 -5.34938,4.72965 -7.91422,11.19699 -4.05051,10.21348 -13.72556,16.74672 -22.6544,15.29777 -4.69018,-0.76111 -7.16209,-3.26226 -7.16209,-7.24681 0,-4.88218 1.80089,-7.99535 6.39402,-11.05325 6.68894,-4.45318 9.60598,-7.53638 9.60598,-10.15314 0,-2.33033 -0.22835,-2.41819 -5.0745,-1.95254 -2.79097,0.26818 -6.27847,1.36427 -7.75,2.43577 -3.85818,2.80935 -7.30502,10.02191 -7.08768,14.83109 0.27111,5.99903 0.14685,6.28955 -2.98423,6.97725 -4.07648,0.89535 -9.65121,-1.70688 -12.14053,-5.66707 -1.79465,-2.85506 -2.03325,-4.55138 -1.73541,-12.33766 0.43812,-11.45349 2.52768,-16.02195 8.79218,-19.22252 5.20609,-2.65982 10.68481,-2.82816 25.88064,-0.79523 17.64341,2.36038 26.226,-0.24622 37.03207,-11.24693 8.46169,-8.61409 13.53387,-16.94973 15.17901,-24.94523 1.39,-6.75554 0.49719,-11.76261 -2.0974,-11.76261 -1.9196,0 -5.84295,6.13697 -10.5484,16.5 -7.06863,15.56758 -12.31918,20.98002 -24.18421,24.92988 -19.85619,6.61012 -40.18916,-2.56719 -30.69265,-13.85315 2.54655,-3.0264 2.73986,-3.07673 11.8185,-3.07673 21.2034,0 34.19703,-9.31821 37.37499,-26.803 0.88532,-4.8709 0.81181,-7.24322 -0.40665,-13.12446 l -0.50292,-2.42747 -1.9236,2.92747 c -1.05797,1.6101 -3.12591,6.22088 -4.59541,10.24616 -4.93634,13.52174 -15.40414,21.71503 -29.22344,22.87359 -7.24927,0.60776 -17.51512,-1.59321 -18.37117,-3.93872 -0.25164,-0.68946 -0.24574,-2.98754 0.0131,-5.10684 0.41187,-3.37216 0.98611,-4.08735 4.59917,-5.72804 2.89531,-1.31475 6.5182,-1.88788 12.12854,-1.91869 9.95612,-0.0547 15.19084,-2.21007 19.36629,-7.97412 3.40093,-4.69484 5.13371,-11.44882 5.13371,-20.01 0,-9.70657 -2.53245,-13.47635 -6.2246,-9.26588 -0.97078,1.10706 -1.70443,4.50546 -1.9969,9.25 -0.30268,4.91013 -1.19241,8.92416 -2.57657,11.62421 -3.93127,7.66867 -13.01198,13.3149 -21.47668,13.35383 -4.29603,0.0198 -4.88026,-0.25375 -5.82701,-2.72804 -1.85059,-4.8364 0.38531,-9.48793 7.6422,-15.89873 7.62234,-6.73364 8.82984,-9.86066 8.30137,-21.49776 -0.2616,-5.76062 -0.85673,-8.39652 -2.34616,-10.39145 -1.09761,-1.47013 -2.44565,-2.73801 -2.99565,-2.81751 -0.56286,-0.0814 -1.28655,3.78975 -1.6555,8.85545 -0.36052,4.95 -1.10028,10.125 -1.6439,11.5 -2.21438,5.60089 -9.45453,9.56145 -14.844,8.12008 -4.89464,-1.30902 -5.07655,-3.09021 -1.41012,-13.8073 2.73366,-7.99058 3.43815,-11.76259 3.79377,-20.31278 0.34752,-8.35517 0.126,-10.90853 -1.08444,-12.5 -2.58248,-3.39538 -3.42854,-0.65966 -3.86581,12.5 -0.44228,13.31051 -1.63803,17.37929 -6.0068,20.4393 -2.76384,1.93587 -8.7649,2.02579 -11.30369,0.16938 -1.85634,-1.35739 -1.83668,-1.59514 0.80662,-9.75 5.38273,-16.60633 5.78885,-25.81743 1.52984,-34.6983 l -2.08116,-4.33963 -2.11741,2.11595 c -1.93307,1.93174 -2.16234,3.52835 -2.63359,18.33963 -0.6153,19.33852 -2.16597,23.988 -9.41772,28.23781 -6.81474,3.9937 -18.06808,2.83201 -19.94491,-2.05894 -1.88738,-4.91843 -0.44794,-8.44741 6.63866,-16.27559 2.15111,-2.37621 5.3295,-7.32621 7.06309,-11 2.80263,-5.93929 3.15336,-7.67709 3.16452,-15.67961 0.01,-6.89329 -0.42503,-9.81927 -1.85682,-12.5 -2.36116,-4.42077 -6.47143,-7.91744 -9.36158,-7.96403 -3.03964,-0.049 -3.67588,3.06116 -2.83227,13.84505 1.09233,13.96336 -0.51897,20.61577 -7.53342,31.10249 -9.00052,13.45592 -9.771,16.89578 -4.98387,22.25072 l 2.91949,3.26577 16.33051,0.0606 c 8.98178,0.0333 17.45551,0.39691 18.83051,0.80794 10.41267,3.11267 17.93354,8.59339 21.5292,15.68909 2.78968,5.50516 3.31253,12.40538 1.00703,13.29009 -2.50978,0.96309 -12.5624,-2.23341 -23.01101,-7.31698 -14.92698,-7.26243 -27.67012,-9.41494 -41.07139,-6.93758 -7.52791,1.39161 -11.45383,3.41298 -11.45383,5.89733 0,4.31608 5.00983,4.85382 23,2.46872 19.93908,-2.64348 30.10989,0.36661 42.00382,12.43121 7.42584,7.53239 11.59352,13.31623 13.55224,18.80756 2.60408,7.30061 1.29195,16.30201 -2.37633,16.30201 -2.25625,0 -3.74229,-1.68686 -8.24298,-9.35692 -7.10673,-12.11129 -20.27944,-20.92704 -34.26209,-22.92967 -7.35072,-1.05279 -16.67466,-0.312 -16.67466,1.32481 0,1.88681 4.74203,3.77053 12.15596,4.82882 22.41785,3.20001 33.6439,12.83501 36.92812,31.69439 1.67394,9.61251 0.59717,32.59336 -2.02506,43.2194 -4.50439,18.25311 -14.96196,32.72989 -28.21057,39.05287 -8.49346,4.05356 -13.62236,4.8517 -17.68312,2.7518 -6.97291,-3.60583 -4.96907,-10.80817 4.76181,-17.1152 16.88966,-10.94696 24.87508,-24.58786 25.83008,-44.12358 0.41144,-8.41662 0.13967,-11.32436 -1.58888,-17 -3.93241,-12.91187 -11.17905,-20.86782 -20.09684,-22.06395 -6.56343,-0.88034 -5.77509,1.11922 6.0749,15.40852 8.6174,10.3913 10.75039,20.63692 7.32309,35.17588 -4.57942,19.42637 -17.7512,33.53114 -31.33343,33.55284 -4.78765,0.008 -5.67402,-0.33847 -8.25,-3.2215 -5.2105,-5.83155 -3.17208,-9.75152 7.63092,-14.6746 5.92062,-2.69811 8.13285,-4.38913 11.71834,-8.95741 6.43668,-8.20099 9.80701,-21.06641 6.6976,-25.5665 -1.27287,-1.84217 -1.0052,-2.2089 -8.73004,11.96083 -6.36984,11.68423 -11.63539,17.73029 -18.72383,21.49925 -9.33112,4.96141 -21.33805,2.52985 -23.76984,-4.81371 -1.34299,-4.05559 1.37471,-7.20957 8.79079,-10.20201 11.62215,-4.68962 19.44401,-12.45054 23.56193,-23.37835 2.4894,-6.60621 3.61877,-17.03348 2.13051,-19.67066 -0.96172,-1.70416 -1.23641,-1.49186 -2.72316,2.10465 -8.832,21.36497 -16.25708,31.80316 -25.96928,36.50766 -12.98076,6.28776 -28.5,1.87694 -28.5,-8.10016 0,-3.37972 4.25198,-6.49414 12.71326,-9.312 10.24676,-3.41249 16.36871,-7.46773 21.92237,-14.5216 6.48561,-8.23758 8.66653,-14.66745 8.74986,-25.79662 0.0846,-11.30017 -1.33175,-13.6764 -3.94118,-6.61215 -7.74344,20.96307 -11.26246,27.25386 -20.15306,36.02669 -12.48184,12.31652 -32.60339,16.24109 -41.81263,8.15527 -2.59929,-2.2822 -3.47862,-3.85658 -3.47862,-6.22817 0,-6.88559 4.48303,-9.77319 18.0325,-11.61503 8.06698,-1.09659 14.60827,-3.34269 18.04282,-6.19542 6.13563,-5.09624 12.93993,-21.2303 12.90936,-30.61009 -0.0172,-5.28802 -0.52775,-6.39506 -3.72565,-8.07902 -3.44474,-1.81394 -8.25903,0.98461 -8.25903,4.80099 0,5.03256 -3.89136,15.68906 -7.94665,21.76189 -8.98072,13.44875 -24.18496,20.43517 -41.34187,18.9968 -5.15023,-0.43178 -7.53987,-1.09143 -8.44678,-2.33171 -1.36958,-1.87301 -1.68992,-8.20859 -0.49939,-9.8768 0.40408,-0.56621 5.03297,-2.04923 10.28643,-3.29561 5.25346,-1.24637 11.77846,-3.30144 14.5,-4.5668 8.28156,-3.85047 16.44826,-13.81454 16.44826,-20.06828 0,-1.39691 -0.20383,-2.53984 -0.45295,-2.53984 -2.25808,0 -5.78992,3.23917 -9.54705,8.75591 -7.85225,11.52978 -17.80681,16.03292 -33.25107,15.04176 -10.27189,-0.65921 -13.16947,-2.23332 -13.54686,-7.35934 -0.56026,-7.60987 5.26544,-12.00077 19.79793,-14.92195 4.675,-0.93972 9.95976,-2.39031 11.74391,-3.22353 3.76277,-1.75727 9.25609,-7.64807 9.25609,-9.92584 0,-1.29214 -0.56392,-1.18578 -3.25,0.61297 -5.79493,3.88059 -21.09169,10.82992 -27.39435,12.44526 -14.79085,3.79082 -25.32163,0.60351 -26.96599,-8.16169 -1.71633,-9.14882 6.73241,-13.99586 21.0589,-12.08148 8.32673,1.11266 10.35065,0.47439 22.29294,-7.03032 9.91513,-6.23081 15.33645,-6.06177 30.07201,0.9377 10.49437,4.98488 17.02215,6.8829 23.72639,6.89868 11.28269,0.0266 25.57475,-5.95136 28.66583,-11.99004 0.93816,-1.83277 1.50315,-3.6601 1.25554,-4.06074 -0.24761,-0.40065 -3.92172,0.37397 -8.16469,1.72136 -11.14681,3.53977 -21.51178,4.61933 -31.92589,3.32523 -10.08502,-1.25322 -14.4116,-2.84602 -17.87144,-6.57925 -3.42027,-3.69052 -3.26899,-7.7888 0.42382,-11.48161 3.90655,-3.90654 8.64862,-3.87836 16.80292,0.0999 8.12739,3.9651 14.34148,5.07902 21.2338,3.80632 14.65821,-2.70672 25.40814,-13.26241 29.62041,-29.08519 1.5569,-5.84826 1.9367,-24.74407 0.49735,-24.74407 -1.11817,0 -2.21578,3.36201 -5.44753,16.68594 -3.73302,15.39055 -8.53464,22.12766 -19.59932,27.49967 -6.55348,3.18178 -18.70718,3.17005 -25.24299,-0.0244 -8.09405,-3.956 -10.76215,-11.18776 -6.05482,-16.41125 1.84276,-2.04481 4.56343,-2.17941 12.20691,-0.60391 16.04698,3.30765 32.17204,-11.53791 29.65175,-27.29893 -0.72043,-4.50527 -4.64304,-12.81507 -6.95509,-14.7339 -1.30254,-1.08101 -1.67845,-0.64358 -2.63209,3.06281 -2.92204,11.35673 -9.53732,30.09121 -10.79597,30.5742 -3.53991,1.35839 -4.85677,-6.37879 -3.3721,-19.81265 1.33581,-12.08695 0.10263,-18.76746 -4.21274,-22.82154 -3.16208,-2.97061 -3.77419,-1.67791 -2.60016,5.49119 2.28014,13.92339 0.44729,23.84836 -5.12482,27.75121 -4.88826,3.42387 -6.78579,-1.03215 -7.81769,-18.35848 -0.87274,-14.65408 -2.37694,-18.81701 -7.71978,-21.36484 -1.96435,-0.93673 -4.38917,-1.44364 -5.38849,-1.12647 -1.70176,0.54012 -1.62895,1.12869 1.14854,9.284 5.59473,16.42735 6.87605,32.62307 3.65567,46.20731 -5.57746,23.52693 -27.9927,45.12947 -52.48017,50.57741 -10.227,2.27529 -24.11717,1.69247 -27.97502,-1.17381 -8.87265,-6.59213 -4.37714,-15.53227 8.47882,-16.86167 14.96933,-1.54793 24.37764,-5.30019 33.2174,-13.2479 16.54198,-14.87266 23.28137,-38.68096 18.0814,-63.87632 -2.68561,-13.01256 -5.36874,-17.45546 -11.45987,-18.97596 -2.48577,-0.62051 -2.78907,-0.46693 -2.31467,1.17209 3.73614,12.90802 4.74028,16.88489 5.74577,22.75595 0.65511,3.82517 0.97833,11.68033 0.72932,17.72413 -0.42359,10.281 -0.66458,11.293 -4.56237,19.15907 C 689.38547,324.91081 670.32411,337 650.15113,337 c -13.502,0 -19.32854,-6.03467 -12.89186,-13.35238 2.91955,-3.31917 6.94302,-4.67162 18.38124,-6.17867 13.22633,-1.74265 20.16294,-4.67373 24.74144,-10.45456 11.46742,-14.47879 9.89034,-48.31348 -2.8141,-60.37362 -3.17482,-3.01382 -5.1745,-2.841 -5.1745,0.44721 0,1.08346 1.43868,6.1194 3.19708,11.19098 2.72168,7.84987 3.19791,10.6337 3.20264,18.72104 0.005,8.51386 -0.31355,10.18562 -3.06855,16.10486 -6.8667,14.75337 -18.31638,22.05688 -27.29754,17.41254 -2.98084,-1.54146 -5.54691,-7.01625 -4.53028,-9.66554 0.30674,-0.79936 2.47378,-1.96585 4.81565,-2.5922 8.23541,-2.20264 14.58095,-11.14418 15.4319,-21.74518 1.09987,-13.70207 -8.45107,-37.10171 -14.23737,-34.8813 -2.38486,0.91516 -1.81403,4.55775 2.48647,15.86682 4.67528,12.29465 5.29174,19.86924 2.04977,25.18618 -2.14778,3.52243 -5.83822,5.96491 -7.03563,4.65646 -0.42413,-0.46345 -1.48657,-5.17518 -2.36099,-10.47052 -2.08189,-12.60765 -4.79957,-19.62081 -9.80829,-25.31102 -6.02531,-6.84512 -16.95146,-12.04178 -11.36884,-5.40722 4.16829,4.95373 9.21015,15.80116 11.60123,24.95973 4.0181,15.39059 2.29437,36.39697 -3.99888,48.73276 -2.53739,4.97371 -5.38472,6.05882 -8.94855,3.41027 -3.60729,-2.68086 -3.75486,-6.23701 -0.58457,-14.08698 5.33142,-13.20115 4.21685,-30.63183 -2.64216,-41.32067 C 613.66887,259.07919 599.95983,248 594.73592,248 c -1.00004,0 -1.19814,0.75815 -0.71857,2.75 1.30926,5.43788 5.36713,11.91218 13.31877,21.25 4.44936,5.225 9.21853,11.77727 10.59816,14.5606 5.48778,11.07124 3.54068,21.4394 -4.02624,21.4394 -5.5418,0 -7.97258,-3.14789 -18.53262,-24 -20.25214,-39.99039 -29.1206,-51.93407 -50.72369,-68.3126 -16.55347,-12.55012 -19.49548,-16.83904 -31.68252,-46.1874 -2.91173,-7.0119 -6.00402,-12.63149 -8.5292,-15.5 l -3.96139,-4.5 -0.0426,15.25 c -0.0407,14.56912 -0.13193,15.25 -2.04263,15.25 -1.61675,0 -2,-0.66666 -2,-3.479 0,-6.93406 -3.93222,-16.10841 -9.53553,-22.24755 -5.17604,-5.67101 -14.84284,-12.08828 -15.82226,-10.50355 -0.27407,0.44345 -1.25796,4.83914 -2.18641,9.76819 -1.35318,7.18382 -1.55954,12.03721 -1.0401,24.46191 0.35641,8.525 0.89689,17.78503 1.20106,20.57784 1.20336,11.04884 -2.81096,17.35395 -16.11676,25.3139 -9.59471,5.73985 -13.85753,11.36668 -20.45363,26.99837 -8.17803,19.38059 -15.38543,26.32283 -39.79637,38.33227 -15.58968,7.66963 -16.09598,8.2606 -12.09998,14.12325 4.49228,6.59077 16.42376,17.91033 21.34998,20.25502 6.26127,2.98013 12.02784,3.05903 25.67649,0.35128 5.67793,-1.12644 13.02351,-2.30219 16.32351,-2.61278 5.24619,-0.49376 20.13844,0.7398 27.5,2.27789 2.48156,0.51849 2.48518,0.50892 0.49138,-1.29735 C 465.97384,316.96476 463.50363,311 467.19686,311 c 2.3527,0 20.07934,6.06182 27.475,9.39537 3.17818,1.43255 6.01404,2.60463 6.30192,2.60463 0.28787,0 -2.14276,-2.2188 -5.4014,-4.93067 -15.28325,-12.71885 -12.95236,-16.62803 5.16171,-8.6568 4.81177,2.11745 4.1078,0.90728 -2.32663,-3.99969 -7.82771,-5.96948 -6.23038,-8.66184 3.82171,-6.44164 11.83785,2.61462 22.79173,10.08593 28.99457,19.77631 2.99628,4.68094 11.16961,24.39857 11.16961,26.94597 0,1.87547 -2.76091,1.60961 -5.84563,-0.56289 -3.58035,-2.52156 -11.15437,-6.31399 -11.15437,-5.58517 0,0.32234 0.49404,1.5092 1.09787,2.63747 0.60383,1.12827 2.39784,5.65135 3.98669,10.05129 4.15232,11.4989 2.80838,12.58197 -6.05091,4.87639 -8.87008,-7.71496 -30.03365,-21.55742 -30.03365,-19.64412 0,0.33728 0.84508,2.2828 1.87796,4.32339 5.06805,10.0126 3.12703,13.77432 -4.09469,7.93558 -2.3558,-1.90466 -6.2604,-4.6935 -8.67689,-6.19742 l -4.39363,-2.73441 0.68255,2.35321 c 0.37539,1.29426 0.9489,3.8157 1.27446,5.6032 0.81062,4.45078 -1.80204,4.38587 -4.45507,-0.11069 -2.40764,-4.08065 -7.89559,-8.40429 -12.96266,-10.21255 -5.05286,-1.80319 -14.89961,-1.75952 -23.05463,0.10223 -8.32138,1.89974 -10.15992,2.9085 -8.43846,4.62996 0.98963,0.98963 2.97428,0.78794 9.76033,-0.99187 7.06496,-1.85297 9.19954,-2.05061 12.51255,-1.15851 7.37689,1.98639 13.07014,8.94409 11.46274,14.00857 -0.53098,1.67297 -1.42384,1.79279 -9.47363,1.27126 l -8.88739,-0.57579 -3.06677,3.06678 c -1.83558,1.83557 -3.06677,4.10131 -3.06677,5.64369 V 367 l 10.92857,0 c 12.17721,0 14.07143,0.82399 14.07143,6.12109 0,3.91372 -2.20181,8.02949 -6.00956,11.2335 -3.19295,2.68669 -9.76478,4.98248 -12.13336,4.23865 -0.74639,-0.23441 -2.62118,-0.70402 -4.16619,-1.0436 -3.56223,-0.78294 -11.30461,-7.86904 -13.66282,-12.50469 -0.99185,-1.94972 -2.76975,-6.79662 -3.9509,-10.77089 -1.67054,-5.62095 -2.86159,-7.76476 -5.36235,-9.6518 -9.79732,-7.39291 -30.89016,-5.76285 -34.00285,2.62774 -0.57818,1.55854 0.0933,1.75 6.13791,1.75 13.11273,0 23.09726,5.30617 27.28445,14.5 1.9312,4.24035 2.45288,13.02339 0.91767,15.4501 -2.15077,3.39974 -10.04326,0.86997 -22.34648,-7.16267 -8.39532,-5.48122 -19.59805,-4.78487 -28.16676,1.75081 -3.31974,2.53209 -8.21051,9.12335 -7.38335,9.95051 0.21095,0.21095 5.54978,-0.25865 11.86407,-1.04355 15.84166,-1.96921 21.22997,-1.87354 24.07153,0.42742 3.12556,2.53092 3.0056,8.32563 -0.24438,11.80509 -5.70791,6.11094 -11.40402,7.01009 -27.24477,4.30068 -10.2045,-1.74538 -13.11647,-1.91691 -16.60331,-0.978 -10.42852,2.80811 -13.30385,13.51452 -4.61487,17.18367 1.86339,0.78686 6.53377,1.26215 11.61632,1.18215 12.54561,-0.19748 19.23763,-2.64427 49.56766,-18.12336 26.192,-13.36722 45.46742,-16.4297 60.06831,-9.54366 6.70094,3.16029 6.72083,9.76233 0.0443,14.71088 -2.59371,1.92242 -4.51997,2.13001 -24.03305,2.58993 -20.29192,0.47829 -21.42868,0.61096 -26.17106,3.05461 -5.85644,3.01769 -11.47617,9.85385 -11.47617,13.96026 0,2.73159 0.1676,2.83574 3.75,2.33025 2.0625,-0.29103 9.15,-3.17816 15.75,-6.41584 14.37712,-7.05281 19.76731,-8.32826 32.58736,-7.71093 7.58703,0.36534 10.75817,0.99153 14.55644,2.87438 4.22381,2.09379 4.89868,2.85306 5.18247,5.83049 0.41488,4.35277 -1.44224,7.82683 -5.23143,9.7863 -2.41981,1.25133 -5.0571,1.41073 -14.11365,0.85302 -8.62078,-0.53087 -12.70196,-0.32322 -18.05947,0.91889 -12.71722,2.94841 -18.07311,9.07823 -10.81966,12.38312 3.77866,1.72168 5.47801,1.46245 18.77812,-2.86455 23.30017,-7.58036 32.24104,-4.17763 25.51745,9.71147 -3.95233,8.16443 -13.53061,12.71059 -29.3402,13.92581 -12.22242,0.93949 -16.86157,-0.52279 -29.9257,-9.4327 -12.53741,-8.55069 -21.45321,-12.93941 -34.23135,-16.85008 -8.27094,-2.53127 -10.20872,-2.72852 -27.40038,-2.7892 -17.79923,-0.0628 -18.6894,0.0294 -23.5,2.4347 -3.26666,1.63333 -5.1034,3.22368 -5.29826,4.58751 -0.58155,4.07025 2.11693,4.84968 19.18756,5.54213 18.1677,0.73695 24.64068,1.71427 39.48427,5.96151 19.13006,5.47374 26.39915,10.67776 26.39915,18.89944 0,8.43029 -5.49887,11.99345 -15.5371,10.06774 -5.5547,-1.06561 -27.66663,-9.18122 -30.23562,-11.09721 -0.55,-0.4102 -4.15,-1.72758 -8,-2.92751 -5.26591,-1.64122 -10.60748,-2.31938 -21.56225,-2.7375 -13.24611,-0.50557 -14.98351,-0.36946 -19.22332,1.50602 -5.64195,2.4957 -8.87996,7.14955 -8.48693,12.19787 0.14987,1.925 0.7225,3.42832 1.2725,3.3407 16.71219,-2.66237 48.01688,-2.82079 59.5,-0.30112 13.74573,3.01615 23.67061,12.29565 24.28271,22.70368 0.20484,3.48313 -0.0118,3.77219 -3.78271,5.04828 -5.3766,1.81944 -9.64744,1.01069 -23.41258,-4.43357 -15.85118,-6.26931 -23.00868,-7.63845 -37.08742,-7.09433 -14.57354,0.56324 -20.95047,2.78922 -27.09872,9.45929 -2.94013,3.18966 -3.85828,4.79141 -2.92487,5.10254 0.74826,0.24942 5.89717,-0.17177 11.44203,-0.93599 5.54486,-0.76421 17.50656,-1.37872 26.58156,-1.36557 21.90814,0.0317 31.82714,2.23026 35.52511,7.87407 2.33362,3.56157 0.31348,6.99498 -5.6167,9.54608 -8.06437,3.4692 -14.79787,3.6248 -29.12352,0.673 -20.59559,-4.24371 -28.35328,-3.32497 -37.15135,4.39984 -3.69613,3.24524 -7.24507,8.70491 -6.2835,9.66648 0.27364,0.27364 4.2175,-0.44318 8.76413,-1.59293 9.17422,-2.31996 22.61819,-2.77012 30.736,-1.02916 5.87031,1.25896 7.00814,3.56725 4.36846,8.86223 -3.13989,6.29832 -5.80892,7.41331 -19.4839,8.1394 -10.39188,0.55177 -13.00404,1.03949 -17.34218,3.23796 -6.39511,3.2409 -10.35137,6.56628 -12.78945,10.75 l -1.89689,3.25505 7.89689,-0.61619 c 4.34329,-0.3389 12.21963,-1.09233 17.50297,-1.6743 7.43177,-0.81861 10.48441,-0.77035 13.48654,0.21322 7.05687,2.31201 8.19466,10.10069 2.0251,13.86275 -2.56169,1.56207 -5.07948,1.90278 -14.11771,1.91043 -15.98391,0.0135 -21.47555,2.06823 -23.12833,8.65343 -0.78508,3.12803 1.33966,7.66546 3.81251,8.14169 0.88848,0.1711 5.05646,-1.34438 9.26216,-3.36773 6.33512,-3.04783 8.40814,-3.59302 12.08576,-3.1785 5.73708,0.64665 9.26526,3.02005 11.13239,7.48871 1.912,4.57607 1.06215,9.22815 -2.25625,12.35063 -2.35123,2.21241 -3.58618,2.45091 -15.06757,2.90993 l -12.50643,0.5 -2.91712,3.26578 c -3.06634,3.43282 -3.6029,6.08433 -1.88194,9.29997 1.47266,2.75169 5.00264,2.42931 13.2972,-1.21441 3.94219,-1.73176 8.96762,-3.33131 11.16762,-3.55455 8.01257,-0.81306 15.02284,5.97213 12.16665,11.77601 -1.69,3.43413 -7.26974,5.92382 -13.28016,5.92565 -8.4997,0.003 -15.53358,1.76829 -18.5477,4.656 -6.03347,5.78043 -4.0273,13.11103 3.26883,11.94434 1.99911,-0.31968 5.60521,-1.47529 8.01356,-2.56804 5.35355,-2.42909 13.10502,-2.66168 15.30739,-0.45932 2.28618,2.28618 1.94835,6.85588 -0.69492,9.39994 -1.2465,1.19971 -4.959,3.08432 -8.25,4.18803 -8.55467,2.86898 -12.80351,7.33946 -13.62965,14.3406 -0.33712,2.8569 -0.1632,3.01272 3.646,3.26655 8.23831,0.54896 8.5,0.7439 8.5,6.33195 0,3.09705 -0.9938,7.54448 -2.56144,11.46298 -3.04889,7.62101 -2.97418,13.02684 0.20907,15.12857 2.0129,1.329 2.32839,1.14882 5.02889,-2.87212 3.31624,-4.93777 7.00197,-6.67589 11.07348,-5.22205 3.3403,1.19275 3.37947,3.30397 0.22085,11.90412 -2.81755,7.67152 -3.26812,19.61257 -0.83236,22.05953 2.51657,2.52814 5.62071,0.97623 6.95497,-3.47714 0.67892,-2.26604 0.97163,-8.18855 0.72601,-14.68961 -0.48042,-12.71567 -1.32436,-14.79013 -9.87465,-24.27239 -4.05163,-4.49326 -6.26088,-7.99562 -7.47162,-11.84489 -3.79161,-12.05452 1.83618,-23.39139 9.55987,-19.2578 2.49212,1.33375 4.96693,6.6922 4.96693,10.7544 0,8.72009 12.64043,18.04087 21.46321,15.82649 5.54212,-1.39098 1.90974,-6.74093 -7.20486,-10.61168 -6.07272,-2.57895 -11.44681,-8.0585 -13.3443,-13.6062 -1.44501,-4.22476 -1.86711,-19.25631 -0.66162,-23.56078 1.65305,-5.90256 6.72137,-7.60561 10.53945,-3.54145 2.78525,2.96476 4.93399,9.17636 5.78921,16.73555 0.50635,4.47551 1.18297,6.32452 2.58993,7.0775 4.1769,2.23541 9.82898,-2.81118 9.82898,-8.77604 0,-4.99303 -2.16722,-8.45447 -11.61888,-18.55749 -15.35832,-16.41674 -16.86834,-21.08112 -16.10841,-49.758 0.56101,-21.17049 1.54967,-26.65128 6.7871,-37.62532 5.21549,-10.92808 17.50318,-22.50093 28.2106,-26.56942 2.86484,-1.08856 9.03849,-2.59577 13.7192,-3.34936 10.69889,-1.72252 12.32684,-3.3119 13.97576,-13.6446 2.22957,-13.97116 9.32486,-24.50401 22.55588,-33.48385 8.30215,-5.63463 20.25447,-11.47971 31.47875,-15.39416 8.45193,-2.9476 10.71355,-3.31974 20.5,-3.3732 12.08189,-0.066 19.89384,1.95471 20.99727,5.43134 0.95883,3.02099 -2.06671,8.89366 -5.19891,10.09124 -1.5391,0.58847 -10.22336,2.14812 -19.29836,3.46589 -25.74711,3.7387 -34.22621,6.76912 -43.51181,15.55105 -6.47265,6.12157 -10.18011,12.85141 -10.97119,19.91509 l -0.61432,5.4853 4.79283,-5.5 c 8.58043,-9.84644 15.40945,-15.97308 22.27129,-19.98061 13.72493,-8.01579 29.86308,-11.47712 45.9644,-9.85852 13.90826,1.39815 18.03061,4.68869 15.00994,11.98124 -2.15731,5.20818 -5.42252,6.06534 -23.86141,6.26387 -15.18522,0.16351 -17.23314,0.4062 -24.34826,2.88543 -14.07693,4.90503 -22.73147,12.62382 -22.73147,20.27369 0,2.4906 2.71146,1.61026 15.43264,-5.01054 17.88428,-9.30798 27.97151,-11.6829 40.80976,-9.6082 8.80758,1.42334 11.44333,2.71338 12.65697,6.19483 0.8343,2.39328 0.63544,3.2881 -1.20667,5.42968 -1.85455,2.15604 -3.71659,2.78932 -11.69915,3.97888 -16.23775,2.41974 -25.61042,5.9259 -39.94307,14.94202 -2.99724,1.88545 -7.52703,3.87363 -10.06621,4.41819 -4.55722,0.97734 -6.74897,0.79517 -24.14511,-2.00686 -28.35838,-4.56775 -56.45008,14.90268 -61.89438,42.89916 -2.37281,12.20185 0.70202,30.14068 6.23335,36.36583 2.77466,3.1227 2.92176,3.17494 2.34273,0.83191 -0.3398,-1.375 -0.87793,-7 -1.19584,-12.5 -0.65803,-11.3842 0.7745,-18.77879 5.67377,-29.2876 7.82787,-16.79056 27.33549,-28.39271 45.22237,-26.896 11.24861,0.94125 16.20387,4.61835 14.30141,10.61249 -0.97047,3.05766 -4.17618,4.34326 -10.44517,4.18884 -7.60546,-0.18733 -15.61899,1.5678 -21.41676,4.69072 -6.69122,3.60417 -14.08017,11.96322 -16.29114,18.43001 -1.89985,5.55682 -2.45429,17.15843 -1.05969,22.17395 0.79656,2.86475 0.84074,2.88112 2.70004,1 1.03962,-1.05182 3.5146,-6.18741 5.49995,-11.41241 5.88605,-15.49081 10.55662,-21.23172 20.70808,-25.45373 5.02899,-2.09156 13.36691,-2.07067 14.17513,0.0355 2.16122,5.63205 -2.16053,12.94185 -10.64258,18.00089 -8.21589,4.90028 -10.51264,7.05818 -11.29277,10.61007 -0.7883,3.58912 1.69801,6.80725 5.25925,6.80725 3.88135,0 12.47312,-4.58883 17.01916,-9.08987 5.74451,-5.68766 7.74149,-10.29974 10.78579,-24.91013 3.14269,-15.08255 5.07589,-19.3714 12.20024,-27.06655 12.48223,-13.48229 31.36938,-19.92184 58.45647,-19.93063 10.19823,-0.003 12.36019,1.22042 11.2554,6.3709 C 507.76025,567.01031 499.82495,571 482.72531,571 c -12.55466,0 -23.39714,4.79534 -31.75183,14.04299 -5.60203,6.20078 -7.85677,12.05642 -8.38568,21.77789 -0.49434,9.08637 0.27595,11.06811 3.60881,9.28441 2.9516,-1.57964 5.68378,-6.54548 8.63264,-15.69015 2.9315,-9.09086 5.64532,-13.29381 11.24068,-17.40868 11.35558,-8.35099 36.77341,-10.40899 49.34522,-3.99533 4.69508,2.39525 8.61209,7.0034 9.89141,11.63672 1.12994,4.09231 0.38943,9.29879 -1.42138,9.99366 -0.67308,0.25829 -8.1466,-0.95691 -16.60781,-2.70043 -18.02454,-3.71414 -24.60163,-3.63808 -32.52325,0.37611 -5.2396,2.6551 -9.71692,7.07886 -10.88298,10.75278 -0.9777,3.08047 -0.10698,3.29167 4.3005,1.04314 13.46014,-6.86685 27.19653,-8.87986 37.81132,-5.5411 7.84698,2.46818 15.18914,8.53162 18.69634,15.44017 5.87706,11.57674 1.43211,12.3911 -17.14909,3.14187 C 496.71099,617.76852 494.45111,617 489.43385,617 c -7.24491,0 -12.0405,2.21976 -12.0405,5.57325 0,1.33471 0.18541,2.42675 0.41203,2.42675 2.25516,0 17.5797,3.48649 24.19923,5.50557 10.87766,3.31789 15.62571,7.19167 15.19023,12.39324 -0.27389,3.2715 -0.60412,3.63026 -3.6071,3.9187 -3.79347,0.36437 -13.95494,-1.79212 -22.69439,-4.81626 -11.37237,-3.9352 -21.87816,-6.13473 -31.925,-6.68392 -22.36026,-1.22228 -42.43307,5.77237 -48.11899,16.76773 l -1.44182,2.78817 7.2429,-2.53274 c 26.5514,-9.28463 55.862,-9.68443 82.74291,-1.12863 19.86276,6.32203 27.54967,12.76555 25.40811,21.29822 -0.65731,2.61892 -0.85152,2.68877 -5.6914,2.04673 -2.75597,-0.36559 -11.35718,-2.72686 -19.11379,-5.24726 -22.86405,-7.42936 -27.788,-8.46071 -40.60292,-8.50452 -31.40516,-0.10736 -53.35208,13.34235 -54.83173,33.60246 -0.51576,7.06209 -1.13237,7.14831 12.05605,-1.68577 16.35109,-10.95255 32.20154,-16.38121 50.85093,-17.41608 27.20415,-1.50957 46.15486,6.25903 48.4532,19.86276 1.20109,7.10923 -2.60943,13.31285 -6.07845,9.89585 -1.98459,-1.95482 -14.02643,-7.34605 -21.8266,-9.77194 -5.94741,-1.84966 -11.20388,-2.65674 -19.6234,-3.01296 -12.94095,-0.54752 -20.92918,0.95228 -29.32948,5.50664 -5.30097,2.87401 -15.67052,13.4 -15.67052,15.90694 0,2.51235 7.78324,0.94497 16.09645,-3.2415 11.79143,-5.93807 20.22201,-7.73116 36.90355,-7.849 11.77387,-0.0832 15.50967,0.24921 19.87033,1.76791 6.63512,2.31082 11.8012,7.31842 15.40732,14.93465 3.11747,6.5842 3.41317,9.86133 1.09863,12.17587 -2.14447,2.14447 -5.87349,1.28912 -13.1832,-3.02395 -10.39261,-6.13212 -11.66764,-6.76833 -15.19308,-7.58088 -4.60451,-1.06127 -14.1844,0.48059 -26.2481,4.22456 -10.33261,3.20673 -15.13284,6.29674 -16.16397,10.40509 -0.70559,2.8113 1.5038,7.93181 3.80312,8.81414 0.80576,0.3092 5.28248,-1.43535 9.94826,-3.87678 14.26518,-7.46443 25.4038,-9.03533 38.11376,-5.37525 10.14565,2.92164 14.03232,13.92615 6.36739,18.0283 -1.17354,0.62806 -9.82573,1.49608 -19.22709,1.92893 -18.21485,0.83863 -23.86845,2.13896 -28.51336,6.55807 -3.17473,3.02039 -1.76482,4.81325 5.07566,6.45426 7.04743,1.69065 14.32364,0.58867 23.8925,-3.61852 11.29714,-4.96705 14.15225,-5.30931 17.37836,-2.0832 2.50063,2.50063 3.21568,5.82722 1.95739,9.10627 -0.33884,0.88301 -3.82634,3.45611 -7.75,5.718 -9.03313,5.20738 -11.4141,7.38443 -12.54144,11.46731 -1.14042,4.13027 0.32438,10.22306 3.23869,13.47122 6.23906,6.9538 15.86455,10.61138 30.50096,11.59003 13.20727,0.88309 13.40474,1.10116 14.20141,15.68309 0.34949,6.39693 0.93492,11.93025 1.30095,12.29628 0.36603,0.36603 0.70087,0.47801 0.74409,0.24884 0.0432,-0.22917 0.64761,-5.72998 1.34309,-12.22404 1.88512,-17.60239 5.04797,-19.35593 11.07147,-6.13823 4.02258,8.82697 8.51469,14.88118 12.61473,17.00139 2.67149,1.38148 2.89213,1.35846 2.89213,-0.30175 0,-0.98853 -0.90805,-4.93758 -2.01788,-8.77568 -2.68285,-9.27804 -3.60994,-23.60984 -2.04261,-31.57642 1.68557,-8.56761 6.90027,-23.93612 15.68081,-46.2137 8.74928,-22.1983 9.71366,-23.90428 13.27878,-23.49027 4.727,0.54893 6.26223,5.48076 5.85287,18.80203 l -0.35339,11.5 -7.28105,18.37428 c -10.82658,27.3217 -11.76418,39.67907 -3.62794,47.81532 2.25862,2.25862 4.2525,3.3104 6.27555,3.3104 3.48842,0 8.23486,-3.39712 8.23486,-5.89387 0,-0.96179 -2.70743,-5.97113 -6.01652,-11.13188 -3.30908,-5.16074 -6.50255,-11.18818 -7.09659,-13.39431 -2.06513,-7.66928 1.54031,-15.69259 5.83455,-12.98385 0.94679,0.59722 3.68801,4.41992 6.09159,8.49489 4.64419,7.87363 11.10114,16.32819 11.87739,15.55193 0.25669,-0.25669 -1.12395,-5.3871 -3.06808,-11.40091 -5.83494,-18.04926 -6.56417,-28.72874 -2.2559,-33.03701 1.35147,-1.35147 1.7698,-1.34574 3.90529,0.0535 1.75637,1.15082 3.3918,4.5787 6.15661,12.90431 2.0707,6.23547 4.45792,12.42773 5.30493,13.76058 1.47774,2.32536 1.59516,2.34796 2.90337,0.55887 2.153,-2.94439 1.64513,-12.48703 -1.13253,-21.27988 -1.37274,-4.34549 -5.25033,-14.15622 -8.61687,-21.80162 C 598.95228,733.75816 595.80137,725.05341 594.91427,719 c -1.00882,-6.88398 1.01659,-19.71488 5.57913,-35.34369 7.09042,-24.28798 11.98944,-47.42596 15.48942,-73.15631 1.7652,-12.97703 3.48827,-17.60872 5.40024,-14.51613 1.38424,2.23899 4.91894,15.92971 6.65518,25.77707 0.84746,4.80648 1.61154,15.35029 1.69797,23.43068 0.0864,8.08039 0.42688,14.38039 0.75656,14 0.32969,-0.38039 7.03233,-8.6949 14.89475,-18.4767 7.86243,-9.7818 14.79268,-17.62093 15.40057,-17.4203 1.77926,0.58723 1.85797,13.16378 0.12517,19.99886 -1.95388,7.70712 -7.00644,18.51672 -12.94813,27.70163 -2.49229,3.85269 -4.37209,7.00489 -4.17734,7.00489 1.17837,0 9.73124,-3.44992 17.49081,-7.05517 4.96378,-2.30627 9.66848,-3.94631 10.4549,-3.64454 1.14065,0.43771 1.25095,1.50629 0.54534,5.28326 -2.62117,14.03043 -12.15405,25.66279 -28.88549,35.24711 l -5.5,3.15058 17.5,0.0241 c 19.26071,0.0266 22.28661,0.71302 22.80738,5.17414 0.40502,3.46954 -2.95283,6.5326 -12.14261,11.07659 -11.06846,5.47292 -17.74776,7.09347 -29.56638,7.17349 l -10.40161,0.0704 -4.71366,-15.67769 c -6.06394,-20.16875 -5.85493,-19.63909 -7.02161,-17.79428 -1.76069,2.7841 -0.95639,12.2428 1.90035,22.34833 1.57403,5.568 3.56977,13.72364 4.43498,18.12364 0.86522,4.4 2.71975,12.95 4.12119,19 1.40143,6.05 2.84794,15.62751 3.21445,21.28334 0.36652,5.65584 1.01146,10.49661 1.43321,10.75727 0.42175,0.26065 1.76255,-3.89702 2.97956,-9.23927 1.73218,-7.60367 2.83037,-10.3308 5.05656,-12.55699 5.54996,-5.54996 8.47101,-0.36348 7.04326,12.50565 -0.41189,3.7125 -0.61353,6.75 -0.44811,6.75 0.16542,0 3.91049,-4.6125 8.32238,-10.25 15.50024,-19.80616 17.25199,-21.75 19.60077,-21.75 4.13712,0 4.18605,4.55477 0.25782,24 -1.05553,5.225 -2.16182,10.4 -2.45843,11.5 -0.29661,1.1 1.53705,-1.15 4.07481,-5 6.019,-9.13134 9.45152,-12.65236 11.98111,-12.29001 3.5828,0.51322 2.48886,8.56163 -2.85581,21.01098 -5.26045,12.25318 -12.76406,26.22327 -15.86063,29.52903 -4.37679,4.67249 -9.36989,2.70643 -20.62514,-8.12124 -7.90864,-7.60819 -12.43611,-10.65982 -13.79665,-9.29929 -1.24622,1.24622 -2.29138,8.86148 -2.31334,16.85543 -0.0301,10.9566 -1.01843,13.8151 -4.7766,13.8151 -2.94896,0 -5.84234,-1.60359 -10.65152,-5.90336 -2.46854,-2.20705 -2.79801,-2.30069 -2.19601,-0.62413 0.38955,1.08488 1.18706,6.48488 1.77224,12 0.85303,8.03949 0.79276,10.82052 -0.304,14.02749 -1.27389,3.72493 -1.65636,4.02096 -5.56175,4.30475 -4.93245,0.35843 -7.51375,-0.82847 -19.71605,-9.0656 -4.9004,-3.30801 -8.64158,-5.39009 -8.31372,-4.62685 0.32786,0.76324 2.28607,5.2127 4.35159,9.8877 2.4068,5.44746 3.90681,10.53005 4.17688,14.15281 0.38866,5.21349 0.21817,5.78596 -2.1938,7.36635 -2.52427,1.65396 -2.8071,1.61966 -8.13408,-0.98659 -3.73273,-1.82626 -9.3958,-6.49701 -17.49795,-14.43187 -6.5885,-6.45245 -11.97908,-11.69928 -11.97908,-11.65961 0,0.0397 0.45467,1.64415 1.01038,3.56552 4.57894,15.83173 2.5534,25.99339 -5.18131,25.99339 -6.29656,0 -14.02211,-7.35147 -27.80351,-26.45726 l -6.46105,-8.95726 -0.70386,3.44145 c -0.85409,4.17605 -5.00133,7.98099 -8.66642,7.95111 -1.48183,-0.0121 -4.56354,-0.87074 -6.84824,-1.90813 -5.80966,-2.63793 -8.84774,-8.30765 -11.90024,-22.2084 -4.00691,-18.24703 -4.48074,-19.5353 -3.95196,-10.74476 0.39548,6.57454 0.1976,7.85256 -1.44615,9.34013 -5.44296,4.92582 -11.60631,-5.20168 -21.57816,-35.45688 -4.2813,-12.98969 -5.46948,-15.08449 -5.46948,-9.64282 0,4.91727 -1.88877,12.30562 -3.48436,13.62984 -1.98725,1.64927 -4.23191,0.17938 -5.83166,-3.81881 -2.00955,-5.02235 -7.37848,-26.90012 -8.98878,-36.62819 -0.72469,-4.37799 -1.56504,-7.52799 -1.86744,-7 -0.3024,0.52799 -1.51792,4.19815 -2.70115,8.15591 C 423.9965,775.48145 421.74726,780 419.40413,780 c -3.21393,0 -3.99191,-3.693 -5.03465,-23.89923 -1.11231,-21.55415 -1.87766,-28.62388 -2.97105,-27.44409 -0.42986,0.46383 -2.44364,4.66832 -4.47507,9.34332 -2.03143,4.675 -4.40146,9.2875 -5.26675,10.25 -1.83458,2.04071 -4.81002,2.29209 -5.91818,0.5 -0.42512,-0.6875 -1.10826,-10.925 -1.51808,-22.75 -0.67352,-19.434 -4.74846,-59.52405 -6.70001,-65.91593 -0.60522,-1.98229 -1.41928,-0.36682 -4.53525,9 -2.08869,6.27876 -5.55985,15.20897 -7.71368,19.84489 -5.39555,11.61344 -6.7332,17.53758 -7.9068,35.01743 -1.97239,29.37695 -6.63133,43.77621 -12.03391,37.19283 -1.06555,-1.29843 -1.93735,-3.40937 -1.93735,-4.69098 0,-1.28161 -0.45,-2.60832 -1,-2.94824 -0.63574,-0.3929 -1.00361,2.40862 -1.00989,7.69099 -0.0112,9.44187 -1.71911,36.10536 -2.54126,39.67441 -0.46834,2.03313 -0.97137,2.2801 -3.58103,1.75817 -1.66988,-0.33398 -4.43069,-1.60024 -6.13515,-2.81392 -2.90002,-2.065 -3.04948,-2.08158 -2.32764,-0.25817 0.42425,1.07169 3.73469,10.72352 7.35653,21.44852 5.85028,17.32388 6.59371,20.39277 6.6618,27.5 0.0727,7.58705 -0.0408,8.01666 -2.1977,8.32274 -1.52141,0.2159 -3.99387,-1.10832 -7.4684,-4 l -5.19406,-4.32274 2.36995,4 c 1.30348,2.2 5.15839,8.275 8.56646,13.5 14.33966,21.98446 17.50039,27.5818 17.50039,30.99155 0,3.16369 -2.73052,3.53559 -7.85612,1.07003 -5.51357,-2.65218 -5.80179,-2.9503 9.35612,9.67726 14.04178,11.69776 20.47959,18.34067 23.48657,24.23485 4.05811,7.95455 0.82731,11.06286 -7.76869,7.47415 -5.29084,-2.20884 -3.56187,-0.90751 12.78212,9.62064 16.63355,10.71468 25.59929,17.29836 26.87519,19.73486 1.22868,2.34633 -0.30723,5.88162 -2.91483,6.70924 -1.19303,0.37866 -7.07217,0.66393 -13.06476,0.63394 -5.99258,-0.03 -10.8956,0.0937 -10.8956,0.27494 0,0.6423 21.65449,13.44117 32,18.91359 10.96647,5.80085 12.73186,7.31535 11.69053,10.02905 -0.50111,1.3059 -2.08671,1.6359 -7.85915,1.6359 -4.43977,0 -6.86464,0.3564 -6.28138,0.9233 0.5225,0.5078 9.5,3.2095 19.95,6.0036 22.88667,6.1196 25.75301,7.2864 25.31745,10.3057 -0.3828,2.6535 -3.01205,4.0887 -12.56745,6.8597 -3.9875,1.1564 -7.25,2.5087 -7.25,3.0051 0,1.5605 19.8782,0.9435 35.41968,-1.0994 14.9268,-1.9622 17.61035,-1.7522 17.56337,1.3744 -0.009,0.6202 -2.03432,3.2783 -4.5,5.9069 -2.46568,2.6286 -4.48305,5.4326 -4.48305,6.231 0,3.3396 11.49504,3.1235 32.8232,-0.6173 19.94413,-3.498 19.1768,-3.4572 19.1768,-1.021 0,1.1744 -0.89672,3.8083 -1.99271,5.8532 -1.78807,3.3362 -1.83569,3.8749 -0.46369,5.2464 1.93482,1.934 9.22389,1.7132 17.16099,-0.5199 11.82979,-3.3283 27.74803,-10.3845 33.97868,-15.0619 1.75081,-1.3144 3.63298,-2.3898 4.18262,-2.3898 1.73755,0 2.36526,4.0172 1.65866,10.6153 -0.93555,8.7361 -0.0476,12.3847 3.01402,12.3847 3.36963,0 16.70415,-7.1271 32.42495,-17.3306 13.76757,-8.9358 16.79482,-10.3598 19.67436,-9.2549 1.37269,0.5268 1.53954,1.6139 1.01618,6.6211 l -0.62616,5.9908 4.23605,-2.1566 c 13.55076,-6.8988 35.90136,-24.655 44.20702,-35.1198 2.60298,-3.2797 4.50652,-4.75 6.14949,-4.75 2.99788,0 3.09351,2.4514 0.51581,13.2225 l -1.84812,7.7225 4.60592,-3.8658 c 11.51391,-9.6637 26.12097,-24.49826 30.39454,-30.8679 13.47795,-20.08854 15.28786,-40.23608 5.52126,-61.4613 -2.47083,-5.36972 -3.55932,-6.75 -5.32305,-6.75 -3.65363,0 -7.21108,3.64764 -14.98735,15.36731 -21.49235,32.39126 -46.30834,46.88893 -104.49947,61.0493 -52.67725,12.81859 -69.88185,13.20229 -99.0729,2.20919 -14.34842,-5.40347 -20.9271,-8.81412 -20.9271,-10.84945 0,-1.85368 0.45721,-1.91369 8.75,-1.14837 31.54418,2.91113 64.48551,-2.66937 89.81566,-15.21541 8.28197,-4.10207 8.62524,-4.38755 4.70122,-3.90976 -24.05072,2.92843 -33.16588,3.61905 -47.76688,3.61911 -33.56517,1.3e-4 -62.25402,-6.65983 -93,-21.58943 -24.18607,-11.74424 -50.46157,-30.90425 -47.05412,-34.31171 0.34568,-0.34567 5.22427,0.16488 10.84131,1.13456 5.61704,0.96968 19.43781,3.08019 30.71281,4.69003 11.275,1.60984 22.075,3.1608 24,3.44659 2.98383,0.44297 2.68544,0.17386 -2.02327,-1.82482 -28.90573,-12.26942 -46.41236,-26.46831 -55.7933,-45.25163 -3.61943,-7.24712 -4.82053,-11.04256 -6.1224,-19.3466 -1.07221,-6.83919 -0.57462,-11.07871 1.29737,-11.05359 0.62788,0.008 5.6416,4.34482 11.1416,9.63643 43.21586,41.57848 101.12736,65.34217 159.25,65.34742 8.67955,7.8e-4 9.25,0.12816 9.25,2.06544 0,1.61145 -1.81082,2.90085 -8.25,5.87447 -6.83972,3.15859 -20.12892,7.88682 -29.25,10.407 -1.1,0.30393 10.15,0.39458 25,0.20145 35.03749,-0.45569 54.99443,-3.59705 76.2498,-12.00226 9.68209,-3.82868 12.2502,-4.2912 12.2502,-2.2063 0,3.19612 -12.17223,15.14652 -22.21306,21.80824 -5.27789,3.50169 -3.38498,3.72244 7.07179,0.82472 16.50644,-4.57416 33.63348,-16.69841 46.526,-32.93579 4.78011,-6.02028 12.44315,-18.14315 18.52394,-29.30474 4.29915,-7.89131 7.31813,-12.34398 8.52731,-12.57684 1.76821,-0.34053 1.83392,0.22684 1.1864,10.24247 C 737.6387,893.22867 737.55771,898 737.83574,898 c 1.35682,0 10.77329,-14.96896 13.40466,-21.30881 2.79946,-6.74486 6.15295,-20.14691 6.15295,-24.59001 0,-2.39807 1.79374,-3.70744 3.17993,-2.32124 2.03564,2.03563 -0.24083,48.82449 -2.76979,56.92825 -1.01015,3.23691 9.72777,-9.03175 15.27995,-17.45819 2.98976,-4.5375 5.87169,-8.25 6.4043,-8.25 2.22502,0 1.81689,3.19678 -1.41836,11.1098 -5.94725,14.54625 -8.22491,23.47265 -9.56259,37.47685 -0.73909,7.7376 -0.16424,8.44737 1.81691,2.24335 1.98818,-6.22605 3.55495,-6.61655 6.63425,-1.65351 2.9968,4.83008 6.40194,8.82351 7.52366,8.82351 0.4068,0 0.89085,-5.19221 1.07568,-11.53825 0.25923,-8.90041 0.67898,-11.75462 1.83606,-12.48469 2.62586,-1.6568 4.00072,-1.0878 9.30986,3.85297 5.95287,5.53984 9.60726,8.16997 11.35162,8.16997 0.89278,0 1.16618,-2.91566 1.02749,-10.95744 -0.15192,-8.80873 0.11938,-11.26714 1.38348,-12.53675 2.32627,-2.33638 4.0957,-1.1168 7.32137,5.04627 2.93789,5.61321 7.11905,9.86702 8.72371,8.87528 0.48536,-0.29996 0.88247,-6.09398 0.88247,-12.87559 0,-10.41399 0.28161,-12.67797 1.81207,-14.56802 2.42664,-2.99677 4.40792,-2.2211 11.30026,4.42408 6.83228,6.58726 13.71048,10.43829 15.05958,8.4317 0.49533,-0.73674 0.64272,-2.91453 0.32753,-4.83953 -0.31518,-1.925 -0.81474,-8.45 -1.11012,-14.5 -0.45847,-9.39053 -0.27019,-11.5121 1.28681,-14.5 1.08386,-2.07992 2.70562,-3.62557 3.99708,-3.80949 1.83301,-0.26103 2.82267,1.01984 6.32175,8.18201 4.01564,8.21947 6.61017,11.10771 10.59786,11.79755 2.84391,0.49198 2.91091,-2.76214 0.36457,-17.70544 -2.44096,-14.32492 -2.20857,-19.8781 1.05658,-25.2472 1.98903,-3.27071 5.2234,-4.2604 6.607,-2.02168 0.40646,0.65766 1.04849,5.28759 1.42674,10.28873 0.46227,6.11193 1.36008,10.39166 2.73858,13.05426 1.39086,2.68649 2.21649,3.47855 2.56557,2.46126 0.2831,-0.825 0.7375,-12.75 1.00977,-26.5 0.59663,-30.13017 2.2957,-38.65595 8.24371,-41.36604 3.2802,-1.49456 5.71457,-0.17229 7.50751,4.07783 2.22349,5.27074 1.7125,42.11398 -0.78484,56.5883 -0.75483,4.37491 -3.90446,4.0939 -3.67119,-0.32755 0.0863,-1.63489 0.6106,-11.29754 1.16521,-21.47254 1.41316,-25.92595 -0.34447,-39.7237 -4.12281,-32.3649 -2.65252,5.16613 -3.61559,13.54221 -4.17453,36.30691 -0.30305,12.34311 -1.01243,24.15561 -1.5764,26.25 -0.89045,3.30688 -1.40955,3.80799 -3.94468,3.80799 -4.07881,0 -7.77504,-6.51972 -9.49503,-16.74815 l -1.30354,-7.75185 -0.0922,6.5 c -0.0507,3.575 0.80109,11.60496 1.89285,17.84435 2.58821,14.79157 1.63641,19.15565 -4.17783,19.15565 -6.30644,0 -11.64511,-4.87242 -15.88875,-14.5011 l -2.20315,-4.9989 -0.97132,3.5 c -0.64507,2.32443 -0.60073,6.78687 0.13201,13.28585 0.60682,5.38221 1.10332,11.53757 1.10332,13.67857 0,10.36895 -10.05133,9.15541 -22.1459,-2.67377 -6.7972,-6.64804 -7.03199,-6.35456 -6.67394,8.34193 0.28194,11.57272 -0.38686,14.13021 -3.92752,15.01886 -3.46963,0.87082 -6.89249,-1.15711 -10.96482,-6.49629 l -3.28782,-4.31062 v 8.8866 c 0,10.9398 -1.02931,12.86116 -6.35475,11.8621 -2.56416,-0.48104 -5.60149,-2.49164 -10.04898,-6.65204 -5.00079,-4.678 -6.50573,-5.61953 -6.98517,-4.37012 -0.33611,0.87588 -0.6111,6.70415 -0.6111,12.9517 0,6.62975 -0.42395,11.62121 -1.01824,11.98851 -1.3564,0.8383 -6.66652,-2.53575 -10.92363,-6.94087 l -3.44187,-3.56154 -3.19917,8.05327 c -3.65523,9.20133 -3.78675,9.39373 -5.87397,8.59279 -3.16337,-1.2139 -1.2551,-30.54794 2.86785,-44.08467 l 1.50148,-4.92974 -6.73132,6.67974 c -6.30009,6.25181 -10.19059,8.32813 -10.17396,5.42974 0.004,-0.6875 0.90394,-7.93643 2,-16.10874 1.09605,-8.17232 1.99283,-16.39858 1.99283,-18.28058 0,-3.17288 -0.30921,-2.8376 -4.25,4.60845 C 746.94085,894.79912 736.95656,907 734.11492,907 c -1.91189,0 -1.98485,-0.43384 -1.38751,-8.25 l 0.63049,-8.25 -5.28401,9 c -18.60738,31.69304 -37.42703,48.77393 -62.18054,56.43565 -9.14751,2.83134 -25.9265,4.00127 -26.7463,1.86491 -0.8406,-2.19058 0.013,-2.92734 8.2463,-7.11766 6.73149,-3.42598 20.65846,-13.37997 19.82916,-14.17245 -0.18104,-0.17301 -4.15416,0.96389 -8.82916,2.52644 -24.3269,8.1309 -58.75433,11.2114 -100.96799,9.03442 -22.17874,-1.14377 -25.34603,-1.78309 -22.97676,-4.63789 0.51747,-0.62351 4.96639,-1.4194 9.88649,-1.76863 4.92009,-0.34924 12.96741,-1.53082 17.88292,-2.62573 9.69107,-2.15865 25.83089,-7.67271 26.73362,-9.13337 C 589.2656,929.39768 586.43433,929 582.50358,929 c -16.77322,0 -44.40832,-5.34228 -65.35994,-12.63506 -31.85741,-11.08884 -61.44087,-29.19979 -84.50029,-51.73097 -3.9875,-3.89615 -7.25,-6.48513 -7.25,-5.75328 0,3.51747 3.52403,14.29363 6.57943,20.11931 10.45775,19.93959 30.25345,34.2262 64.9147,46.84909 8.44486,3.07544 13.10089,5.28658 13.29909,6.31572 0.16773,0.87095 -0.27963,1.79223 -0.99413,2.0473 -1.58453,0.56567 -39.22156,-4.09716 -61.70523,-7.64462 -9.02337,-1.4237 -16.56243,-2.43226 -16.75345,-2.24124 -0.19102,0.19103 3.14174,2.8551 7.40614,5.92017 21.16194,15.21034 46.16358,26.89363 71.05123,33.20232 19.55376,4.95663 28.2724,5.96353 51.70222,5.97103 19.24986,0.006 24.37511,-0.35492 41,-2.88856 22.40607,-3.41468 24.85183,-3.56313 25.22675,-1.53121 0.53732,2.91208 -23.81422,15.47325 -40.68484,20.98631 -15.17047,4.95748 -32.78163,8.11476 -49.54191,8.88173 l -15,0.68642 11.16051,3.69982 c 26.02545,8.62772 42.31108,7.77662 92.83949,-4.8514 42.27942,-10.56648 64.50444,-20.86133 82.87574,-38.38886 6.74619,-6.43634 16.62426,-18.52281 16.62426,-20.34087 0,-1.1231 6.16689,-9.68619 9.05729,-12.5766 3.36573,-3.36573 9.01868,-5.54528 12.26754,-4.72987 1.41533,0.35523 3.20896,2.51268 4.95383,5.9587 11.73537,23.17656 10.78812,45.4597 -2.86359,67.36297 -7.26508,11.65635 -40.19746,42.37665 -43.90352,40.95445 -1.85304,-0.7111 -1.8516,-2.4395 0.008,-10.1428 2.01379,-8.3401 1.85843,-9.1032 -1.13016,-5.5515 -8.94798,10.6341 -43.59356,35.0515 -49.73416,35.0515 -3.01531,0 -4.07718,-2.8705 -3.00255,-8.1165 0.77866,-3.8011 0.73568,-4.8629 -0.18258,-4.5106 -0.66054,0.2535 -7.67413,4.6216 -15.58577,9.7069 -15.46513,9.9405 -26.5279,15.6635 -31.99236,16.5502 -2.68886,0.4364 -3.83874,0.087 -5.40404,-1.6408 z"
       id="path1" /></g></svg>
