<?xml version="1.0" encoding="UTF-8" standalone="no"?>
<!-- Created with Inkscape (http://www.inkscape.org/) -->

<svg
   version="1.1"
   id="svg1"
   width="1300"
   height="1294"
   viewBox="0 0 1300 1294"
   sodipodi:docname="casa.svg"
   inkscape:version="1.3 (0e150ed6c4, 2023-07-21)"
   xml:space="preserve"
   xmlns:inkscape="http://www.inkscape.org/namespaces/inkscape"
   xmlns:sodipodi="http://sodipodi.sourceforge.net/DTD/sodipodi-0.dtd"
   xmlns="http://www.w3.org/2000/svg"
   xmlns:svg="http://www.w3.org/2000/svg"><defs
     id="defs1" /><sodipodi:namedview
     id="namedview1"
     pagecolor="#505050"
     bordercolor="#ffffff"
     borderopacity="1"
     inkscape:showpageshadow="0"
     inkscape:pageopacity="0"
     inkscape:pagecheckerboard="1"
     inkscape:deskcolor="#505050"
     inkscape:zoom="0.3133694"
     inkscape:cx="6.3822442"
     inkscape:cy="939.78546"
     inkscape:window-width="1920"
     inkscape:window-height="1046"
     inkscape:window-x="-11"
     inkscape:window-y="-11"
     inkscape:window-maximized="1"
     inkscape:current-layer="g1" /><g
     inkscape:groupmode="layer"
     inkscape:label="Image"
     id="g1"><path
       style="fill:#000000;stroke-width:0.810461"
       d="m 3.618191,1049.3644 v -86.83773 l 8.08676,-1.04948 c 12.34834,-1.60254 11.903588,-1.38802 11.252195,-5.42762 -0.303841,-1.88424 -0.674483,-5.76551 -0.823649,-8.62503 -0.149156,-2.85953 -0.452053,-5.50795 -0.6731,-5.88538 -0.221058,-0.37743 -4.325976,-1.19406 -9.122063,-1.81472 l -8.720143,-1.12849 v -3.93957 c 0,-3.3065 0.2218651,-3.89335 1.3806628,-3.65195 0.7593704,0.1582 4.9650341,0.47858 9.3459232,0.71197 l 7.965251,0.42435 0.910463,-7.818 c 0.500747,-4.2999 0.910454,-12.52301 0.910454,-18.27359 0,-8.60382 0.203681,-10.45559 1.150017,-10.45559 2.494029,0 5.900098,18.44641 5.936885,32.15262 l 0.01363,5.09453 2.958571,0.53192 c 1.627216,0.29255 6.686365,0.7686 11.242568,1.0579 l 8.283986,0.52598 -0.268592,-10.7315 c -0.147735,-5.90232 -0.02872,-13.44771 0.264543,-16.76752 0.462177,-5.2325 0.737545,-6.03603 2.068511,-6.03603 0.844443,0 1.649703,0.4683 1.789475,1.04069 0.139772,0.57238 1.016426,3.66325 1.948122,6.86859 1.54335,5.3096 3.140017,13.39919 4.477838,22.68715 l 0.509654,3.53837 h 6.526636 c 3.589648,0 8.182054,-0.23945 10.205357,-0.5321 4.180208,-0.60462 4.176586,-0.56696 0.815385,-8.49377 -1.970298,-4.64662 -1.627673,-7.62525 0.877112,-7.62525 1.391352,0 5.397121,5.65104 7.732677,10.9087 l 1.702241,3.83198 13.388829,0.5076 c 9.22535,0.34975 13.55261,0.22795 13.91549,-0.39166 0.28967,-0.4946 0.96276,-3.75198 1.49576,-7.23863 1.261,-8.24894 3.31769,-16.66344 6.88228,-28.15725 3.15035,-10.15817 5.0888,-13.78214 6.55008,-12.24556 0.65783,0.69171 0.26361,5.54662 -1.52106,18.73251 -3.69974,27.33519 -3.91126,29.38036 -3.12928,30.25823 0.39373,0.442 4.26073,0.95389 8.59334,1.13752 l 7.87747,0.33389 v -2.92308 c 0,-4.58404 2.95666,-13.80521 4.35693,-13.58834 2.23969,0.34689 2.68855,1.63569 1.8846,5.41136 -0.42901,2.01484 -0.54569,5.31229 -0.2593,7.32769 l 0.52073,3.66436 7.29868,-0.56538 c 6.77741,-0.52498 7.41856,-0.43886 8.97728,1.20602 3.64143,3.84269 0.49075,7.99136 -6.69678,8.81802 -8.75659,1.00711 -8.19261,0.48482 -8.19261,7.58717 v 6.27652 l 4.93095,-2.98941 c 2.71202,-1.64416 8.21449,-4.88245 12.22772,-7.19619 l 7.29676,-4.20681 -0.47066,-4.29965 c -0.45467,-4.15343 -0.38639,-4.35155 2.00762,-5.82503 1.81702,-1.11836 3.6784,-1.45157 6.97606,-1.24883 l 4.49776,0.27652 0.67793,-4.73143 0.67793,-4.73144 7.10252,-0.58633 7.10251,-0.58633 2.65226,-5.97657 c 1.45875,-3.2871 3.40155,-6.69214 4.31736,-7.56674 2.11762,-2.02234 3.66484,-2.00623 27.22846,0.28356 18.23176,1.77167 25.85169,1.74976 26.92179,-0.0774 0.27212,-0.46464 0.52869,-6.92843 0.57017,-14.36397 0.0834,-14.95848 0.5106,-16.35691 5.33831,-17.47585 1.33637,-0.30974 2.59752,-1.28234 2.94386,-2.27031 0.96364,-2.74897 0.002,-92.33152 -1.04849,-97.60519 -0.18231,-0.91581 -0.35862,-1.94609 -0.39183,-2.28953 -0.0332,-0.34343 -1.08197,-0.62441 -2.33062,-0.62441 -3.63509,0 -4.02239,-1.27208 -3.95008,-12.97414 0.0365,-5.91454 -0.1862,-11.78887 -0.495,-13.05405 -1.11471,-4.56724 3.6562,-7.21376 13.81591,-7.66394 l 6.70609,-0.29714 v -3.19486 c 0,-3.05341 -0.12225,-3.20479 -2.76132,-3.41958 -4.25495,-0.34631 -6.31163,-0.97249 -6.31163,-1.92164 0,-0.47621 0.40989,-0.59852 0.91085,-0.27178 0.56707,0.36983 0.69658,0.22819 0.34313,-0.37532 -0.332,-0.56688 0.43238,-1.85737 1.84105,-3.1082 1.32482,-1.17637 3.19195,-3.29953 4.14917,-4.71813 1.94607,-2.88406 2.05512,-4.88848 2.43386,-44.73647 l 0.19379,-20.38892 1.96741,-0.98376 c 1.18647,-0.59328 7.56063,-1.12387 16.05855,-1.33672 l 14.09114,-0.35294 5.31752,-11.16034 c 2.92463,-6.13817 6.61317,-13.74247 8.19675,-16.89842 3.77505,-7.52338 3.73341,-8.49148 -0.39027,-9.07516 -3.70633,-0.52459 -4.59069,-1.54333 -4.60793,-5.30812 -0.006,-1.45075 -0.21876,-3.20608 -0.47137,-3.90074 -0.48359,-1.32988 3.13235,-2.80238 7.95225,-3.23833 l 2.36477,-0.2139 0.002,-13.87188 0.002,-13.87188 -7.25967,-0.28158 c -9.56038,-0.37079 -10.20481,-1.09745 -5.69284,-6.41915 8.56172,-10.09827 12.11781,-15.29187 16.14193,-23.57507 5.34018,-10.99213 12.13882,-30.33276 13.36063,-38.00803 l 0.57529,-3.61385 3.6661,0.48039 c 2.01634,0.26422 4.90634,0.86017 6.4222,1.32433 1.51587,0.46417 4.22936,0.84394 6.02998,0.84394 2.35305,0 3.41854,0.39795 3.78835,1.4149 0.28298,0.7782 0.83652,7.05589 1.23009,13.95043 1.26388,22.14013 5.64676,35.28067 15.18946,45.54033 2.49506,2.68252 4.53647,5.3468 4.53647,5.92063 0,0.72565 -1.50142,1.04084 -4.93096,1.03519 l -4.93095,-0.008 -0.21361,16.34585 -0.2136,16.34587 3.52935,0.55851 c 1.94113,0.30718 4.78874,0.30919 6.32799,0.004 l 2.79863,-0.55404 v 5.50426 5.50427 h -5.52266 c -3.52074,0 -5.52267,0.335 -5.52267,0.92416 0,1.80747 8.27189,17.25576 10.20431,19.05718 1.23244,1.14892 3.8273,5.72505 4.61697,8.14223 1.64237,5.02729 2.07395,5.17757 14.90531,5.19004 13.3598,0.013 15.4975,0.36027 14.58873,2.37006 -0.33948,0.75079 -0.59727,9.98203 -0.57286,20.51386 0.0434,18.73728 0.0843,19.20782 1.90103,21.89577 2.11681,3.13191 8.00526,14.25828 8.00526,15.12617 0,0.78593 6.22193,12.16505 8.88349,16.24677 1.189,1.82345 2.16184,3.60304 2.16184,3.95465 0,0.3516 -3.86184,0.63929 -8.58187,0.63929 -6.94711,0 -8.78386,0.25683 -9.64222,1.34826 -0.8046,1.02306 -1.04659,4.88864 -1.00326,16.02669 0.0315,8.07315 0.33159,15.97202 0.66709,17.55303 0.41139,1.93869 2.57144,5.05584 6.63463,9.57439 7.12942,7.9284 12.18358,15.48926 11.79397,17.64343 -0.24196,1.33782 -1.30738,1.60848 -7.95417,2.02066 -4.22113,0.26177 -7.88595,0.69877 -8.14403,0.97112 -0.36539,0.38559 -2.57492,27.57925 -2.68218,33.01086 -0.0183,0.92587 1.0015,1.04492 5.12842,0.59874 2.83318,-0.30631 6.20596,-0.77954 7.49504,-1.05159 l 2.34382,-0.49468 v 6.22751 6.22751 l -7.04944,1.06628 -7.04942,1.06628 -0.008,29.77394 -0.008,29.77393 1.73163,0.48999 c 0.95239,0.2695 2.53921,0.49512 3.52629,0.50137 1.93395,0.0123 3.33352,2.67004 3.33352,6.33035 0,2.42525 2.44703,3.6717 7.20828,3.6717 4.06349,0 5.36473,1.45204 5.53403,6.17538 0.14147,3.94676 0.27433,4.06821 4.22016,3.85775 3.85942,-0.20584 5.20909,1.51816 6.20432,7.92506 l 0.89625,5.76966 3.98782,2.08138 c 2.19331,1.14477 5.38857,2.71683 7.10057,3.49348 1.71201,0.77665 4.63424,2.92815 6.49384,4.78112 4.93606,4.91845 6.80555,5.66487 12.79243,5.10746 l 5.12819,-0.47743 0.51882,-5.41163 c 0.28536,-2.97638 0.60346,-8.59614 0.7069,-12.48833 l 0.18808,-7.07673 -5.70708,-0.10398 c -3.13888,-0.0572 -6.91852,0.18433 -8.39918,0.53673 -1.48066,0.3524 -2.69211,0.36568 -2.69211,0.0294 0,-1.49159 13.44181,-6.12908 15.43075,-5.32367 0.92414,0.37422 1.13724,-0.64024 1.13724,-5.4138 0,-7.46044 2.12957,-24.77223 3.39054,-27.56242 0.91134,-2.0166 5.23155,-3.61584 5.3277,-1.9722 0.0219,0.37385 0.20104,7.79808 0.39816,16.49828 0.45788,20.20914 0.17238,18.63134 3.47866,19.2242 1.53422,0.2751 7.04985,1.73482 12.25693,3.24381 8.6008,2.49247 9.59381,2.62579 10.8481,1.45642 0.75937,-0.70797 1.38066,-1.62367 1.38066,-2.03489 0,-2.6037 9.13738,-13.4595 10.77184,-12.79763 0.96512,0.39081 0.72289,1.11156 -1.26274,3.75719 -2.65135,3.5326 -5.96162,12.47753 -4.9814,13.46059 0.73324,0.73538 21.35579,2.85133 21.92593,2.2497 0.22354,-0.2359 -0.16562,-4.32305 -0.86483,-9.08254 -0.69919,-4.75948 -1.5696,-11.27616 -1.93425,-14.48151 -0.36464,-3.20534 -0.89322,-6.45479 -1.17462,-7.22101 -0.34304,-0.93401 0.0508,-1.71077 1.19502,-2.35699 2.01966,-1.14064 1.6709,-1.46267 4.22294,3.89932 1.12875,2.37161 2.41407,4.54795 2.85624,4.83634 0.44218,0.28838 0.80614,1.15785 0.80882,1.93217 0.002,0.77432 0.46513,2.34446 1.02769,3.48923 0.56256,1.14476 1.84354,5.68772 2.84662,10.09546 1.00308,4.40775 2.04949,8.37935 2.32536,8.82578 0.27586,0.44643 6.22701,1.06443 13.22477,1.37333 l 12.72321,0.56164 0.48097,-1.8944 c 0.26453,-1.04193 0.4858,-3.79252 0.49173,-6.11242 0.0165,-6.45919 1.40006,-12.97596 3.9207,-18.46711 2.39457,-5.21652 4.06717,-6.68423 5.51678,-4.84102 0.62586,0.7958 0.62273,1.75624 -0.0114,3.48888 -0.5969,1.63101 -0.69897,6.56054 -0.32122,15.5116 0.64549,15.29505 -0.96074,13.58277 13.48685,14.37726 l 9.56328,0.52587 0.51089,-2.14804 c 0.64143,-2.69689 3.41662,-2.92073 4.31839,-0.34831 0.60614,1.72914 1.03074,1.79357 10.82266,1.64233 9.14603,-0.14125 13.56742,0.27244 21.27458,1.99055 l 2.40433,0.53598 2.27467,-6.93894 c 3.7752,-11.51638 7.81336,-18.54471 15.10839,-26.29586 5.06711,-5.38394 7.91193,-6.98662 5.17237,-2.91395 -4.54264,6.75315 -7.86663,14.37763 -10.4352,23.93598 -2.03779,7.58321 -3.76687,15.80771 -3.44048,16.36502 0.55682,0.95072 11.75918,3.35496 14.23815,3.05577 l 2.25362,-0.272 -0.27784,-11.02672 c -0.27541,-10.9299 -0.26155,-11.03336 1.5779,-11.78125 2.62645,-1.06789 3.39997,0.16624 4.46453,7.12298 0.94562,6.1796 2.98249,13.48359 4.11183,14.74467 0.36655,0.4093 4.62547,0.0905 9.78469,-0.73254 8.02737,-1.28053 9.13564,-1.65252 9.13564,-3.06644 0,-0.88503 -1.42011,-7.41495 -3.15581,-14.51094 -5.00985,-20.48162 -4.21625,-29.97673 3.15699,-37.77173 4.10229,-4.33694 6.82843,-6.66856 7.79688,-6.66856 1.46693,0 7.13423,-7.5125 8.01949,-10.63053 0.92127,-3.24492 0.81997,-3.55196 -6.05963,-18.36807 -3.84813,-8.28739 -7.44743,-15.08123 -7.99845,-15.09742 -0.55103,-0.0163 -3.21374,0.93839 -5.91714,2.12131 -4.01289,1.75593 -6.12922,2.14013 -11.52751,2.09271 l -6.61222,-0.0581 -4.49023,4.38693 c -2.46964,2.4128 -7.12725,5.85056 -10.35024,7.63948 -5.13273,2.84888 -6.67692,3.2981 -12.44199,3.6195 -6.94087,0.38694 -14.97157,-1.40876 -16.82186,-3.76144 -0.75161,-0.95569 -0.32771,-1.03633 2.57353,-0.48959 1.91035,0.36001 6.31358,0.62704 9.78497,0.59344 5.61508,-0.0544 6.96461,-0.39979 12.22875,-3.13003 3.25444,-1.68789 7.52103,-4.65759 9.48132,-6.59932 8.4381,-8.35821 8.05196,-8.16474 15.80618,-7.91947 8.54904,0.27042 10.13979,-0.73418 5.73663,-3.62282 -2.66429,-1.74787 -3.7069,-1.9336 -8.93346,-1.5914 -13.17634,0.8627 -18.14766,0.3946 -25.64095,-2.41437 -15.12961,-5.67154 -19.5284,-6.83763 -25.83817,-6.84944 -5.77812,-0.0108 -7.65657,-0.72792 -4.86643,-1.85776 1.99792,-0.80905 10.9303,-0.58401 15.47844,0.38996 2.29946,0.49242 7.82205,2.05116 12.27241,3.46388 4.45037,1.41274 8.30664,2.34165 8.56949,2.06428 0.26285,-0.27737 -0.73568,-2.11711 -2.21894,-4.08831 -3.93682,-5.23186 -10.10289,-15.20554 -10.10289,-16.34152 0,-2.44896 2.52997,-0.48768 6.52251,5.05638 5.5199,7.66498 10.06726,12.58081 14.15952,15.30692 3.0302,2.01859 3.4868,2.09247 7.57635,1.22578 7.3402,-1.55559 9.77917,-1.19452 16.20708,2.39933 6.2642,3.50233 8.85358,3.67966 7.90979,0.54173 -1.29478,-4.30496 -5.29517,-12.4167 -7.89794,-16.01498 -1.561,-2.15805 -2.91851,-4.50127 -3.01669,-5.20716 -0.0982,-0.70589 -0.68002,-1.42594 -1.293,-1.60009 -0.87124,-0.24755 -0.85618,-0.12389 0.0689,0.56653 0.65089,0.48576 0.81777,0.88893 0.37085,0.89594 -0.44693,0.007 -1.90205,-1.20612 -3.23362,-2.69587 -3.89079,-4.35297 -15.88599,-10.29639 -26.61438,-13.18698 -7.84198,-2.1129 -9.30886,-2.94233 -14.64613,-8.28149 -5.31951,-5.32141 -6.49021,-5.79052 -14.50777,-5.8132 -9.05641,-0.0257 -14.04709,-2.60187 -19.2848,-9.95493 l -2.0881,-2.93141 3.28015,3.08602 c 5.80269,5.45928 8.58783,6.48837 17.56014,6.48837 8.80537,0 10.57124,0.61156 16.52618,5.72343 4.24427,3.64339 8.32244,5.06551 14.62969,5.10161 8.83143,0.0505 24.60056,4.82863 32.13411,9.73669 1.61859,1.0545 3.15115,1.91729 3.4057,1.91729 0.64088,0 6.21446,4.43615 6.53763,5.20347 0.14464,0.34343 0.69417,0.62442 1.22117,0.62442 1.08756,0 11.8006,10.87379 13.6542,13.8591 0.66915,1.0777 1.44521,1.95946 1.72457,1.95946 0.27937,0 0.52191,-5.33876 0.53898,-11.86392 0.0276,-10.58196 0.31027,-13.03344 2.61525,-22.68715 1.4213,-5.95278 2.77474,-12.51119 3.0076,-14.57425 l 0.42341,-3.75101 -4.51552,-1.6197 c -2.48352,-0.89083 -5.98422,-2.85207 -7.77931,-4.35832 -3.80483,-3.1926 -4.3172,-3.27105 -7.81666,-1.19689 -4.56673,2.70674 -11.67436,4.4876 -15.84573,3.97021 -2.10683,-0.2613 -6.50991,-1.87213 -9.7846,-3.57962 l -5.95401,-3.10453 -9.93921,1.56478 c -11.65098,1.83426 -13.82681,1.96438 -14.04707,0.84009 -0.22421,-1.14459 18.26183,-6.23149 22.67099,-6.23849 2.21375,-0.003 5.6654,0.93594 9.07295,2.46946 7.07664,3.18472 12.5096,3.32379 18.32039,0.46896 2.2781,-1.11921 4.142,-2.39928 4.142,-2.84457 0,-0.4453 -1.8639,-1.75962 -4.142,-2.92071 -3.30305,-1.68351 -5.74613,-2.19627 -12.06187,-2.5316 -9.34388,-0.4961 -16.07076,-2.50192 -23.24374,-6.93079 -7.02399,-4.33688 -12.52563,-6.72584 -17.50024,-7.5991 l -4.19594,-0.73658 3.94476,-0.0796 c 4.11384,-0.083 10.84321,2.13097 23.20904,7.63585 6.43944,2.86663 16.9226,4.84338 18.88797,3.56159 1.2896,-0.84106 -0.36746,-4.7074 -3.97564,-9.27611 -5.7581,-7.29097 -7.74671,-11.18229 -7.74671,-15.15875 0,-3.8567 1.20603,-7.19979 2.33236,-6.4652 0.37142,0.24223 0.50338,1.13423 0.29323,1.98222 -0.85599,3.45427 1.36747,8.37159 6.40431,14.16348 5.45975,6.2782 6.77062,8.39148 7.48866,12.07261 0.38605,1.97912 1.20451,2.67634 4.79395,4.08379 2.38063,0.93346 5.60736,2.54549 7.1705,3.58228 1.56314,1.03679 3.85678,2.00897 5.09699,2.16038 1.65171,0.20166 2.37701,0.83208 2.71134,2.3567 0.52379,2.38855 7.89037,7.49301 10.81364,7.49301 1.72291,0 1.81005,-0.29398 1.81005,-6.10668 0,-11.22322 -2.79675,-17.37157 -12.74938,-28.02812 -5.04726,-5.40426 -7.86082,-10.70866 -9.9991,-18.85134 -0.8581,-3.26772 -2.00679,-6.82568 -2.55263,-7.90657 -1.82889,-3.62162 -8.18401,-9.61607 -13.05025,-12.30963 -9.17458,-5.0783 -13.71949,-12.74303 -13.71949,-23.13713 0,-5.23849 4.68301,-26.87883 5.81662,-26.87883 0.3858,0 0.47404,1.40493 0.19607,3.12208 -3.39326,20.96232 -3.42057,26.59758 -0.1617,33.35696 1.34771,2.79537 2.99866,4.6072 5.82907,6.39716 2.17185,1.37349 3.82968,2.70065 3.68408,2.94927 -0.1456,0.2486 0.43313,0.50748 1.28608,0.57529 2.05156,0.16307 8.78602,5.43024 11.67996,9.13515 1.26785,1.62311 4.70676,4.32282 7.64203,5.99936 5.11059,2.91898 5.50649,3.37408 9.33709,10.73255 3.03389,5.82803 5.27764,8.89521 9.28836,12.69702 l 5.28814,5.01272 1.34577,-2.32028 c 7.79745,-13.4439 12.46347,-19.71161 18.54712,-24.91377 2.85091,-2.43781 3.67202,-9.16331 1.82276,-14.92943 -1.98138,-6.17802 -6.13976,-14.50503 -9.55297,-19.12952 -3.75566,-5.08845 -4.98754,-7.95472 -4.98754,-11.60468 0,-2.92013 2.17478,-13.83669 2.9043,-14.5784 0.22723,-0.23106 0.17137,3.13909 -0.12416,7.48919 -0.44836,6.5995 -0.30681,8.46077 0.85468,11.2395 0.76561,1.83163 1.31726,3.63907 1.2259,4.01653 -0.0914,0.37747 0.1679,0.46847 0.57612,0.20223 2.38427,-1.555 14.09222,20.03395 14.8838,27.4451 0.21853,2.04588 0.68034,3.71978 1.02622,3.71978 1.26589,0 5.53518,-6.32642 6.18022,-9.15811 0.36508,-1.60268 1.042,-6.37179 1.50427,-10.59802 1.16189,-10.6224 3.97883,-15.5141 12.94507,-22.47947 5.40604,-4.19967 15.61713,-11.19903 15.61713,-10.70506 0,0.18261 -2.44761,2.24679 -5.43918,4.58706 -6.63162,5.18792 -15.03466,14.44258 -16.91958,18.63432 -0.93722,2.08419 -1.61023,6.55047 -2.06441,13.69997 -0.82933,13.05487 -2.11368,16.0887 -9.08417,21.45834 -2.61629,2.01543 -5.11224,3.9577 -5.54654,4.31617 -0.43433,0.35846 -2.12071,1.70111 -3.74753,2.98364 -1.76728,1.39327 -2.95786,3.03137 -2.95786,4.06962 0,1.63955 0.28806,1.70657 5.09957,1.18637 5.11912,-0.55346 22.94216,-5.93274 29.65445,-8.9502 4.03131,-1.81224 7.37019,-6.4095 8.67962,-11.95081 1.95036,-8.25376 4.91362,-14.70616 8.57643,-18.67444 3.50169,-3.79371 8.47032,-7.28758 9.22749,-6.4886 0.18788,0.19827 -1.81914,2.72723 -4.46018,5.61995 -5.34089,5.85004 -6.52395,8.19105 -9.03124,17.87021 -0.94894,3.66325 -2.01704,7.36389 -2.37363,8.22366 -0.57785,1.39329 -0.35619,1.51918 2.03885,1.15802 17.3971,-2.62338 16.6778,-2.58625 22.01645,-1.13656 5.54453,1.50561 10.28663,3.72807 13.41217,6.28578 1.57888,1.292 1.77562,1.82234 0.98623,2.65806 -0.74335,0.78696 -0.98623,0.79803 -0.98623,0.045 0,-0.54948 -0.26624,-0.94072 -0.59168,-0.86939 -0.32543,0.0714 -2.28923,-0.70068 -4.3638,-1.71555 -10.84872,-5.30692 -19.97419,-4.09439 -46.32641,6.15557 -18.16804,7.06661 -26.21316,8.83033 -32.9559,7.22485 -3.36257,-0.80064 -3.3753,-0.79462 -5.62544,2.65659 -3.36742,5.16487 -7.17789,12.86576 -7.17789,14.50635 0,0.7951 1.88928,4.43949 4.19839,8.09867 4.3717,6.92765 6.26416,10.47949 9.3057,17.46529 2.28476,5.24762 2.48652,15.89929 0.49696,26.23649 -1.76277,9.15884 -1.96471,11.82564 -0.92487,12.21344 1.11088,0.41428 10.37336,-8.51218 11.72394,-11.29861 0.5768,-1.19002 1.30146,-3.76871 1.61038,-5.73043 1.01144,-6.42305 2.8118,-9.06604 11.70375,-17.18154 2.55943,-2.33593 4.48917,-4.78589 4.48917,-5.69936 0,-2.07921 2.6587,-5.97807 6.62146,-9.71005 8.42333,-7.93277 9.37685,-9.79122 8.60391,-16.76891 -0.28201,-2.54526 -0.0243,-4.6172 0.77878,-6.25552 1.52155,-3.10498 9.55079,-11.16884 11.12091,-11.16884 2.38015,0 2.06503,1.70402 -0.95839,5.1827 -5.36775,6.176 -6.33529,8.48164 -5.86335,13.97283 0.44809,5.21553 -1.17061,10.1562 -4.60017,14.04091 -0.91331,1.03455 -1.44979,2.10355 -1.19202,2.37556 0.72067,0.76042 11.53677,0.24608 14.99057,-0.71284 1.68937,-0.46908 5.41721,-2.02305 8.284,-3.45328 4.41696,-2.20365 6.35077,-2.6516 12.67418,-2.93596 9.32523,-0.41935 17.42962,0.88018 26.06854,4.18004 3.68831,1.40887 9.00817,2.99485 11.82191,3.52439 2.81364,0.52954 4.58877,1.17497 3.94472,1.43431 -1.56165,0.62879 -8.57886,-0.42404 -16.66943,-2.50102 -17.45493,-4.48096 -28.01569,-4.5233 -36.178,-0.14501 -6.59132,3.53557 -11.78618,4.97784 -17.97399,4.99018 -10.66368,0.0213 -13.09397,2.96021 -18.62202,22.51953 -1.10481,3.90906 -2.89847,8.87317 -3.98589,11.03137 -1.08743,2.1582 -1.76012,3.924 -1.49489,3.924 0.26526,0 2.11916,-1.04907 4.11982,-2.33127 5.70182,-3.65425 14.38121,-7.6594 16.5983,-7.6594 0.7306,0 2.44781,-0.87159 3.81613,-1.93687 1.36822,-1.06527 4.01121,-2.44635 5.87318,-3.06908 5.12857,-1.7152 7.34118,-3.68151 8.42048,-7.48289 1.37562,-4.8452 6.0447,-9.35922 13.64931,-13.19618 6.04841,-3.05174 8.42418,-3.62176 7.33349,-1.75949 -0.24074,0.41103 -3.01719,2.62913 -6.16999,4.9291 -6.10029,4.45023 -8.86059,7.68299 -9.55662,11.19238 -1.34447,6.77885 -1.41943,6.32769 1.05038,6.32769 3.48787,0 11.92694,3.04618 15.56706,5.61908 1.78205,1.25961 4.68116,3.3053 6.44247,4.54599 3.4833,2.45366 4.48423,3.65742 3.54521,4.26359 -0.33254,0.21465 -3.26738,-1.26074 -6.52171,-3.27867 -8.0783,-5.00892 -13.00409,-6.44655 -20.44574,-5.96729 -7.4873,0.48221 -19.00188,3.83485 -19.00188,5.53264 0,1.72504 5.4102,7.61342 9.32717,10.15153 4.40343,2.85335 15.13027,12.9139 15.13027,14.1905 0,1.71035 -2.75981,0.51862 -6.19054,-2.67313 -3.74603,-3.4851 -8.7057,-6.575 -10.55375,-6.575 -1.86499,0 -8.93077,-5.58625 -10.89807,-8.61607 -3.10968,-4.78908 -4.60572,-5.22745 -9.12594,-2.67416 -2.12451,1.20007 -5.81538,3.45748 -8.20196,5.01649 -2.38658,1.55901 -5.75815,3.09494 -7.49237,3.41318 -1.82685,0.33524 -3.65202,1.31252 -4.33923,2.32342 -2.80018,4.11912 -9.55925,17.09128 -10.79949,20.72662 -0.74205,2.17506 -1.63408,3.95464 -1.98228,3.95464 -0.3482,0 -0.63309,0.61412 -0.63309,1.36469 0,0.75058 -1.01279,4.96539 -2.25061,9.36626 -2.44818,8.704 -4.16612,16.1428 -6.00526,26.0031 -0.65097,3.49017 -1.39886,6.93774 -1.66196,7.66127 -1.01211,2.78326 0.56818,2.94392 4.61709,0.46941 2.26451,-1.38397 6.15872,-3.51621 8.65378,-4.73833 l 4.53647,-2.22203 v -5.99337 c 0,-5.58239 0.90788,-10.06173 2.24573,-11.08016 0.31301,-0.23827 1.88842,-2.15773 3.50093,-4.26547 l 2.93182,-3.83225 v -8.73931 c 0,-8.34049 0.10537,-8.89282 2.30906,-12.10305 2.56567,-3.73756 4.67527,-5.05305 13.77065,-8.58701 5.91535,-2.29837 7.58885,-2.46718 7.58885,-0.76553 0,0.4159 -3.28402,2.79694 -7.2978,5.2912 -10.80516,6.71457 -10.81089,6.72374 -11.04612,17.70046 -0.2129,9.93467 0.19884,8.76644 -6.53052,18.52922 -1.35103,1.96004 -1.94993,3.92093 -1.94993,6.38422 0,5.52388 0.45838,6.21814 3.41361,5.1702 4.11948,-1.46079 4.69249,-2.29507 4.19692,-6.11051 -0.50032,-3.85194 0.13466,-4.48195 6.19613,-6.14754 4.82114,-1.32478 18.14433,-1.13438 19.25293,0.27515 1.18443,1.50609 -0.40769,2.17861 -5.15777,2.17861 -1.94005,0 -5.99383,0.59202 -9.00847,1.31557 -5.27184,1.26532 -5.48116,1.41 -5.48116,3.78785 0,2.99238 -1.57101,6.35886 -4.06704,8.71522 -1.64609,1.55397 -7.59951,4.4765 -9.15012,4.49179 -0.32423,0.003 -0.58951,0.47412 -0.58951,1.0465 0,2.05781 5.36887,3.06789 15.38457,2.89442 8.08846,-0.14008 10.28752,0.0866 12.22883,1.26038 4.26364,2.57813 5.50969,3.89307 4.59939,4.85367 -0.59197,0.62467 -1.62327,0.37993 -3.50793,-0.83257 -3.20011,-2.0588 -6.68813,-2.16424 -13.82382,-0.4179 -4.26788,1.04449 -6.0532,1.11936 -8.92467,0.37425 -4.59272,-1.19176 -11.97155,-4.05958 -13.18932,-5.1261 -0.65212,-0.57113 -2.71127,0.18627 -6.71568,2.47019 -3.17635,1.81164 -7.07043,3.72546 -8.65352,4.25294 -2.86347,0.95411 -2.89163,1.00935 -5.45584,10.70498 -3.98632,15.07277 -3.97802,17.11502 0.10475,25.80161 4.37701,9.31262 4.78355,14.31176 2.25322,27.70697 -0.98917,5.2365 -1.82433,12.51811 -1.8559,16.18136 -0.0506,5.87206 0.2067,7.13459 2.17384,10.66617 1.22719,2.20316 2.76167,4.22052 3.40998,4.48305 0.6483,0.26253 12.07024,0.0446 25.38208,-0.48439 27.0378,-1.07434 42.58685,-0.41713 59.28052,2.50562 5.44125,0.95267 11.04701,1.92216 12.45719,2.15445 l 2.56414,0.42233 v -12.90621 c 0,-10.32594 -0.22195,-12.99651 -1.11015,-13.35619 -0.61057,-0.24724 -3.18454,0.0548 -5.71996,0.67117 -2.53532,0.61639 -6.59219,1.37598 -9.01527,1.68798 -6.77306,0.87211 -7.03697,0.34548 -7.02159,-14.01113 l 0.0127,-11.80446 5.70721,-1.88105 c 3.49838,-1.15303 7.2339,-1.79747 9.65202,-1.66511 l 3.94472,0.21594 0.78901,-9.43181 c 0.59518,-7.11602 1.09506,-9.61089 2.03573,-10.16116 2.67424,-1.56425 11.27569,-1.87789 14.34817,-0.52317 3.48369,1.53602 4.20776,3.19065 4.97048,11.35852 l 0.56247,6.02375 2.8482,-0.54647 c 1.56652,-0.30055 4.83448,-0.76248 7.26224,-1.0265 3.85526,-0.41927 4.6171,-0.24997 6.01862,1.33749 2.34958,2.66137 3.28363,10.89026 2.09609,18.46662 l -0.47165,3.00892 -5.6341,0.60351 c -3.09867,0.33193 -6.26763,0.65046 -7.04213,0.70785 -1.78068,0.13194 -2.48743,3.01931 -1.72276,7.03786 0.32611,1.71414 0.80896,9.83674 1.07296,18.05022 l 0.48003,14.93362 3.55027,0.98997 c 1.9526,0.54449 8.8159,2.53498 15.25165,4.42334 6.43585,1.88828 12.07287,3.43328 12.5269,3.43328 0.53035,0 0.6311,-1.2649 0.28192,-3.53837 -1.56292,-10.17731 -3.35947,-38.0415 -2.75212,-42.68543 1.59387,-12.1874 8.0453,-19.57334 17.05863,-19.52981 3.61004,0.0174 8.93564,1.96227 11.78753,4.30468 6.078,4.99229 14.349,16.36649 13.25695,18.23107 -0.35668,0.60897 -0.26537,0.80029 0.22818,0.47839 0.7341,-0.47877 3.28315,5.14608 4.46544,9.85354 0.76466,3.04493 2.10339,15.68272 2.81081,26.53413 0.38414,5.8935 0.99276,10.9513 1.35265,11.2395 0.82882,0.6637 43.35585,-0.1299 44.00835,-0.8212 0.2661,-0.2818 -0.4204,-3.0918 -1.5254,-6.24413 -1.2299,-3.50851 -2.3351,-9.12228 -2.8494,-14.47346 -1.1839,-12.31776 -1.897,-14.75639 -4.8743,-16.66707 -1.3725,-0.88078 -4.1047,-1.85126 -6.0714,-2.15662 -4.9173,-0.76344 -11.0566,-3.79382 -13.5125,-6.66982 -1.12594,-1.31841 -3.35023,-4.90344 -4.94304,-7.96673 -3.81165,-7.33058 -6.90876,-9.8601 -16.12739,-13.1719 -14.91711,-5.35896 -18.64904,-8.48846 -21.42257,-17.96456 -0.88761,-3.03237 -1.61831,-6.12957 -1.62395,-6.88267 -0.0224,-2.99656 -3.82674,-9.47435 -9.25309,-15.75461 -5.34176,-6.1825 -6.00373,-6.67367 -10.19065,-7.56098 -5.7553,-1.21973 -15.41043,-1.22029 -17.94624,-8.4e-4 -4.62996,2.22616 -5.93899,12.97407 -2.01734,16.56333 4.85862,4.44678 12.31721,2.15531 9.04272,-2.77814 -2.00828,-3.02562 -1.44064,-4.60203 0.75659,-2.10139 3.75275,4.27076 3.59846,9.76745 -0.33419,11.91355 -2.90126,1.58319 -5.62154,1.60284 -9.10756,0.0657 -5.52984,-2.4382 -8.51004,-7.5277 -8.56105,-14.62038 -0.0516,-7.1701 4.25302,-13.76628 10.37503,-15.89842 2.45705,-0.85571 15.11517,-0.69348 19.14507,0.24538 0.77859,0.18136 1.26289,-1.30876 1.75022,-5.38476 0.57016,-4.7689 0.42979,-6.32371 -0.91293,-10.1109 -0.87272,-2.46147 -1.99796,-8.50528 -2.50047,-13.43071 -0.50251,-4.92542 -1.32033,-10.18094 -1.81739,-11.67893 -1.6627,-5.01095 -9.05382,-13.54161 -14.08718,-16.25891 -3.9494,-2.13209 -6.67348,-1.98818 -9.78597,0.51702 -4.80255,3.86553 -4.99462,11.06105 -0.41879,15.68731 1.94208,1.96339 2.94914,2.29789 7.1056,2.36008 5.44933,0.0815 6.15004,1.01044 2.10689,2.79312 -3.98317,1.75624 -6.79019,1.48989 -10.41143,-0.9879 -5.82012,-3.98247 -7.78626,-10.35221 -5.26271,-17.05032 3.23467,-8.58549 11.26478,-11.44756 19.2728,-6.86913 4.07244,2.32832 14.91639,12.8514 14.91639,14.47503 0,0.44851 0.32173,0.81545 0.71482,0.81545 0.39319,0 0.94554,-1.96691 1.22726,-4.37091 1.34146,-11.44627 5.56381,-27.92205 7.94766,-31.01272 l 1.28441,-1.66511 -0.56394,1.66511 c -0.31005,0.91581 -0.93142,3.25738 -1.38078,5.20347 -0.44925,1.94611 -1.13302,3.53837 -1.5194,3.53837 -0.38647,0 -0.50562,0.33646 -0.26469,0.74769 0.24084,0.41124 -0.31258,5.37536 -1.22989,11.03137 -1.34563,8.29724 -1.58141,12.29392 -1.22054,20.69062 0.71959,16.7423 3.19748,23.94712 10.49242,30.50795 8.09505,7.2805 10.41767,12.89534 11.65953,28.18725 0.56471,6.95328 1.69171,9.82808 4.5513,11.61068 2.31716,1.44443 13.1999,4.14531 13.86692,3.44149 0.16909,-0.17851 -0.25057,-2.0591 -0.93259,-4.17909 -0.78053,-2.42599 -1.24011,-6.75497 -1.24011,-11.68053 0,-4.30429 -0.36038,-8.82632 -0.80098,-10.04896 -0.77362,-2.14733 -5.62202,-7.34224 -17.45214,-18.69932 -10.04336,-9.64182 -12.62483,-16.21284 -9.30089,-23.67506 2.97144,-6.67084 11.03524,-11.30922 19.61044,-11.28002 4.5291,0.0154 7.01176,1.32615 9.3006,4.91017 2.99655,4.69247 1.79411,11.99566 -2.69868,16.38951 -2.09239,2.04632 -5.94006,2.64406 -8.02966,1.24739 -1.61208,-1.0775 -0.42016,-2.41245 1.76115,-1.97243 4.04353,0.81569 7.68979,-8.26983 5.24987,-13.08098 -3.04358,-6.00117 -20.51938,1.37786 -20.51938,8.66412 0,5.02823 2.28397,7.95264 16.96249,21.71917 1.46878,1.37747 1.82741,2.03769 0.94515,1.73989 -0.8848,-0.29869 -1.22697,-0.1477 -0.90631,0.39987 0.28338,0.48388 0.97951,0.6918 1.54685,0.46205 1.39149,-0.56347 7.1607,5.52307 9.16519,9.66916 1.25092,2.5876 1.71351,5.54127 2.03846,13.01774 0.37109,8.53851 0.67589,10.15807 2.60347,13.8335 1.769,3.37316 2.02717,4.51835 1.36082,6.03737 -0.62779,1.43114 -0.53989,2.21893 0.37206,3.33022 0.65681,0.80059 2.71133,4.26551 4.56561,7.69981 4.07643,7.55023 6.64273,10.64161 10.14573,12.2218 3.491,1.57474 6.553,0.77828 9.5955,-2.49589 l 2.4617,-2.64919 -0.5382,-9.58191 c -0.6411,-11.41452 -0.1605,-13.06753 6.074,-20.89376 9.7997,-12.30147 9.6077,-11.92813 9.9623,-19.37677 0.1768,-3.71876 -0.084,-9.38392 -0.579,-12.58926 -0.4954,-3.20534 -1.2217,-8.90988 -1.6141,-12.67675 -0.3925,-3.76686 -1.1117,-7.63369 -1.5981,-8.59291 -0.4865,-0.95924 -1.3881,-3.78429 -2.0036,-6.2779 -1.4305,-5.79572 -4.3226,-11.68884 -7.4014,-15.08165 -1.3307,-1.46657 -5.1966,-4.19106 -8.5906,-6.05441 -6.5402,-3.59069 -8.7507,-6.00323 -10.9797,-11.98352 -2.98845,-8.01775 -7.48105,-10.68906 -15.25046,-9.06796 -4.76722,0.9947 -5.759,0.0208 -1.70554,-1.67499 9.6495,-4.03689 16.276,-1.53175 20.7349,7.83872 0.9492,1.99503 2.469,4.48285 3.3771,5.52849 1.4135,1.62748 13.5638,8.50579 15.0252,8.50579 0.2763,0 0.5025,-1.31949 0.5025,-2.93223 0,-3.66352 3.7968,-12.45898 6.8569,-15.88404 3.8888,-4.35271 6.2018,-5.44052 14.0173,-6.59246 5.0001,-0.73696 8.2754,-1.68122 9.7968,-2.82444 4.5685,-3.4328 6.0427,-12.08134 3.5704,-20.94466 -4.7545,-17.0459 -14.637,-27.78129 -28.3242,-30.76916 -9.2021,-2.00879 -10.9419,-1.97664 -13.468,0.24881 -8.3352,7.3435 -16.749,6.20453 -27.63524,-3.74094 -8.7461,-7.99036 -9.36913,-8.50559 -12.02127,-9.94104 -3.15903,-1.70982 -4.37208,-1.34011 -5.79826,1.76728 -0.84683,1.84524 -0.92957,4.28719 -0.38813,11.45534 0.65262,8.64079 0.59266,9.31862 -1.16418,13.15558 -1.01874,2.22496 -2.85521,4.81687 -4.0812,5.7598 -3.26446,2.51088 -8.62656,2.21756 -13.39738,-0.73288 -4.33402,-2.68023 -4.4889,-3.57371 -0.29925,-1.72642 1.57149,0.69287 4.33558,1.25976 6.14245,1.25976 2.7601,0 3.72072,-0.48725 6.00937,-3.04812 l 2.72418,-3.0481 -0.55625,-11.39301 c -0.47175,-9.66368 -0.36028,-11.82879 0.73478,-14.26401 3.86032,-8.58471 12.9208,-7.05351 25.33078,4.28087 4.47089,4.08341 10.6117,7.49103 13.4993,7.49103 2.0136,0 10.5615,-5.26636 10.5615,-6.50691 0,-0.32449 -2.929,-2.6212 -6.5088,-5.10379 -8.0123,-5.55643 -17.34338,-12.98671 -21.3578,-17.00719 -1.65822,-1.66059 -3.18357,-3.01925 -3.38984,-3.01925 -0.20638,0 -3.1675,-1.69966 -6.58042,-3.77704 -7.89172,-4.80351 -11.72362,-5.37887 -19.8321,-2.97787 -6.98956,2.06968 -11.53959,2.22642 -15.38706,0.53004 -1.53372,-0.67624 -6.68682,-5.36072 -11.4514,-10.40996 -9.07981,-9.62219 -13.10329,-12.50462 -17.45483,-12.50462 -3.31089,0 -5.5679,1.66044 -7.2047,5.30048 -1.85915,4.13432 -1.61734,7.47756 0.75619,10.4542 1.703,2.13574 2.61165,2.56155 5.46627,2.56155 4.4263,0 6.22188,-1.76918 5.63955,-5.5565 -0.47613,-3.09594 0.60316,-3.81502 1.34447,-0.89581 1.46294,5.76045 -0.71463,10.45593 -5.63459,12.15009 -4.30315,1.48174 -10.04521,-0.95092 -12.44522,-5.27252 -2.58944,-4.66271 -3.08183,-7.87158 -1.96321,-12.79237 2.52686,-11.11527 12.79743,-15.55458 23.12417,-9.9951 1.77533,0.95578 6.89718,5.5258 11.38169,10.15556 4.48462,4.62977 8.94616,8.88232 9.91467,9.45014 2.46348,1.44441 7.4324,1.31435 11.62263,-0.30423 1.9527,-0.75427 6.21303,-1.48883 9.46746,-1.63236 3.25443,-0.14351 6.00869,-0.27024 6.12044,-0.28159 0.11185,-0.0113 -1.30826,-2.29575 -3.15582,-5.07644 -1.84746,-2.78068 -3.72579,-5.68421 -4.17388,-6.4523 -0.44809,-0.76808 -2.50923,-3.26977 -4.58021,-5.5593 -5.23711,-5.78971 -7.79531,-9.82009 -11.96081,-18.84359 -5.99555,-12.98786 -7.12887,-14.20575 -14.99126,-16.10953 -13.41451,-3.24815 -16.54492,-4.46036 -21.13135,-8.18296 -4.3643,-3.54218 -11.56627,-7.23356 -14.11299,-7.23356 -1.21762,0 -4.08169,0.74004 -6.36439,1.64453 -4.04217,1.60161 -4.09902,1.60263 -2.17816,0.0389 2.70228,-2.19972 8.77035,-3.61922 12.57324,-2.94123 1.73327,0.30903 6.06622,2.06956 9.62885,3.9123 8.68818,4.49395 11.28834,5.39333 18.98114,6.56556 3.60158,0.54881 8.30123,1.88332 10.44356,2.9656 2.14243,1.08226 3.96984,1.96776 4.06105,1.96776 0.0915,0 0.5691,-2.44366 1.06197,-5.43035 0.49277,-2.98669 1.95387,-8.32546 3.24664,-11.86392 3.21695,-8.80484 4.50905,-15.05666 4.9807,-24.09974 0.2202,-4.22153 0.79007,-8.34268 1.2664,-9.15812 0.64385,-1.10219 0.79182,2.04222 0.57659,12.25456 -0.28562,13.55077 -0.33021,13.85012 -3.28247,22.06273 -2.64941,7.3701 -3.00376,9.23325 -3.08787,16.23484 -0.0876,7.29903 0.0808,8.23046 2.18419,12.07206 1.25355,2.28953 2.80439,4.80333 3.4466,5.5862 0.74539,0.90887 0.9833,2.19727 0.65826,3.56408 -0.37819,1.59023 0.0876,3.05613 1.81232,5.70118 1.27672,1.9583 2.88393,4.05319 3.5714,4.6553 1.08786,0.95274 1.25004,0.80511 1.25004,-1.13815 0,-1.22809 0.88752,-6.3821 1.97236,-11.45334 1.12047,-5.23784 1.97236,-11.83128 1.97236,-15.26502 0,-12.47816 5.54678,-24.01043 14.39845,-29.9358 2.95946,-1.9811 2.69984,-0.67856 -0.66129,3.3182 -1.54033,1.83163 -3.89527,5.57813 -5.23302,8.32556 -2.27998,4.68228 -2.46903,5.77796 -3.01791,17.48368 -0.32203,6.86858 -1.20974,16.32666 -1.97266,21.01796 l -1.3872,8.52961 1.87258,4.97512 c 1.69005,4.49022 2.45164,5.39764 7.81258,9.31056 3.26699,2.38451 10.37785,9.12139 15.80186,14.97083 10.49568,11.31894 12.24068,12.5151 24.06308,16.4956 3.0374,1.0227 7.9213,2.82294 10.8529,4.00055 2.9317,1.17761 5.5936,1.86334 5.9153,1.52383 0.8742,-0.92246 -13.1279,-14.90516 -18.7994,-18.7734 -2.7153,-1.85201 -7.4519,-4.13738 -10.5258,-5.07862 -12.69625,-3.88759 -14.43381,-5.28841 -23.16492,-18.67447 -5.26671,-8.07473 -7.70342,-14.81828 -6.92892,-19.17515 1.89906,-10.68232 18.44788,-18.0011 29.27504,-12.94701 2.1179,0.98861 4.5351,2.43879 5.3716,3.22264 2.5005,2.34318 4.418,7.76217 4.4365,12.53886 0.045,11.62363 -8.2233,17.28539 -15.433,10.56742 -1.6995,-1.58361 -2.67161,-2.89488 -2.16015,-2.91395 0.51137,-0.019 1.41553,0.4779 2.00915,1.10435 2.9379,3.10024 7.6526,2.17433 9.6465,-1.89444 2.9426,-6.00491 0.5413,-14.05638 -4.9089,-16.45947 -7.6074,-3.35429 -21.51576,1.82509 -21.46601,7.99378 0.0273,3.3615 2.63676,8.62389 7.88302,15.89645 5.33095,7.39006 8.72909,10.08223 15.08339,11.94986 11.8034,3.46921 17.5374,7.38102 29.5391,20.15219 8.2861,8.81725 11.054,13.28886 10.2689,16.58933 -0.5163,2.17114 2.1913,4.82834 9.3975,9.22256 6.1478,3.74887 9.9,8.36362 14.1732,17.43141 4.6127,9.78783 9.2971,17.46792 11.1,18.19796 2.5674,1.03967 4.2787,0.53999 4.6326,-1.35259 0.1926,-1.0303 0.7299,-5.01414 1.1941,-8.85301 1.583,-13.09371 9.2563,-25.45884 19.3678,-31.21047 5.4538,-3.10225 5.5097,-3.25391 6.3751,-17.27281 0.7582,-12.28421 -0.9506,-18.29027 -8.4118,-29.5641 -10.2484,-15.48526 -11.2862,-17.38172 -13.0928,-23.92389 -0.9943,-3.60066 -1.8078,-8.57404 -1.8078,-11.05198 0,-4.15492 -0.1688,-4.5711 -2.1696,-5.35079 -6.0604,-2.36162 -10.8795,-5.69666 -15.3716,-10.6378 -12.5787,-13.83609 -14.6378,-15.63291 -18.7561,-16.36715 -6.5327,-1.16468 -15.0359,4.4411 -18.7996,12.39377 -1.8976,4.00956 -1.8642,3.22924 -0.8702,20.33909 0.061,1.06002 0.311,1.71732 0.5543,1.46067 0.2432,-0.25666 1.0586,0.93663 1.812,2.65175 1.862,4.23867 4.647,7.1261 9.0359,9.36817 5.833,2.97977 9.8857,3.11675 14.152,0.47833 9.2063,-5.69343 9.1142,-19.74176 -0.1745,-26.63095 -2.7226,-2.01927 -4.1846,-2.49671 -7.754,-2.53231 -5.6238,-0.056 -7.4178,1.87654 -7.4178,7.99083 0,9.78334 7.8324,16.3407 13.7002,11.46995 4.6224,-3.83683 1.3565,-10.91435 -3.8755,-8.39877 -2.9228,1.40533 -3.3801,1.14074 -1.2561,-0.72662 2.0227,-1.77821 5.6436,-2.1353 8.0234,-0.79126 0.8241,0.46537 1.9116,2.30202 2.4169,4.08145 0.7859,2.76806 0.7044,3.69415 -0.564,6.41224 -2.0784,4.45415 -7.545,7.37157 -12.2761,6.55162 -4.8675,-0.84359 -10.3143,-6.83818 -11.6827,-12.85766 -1.7668,-7.77169 0.3776,-15.36628 5.3306,-18.87853 3.2018,-2.27052 11.3704,-2.07345 15.798,0.38114 13.9299,7.72239 17.2935,24.5411 7.3915,36.9593 -6.8889,8.63952 -22.1167,7.75253 -32.0031,-1.86413 -7.0279,-6.83615 -11.2292,-20.81016 -9.2685,-30.82795 2.137,-10.91803 9.6501,-20.08232 19.0898,-23.28537 9.9859,-3.38836 15.58,-0.82164 28.2319,12.95369 6.057,6.59469 10.0076,10.18845 12.4575,11.33204 1.9731,0.92108 3.7744,1.47756 4.0027,1.2366 0.2283,-0.24095 0.9308,-3.36311 1.5609,-6.93814 0.6302,-3.57504 1.8709,-8.62368 2.7573,-11.21919 l 1.6115,-4.71912 -2.3815,-11.09944 c -2.6006,-12.12 -4.3147,-17.16558 -6.0737,-17.87791 -0.6273,-0.25401 -2.8351,0.57465 -4.9061,1.84148 -2.071,1.26684 -6.4282,3.73651 -9.6827,5.48817 -9.5568,5.14388 -15.8081,4.11129 -24.0852,-3.97838 -8.2042,-8.01847 -10.4986,-9.47815 -14.8841,-9.4693 -4.5086,0.009 -9.0664,1.96542 -17.1857,7.37659 -2.8376,1.89118 -5.6534,3.42711 -6.2574,3.4132 -0.6723,-0.0155 -0.4862,-0.39098 0.4797,-0.9682 0.8679,-0.51859 3.5969,-2.60447 6.0646,-4.63532 2.4678,-2.03084 4.8601,-3.44894 5.3165,-3.15134 0.4763,0.31064 0.6554,0.062 0.4205,-0.58369 -0.2528,-0.69557 0.8795,-1.90346 2.9676,-3.16533 2.77,-1.67388 4.44,-2.03756 9.2938,-2.02402 6.8172,0.019 8.6052,0.81266 17.0507,7.56775 5.1353,4.10749 5.9619,4.48779 9.7544,4.48779 4.4288,0 7.9176,-1.58355 14.0522,-6.37855 3.6298,-2.83715 3.593,-3.08709 -0.5948,-4.03636 -7.3519,-1.66647 -10.7799,-5.85583 -14.103,-17.23507 -3.195,-10.94072 -4.6471,-13.63795 -7.9649,-14.79341 -3.0747,-1.07086 -7.6154,-0.23002 -10.1269,1.87528 -0.5528,0.46349 -1.1928,0.64472 -1.4221,0.40276 -1.0549,-1.11314 5.7823,-4.3153 9.8765,-4.62561 4.1467,-0.3143 4.5429,-0.17053 7.2848,2.64394 1.5949,1.63697 4.0329,5.51433 5.4179,8.61636 5.071,11.3577 5.7687,12.75768 6.8139,13.67316 1.4849,1.30038 9.9602,3.28662 10.6986,2.50729 1.458,-1.53855 -4.6106,-16.6538 -9.8476,-24.52736 -2.0923,-3.14586 -3.7329,-9.98692 -3.7442,-15.61347 -0.013,-6.18067 -2.8768,-12.12734 -9.034,-18.7561 -8.6119,-9.27138 -10.0881,-11.61395 -12.0248,-19.08052 -1.279,-4.9311 -2.2572,-22.53982 -1.1099,-19.98135 0.4106,0.91582 0.7715,2.70229 0.8021,3.96995 0.09,3.72913 3.0918,14.56908 5.3198,19.20876 1.2829,2.67173 4.8343,7.12581 9.3987,11.78799 8.6026,8.78664 10.9894,13.18155 11.7556,21.64711 0.7351,8.1193 1.6437,10.7179 6.253,17.88357 5.6181,8.73387 10.7207,20.64402 10.7207,25.02354 0,1.21683 0.7503,3.1127 1.6674,4.21306 3.8265,4.59132 5.3602,7.28588 7.1228,12.51446 1.0235,3.03517 2.2157,5.47039 2.6496,5.41161 1.4273,-0.19333 0.9025,-23.44062 -0.6978,-30.91144 -2.5141,-11.73726 -5.7297,-21.7525 -10.5588,-32.88596 -7.6149,-17.55626 -9.3924,-28.60754 -8.3691,-52.03476 0.3799,-8.7002 0.6807,-23.31156 0.6683,-32.46967 -0.022,-16.37445 -0.2185,-18.1336 -3.228,-28.93133 -0.2233,-0.80134 -0.056,-1.45697 0.3697,-1.45697 0.4267,0 2.4488,4.58946 4.4936,10.19881 2.0448,5.60934 4.1736,11.32276 4.7307,12.69647 4.79,11.81179 4.6893,11.09928 4.4343,31.35493 -0.2175,17.2725 -0.1207,18.93564 1.1462,19.68378 1.9403,1.14589 6.4037,-1.99969 13.5573,-9.55457 5.4017,-5.70474 5.7266,-6.25404 5.2577,-8.89124 -0.3055,-1.71901 -0.014,-4.32142 0.7515,-6.69961 1.8832,-5.85331 1.564,-8.38315 -2.102,-16.65878 -3.1014,-7.00127 -3.3483,-8.06931 -3.2913,-14.22984 0.035,-3.82992 0.6665,-8.78335 1.4849,-11.65579 2.8664,-10.0596 8.6495,-20.47446 10.6461,-19.17227 0.6882,0.44888 0.6293,0.95982 -0.2285,1.97939 -3.5006,4.16085 -6.977,17.47676 -7.1348,27.32958 -0.087,5.40254 0.2062,6.61431 3.0601,12.66941 1.7357,3.68252 3.5396,6.70766 4.0087,6.72256 0.4691,0.0149 1.3567,-1.00321 1.9724,-2.26245 1.3258,-2.71169 1.5757,-3.03365 6.5027,-8.38003 5.9056,-6.40828 12.0487,-9.2866 21.7104,-10.17222 9.2892,-0.85146 10.8708,-1.54361 11.8706,-5.19482 l 0.7355,-2.68659 0.071,3.35312 c 0.1305,6.15434 -2.5143,8.14512 -12.5521,9.44808 -6.9845,0.90662 -8.7487,1.5769 -13.215,5.02116 -6.1161,4.71645 -3.7579,6.50396 7.3877,5.59989 8.9128,-0.72296 12.8559,0.34176 18.6302,5.03056 6.5142,5.28959 13.4047,8.54672 22.5027,10.63684 1.4102,0.32399 2.5641,0.93395 2.5641,1.35547 0,0.95554 -3.2036,0.95059 -11.9276,-0.0184 -6.697,-0.74386 -12.7221,-3.2243 -16.3194,-6.71835 -2.7665,-2.68713 -6.23,-3.54112 -11.7851,-2.90589 -7.8795,0.90107 -15.0144,0.55944 -17.5824,-0.84185 -1.2471,-0.68059 -2.4087,-1.23744 -2.5814,-1.23744 -0.8078,0 -2.8254,6.83862 -3.6076,12.22742 -0.4776,3.29079 -1.4877,7.41194 -2.2446,9.15812 -3.6947,8.52421 -14.5853,20.30837 -22.2946,24.12411 l -4.7729,2.36232 0.4585,3.74651 c 0.2521,2.06057 1.1578,6.18172 2.0125,9.15811 1.3827,4.81523 2.4172,7.53068 5.706,14.97652 0.5033,1.13954 3.1139,5.75675 5.8012,10.26046 6.652,11.14799 8.3417,16.79447 8.3724,27.97782 0.014,4.84585 -0.4406,11.72367 -1.0087,15.28406 -0.568,3.56039 -0.8417,6.67518 -0.608,6.92177 0.7574,0.79937 3.7162,-9.95464 3.8,-13.81148 0.045,-2.06057 0.028,-7.86765 -0.036,-12.90461 -0.064,-5.03698 0.24,-11.59336 0.6768,-14.56974 1.2273,-8.36372 0.1025,-12.47063 -6.1563,-22.47901 -6.7447,-10.78559 -7.2942,-16.25638 -2.655,-26.43237 6.2653,-13.74254 16.2447,-21.02333 28.8157,-21.02333 19.6159,0 31.8207,24.21709 22.2646,44.1783 -1.5054,3.14505 -5.0417,7.1356 -9.4486,10.66272 -1.775,1.42056 -6.3581,2.60535 -10.0782,2.60535 -7.1745,0 -14.6451,-5.81215 -17.0143,-13.237 -3.2376,-10.14616 2.7222,-21.24 12.0032,-22.34392 6.3397,-0.75407 10.8827,1.97775 13.0856,7.86867 2.6291,7.03125 -7.5408,16.47684 -12.0629,11.20371 -2.0862,-2.43263 -1.6586,-3.68691 1.0434,-3.06064 3.3383,0.77377 5.2249,-0.0964 6.3338,-2.92135 1.9039,-4.85013 -0.7865,-8.31404 -6.4572,-8.31404 -1.7688,0 -3.16,0.81249 -5.0911,2.97322 -2.2021,2.46391 -2.6572,3.61193 -2.6572,6.70179 0,4.24834 1.2831,7.30434 4.3278,10.30634 1.7398,1.71553 2.9002,2.08139 6.6022,2.08139 4.1154,0 4.7658,-0.268 7.7705,-3.20163 4.4012,-4.29735 5.9325,-8.58084 5.8954,-16.49246 -0.044,-9.38425 -3.6111,-15.47932 -10.9612,-18.72966 -8.9356,-3.95138 -20.2626,2.45362 -26.5768,15.02804 -2.8615,5.69859 -2.6366,8.93324 1.1059,15.90269 8.2593,15.38123 9.0727,18.33675 7.9557,28.9084 -0.4694,4.44109 -0.8533,13.52895 -0.8533,20.19523 0,13.12861 0.4592,10.92684 -6.3418,30.40547 -1.421,4.07002 -2.9261,10.68377 -3.5425,15.56641 -0.5896,4.66933 -1.8166,11.0339 -2.7267,14.14351 -1.3051,4.45901 -1.6558,7.85526 -1.6597,16.07073 -0.011,22.36357 4.966,40.66184 13.1113,48.20883 2.6661,2.47012 2.7386,2.48545 6.0708,1.28346 5.4481,-1.96518 10.383,-5.40109 16.2713,-11.32874 3.0354,-3.05557 8.3875,-7.6768 11.8936,-10.26942 3.9358,-2.9103 6.5513,-5.45574 6.836,-6.65291 0.2537,-1.06648 -0.4251,-5.0622 -1.5085,-8.87936 -1.0834,-3.81717 -2.2219,-8.25158 -2.5302,-9.85425 -0.9321,-4.84654 -9.0448,-11.40512 -16.9387,-13.69382 -6.5845,-1.90906 -8.9688,-3.74562 -10.1181,-7.79388 -1.1283,-3.97404 -1.1394,-4.32153 -0.1383,-4.32153 0.4339,0 0.7893,0.4683 0.7899,1.04069 6e-4,0.57238 0.8227,2.04892 1.827,3.28119 1.3932,1.70943 2.8424,2.37771 6.1134,2.81931 5.8653,0.79182 12.1843,3.37423 15.2838,6.24609 2.9386,2.72268 3.5993,2.46301 3.5993,-1.41481 0,-3.89894 -1.504,-6.91066 -5.1282,-10.26973 -10.0915,-9.35291 -11.0914,-11.92627 -10.9471,-28.17083 0.092,-10.35817 0.4189,-12.80999 1.5487,-11.61781 0.255,0.26906 0.9543,4.17166 1.5541,8.67245 1.807,13.55951 2.5952,16.86895 4.7159,19.80304 2.9046,4.01863 3.9225,4.13367 6.5714,0.74256 3.5607,-4.55848 4.364,-8.87455 3.758,-20.19063 -0.7785,-14.53707 1.9891,-25.5862 9.166,-36.59418 2.8369,-4.35116 3.8283,-3.48359 1.4255,1.24742 -0.8905,1.75324 -1.6191,3.68017 -1.6191,4.28207 0,0.60191 -0.5262,2.1682 -1.1693,3.48064 -0.6432,1.31245 -1.6955,5.81959 -2.3387,10.01588 -1.0244,6.68365 -1.0288,8.68672 -0.035,16.15591 1.6082,12.08939 0.06,20.55927 -4.8208,26.37351 -1.4878,1.7724 -1.3905,2.99825 0.455,5.73321 2.6828,3.97595 3.1693,6.49315 3.274,16.93831 0.057,5.58189 0.3229,10.52353 0.5933,10.98144 0.2703,0.4579 0.858,2.14383 1.3058,3.7465 2.2164,7.93197 5.1333,-3.16044 5.5553,-21.12519 0.3386,-14.41841 1.0953,-17.39732 6.5403,-25.74878 3.8851,-5.95894 5.8038,-13.20339 5.7768,-21.8119 -0.037,-11.81844 2.7052,-34.74153 4.7624,-39.81028 5.2386,-12.90678 8.2791,-14.59546 3.4311,-1.90564 -5.8888,15.41463 -6.5285,45.09049 -1.1882,55.13089 2.4653,4.63501 3.4735,6.1501 4.0925,6.1501 0.3345,0 1.637,-2.37037 2.8945,-5.26749 1.5532,-3.57871 3.8869,-6.91523 7.2787,-10.40695 2.7459,-2.8267 5.2485,-5.13946 5.561,-5.13946 0.3126,0 1.5162,-1.7065 2.6745,-3.79219 l 2.106,-3.79219 -0.9938,-9.10497 c -0.7834,-7.17651 -0.7911,-9.86926 -0.036,-12.71356 1.0308,-3.88534 7.8897,-14.19566 10.3788,-15.60136 2.7892,-1.57523 2.5474,1.33419 -0.456,5.48628 -5.8928,8.14654 -6.7071,11.93013 -4.7484,22.06362 2.3115,11.95944 1.1143,15.41215 -9.3219,26.88465 -3.2603,3.584 -6.1608,7.51783 -6.4456,8.74185 -0.2849,1.22401 -1.6963,4.84804 -3.1366,8.05338 -2.1831,4.85832 -2.6758,7.04129 -2.9618,13.1213 -0.3096,6.58586 -0.6734,7.98129 -3.7499,14.38408 -1.8739,3.89987 -3.2345,7.27278 -3.0235,7.49539 1.2009,1.26726 7.4448,-3.33621 15.2959,-11.27736 10.7536,-10.877 13.9464,-12.68692 22.4106,-12.70432 3.2896,-0.007 8.1945,0.65008 11.0454,1.47916 7.39,2.14912 16.1286,2.11676 20.0869,-0.0744 4.5804,-2.53551 6.7374,-7.31226 6.7374,-14.92015 0,-10.9578 -3.4157,-18.26166 -9.7304,-20.80654 -4.166,-1.67899 -8.5553,-0.76186 -12.3101,2.57218 -2.6845,2.3837 -4.454,7.44757 -3.7041,10.60038 0.7964,3.34857 4.2082,6.984 7.9815,8.50465 4.6724,1.88305 7.2922,1.12183 8.7422,-2.54005 1.444,-3.64698 1.4224,-4.9263 -0.1419,-8.40499 -1.505,-3.34693 -3.6719,-3.69445 -6.3681,-1.02139 -1.0287,1.01981 -1.826,1.36598 -1.826,0.7928 0,-1.37071 3.8896,-5.10071 5.3189,-5.10071 1.9766,0 5.3098,2.53246 6.327,4.80717 1.7868,3.99523 0.9573,11.15152 -1.6061,13.85656 -2.2578,2.38258 -4.7175,3.14009 -8.3364,2.56741 -6.8375,-1.08202 -12.9255,-5.90794 -13.9983,-11.09649 -0.2531,-1.22394 -0.6066,-2.72066 -0.7858,-3.32604 -0.6337,-2.14189 1.4173,-8.31314 3.7592,-11.31134 6.899,-8.83217 19.9187,-8.66658 26.678,0.33928 4.0835,5.44087 5.7766,10.50734 6.1532,18.41398 0.3069,6.44263 0.1245,7.6849 -1.7907,12.18823 -2.0615,4.84775 -5.0669,8.19384 -9.7809,10.89025 -3.5976,2.05782 -13.0477,2.15079 -21.3686,0.21024 -14.3842,-3.35461 -16.9698,-2.47123 -29.2282,9.98661 -4.5561,4.63029 -9.5265,9.26178 -11.0452,10.29221 -4.1446,2.81195 -10.2452,4.24836 -13.2884,3.12885 -2.1788,-0.80153 -2.585,-0.70746 -3.3355,0.77239 -1.2365,2.43809 -0.6027,3.41043 3.702,5.67913 7.7289,4.0733 11.8417,2.79947 22.4312,-6.94729 6.2682,-5.76943 10.8794,-8.17532 16.526,-8.62255 5.8553,-0.46376 10.1401,1.16078 12.3971,4.70019 2.1051,3.30097 2.2797,6.43019 0.5962,10.68204 -2.8683,7.2443 -8.0563,11.87357 -13.3126,11.87888 -2.5751,0.002 -3.5787,-0.54921 -6.1144,-3.36217 -2.7589,-3.0605 -3.9395,-5.84463 -2.442,-5.75899 0.3255,0.0186 1.8209,1.14255 3.3233,2.49767 4.8576,4.38165 8.6257,2.81118 12.7174,-5.30058 3.2114,-6.36654 0.5645,-10.17027 -6.5308,-9.38553 -4.9176,0.54386 -7.0218,1.79985 -14.0464,8.38413 -12.3617,11.58691 -17.7885,12.76512 -30.9664,6.72302 -1.2512,-0.57369 -1.3805,0.005 -1.3805,6.17122 0,9.65303 -0.9057,11.03223 -11.2373,17.11543 -3.1719,1.86751 -6.2032,4.32892 -6.8659,5.57488 -1.1129,2.09214 -1.0652,2.36807 0.7659,4.43369 3.3899,3.82402 4.2502,3.95754 8.8213,1.36896 2.2972,-1.30092 7.9045,-3.42316 12.4607,-4.71607 9.7817,-2.77578 14.5725,-5.11758 20.6433,-10.09041 2.4585,-2.0138 4.6941,-3.66146 4.9683,-3.66146 0.2741,0 -1.0272,2.00774 -2.8919,4.46165 -4.6111,6.06803 -11.0402,10.96927 -17.1971,13.11008 -6.1902,2.15244 -7.5606,3.24217 -4.0771,3.24217 1.4026,0 5.4676,1.21164 9.0335,2.69253 6.6998,2.7824 7.4476,2.86209 21.4735,2.28819 4.6873,-0.19179 6.1792,0.11731 9.8619,2.0433 2.3866,1.2481 3.4455,2.06626 2.3532,1.81815 -10.7176,-2.43437 -10.308,-2.41021 -15.5382,-0.91618 -6.3517,1.81432 -12.2406,1.31173 -18.9491,-1.61721 -6.4196,-2.80278 -11.2517,-2.79601 -17.2744,0.0242 -5.8941,2.75999 -10.6823,2.39207 -17.7605,-1.36475 -9.237,-4.90267 -20.231,-4.26348 -25.6864,1.49343 -3.705,3.90985 -4.1811,5.63684 -4.9844,18.08225 -0.8887,13.76916 -1.8958,16.7648 -8.8423,26.30146 -2.5549,3.50762 -5.6018,10.49117 -5.0147,11.49369 0.2289,0.39091 3.3538,-0.42878 6.9443,-1.82151 5.5939,-2.16992 7.6654,-2.54104 14.4775,-2.59359 7.4502,-0.0576 8.1236,0.0787 10.7226,2.16957 1.9693,1.58427 3.1624,3.51482 4.1162,6.66045 0.7387,2.43624 2.3199,5.92624 3.514,7.75555 2.2072,3.38176 4.8613,4.85059 4.8613,2.69032 0,-0.65037 0.7439,-2.08278 1.6532,-3.18313 2.3426,-2.83494 3.5938,-5.59446 6.1928,-13.65803 2.8604,-8.87467 4.5496,-11.75554 9.9435,-16.95766 7.3165,-7.05648 16.6929,-9.56618 27.0352,-7.23626 7.5093,1.69176 13.2382,1.71479 13.8415,0.0556 0.4763,-1.30978 -1.717,-7.02726 -3.914,-10.20307 -2.2546,-3.25898 0.083,-2.02578 3.5415,1.86896 4.1334,4.65359 5.415,8.10345 4.0274,10.83964 -1.6502,3.25377 -4.2194,3.74215 -18.5343,3.52322 -12.4695,-0.19071 -13.6339,-0.0782 -16.568,1.60088 -5.6723,3.24619 -10.2827,9.16545 -12.2108,15.67768 -0.949,3.20534 -2.6231,8.37785 -3.7201,11.49446 -1.0971,3.11662 -1.8345,5.83566 -1.6387,6.04233 0.4142,0.437 9.0791,-6.36091 16.1682,-12.68441 5.9369,-5.29571 10.6905,-8.03784 11.8368,-6.82811 0.5457,0.57578 1.91,0.53377 4.249,-0.13086 6.5579,-1.86348 12.8605,0.31562 22.9198,7.92437 2.7496,2.07976 6.2961,4.93581 7.8812,6.34678 3.7407,3.32988 7.0155,3.43074 12.5335,0.38598 4.6797,-2.58217 18.3055,-7.97148 20.1544,-7.97148 2.6188,0 -0.516,3.12858 -4.1771,4.16871 -2.0787,0.59056 -7.2027,2.86684 -11.3866,5.05841 -12.2474,6.41511 -14.2005,6.25494 -23.8998,-1.95998 -6.1758,-5.23058 -11.7459,-8.56317 -16.3524,-9.78365 -3.0445,-0.80662 -4.4376,-0.74149 -8.0868,0.37799 -2.4247,0.74386 -4.4087,1.64621 -4.4087,2.00521 0,0.359 1.0517,1.47316 2.3369,2.4759 3.1616,2.46673 4.3781,7.26537 3.0474,12.02134 -0.5442,1.94481 -2.5099,6.56744 -4.3681,10.2725 -4.0299,8.03454 -5.0815,13.71829 -2.9895,16.15776 2.0275,2.36408 5.7676,2.81353 11.5217,1.38462 11.0215,-2.73698 13.5015,-2.56709 17.2165,1.17938 7.4965,7.5599 -0.3037,20.30969 -10.5913,17.31216 -3.3525,-0.97681 -3.7782,-2.7594 -0.4762,-1.99409 2.6203,0.60733 7.6518,-1.31266 9.2459,-3.52825 1.5389,-2.13884 1.3109,-5.46543 -0.5165,-7.53533 -2.0472,-2.31895 -2.2222,-2.30859 -11.409,0.67557 -4.229,1.37372 -8.8184,2.49767 -10.1986,2.49767 -3.0424,0 -10.7087,-3.8778 -10.7087,-5.41671 0,-0.60774 -0.3742,-1.23663 -0.8316,-1.39754 -0.4575,-0.16091 -1.173,-1.89535 -1.5901,-3.85433 -1.0338,-4.85539 0.7592,-11.95815 5.2388,-20.75251 3.8512,-7.56088 4.2425,-9.72571 1.988,-10.99896 -2.8541,-1.6119 -6.597,0.98569 -10.38,7.20376 -11.5196,18.93441 -17.9848,25.62999 -25.6759,26.59125 -8.8797,1.10979 -15.2974,-6.3397 -15.2974,-17.7569 0,-4.67683 -2.1706,-10.79941 -4.5202,-12.74975 -3.5391,-2.93763 -9.8912,-1.73429 -15.7536,2.98429 -5.8024,4.67034 -6.6164,11.99562 -2.6687,24.01848 2.7524,8.38272 2.9282,10.36216 1.2275,13.83252 -1.8835,3.84358 -5.7683,5.14151 -15.7601,5.26546 l -8.6786,0.10766 -2.5098,3.96293 c -4.3844,6.92305 -5.1791,16.04421 -2.274,26.1004 0.8667,2.99986 2.5219,5.69993 5.6143,9.15812 8.3976,9.39072 9.2598,14.46868 4.0941,24.11284 -4.245,7.92519 -5.6907,13.2623 -3.3339,12.30794 0.658,-0.26643 3.2035,-0.21975 5.6569,0.10373 4.8445,0.63873 8.926,3.79665 8.926,6.9062 0,3.47171 -3.4301,7.19754 -8.3123,9.02911 l -4.7054,1.76521 -0.2337,6.03493 c -0.313,8.08305 0.8811,13.57742 4.6475,21.38421 4.817,9.9839 5.8306,14.42689 4.6413,20.341 l -0.9785,4.86623 2.8826,5.10654 c 2.1064,3.7314 3.1153,6.75715 3.7465,11.23596 0.6874,4.87657 1.611,7.4325 4.5189,12.50463 2.0103,3.5064 4.1018,7.2279 4.648,8.2698 0.9079,1.732 1.7205,1.9383 9.4675,2.4028 4.6609,0.2794 10.2832,0.6864 12.494,0.9042 l 4.0196,0.3962 0.5139,-11.856 c 0.2827,-6.52079 0.5208,-15.41517 0.5289,-19.76528 0.01,-4.35011 0.2831,-8.35416 0.6108,-8.89788 0.3276,-0.54374 1.5647,-1.37743 2.7492,-1.85266 2.0384,-0.81782 2.1535,-1.15137 2.1535,-6.23678 0,-5.48323 1.1314,-7.98936 3.6067,-7.98936 1.4456,0 1.4358,-2.55699 -0.046,-12.07206 -0.6416,-4.12115 -1.1728,-11.86795 -1.1804,-17.21511 -0.014,-9.6384 0.01,-9.73702 2.1558,-11.45369 1.1933,-0.95237 3.2007,-2.56637 4.4611,-3.58663 2.4647,-1.99546 5.1581,-7.38806 5.1863,-10.38378 0.01,-1.01417 0.6387,-2.18147 1.398,-2.59399 0.7594,-0.4125 6.0611,-0.95928 11.7818,-1.21503 l 10.401,-0.46499 0.8461,4.16361 c 1.3346,6.56658 2.3921,8.22211 7.2584,11.36269 2.5826,1.6668 2.9576,2.37478 3.7309,7.04557 0.4728,2.85591 1.2195,10.25034 1.6591,16.43207 1.0597,14.89872 1.0871,14.98601 4.7262,14.98601 4.0943,0 5.9221,2.24132 5.1894,6.36342 -0.5107,2.87236 -0.3295,3.29608 2.4703,5.77524 l 3.0214,2.67546 0.2388,19.44286 c 0.1315,10.69362 0.5082,19.72801 0.8372,20.07651 1.7091,1.81 32.5052,-12.79311 56.7148,-26.89324 l 7.2978,-4.25038 v 80.40242 80.4025 H 647.79684 3.6174317 Z M 728.66519,981.34685 c 0.65089,-0.44389 0.94513,-0.8128 0.65388,-0.81981 -0.29127,-0.007 0.46645,-4.04024 1.6838,-8.96273 1.21735,-4.92249 2.46319,-10.54224 2.76853,-12.48834 0.64828,-4.13189 1.06163,-4.02996 -9.83991,-2.42644 -5.95692,0.87621 -6.68723,1.17148 -6.53715,2.64304 0.93474,9.16507 3.03829,21.76193 3.71548,22.24967 1.22293,0.88079 6.16472,0.75298 7.55537,-0.19539 z m -19.73027,-1.45698 c -0.0145,-1.39924 -1.6354,-15.79357 -2.04973,-18.20247 -0.44371,-2.57981 -0.47493,-2.59462 -6.60125,-3.13377 -3.38549,-0.29796 -7.88169,-1.09439 -9.99156,-1.76986 -2.10988,-0.67548 -3.88947,-1.23219 -3.95467,-1.23716 -0.0651,-0.005 -0.55448,1.95791 -1.08728,4.36192 -0.5328,2.404 -1.8396,7.31901 -2.90399,10.92224 -1.06439,3.60322 -1.6402,6.86071 -1.27957,7.23886 1.22249,1.2819 27.88052,3.02311 27.86805,1.82024 z m -36.92845,-9.78253 c 3.48051,-10.944 4.9862,-17.81266 4.10789,-18.73949 -1.37252,-1.44839 -11.45107,-2.30114 -20.21283,-1.71021 -4.65523,0.31398 -8.70571,0.82587 -9.00106,1.13754 -0.54055,0.57042 -0.42301,22.35937 0.12373,22.93631 0.46081,0.48628 19.52621,3.33028 21.28616,3.17527 1.23457,-0.10873 2.0388,-1.58822 3.69611,-6.79942 z m -35.29542,-3.12209 c 0.27573,-2.404 0.8988,-6.90188 1.3846,-9.99527 0.48579,-3.0934 0.73729,-5.75857 0.5589,-5.92262 -0.17841,-0.16404 -5.00498,-0.54907 -10.72571,-0.85563 l -10.40135,-0.55739 -0.47302,3.56606 c -0.26016,1.96132 -0.54996,6.00127 -0.64399,8.97766 l -0.17096,5.41161 8.28399,1.78815 c 12.16248,2.62535 11.59688,2.73731 12.18754,-2.41257 z m -32.36169,-4.16278 c 1.11332,-5.65684 2.03099,-13.2671 1.67342,-13.87763 -0.22625,-0.3863 -3.16795,-0.94472 -6.53711,-1.24095 -3.36918,-0.29621 -8.3857,-0.76367 -11.14783,-1.03879 l -5.02207,-0.50018 0.56502,6.97587 c 0.31076,3.83673 0.82489,7.26909 1.1425,7.62746 0.59404,0.67027 14.05435,3.67273 17.19729,3.83603 1.22723,0.0638 1.87174,-0.4757 2.12878,-1.78181 z M 146.41852,954.1997 v -6.98765 l -4.93095,-0.007 c -2.71202,-0.004 -6.78527,-0.24229 -9.05165,-0.52958 -3.86464,-0.48989 -4.16677,-0.39451 -4.86197,1.53509 -0.4077,1.13158 -0.86107,4.03985 -1.00749,6.4628 l -0.26622,4.40536 2.76134,0.33494 c 1.51873,0.18419 5.60156,0.82254 9.07295,1.41851 3.47139,0.59597 6.7554,0.91974 7.2978,0.71949 0.68322,-0.25222 0.98619,-2.51081 0.98619,-7.35172 z m 426.4492,0.20742 c -1.08538,-9.32027 -0.50241,-8.62178 -7.75839,-9.29558 -3.55483,-0.3301 -9.48106,-1.07899 -13.16941,-1.6642 -3.68835,-0.5852 -6.92347,-0.82051 -7.18915,-0.5229 -0.55991,0.62722 -3.06723,11.1451 -3.06723,12.8667 0,0.89958 2.25936,1.29592 10.05914,1.76456 5.53252,0.33242 12.36683,0.86958 15.18733,1.1937 2.82051,0.32411 5.4225,0.44294 5.78223,0.26408 0.35972,-0.17888 0.42969,-2.25173 0.15548,-4.60636 z m -525.567801,1.63669 c 8.019921,-1.04154 8.156276,-1.18378 7.249745,-7.56304 l -0.501789,-3.53111 -5.688278,-0.49981 c -3.12855,-0.27491 -8.084716,-0.75668 -11.013703,-1.0706 l -5.325425,-0.57076 0.01928,2.82619 c 0.01772,2.59032 1.084619,8.78367 1.963844,11.39967 0.257659,0.76663 1.197756,0.91522 3.236703,0.51158 1.580469,-0.31289 6.107292,-0.98884 10.059618,-1.50212 z m 68.601801,-0.71434 c 0.23286,-1.03029 0.65893,-3.59825 0.94682,-5.70658 l 0.52343,-3.83332 -3.03091,-0.52843 c -1.66699,-0.29064 -5.99787,-0.53256 -9.62417,-0.5376 -4.9605,-0.007 -6.496112,0.24855 -6.200944,1.03153 0.215772,0.57238 1.017206,2.72663 1.780954,4.7872 0.76375,2.06058 1.67158,4.08269 2.0174,4.49358 0.52064,0.61863 5.65142,1.50609 11.86889,2.05296 0.74323,0.0653 1.47557,-0.68436 1.71853,-1.75934 z m 419.57097,-5.61976 c 1.20125,-3.43428 2.20255,-6.85307 2.2251,-7.59728 0.0305,-1.00541 -2.34119,-2.15734 -9.2292,-4.48272 -5.0986,-1.72128 -9.6777,-3.29201 -10.17578,-3.4905 -0.99481,-0.39649 -1.95019,21.46347 -0.97158,22.23096 0.29193,0.22895 4.00401,0.22895 8.24907,0 l 7.71828,-0.41628 z m -444.816,4.37092 c 0.190792,-0.34342 -0.334516,-2.49767 -1.167335,-4.78719 l -1.514224,-4.16278 -10.028671,0.25263 c -5.515769,0.13895 -10.493029,0.41651 -11.060576,0.6168 -0.689007,0.24315 -0.951175,1.54249 -0.788954,3.91015 l 0.24295,3.54597 9.861905,0.45567 c 5.424048,0.2506 10.817275,0.53159 11.98496,0.62442 1.167676,0.0928 2.279153,-0.11224 2.469945,-0.45567 z m 322.03317,-48.21284 c 6.07494,-0.73999 11.30617,-1.76213 11.62496,-2.27146 0.31881,-0.50932 0.58507,-4.243 0.59172,-8.29709 0.006,-4.05408 0.36178,-12.67103 0.78921,-19.14879 0.42741,-6.47775 0.87536,-15.94705 0.99544,-21.04287 l 0.21832,-9.26513 -5.53192,-0.55764 c -11.68641,-1.17802 -15.12666,-1.303 -18.91137,-0.68695 l -3.91203,0.63676 -0.99148,7.90394 c -0.54532,4.34717 -1.50845,9.96451 -2.1403,12.483 -0.63185,2.51847 -1.66055,6.63963 -2.286,9.15811 -0.62545,2.51849 -2.45168,9.23881 -4.05829,14.93406 -3.26031,11.5574 -4.42219,17.21894 -3.69783,18.01843 0.6341,0.69984 13.43001,-0.1737 27.30957,-1.86437 z m 548.71621,-9.52166 c 0,-0.95982 -0.56482,-3.79526 -1.25501,-6.30099 -0.97951,-3.55559 -2.22936,-5.56774 -5.6926,-9.16447 -2.4408,-2.53472 -4.57077,-4.18705 -4.73353,-3.67183 -0.3636,1.15115 3.69006,7.86422 6.92668,11.47099 2.46571,2.74773 3.00823,4.7456 1.54724,5.69843 -0.55011,0.35876 -0.37158,1.09464 0.51672,2.13052 1.76754,2.06102 2.6905,2.00521 2.6905,-0.16265 z m -14.99009,-11.06727 c 0,-0.63614 -0.69817,-2.04107 -1.55162,-3.12209 l -1.55172,-1.96548 -0.0263,2.63642 c -0.0234,2.35012 0.6829,3.33598 2.53776,3.54201 0.32543,0.0361 0.59178,-0.45474 0.59178,-1.09086 z M 285.2741,864.789 c 0.21696,-6.63963 0.15346,-17.87914 -0.1411,-24.97668 -0.29456,-7.09754 -0.69871,-24.20589 -0.89811,-38.01854 -0.19939,-13.81266 -0.60597,-25.52958 -0.90349,-26.0376 -0.29754,-0.50803 -1.49102,-0.75806 -2.65219,-0.55565 -1.16117,0.20243 -2.38584,0.39886 -2.7215,0.43652 -0.33567,0.0376 -0.40366,1.4734 -0.15111,3.19054 0.48584,3.30316 1.765,60.8986 1.87799,84.55719 l 0.0668,13.99805 2.56409,-0.26087 2.5641,-0.2609 z m 11.83428,10.07008 c 0,-1.33005 -0.52183,-7.41812 -1.15962,-13.52904 -1.4216,-13.62091 -2.7665,-47.08757 -2.7772,-69.10837 l -0.008,-16.36981 -3.20898,-0.57212 c -1.76494,-0.31466 -3.41042,-0.35953 -3.65663,-0.0997 -0.55481,0.58547 -0.31318,49.67173 0.24923,50.63204 0.22388,0.38229 0.54395,11.65005 0.71126,25.03947 0.1673,13.38942 0.32179,24.81272 0.34331,25.38511 0.0269,0.71233 1.53272,1.0407 4.77285,1.0407 4.69917,0 4.73372,-0.0177 4.73372,-2.41827 z m 55.07529,-4.49326 c 0.82301,-0.69037 0.98282,-6.69725 0.78896,-29.65493 -0.23038,-27.2794 -0.33061,-28.98568 -1.9111,-32.5357 -2.63102,-5.90963 -5.19046,-7.91682 -10.03422,-7.86918 -7.54563,0.0742 -12.71036,4.3722 -14.85968,12.36585 -0.62617,2.32881 -0.88148,12.27029 -0.80392,31.30324 0.0625,15.33984 0.12116,27.94903 0.13031,28.02041 0.078,0.60795 25.90187,-0.96887 26.68965,-1.62969 z m 74.90676,-35.94194 c 0.26554,-0.22177 0.51534,-19.48533 0.33649,-25.95087 l -0.14143,-5.11379 -8.08676,0.43402 c -4.44772,0.2387 -11.24427,-0.0102 -15.10343,-0.55289 -3.85916,-0.5428 -7.28004,-0.68479 -7.60196,-0.31556 -0.32192,0.36924 -0.7524,7.85722 -0.95661,16.63995 l -0.3713,15.96863 15.86279,-0.47147 c 8.72453,-0.25931 15.95252,-0.54642 16.06221,-0.63802 z M 363.7268,720.17241 c 0.28339,-0.77932 0.45372,-4.90047 0.37851,-9.15812 l -0.13674,-7.74116 h -2.99091 c -5.42057,0 -5.48682,0.111 -5.48682,9.19189 v 8.18119 l 2.16961,0.34683 c 4.46508,0.71379 5.56235,0.56536 6.06635,-0.82063 z m 10.69889,-7.30813 c 0,-8.57099 -0.10456,-8.72057 -6.11438,-8.74723 l -2.5641,-0.0113 v 8.1868 c 0,4.50273 0.14776,8.3429 0.32835,8.5337 0.18059,0.19079 2.13325,0.21708 4.33923,0.0585 l 4.0109,-0.28849 z m -59.76313,7.35815 2.95858,-0.51605 v -6.04779 -6.04778 L 314.63212,707.31 c -5.61894,-0.56547 -5.68945,-0.4806 -5.68945,6.8474 0,7.29673 -0.18952,7.09577 5.71989,6.06503 z m 103.15549,-6.12607 v -6.66045 h -4.81811 c -4.06936,0 -4.74371,0.20466 -4.33924,1.31693 0.26339,0.72431 0.47888,3.50813 0.47888,6.18625 0,5.32694 0.12043,5.4393 6.11438,5.70435 l 2.56409,0.11336 z m -87.73635,-0.62442 0.2318,-6.03603 -5.35999,0.002 -5.35999,0.002 -0.0395,6.27663 -0.0395,6.27664 5.16769,-0.24239 5.16769,-0.24238 z m 76.92961,0.37103 c -0.0338,-3.11575 -0.24142,-5.85503 -0.46151,-6.08727 -0.22009,-0.23225 -2.56765,-0.1635 -5.21681,0.15279 l -4.81664,0.57505 v 5.16532 c 0,2.84092 0.2517,5.43093 0.55933,5.75556 0.30763,0.32464 2.68281,0.48074 5.27817,0.3469 l 4.71883,-0.24335 z m -4.08277,-8.07217 h 3.91628 l -0.23329,-5.61976 c -0.23055,-5.55381 -0.26089,-5.62306 -2.58588,-5.90182 -1.29392,-0.15514 -3.69037,0.14088 -5.32543,0.65783 -3.22391,1.0193 -3.3174,1.31801 -2.46548,7.87697 0.3803,2.92792 0.7916,3.79097 1.64244,3.44642 0.62429,-0.2528 2.89741,-0.45964 5.05136,-0.45964 z m -88.35931,-0.83255 h 3.13064 l -0.2366,-4.78721 -0.23661,-4.78719 -3.34443,-0.47105 c -1.83942,-0.25906 -3.67359,-0.25635 -4.07591,0.006 -0.40234,0.26239 -0.79152,2.53494 -0.86485,5.0501 -0.17774,6.09597 -0.18263,6.07443 1.24915,5.49464 0.68638,-0.27794 2.65674,-0.50534 4.37861,-0.50534 z m 15.26983,0.0185 c 0.26221,-0.44773 0.58552,-2.88295 0.71845,-5.41161 l 0.24172,-4.59757 -2.84152,0.009 c -1.56285,0.005 -4.17289,0.2414 -5.80009,0.52522 l -2.95858,0.51604 v 4.40076 c 0,2.74158 0.37181,4.55905 0.98619,4.82067 1.79861,0.76587 9.16889,0.56533 9.65383,-0.26266 z m 87.97899,-4.49031 v -5.30436 l -3.97059,-0.55583 c -2.18382,-0.3057 -4.31399,-0.33186 -4.7337,-0.0581 -0.8537,0.55677 -1.0592,9.80016 -0.23717,10.66762 0.28929,0.30528 2.41946,0.55505 4.73372,0.55505 h 4.20774 z m -43.55706,-6.01112 -0.22978,-7.41703 -4.142,-0.25166 -4.142,-0.25165 v 7.49879 7.49879 l 2.95857,0.52219 c 1.62722,0.2872 3.3136,0.632 3.74753,0.76621 1.66173,0.51398 2.02997,-1.19025 1.80768,-8.36564 z m -11.04576,6.67882 c 0.74934,-0.24462 0.95772,-2.15005 0.78894,-7.21414 l -0.22934,-6.88171 -3.55028,-0.24476 c -5.35499,-0.36916 -5.99922,0.62442 -5.67604,8.75394 l 0.27207,6.84408 3.68817,-0.4625 c 2.0285,-0.25436 4.14641,-0.61207 4.70648,-0.79491 z m -45.43702,-14.30399 c 0.15494,-3.54877 0.0404,-6.7714 -0.25459,-7.1614 -0.78243,-1.03447 -4.64784,1.19791 -6.39817,3.69511 -0.83017,1.18441 -1.70359,3.68134 -1.94095,5.54873 -0.47138,3.70864 -0.0885,3.98916 5.8102,4.25649 l 2.50177,0.11337 z m 12.46617,4.02844 c 0,-3.28615 -3.11553,-9.16717 -5.5643,-10.50346 -3.84375,-2.09755 -4.68074,-1.65722 -4.7907,2.52037 -0.0542,2.06058 -0.16603,4.96412 -0.24843,6.45232 -0.0823,1.48819 -0.004,3.00946 0.17468,3.38059 0.17847,0.37113 2.59794,0.56705 5.37661,0.43537 4.77795,-0.22643 5.05214,-0.35045 5.05214,-2.28519 z m 73.46109,1.59131 h 3.04713 l -0.49452,-6.45231 c -0.27199,-3.54877 -0.62694,-6.61312 -0.7888,-6.80967 -0.16185,-0.19654 -1.51637,0.25763 -3.01004,1.00929 -2.97539,1.49728 -5.11052,5.082 -5.98479,10.04797 l -0.56457,3.2069 2.37423,-0.50109 c 1.30583,-0.2756 3.74544,-0.50109 5.42136,-0.50109 z m 14.11258,-1.69186 c 0,-5.63499 -3.28452,-10.36574 -7.86857,-11.33322 l -2.63685,-0.55653 0.51214,4.50127 c 0.28168,2.47571 0.51523,5.51198 0.519,6.7473 0.006,2.1145 0.2494,2.26393 4.14886,2.5518 2.2781,0.16818 4.40827,0.37508 4.73371,0.45979 0.32545,0.0848 0.59171,-0.98198 0.59171,-2.37041 z m -57.19903,-6.0309 3.15581,-0.21949 0.21646,-14.49133 c 0.11906,-7.97024 -0.0864,-14.81093 -0.45655,-15.20154 -1.18062,-1.24589 -4.60882,2.45931 -6.4466,6.96749 -1.82781,4.4837 -3.87123,20.05972 -2.96027,22.56483 0.27244,0.74922 1.09111,1.15989 1.90642,0.95632 0.78591,-0.19623 2.84905,-0.45556 4.58473,-0.57628 z m 14.08923,-2.89233 c 0.77408,-4.942 0.57789,-15.2982 -0.35883,-18.94065 -0.97203,-3.77979 -5.04702,-8.74184 -7.17907,-8.74184 -1.32026,0 -1.42314,1.11337 -1.42314,15.40229 v 15.40228 h 4.23601 4.23601 z m -10.11351,-82.1521 -0.56006,-6.30698 -3.68021,0.0113 c -6.62919,0.0204 -6.86427,0.23095 -6.62578,5.93234 0.11849,2.83257 0.67571,5.51708 1.27684,6.15144 1.138,1.20089 8.30548,2.01955 9.45928,1.08042 0.37949,-0.3089 0.43797,-3.39975 0.12993,-6.8686 z m 12.19018,6.60733 c 0.54913,-0.69823 1.0218,-3.87828 1.0828,-7.28488 l 0.10825,-6.0457 -5.91713,0.29962 c -3.25443,0.16479 -5.92101,0.35211 -5.92573,0.41627 -0.005,0.0642 0.11107,3.20753 0.25732,6.98524 l 0.26588,6.86859 h 4.57704 c 3.09009,0 4.89364,-0.40257 5.55157,-1.23914 z m -13.04953,-18.11779 c -0.17875,-14.14739 -0.38509,-16.44297 -1.47793,-16.44297 -1.94227,0 -5.83415,4.09513 -6.78681,7.14125 -0.96194,3.07582 -2.3238,12.12582 -1.93275,12.84384 0.12582,0.23103 2.4806,0.23103 5.23285,0 l 5.00408,-0.42003 z m 10.98222,2.98777 3.05326,-0.53226 -0.51699,-4.66204 c -0.28434,-2.56414 -1.15664,-5.97332 -1.93846,-7.576 -1.67202,-3.42758 -5.84034,-6.66044 -8.58768,-6.66044 h -1.94193 l 0.56981,9.36625 c 0.31339,5.15144 0.72818,9.64724 0.92174,9.99068 0.4283,0.75992 4.30981,0.79387 8.44025,0.0738 z m 542.324,164.79331 c 1.41806,-0.18529 3.54823,-0.18147 4.73373,0.008 1.1855,0.18997 0.0253,0.34157 -2.57816,0.33691 -2.60356,-0.005 -3.57363,-0.1601 -2.15557,-0.34541 z"
       id="path1" /></g></svg>
