<?xml version="1.0" encoding="UTF-8" standalone="no"?>
<!-- Created with Inkscape (http://www.inkscape.org/) -->

<svg
   version="1.1"
   id="svg1"
   width="1300"
   height="1294"
   viewBox="0 0 1300 1294"
   sodipodi:docname="drago tavolino.svg"
   inkscape:version="1.3 (0e150ed6c4, 2023-07-21)"
   xml:space="preserve"
   xmlns:inkscape="http://www.inkscape.org/namespaces/inkscape"
   xmlns:sodipodi="http://sodipodi.sourceforge.net/DTD/sodipodi-0.dtd"
   xmlns="http://www.w3.org/2000/svg"
   xmlns:svg="http://www.w3.org/2000/svg"><defs
     id="defs1" /><sodipodi:namedview
     id="namedview1"
     pagecolor="#505050"
     bordercolor="#ffffff"
     borderopacity="1"
     inkscape:showpageshadow="0"
     inkscape:pageopacity="0"
     inkscape:pagecheckerboard="1"
     inkscape:deskcolor="#505050"
     inkscape:zoom="0.62673879"
     inkscape:cx="649.39335"
     inkscape:cy="597.53761"
     inkscape:window-width="1920"
     inkscape:window-height="1046"
     inkscape:window-x="-11"
     inkscape:window-y="-11"
     inkscape:window-maximized="1"
     inkscape:current-layer="g1" /><g
     inkscape:groupmode="layer"
     inkscape:label="Image"
     id="g1"><path
       style="fill:#000000"
       d="m 531.39335,889.4411 c -27.71346,-2.83276 -59.47827,-12.23315 -82.84948,-24.51824 -38.9713,-20.4853 -66.63755,-51.13826 -79.49507,-88.07697 -10.49105,-30.14 -10.88092,-71.19936 -0.9755,-102.73436 14.06254,-44.76967 46.19794,-83.0025 86.88754,-103.37372 4.43712,-2.22145 14.5816,-6.2713 22.54328,-8.99968 41.91016,-14.36213 65.35303,-32.09837 74.94393,-56.70052 2.04762,-5.25246 2.34279,-7.74425 2.36912,-20 0.0265,-12.34485 -0.24377,-14.68532 -2.28624,-19.79681 -3.29843,-8.25467 -10.70963,-15.51476 -19.63758,-19.23719 -6.56074,-2.73544 -7.84716,-2.91848 -20.5,-2.91678 -10.20397,0.001 -14.96491,0.44726 -19.5,1.8263 -8.4722,2.57625 -19.38452,7.9854 -23.5,11.64876 -1.925,1.71352 -7.325,6.08605 -12,9.71674 -10.413,8.0869 -16,13.27694 -16,14.86315 0,4.84383 31.97288,12.39583 52.4802,12.39583 4.63904,0 5.89973,0.84634 4.94946,3.3227 -0.94572,2.4645 -16.22948,8.40519 -25.09649,9.75482 -18.57372,2.82707 -38.91098,-5.34891 -47.03618,-18.90947 -2.50969,-4.18855 -2.79699,-5.59251 -2.79699,-13.66805 0,-10.03379 1.51627,-15.98863 5.60181,-22 4.11544,-6.05534 11.49512,-12.86714 12.95942,-11.96215 0.73886,0.45664 0.99508,0.36229 0.62819,-0.23135 -1.17332,-1.89847 10.07625,-9.65971 26.31058,-18.15204 8.83743,-4.62295 22.68744,-9.66151 32.5,-11.82332 8.90069,-1.96093 26.33338,-2.1741 33.5,-0.40965 23.69195,5.83305 40.97944,27.00059 49.06601,60.07851 1.91823,7.84649 2.33217,12.28487 2.37823,25.5 0.0493,14.15399 -0.22065,16.89417 -2.33992,23.75 -1.31762,4.2625 -2.72502,7.75 -3.12755,7.75 -0.40254,0 -1.26123,-0.63782 -1.90821,-1.41738 -0.917,-1.10492 -0.66843,-3.03386 1.12756,-8.75 1.96347,-6.24919 2.2954,-9.40117 2.24653,-21.33262 -0.0481,-11.73732 -0.49425,-15.75745 -2.76059,-24.87399 -6.08324,-24.47026 -17.79525,-42.8432 -32.75865,-51.38936 -8.60519,-4.91474 -17.26493,-6.56123 -30.92341,-5.8795 -15.84406,0.79082 -26.8779,3.87834 -43.76543,12.24655 -7.55401,3.74321 -14.29223,6.7645 -14.97381,6.71398 -0.68158,-0.0505 -0.99253,0.30733 -0.69098,0.79523 0.30154,0.4879 -0.15331,0.88709 -1.01077,0.88709 -0.85746,0 -1.55901,0.3848 -1.55901,0.85511 0,0.47031 -2.5875,2.67024 -5.75,4.88873 -7.72704,5.4205 -15.86449,14.19099 -18.18113,19.59549 -2.34384,5.46795 -3.49859,14.15773 -2.59337,19.51569 2.188,12.95065 19.37427,24.27322 37.05519,24.41252 6.66325,0.0525 20.99049,-2.68378 21.91902,-4.18618 0.23755,-0.38436 -5.27896,-1.4766 -12.2589,-2.4272 -32.9049,-4.48132 -43.10518,-10.84847 -33.99742,-21.22164 1.75636,-2.00039 6.81886,-6.38641 11.25,-9.74672 4.43113,-3.36031 10.86196,-8.47808 14.29073,-11.37283 8.05957,-6.80433 14.35715,-9.93118 26.17692,-12.99731 16.18703,-4.19901 34.69953,-3.12611 46.0597,2.66942 15.88871,8.10581 24.21723,27.83335 21.05874,49.88127 -1.25787,8.78064 -1.67634,9.64056 -3.86851,7.94944 -1.21075,-0.934 -1.15242,-0.68474 0.21518,0.91959 1.85118,2.1716 1.8298,2.29785 -1.60595,9.48276 -11.48938,24.02687 -34.24672,40.15558 -77.43234,54.87827 -25.26627,8.61369 -40.14869,17.88848 -60.68372,37.8184 -26.2913,25.51655 -42.4818,56.24194 -48.7585,92.53099 -2.75383,15.92141 -2.25151,45.56399 1.02952,60.7532 6.1143,28.30562 18.85891,51.59142 39.57226,72.30283 34.48581,34.48259 88.12692,55.22129 143.92559,55.64444 13.81807,0.10479 15.28514,0.29133 17.56983,2.23404 2.34493,1.99392 2.39148,1.99861 0.78441,0.079 -1.69713,-2.02721 -1.62759,-2.04914 10.50715,-3.31314 22.69779,-2.36428 41.53056,-7.50053 59.1789,-16.13981 41.29316,-20.21399 75.47871,-59.13084 97.44667,-110.93337 7.75463,-18.28614 14.05532,-38.79224 15.67816,-51.02579 0.70685,-5.32852 1.14277,-5.81036 3.43533,-3.79717 0.78291,0.6875 0.68658,0.35 -0.21406,-0.75 -2.49293,-3.04473 -0.89824,-37.99864 2.18987,-48 5.7051,-18.47683 19.56671,-32.45477 36.76441,-37.07294 7.70708,-2.06961 20.5962,-2.04224 27.88642,0.0592 9.54115,2.7503 19.01296,9.16382 24.87251,16.84157 9.21036,12.06831 11.84087,25.4693 9.06325,46.17215 -1.54073,11.48373 -2.6816,16.35955 -12.86929,55 -7.27283,27.58482 -8.15447,33.07672 -8.18728,51 -0.023,12.55717 0.38269,17.61383 1.88533,23.5 7.27786,28.50898 24.43949,50.89826 48.08538,62.73279 12.62891,6.32065 19.57612,7.78208 36.5,7.67826 16.46612,-0.10102 24.25919,-1.72949 37.00906,-7.73355 31.91356,-15.02843 42.45819,-54.48388 29.39035,-109.97145 -4.11127,-17.45694 -3.39483,-17.45919 13.55104,-0.0427 7.5794,7.78983 15.9649,16.94354 18.6346,20.34159 2.6696,3.39804 4.9898,5.77063 5.1558,5.27243 0.1661,-0.49821 -0.8631,-4.92625 -2.2871,-9.84009 -9.182,-31.68514 -26.18633,-59.32677 -52.88931,-85.97483 -7.18544,-7.17067 -15.2256,-14.52106 -17.86701,-16.33421 -3.90157,-2.67816 -4.58212,-3.56224 -3.62755,-4.71242 0.64625,-0.77869 1.62725,-1.4158 2.18,-1.4158 3.18178,0 26.47351,22.4466 39.43072,38 19.58645,23.51097 35.55165,56.35216 40.62435,83.56673 2.2402,12.01844 0.1947,12.60181 -7.6554,2.18327 -5.4642,-7.25202 -22.7533,-26.78067 -28.36749,-32.04203 l -2.97924,-2.79203 2.40883,11.29203 c 3.62497,16.99295 4.27782,44.51389 1.38281,58.29203 -7.63742,36.34853 -34.59945,56.71824 -75.09446,56.7336 -14.371,0.005 -23.57526,-1.99951 -35.55325,-7.74454 -18.50619,-8.87615 -32.46059,-22.49999 -42.95614,-41.93854 -9.98436,-18.49177 -13.40588,-38.42019 -10.8252,-63.05052 1.31414,-12.54227 4.31262,-25.77376 14.27374,-62.98611 7.46867,-27.90116 8.97433,-48.65413 4.44349,-61.24604 -3.98889,-11.08574 -12.95065,-20.22469 -24.63113,-25.11812 -8.1881,-3.43034 -22.91421,-3.74285 -32.25151,-0.68444 -13.02456,4.26616 -24.4993,15.44114 -29.92525,29.14351 -2.45709,6.20498 -2.81362,8.73343 -3.58038,25.3912 -0.96555,20.97634 -1.86067,27.53511 -6.07324,44.5 -14.68021,59.12039 -51.15237,113.28892 -95.42113,141.71971 -22.92514,14.72323 -50.49618,24.00403 -79,26.59249 -12.80766,1.16307 -37.55873,1.20966 -48.5,0.0913 z m 404,-6.28104 c 0,-0.20766 -0.7875,-0.99516 -1.75,-1.75 -1.58606,-1.24387 -1.62143,-1.2085 -0.37756,0.37755 1.30637,1.66575 2.12756,2.19548 2.12756,1.37245 z m -8.96708,-9.0874 -2.1179,-2.25441 6.55206,-0.52593 c 8.55588,-0.68679 15.84913,-4.39848 23.13443,-11.77363 12.63283,-12.78862 20.4509,-29.2252 25.0226,-52.60708 2.11915,-10.83832 2.39045,-38.023 0.49774,-49.874 -1.6462,-10.30751 -6.58934,-30.07496 -9.13693,-36.53826 -2.48849,-6.31334 -2.49631,-7.96174 -0.0378,-7.96174 1.60907,0 2.63158,2.12702 5.88886,12.25 6.93517,21.55312 8.59218,32.25675 8.63052,55.75 0.0292,17.9074 -0.26152,21.81765 -2.29892,30.91878 -6.7754,30.26581 -20.42795,51.81342 -38.2466,60.36404 -9.67722,4.6438 -15.0105,5.3153 -17.8881,2.25223 z m -10.87058,-0.52747 c -10.60806,-3.81635 -22.48579,-12.94996 -32.19576,-24.75758 -2.82682,-3.4375 -5.4795,-6.25 -5.89484,-6.25 -0.41534,0 -1.28231,1.6875 -1.9266,3.75 -2.97212,9.51436 -6.88259,9.35915 -8.82601,-0.3503 -0.64948,-3.24483 -2.11845,-15.3497 -3.26438,-26.8997 -2.66565,-26.86745 -2.64784,-26.78213 -5.39287,-25.82517 -1.18904,0.41452 -3.73688,0.76976 -5.66188,0.78942 l -3.5,0.0358 0.21612,-5.23049 c 0.11886,-2.87677 1.13136,-7.23958 2.25,-9.69514 1.11863,-2.45555 2.03388,-4.75404 2.03388,-5.10776 0,-0.35371 1.35,-3.5598 3,-7.12463 1.65,-3.56484 3,-6.92668 3,-7.47076 0,-0.54409 0.44484,-0.71432 0.98854,-0.3783 0.5437,0.33603 0.76024,0.016 0.48119,-0.7112 -0.27905,-0.72719 1.74755,-6.26306 4.50354,-12.30194 6.7087,-14.69995 6.65876,-15.16693 -1.22327,-11.4381 -10.03172,4.7458 -13.17552,3.63182 -10.91255,-3.86675 0.60997,-2.02121 5.66332,-11.99993 11.22967,-22.17493 5.56634,-10.175 12.15127,-22.55 14.63317,-27.5 l 4.51256,-9 -5.39475,5.75 c -2.96712,3.1625 -5.92963,5.75 -6.58338,5.75 -1.75089,0 -3.97973,-3.88285 -5.16619,-9 -0.93773,-4.04443 -2.15923,-20.39312 -3.71794,-49.76152 -0.53236,-10.03049 -0.58429,-10.21061 -2.30621,-8 -0.96888,1.24384 -2.51178,3.72402 -3.42867,5.51152 -2.88228,5.61907 -6.7594,4.211 -24.03961,-8.73052 -15.17253,-11.36303 -30.17986,-21.36602 -21.5761,-14.38134 9.51252,7.72244 10.35743,10.90747 3.5,13.19393 -5.20195,1.73448 -24.53583,3.06592 -46.5,3.20224 l -17.5,0.10862 7.75,3.56844 c 8.91917,4.10678 9.62246,5.73707 4.52789,10.49611 -3.33989,3.11993 -19.1654,15.0831 -33.56317,25.37182 -9.45649,6.75766 -9.09909,7.31767 3.47717,5.44843 4.50554,-0.66968 8.71946,-0.89153 9.36428,-0.49301 1.80671,1.11661 0.52455,7.62715 -2.9747,15.10487 -2.94868,6.30118 -3.20356,6.5599 -4.92651,5.00065 -1.74579,-1.57992 -1.6843,-1.9079 1.5699,-8.37366 2.1167,-4.20567 2.96608,-6.86959 2.26488,-7.10333 -0.61709,-0.2057 -4.74617,0.15593 -9.17574,0.80362 l -8.05376,1.17762 -3.12649,-2.82225 -3.12649,-2.82224 2.42068,2.75 c 1.85914,2.11207 2.06069,2.75 0.86881,2.75 -2.24767,0 -4.05926,-2.59755 -3.35629,-4.81241 0.33313,-1.04962 4.91344,-5.00871 10.17845,-8.79799 5.26502,-3.78928 10.82184,-7.7896 12.34848,-8.8896 1.52665,-1.1 5.42102,-3.86026 8.65417,-6.13391 3.23314,-2.27366 8.06213,-6.06507 10.7311,-8.42536 l 4.85266,-4.29143 -4.40702,-1.73109 c -10.7767,-4.23313 -16.19696,-9.24773 -12.5483,-11.60919 0.6875,-0.44496 15.65,-1.10085 33.25,-1.45754 17.6,-0.35669 33.03049,-0.97638 34.28997,-1.37709 2.21507,-0.70473 2.23143,-0.7937 0.5,-2.72008 -0.98448,-1.09534 -4.55705,-3.97024 -7.93903,-6.38866 -3.38197,-2.41842 -6.42724,-5.12209 -6.76725,-6.00814 -1.09672,-2.858 1.43699,-4.61807 5.80462,-4.03225 4.04701,0.54282 12.73787,6.13442 36.95427,23.77597 5.96342,4.34432 11.14107,7.89877 11.50589,7.89877 0.36482,0 1.22279,-1.26397 1.90661,-2.80882 0.68382,-1.54486 3.23695,-5.14444 5.67362,-7.99907 4.02643,-4.71709 4.57347,-5.04707 6.0008,-3.61975 1.25481,1.25482 1.57143,4.0185 1.57514,13.74907 0.009,22.58795 2.59904,54.61969 4.57657,56.59139 0.32391,0.32295 1.56315,-0.6104 2.75386,-2.0741 1.19071,-1.46371 3.65284,-4.50121 5.47139,-6.75 4.73187,-5.85135 8.19354,-5.25879 8.19354,1.40254 0,2.61076 -6.66502,16.31981 -16.3422,33.61374 -8.50269,15.19502 -14.90189,27.98425 -14.3022,28.58394 0.26508,0.26508 1.98772,-0.23255 3.82809,-1.10586 6.30518,-2.99201 9.47087,-3.51333 11.72915,-1.93157 2.57593,1.80425 2.60624,3.21334 0.18521,8.60939 -1.04608,2.33151 -3.7253,8.2891 -5.95384,13.2391 -5.70524,12.67241 -15.14421,36.39175 -15.14421,38.05613 0,1.08357 0.57176,1.17699 2.5651,0.41912 1.4108,-0.53638 3.83121,-0.97525 5.37868,-0.97525 4.4943,0 4.31154,-0.8584 8.61792,40.47771 0.85821,8.23774 1.73155,15.14888 1.94076,15.35809 0.2092,0.2092 1.01203,-1.13076 1.78405,-2.97771 1.65381,-3.9565 4.17712,-6.30762 5.73573,-5.34434 0.61042,0.37726 2.44214,2.52509 4.07048,4.77295 4.04381,5.58231 11.40366,13.36329 17.41163,18.40792 5.4444,4.57141 17.59193,11.30538 20.394,11.30538 0.96416,0 2.8099,1.125 4.10165,2.5 l 2.34862,2.5 -2.92431,-0.0361 c -1.60837,-0.0198 -5.32626,-0.9002 -8.26197,-1.95635 z m -317.48824,-4.63503 c -11.17457,-2.39734 -38.28912,-12.20374 -70.31066,-25.42895 -7.91502,-3.26898 -14.7954,-5.9436 -15.28971,-5.9436 -0.49432,0 0.45937,3.4875 2.11932,7.75 3.42477,8.7943 4.79502,19.35452 2.82014,21.73411 -1.71876,2.07097 -4.87751,1.896 -8.78543,-0.48667 -5.41133,-3.29929 -19.73978,-17.6091 -33.04043,-32.99744 -15.77753,-18.25399 -15.0522,-17.46847 -15.6126,-16.90806 -0.46873,0.46873 -3.84523,15.97798 -5.03408,23.12298 -0.69585,4.18209 -1.7164,5.18147 -4.41621,4.32458 -2.22137,-0.70503 -10.54584,-17.99897 -9.71102,-20.17447 0.31002,-0.8079 0.22418,-1.25909 -0.19076,-1.00264 -0.86369,0.53379 -7.29805,-16.79716 -15.82044,-42.61239 -3.2229,-9.7625 -6.13739,-17.75 -6.47665,-17.75 -0.33925,0 -3.38762,4.42656 -6.77415,9.83681 -7.60736,12.15335 -11.60507,16.73136 -16.25005,18.60893 -3.17049,1.28155 -3.85459,1.27533 -5.75,-0.0523 -5.56619,-3.89871 -0.88788,-29.70298 13.85014,-76.39347 3.21178,-10.175 6.14849,-19.2875 6.52603,-20.25 0.62825,-1.60166 -0.23811,-1.75 -10.22056,-1.75 -6.87957,0 -11.33116,-0.42418 -12.05574,-1.14875 -2.84191,-2.84191 4.25425,-10.12932 34.24876,-35.17184 35.33002,-29.49716 35.80317,-29.93024 33.87711,-31.00812 -0.95815,-0.5362 -8.19701,-1.19406 -16.08636,-1.46189 -7.88935,-0.26784 -14.59597,-0.89423 -14.9036,-1.39199 -0.90287,-1.46088 1.54501,-3.69132 6.49495,-5.91803 5.00957,-2.25353 28.85131,-11.84575 69.37901,-27.91318 14.16861,-5.61722 25.95785,-10.53147 26.19831,-10.92054 0.24046,-0.38908 -4.45441,-1.4423 -10.43304,-2.34049 -11.97245,-1.79867 -17.7121,-3.74258 -18.7072,-6.33577 -0.99327,-2.58842 2.48799,-4.78736 12.37401,-7.81606 39.97031,-12.24537 58.39164,-21.3303 65.28215,-32.19551 2.44288,-3.85202 2.93572,-4.18992 4.08734,-2.8023 1.99381,2.4024 -1.35827,7.75185 -8.54843,13.64213 -10.48825,8.59212 -29.76714,16.81296 -60.47444,25.78732 -8.71667,2.54749 -8.20922,3.27195 3.46019,4.94002 15.31784,2.1896 18.35531,3.02377 19.05664,5.23346 1.36118,4.28872 0.23846,4.81215 -69.55664,32.42858 l -27.5,10.88116 9.5,0.61796 c 5.225,0.33987 10.74937,0.95679 12.27637,1.37092 3.43813,0.93245 5.17219,3.81626 3.81718,6.34811 -1.02188,1.90941 -12.05037,11.94668 -20.56802,18.71941 -5.63076,4.47724 -30.23695,25.04797 -32.06365,26.80515 -0.65767,0.63264 -4.40564,4.01049 -8.32882,7.50633 -3.92319,3.49584 -7.13306,6.80217 -7.13306,7.34739 0,0.60208 3.82832,0.90651 9.75,0.77532 5.3625,-0.1188 10.3125,-0.16262 11,-0.0974 1.78796,0.16965 1.55063,2.95123 -0.82864,9.71205 -10.30081,29.27033 -21.87219,73.72647 -21.9049,84.15655 -0.0289,9.22449 4.35235,6.15901 15.58542,-10.90477 8.16707,-12.40631 11.23545,-15.29986 14.24919,-13.43727 0.53061,0.32794 4.37678,10.8328 8.54704,23.34414 13.17909,39.53903 19.87706,57.30606 21.13102,56.05211 0.24371,-0.24372 1.36076,-5.81076 2.48232,-12.37122 2.0728,-12.12456 3.99454,-16.18722 7.05527,-14.91523 0.7883,0.3276 3.83656,3.60763 6.77392,7.28894 12.21718,15.31152 34.68941,39.08048 41.72606,44.13382 3.68158,2.64391 4.5476,2.92518 5.04174,1.63749 0.80775,-2.10496 -1.28064,-10.52335 -4.80652,-19.37536 -2.86559,-7.19428 -2.98557,-10.53446 -0.41384,-11.52133 0.72158,-0.27689 10.71695,3.30907 22.21194,7.96881 26.23453,10.63474 40.76282,16.09508 55.39998,20.82168 11.70391,3.77939 22,5.5877 22,3.86388 0,-2.26585 -6.44164,-10.6256 -15.84712,-20.56587 -5.58408,-5.9016 -10.15288,-11.17327 -10.15288,-11.71482 0,-3.08429 4.11281,-2.91935 23.62478,0.94747 34.57352,6.85166 56.37522,8.60725 56.37522,4.53962 0,-2.265 -6.80066,-8.04564 -15.3132,-13.01639 -13.58998,-7.93563 -15.82983,-9.54971 -15.49942,-11.16913 0.2135,-1.04637 3.95892,-2.46651 11.81262,-4.47894 13.20659,-3.38405 30.33812,-9.01182 47.2407,-15.51875 12.81439,-4.93311 15.81015,-7.01561 8.65168,-6.01422 -6.30487,0.88198 -25.5431,2.08647 -31.24724,1.95636 -2.67017,-0.0609 -5.30238,-0.55825 -5.84934,-1.10521 -1.79857,-1.79857 0.14151,-4.76682 4.49953,-6.88411 8.94645,-4.34652 30.81126,-22.55859 50.19775,-41.8117 12.68802,-12.60073 20.16063,-21.17962 19.24552,-22.09473 -0.29917,-0.29916 -6.77524,2.72514 -14.39127,6.72068 -22.17328,11.63259 -23.17067,12.10127 -24.28591,11.41202 -1.75246,-1.08308 -1.20702,-3.77202 1.31511,-6.48325 3.22689,-3.46883 18.508,-25.45159 24.25386,-34.89057 9.80244,-16.1029 9.38203,-15.5803 11.12868,-13.83364 1.42845,1.42844 1.08248,2.37148 -3.80451,10.37041 -2.95671,4.8395 -9.52621,14.93244 -14.59889,22.42877 l -9.22304,13.6297 14.50498,-7.3797 c 17.42341,-8.86449 22.28367,-9.64365 21.391,-3.42925 -0.43667,3.03997 -6.43355,10.29938 -18.75823,22.70744 -20.56052,20.69961 -37.03885,35.17564 -48.06067,42.22077 -2.90717,1.85825 -5.10206,3.56234 -4.87753,3.78687 0.22452,0.22452 8.56279,-0.13235 18.52948,-0.79305 19.36608,-1.2838 23.64565,-0.74528 22.94606,2.88742 -0.7498,3.89342 -34.20865,17.11552 -65.30772,25.80799 -3.3,0.92238 -6.37973,1.8996 -6.84384,2.1716 -0.46411,0.272 2.34393,2.22426 6.24009,4.33837 16.27182,8.8293 23.34973,16.92692 19.23592,22.00725 -1.73326,2.14049 -2.90227,2.45349 -10.29375,2.75613 -9.4372,0.38641 -25.19541,-1.58573 -47.12662,-5.89789 -8.23322,-1.61884 -15.6271,-2.94334 -16.43084,-2.94334 -0.80374,0 2.23745,3.9375 6.75821,8.75 9.88057,10.51821 13.91618,16.60404 13.94183,21.02475 0.0151,2.60393 -0.50646,3.47453 -2.5461,4.25 -3.1129,1.18352 -3.23587,1.1767 -11.7608,-0.6522 z m 316.3758,-23.40382 c -19.20906,-4.02629 -34.74323,-24.19485 -38.10758,-49.47639 -2.06688,-15.53166 0.0766,-26.92636 7.27964,-38.69802 7.5289,-12.30424 12.20604,-22.86133 16.14062,-36.43204 18.98159,-65.46928 8.98613,-124.84914 -25.56692,-151.88505 -17.17924,-13.44183 -42.63373,-21.35734 -64.79566,-20.14934 -39.88359,2.17398 -75.65991,28.28809 -99.23438,72.43387 -3.1539,5.90603 -6.74988,13.55074 -7.99105,16.98824 -1.24118,3.4375 -2.54311,6.25 -2.89319,6.25 -0.35007,0 -1.19294,-0.67047 -1.87303,-1.48994 -2.46772,-2.97341 11.57316,-31.19978 23.6561,-47.55584 11.32153,-15.32539 29.27595,-31.03404 44.60392,-39.02479 15.13409,-7.88967 25.81638,-10.77507 42.94943,-11.60107 19.85543,-0.95725 35.22858,2.32927 53.2822,11.39085 21.24861,10.66524 35.59229,27.58696 44.00911,51.91904 4.86043,14.05098 6.68212,25.36888 7.23081,44.92414 1.06522,37.96441 -8.57767,79.61399 -23.84856,103.00665 -5.38869,8.25464 -7.49388,13.85358 -8.74002,23.24483 -3.11484,23.47432 9.02781,50.22693 26.74982,58.93502 5.04536,2.47915 6.63682,2.74848 16.09884,2.7245 9.38376,-0.0238 11.10013,-0.31858 16.14525,-2.77307 16.44762,-8.00188 25.56577,-26.08381 27.90108,-55.32975 0.59379,-7.43633 0.78208,-14.87532 0.41841,-16.53109 -0.62894,-2.86353 -0.8244,-2.63511 -4.00404,4.67917 -4.41831,10.16365 -9.04222,17.66682 -13.6755,22.1911 -5.22846,5.10545 -6.5445,3.65228 -4.40791,-4.86717 2.65517,-10.58719 5.63899,-32.25056 6.4308,-46.68935 1.27124,-23.18136 -0.85959,-45.90525 -5.67258,-60.49441 -1.77513,-5.38076 -1.77774,-5.67263 -0.0646,-7.22299 1.68739,-1.52707 1.92701,-1.16694 4.37058,6.5683 7.90459,25.02247 8.26919,62.14106 0.99204,100.99587 -0.61817,3.30057 -0.56911,3.3841 0.86097,1.46588 3.1847,-4.27175 8.18057,-15.28942 11.30554,-24.93272 3.1985,-9.87024 5.34632,-12.63169 6.8696,-8.83225 1.38089,3.44428 1.81386,30.65046 0.62891,39.51919 -4.14314,31.00942 -15.1819,48.6176 -34.56533,55.13598 -6.21209,2.08903 -16.64157,2.83711 -22.48332,1.61265 z M 535.7814,794.54195 c -19.94793,-2.78365 -37.26865,-12.73739 -48.47807,-27.85901 -8.63642,-11.6506 -16.3267,-30.10379 -18.9817,-45.54746 -1.87158,-10.88668 -0.71906,-29.37151 2.43774,-39.09787 7.3865,-22.7584 27.69208,-45.1276 54.63398,-60.18637 13.35749,-7.46597 17.32697,-9.42887 31,-15.32949 17.65724,-7.62001 22.30421,-8.37213 28.08618,-4.5458 4.05852,2.6858 6.91382,7.49789 6.91382,11.65199 0,1.85119 0.22269,1.96974 1.5816,0.84195 2.38203,-1.97691 7.28361,-12.24153 8.93327,-18.7076 0.80329,-3.14857 2.10059,-14.49968 2.88289,-25.22468 1.87645,-25.72521 4.11792,-31.04506 14.35224,-34.06322 5.37787,-1.58597 10.91147,-0.12146 15.0038,3.97088 5.69148,5.69147 7.87695,19.69635 5.84631,37.46401 -0.724,6.3348 -0.91194,6.74507 -2.40561,5.25141 -1.34337,-1.34338 -1.62677,-4.141 -1.6584,-16.37166 -0.0391,-15.09623 -0.72325,-18.38486 -4.90783,-23.58978 -3.26424,-4.06016 -12.35412,-3.745 -16.33752,0.56645 -3.17421,3.43561 -4.22664,8.69477 -5.35746,26.77191 -1.58879,25.39851 -5.99557,39.9855 -14.71663,48.7139 -4.31066,4.3143 -5.96999,4.20053 -6.76598,-0.4639 -2.02377,-11.85912 -3.91183,-14.25 -11.25312,-14.25 -7.9918,0 -41.56123,15.67262 -59.60298,27.82694 -10.87032,7.3231 -24.03485,19.5756 -30.32776,28.22669 -15.65424,21.52045 -19.05935,46.80068 -10.08522,74.87481 11.81073,36.94797 35.74066,55.42036 71.43669,55.1446 49.04488,-0.37888 104.14922,-37.39062 128.58946,-86.36922 4.40262,-8.82291 7.80801,-19.32828 10.92536,-33.70382 1.13304,-5.225 3.40687,-13.72223 5.05296,-18.88274 l 2.99287,-9.38275 2.0032,2.0032 c 1.83775,1.83774 1.88252,2.24102 0.54209,4.88274 -0.80361,1.58376 -2.89033,8.72955 -4.63716,15.87955 -6.06938,24.84275 -7.37724,29.05767 -12.21927,39.37988 -17.5147,37.33767 -54.6478,70.00567 -95.3678,83.90024 -16.54451,5.64535 -36.4991,8.12383 -50.11195,6.22422 z m 406.25732,-125.1401 c -2.80991,-7.91149 -0.60062,-8.22684 8.28172,-1.18211 0.49604,0.39341 -5.01732,6.31787 -5.87947,6.31787 -0.318,0 -1.39901,-2.31109 -2.40225,-5.13576 z m -588.7603,-55.18737 c -5.68595,-2.12078 -9.74632,-5.48064 -14.75058,-12.20573 -2.54897,-3.4255 -7.22199,-9.14526 -10.38449,-12.71056 -7.96953,-8.98461 -7.67282,-12.05478 0.75,-7.76058 4.63155,2.3613 7.40235,2.52204 10.05887,0.58352 1.73589,-1.26672 1.99399,-3.05856 2.44113,-16.94706 l 0.5,-15.53057 3.43164,-3.53796 c 1.88741,-1.94588 3.54162,-3.42799 3.67604,-3.29358 0.13441,0.13441 -0.66919,2.94017 -1.78578,6.23502 -1.72926,5.10275 -1.93087,7.4055 -1.36033,15.5369 0.86952,12.39234 -0.51791,18.40722 -4.85613,21.0526 -1.70799,1.04151 -4.37112,1.89534 -5.91807,1.89739 l -2.81262,0.004 5.52684,6.75 c 3.03976,3.7125 6.66714,8.16085 8.06085,9.88522 3.09129,3.82471 8.2022,6.37559 12.68869,6.33298 2.80921,-0.0267 3.10123,-0.22811 1.81215,-1.25 -2.34463,-1.85865 -5.44699,-6.74414 -7.30147,-11.4981 -1.5216,-3.90062 -1.52822,-4.33413 -0.0748,-4.89187 0.87712,-0.33658 3.17562,0.1419 5.10778,1.06328 4.96489,2.36759 11.44067,3.04891 15.68023,1.64974 4.67264,-1.54212 4.61787,-2.5867 -0.13562,-2.5867 -4.5389,0 -8.75732,-2.84476 -10.20826,-6.8841 -0.57877,-1.61126 -1.5025,-6.90375 -2.05275,-11.76111 -1.22852,-10.8448 0.34803,-19.74967 5.23293,-29.55734 8.2918,-16.64787 25.96601,-26.32077 37.36415,-20.44898 4.43911,2.28682 9.42922,7.24687 11.76786,11.69698 1.56147,2.97125 1.57696,2.92672 1.61662,-4.64466 0.0504,-9.62712 -2.56611,-18.38871 -8.00421,-26.8025 -3.73321,-5.776 -4.48332,-9.05284 -2.07231,-9.05284 1.5261,0 7.70764,9.01835 10.48286,15.29362 4.86875,11.0091 5.78146,25.63029 2.14347,34.33724 -1.82418,4.36587 -3.25586,4.2592 -5.11162,-0.38086 -2.93461,-7.33757 -4.94821,-10.51256 -8.74448,-13.78806 -5.19438,-4.48182 -9.76129,-5.1419 -16.95464,-2.45052 -13.57906,5.08058 -23.72988,22.10554 -23.67459,39.70704 0.0284,9.03064 1.41827,16.00827 3.68843,18.51677 2.24188,2.47725 7.77797,2.2151 13.95467,-0.66079 2.84215,-1.32331 5.42965,-2.14391 5.75,-1.82356 2.44859,2.44859 -4.60003,11.06781 -11.67879,14.28109 -4.59784,2.08711 -12.08635,2.54678 -16.17365,0.99278 -3.38579,-1.28727 -3.3105,0.10946 0.21884,4.05948 2.98064,3.33591 5.85182,3.8289 14.14222,2.42825 3.30557,-0.55848 4.19105,-0.3706 4.71735,1.00092 0.7653,1.99433 -0.29265,2.77567 -7.41417,5.47569 -7.10306,2.69303 -14.83942,3.36802 -19.34427,1.68778 z m 278.88634,-13.86262 c -0.21739,-0.65217 0.38574,-4.81467 1.34028,-9.25 0.95454,-4.43534 1.7699,-8.23185 1.81192,-8.43669 0.042,-0.20485 0.75139,0.18775 1.57639,0.87244 0.825,0.68469 1.5,2.36989 1.5,3.74489 0,2.00102 0.2729,2.27351 1.36732,1.36523 2.18705,-1.8151 4.23721,1.21061 2.46947,3.64454 -6.1203,8.42679 -9.13763,10.84284 -10.06538,8.05959 z m 10.34269,-12.17676 c -1.09857,-1.3237 -0.75015,-2.475 2.23738,-7.393 6.85375,-11.2825 9.71663,-21.49841 9.74013,-34.7568 0.0187,-10.54436 -1.82653,-18.03091 -9.97908,-40.48769 -4.9991,-13.77037 -3.91262,-21.81813 3.6589,-27.10204 6.90643,-4.81978 12.62337,-4.50057 19.39177,1.08275 3.6721,3.02915 11.84677,16.05662 14.35693,22.87976 l 1.33894,3.63953 0.0586,-3.5 c 0.20957,-12.51901 -7.82917,-26.321 -27.01282,-46.37919 -17.80313,-18.61474 -19.94505,-23.18668 -13.98688,-29.85503 2.71324,-3.03665 3.36223,-3.26578 9.25,-3.26578 5.35835,0 7.17776,0.5017 11.83203,3.26263 3.025,1.79445 7.92655,5.39445 10.89234,8 l 5.39234,4.73737 -2.72648,-5.38278 c -5.07861,-10.02654 -14.60461,-18.29911 -30.5582,-26.53739 -18.27715,-9.43814 -22.14194,-14.60331 -17.5586,-23.46651 6.56562,-12.69651 24.20714,-15.55524 43.45388,-7.04149 l 4.52046,1.99962 -2.45787,-2.6238 c -1.35183,-1.4431 -6.05787,-4.35756 -10.45787,-6.47659 -13.81452,-6.65304 -28.29714,-8.22946 -64,-6.96635 -13.18797,0.46656 -14.27529,0.35972 -18.74611,-1.84203 -6.30885,-3.10692 -8.75389,-6.36018 -8.75389,-11.6475 0,-7.08126 8.1232,-16.36568 16.29546,-18.62493 4.97368,-1.37499 14.04122,-1.6614 21.70454,-0.68557 l 5.5,0.70037 -5,-2.40252 c -7.04055,-3.383 -15.89234,-5.50253 -22.9802,-5.50253 -6.67023,0 -18.41782,2.9042 -24.87206,6.14879 l -4.14774,2.08509 2.99043,-3.36694 c 2.29386,-2.58266 1.94446,-2.3991 -1.5,0.78807 -2.46974,2.28525 -9.55478,6.71582 -15.74454,9.8457 -15.73524,7.95662 -22.43154,8.52306 -26.27318,2.22246 -2.47235,-4.05488 -2.48306,-6.80248 -0.0451,-11.58122 2.30384,-4.5159 8.05922,-9.88437 16.3224,-15.22512 7.00206,-4.52565 5.60246,-5.0407 -4.89465,-1.80123 -10.26735,3.16858 -19.37834,9.65608 -34.37915,24.47978 -14.6326,14.45985 -17.89012,16.36718 -21.37561,12.51576 -2.88464,-3.1875 -1.79728,-11.13597 2.74715,-20.08125 2.041,-4.01752 3.51707,-7.49843 3.28014,-7.73536 -0.76491,-0.7649 -12.04567,11.16661 -17.76944,18.79451 -3.05855,4.07603 -7.94929,11.23596 -10.86832,15.91096 -13.55315,21.70621 -19.1951,25.78229 -22.42342,16.20004 -1.05128,-3.1204 -1.11583,-3.02556 -4.4698,6.56692 -4.09741,11.71878 -9.1174,22.04805 -11.96413,24.61772 -1.57172,1.41876 -3.05143,1.75544 -5.98555,1.36189 -3.84818,-0.51615 -3.91264,-0.47024 -5.07619,3.61532 -4.79362,16.83174 -11.3329,26.53435 -16.9441,25.1407 -1.4448,-0.35885 -3.9683,-1.68226 -5.60776,-2.94091 l -2.98085,-2.28846 -3.77205,17.54335 c -2.07463,9.64884 -4.52478,18.69987 -5.44476,20.11339 -0.91999,1.41352 -4.1779,5.37806 -7.2398,8.81008 -8.0255,8.9956 -18.78596,14.14278 -30.47943,14.57959 -6.83225,0.25521 -7.73431,-1.47629 -4.64818,-8.92215 3.00487,-7.24977 3.6703,-13.88134 1.84241,-18.36099 l -1.41055,-3.45687 -3.63168,5.46019 c -1.99742,3.00311 -7.31327,9.73519 -11.813,14.96019 -4.49972,5.225 -9.01094,11.3279 -10.02492,13.56199 -1.13071,2.4913 -2.39915,9.3856 -3.28033,17.82949 -1.67288,16.03028 -1.35267,15.49256 -14.76327,24.79191 -4.74499,3.29033 -9.13249,7.09128 -9.75,8.44657 -2.76479,6.06804 -0.15377,15.22216 6.01307,21.08158 3.41477,3.24454 20.88784,12.91821 20.83637,11.53571 -0.0153,-0.41099 -1.35016,-2.4946 -2.96634,-4.63024 -4.34973,-5.74778 -5.41366,-9.71101 -3.69957,-13.78125 2.86653,-6.80682 10.6279,-14.01748 30.19992,-28.05707 8.01433,-5.74891 18.57673,-10.76837 22.67123,-10.7738 5.00695,-0.007 7.82464,3.55465 7.817,9.87997 -0.009,7.04435 -1.61377,11.36292 -5.63492,15.1595 -2.62383,2.47729 -3.44688,2.88941 -2.90709,1.45564 4.88636,-12.97892 5.78407,-19.22892 3.0838,-21.46995 -2.49871,-2.07374 -10.83972,1.5426 -23.88866,10.3572 -13.62427,9.20324 -26.13101,20.70652 -27.21695,25.03323 -0.91447,3.64355 1.26646,7.92694 8.25947,16.22176 4.86497,5.77064 5.08142,6.25458 3.45552,7.726 -1.59117,1.43999 -2.47488,1.22027 -10.69007,-2.65788 -19.01893,-8.97828 -24.45862,-13.06412 -28.5514,-21.44542 -2.73269,-5.59609 -2.84017,-13.97283 -0.2367,-18.44836 1.0912,-1.87584 5.56597,-5.79171 10.30094,-9.01436 12.42157,-8.45418 12.04276,-7.87076 13.11298,-20.19602 1.72004,-19.8088 2.15795,-20.81001 16.57508,-37.89562 5.17178,-6.12903 10.5094,-13.48194 11.86138,-16.33979 1.35198,-2.85786 2.97934,-5.36983 3.61634,-5.58217 0.69371,-0.23124 -0.0449,-1.77017 -1.84164,-3.83734 -1.64991,-1.8982 -4.30318,-5.47628 -5.89617,-7.95128 -2.76523,-4.2963 -2.89247,-4.99791 -2.81103,-15.5 0.0759,-9.79405 0.44319,-11.98668 3.34979,-20 5.43795,-14.99211 11.87861,-23.95287 23.17129,-32.23776 6.92815,-5.08285 11.4286,-11.70531 12.95664,-19.06582 1.08483,-5.2256 0.99201,-7.78542 -0.68701,-18.94642 -0.57413,-3.81648 -0.43189,-4.25 1.39449,-4.25 1.30601,0 2.39708,0.98412 3.04885,2.75 4.60246,12.46963 6.24173,17.87261 7.15273,23.57524 1.86319,11.66314 -0.45173,17.31589 -12.97152,31.67476 -8.4598,9.70251 -13.08857,16.01563 -15.17728,20.70012 -2.55874,5.73866 -4.12789,14.87687 -3.29905,19.21261 l 0.68576,3.58727 2.72617,-7.68426 c 4.40715,-12.42242 11.52256,-20.35901 33.50766,-37.37479 10.33954,-8.00248 11.87418,-9.70959 15.13851,-16.83981 3.76233,-8.21803 5.08638,-19.3241 3.61491,-30.32176 -0.91282,-6.82233 -0.89772,-8.85304 0.0705,-9.47555 4.29191,-2.75954 12.73294,22.52379 12.7315,38.13451 -0.001,13.11018 -2.52178,17.58966 -20.02537,35.58856 -18.62212,19.14908 -18.37996,18.59747 -18.80318,42.83115 -0.22736,13.01849 -0.004,18.65669 0.72282,18.20778 1.43234,-0.88523 2.75473,-5.98489 7.01605,-27.05673 2.64598,-13.08418 4.04085,-18.05658 5.11436,-18.23169 0.81566,-0.13305 2.74181,1.76479 4.30495,4.24164 3.26074,5.1668 6.75243,6.62236 9.63285,4.01562 2.3825,-2.15613 7.17847,-14.17533 10.68778,-26.78467 2.06159,-7.40751 3.1188,-9.75 4.40036,-9.75 1.22014,0 1.83976,1.14016 2.23958,4.12109 1.76141,13.13228 9.0015,1.51881 18.15472,-29.12109 2.05381,-6.875 3.90495,-13.0625 4.11365,-13.75 0.20869,-0.6875 1.26286,-1.25 2.34258,-1.25 1.79816,0 1.95798,0.69784 1.90182,8.30411 -0.067,9.07493 0.73013,12.99608 2.53268,12.45852 0.64082,-0.19111 6.11514,-7.80776 12.16514,-16.92589 16.54969,-24.94252 25.42512,-34.93451 35.90409,-40.42095 8.2133,-4.30022 8.94324,-2.60125 3.05199,7.10362 -8.18655,13.48598 -11.68844,24.48059 -7.79732,24.48059 0.91232,0 8.23625,-6.4125 16.27539,-14.25 20.62278,-20.1055 31.23722,-25.81343 48.53716,-26.10091 7.61305,-0.12652 9.02172,0.10089 9.30427,1.50202 0.23828,1.18154 -1.98839,2.8879 -7.82954,6 -15.86137,8.45076 -25.64947,18.81487 -23.08492,24.44343 2.46619,5.4127 7.52771,4.32955 26.67189,-5.70768 7.16816,-3.75825 13.98677,-6.97873 15.15247,-7.15663 1.1657,-0.1779 2.72584,-0.80633 3.46699,-1.39652 2.03844,-1.62325 8.11116,-3.38144 15.08905,-4.36862 12.28163,-1.73752 29.02002,2.7654 41.25848,11.09925 7.66555,5.21991 9.5,6.90067 9.5,8.70415 0,1.7334 -1.38208,1.53941 -15.37823,-2.15854 -10.53195,-2.78267 -20.4259,-3.34739 -26.94255,-1.53782 -8.19142,2.27462 -15.56358,12.53841 -12.76369,17.77006 0.62907,1.17541 2.59291,2.92113 4.36411,3.87938 2.84416,1.53874 6.66652,1.75118 32.72036,1.81852 27.31078,0.0706 30.09368,0.24158 37.5,2.30411 14.74102,4.10514 24.54856,9.96782 31.73937,18.97295 6.19495,7.758 4.50806,10.4633 -3.57181,5.72819 -11.30933,-6.62771 -26.26658,-10.25278 -34.77972,-8.42928 -6.07179,1.30057 -12.2469,6.48205 -13.45324,11.28849 -1.10052,4.38481 2.09455,7.45355 14.81986,14.23391 13.7937,7.34961 20.69596,12.2973 27.20569,19.50161 8.39228,9.28773 15.28317,26.86999 11.15223,28.45518 -1.06243,0.40769 -2.31243,-0.21549 -3.52545,-1.7576 -7.43185,-9.44807 -18.59894,-18.5314 -25.63902,-20.85484 -5.64408,-1.86271 -12.44791,0.88207 -12.44791,5.0217 0,2.8384 4.93986,9.16169 17.28263,22.12269 17.60193,18.48358 24.51625,29.88923 26.85596,44.30078 0.88409,5.44562 -0.11223,17.87899 -1.54773,19.31449 -1.48203,1.48203 -3.55171,-1.38554 -6.05999,-8.39621 -3.03364,-8.47907 -8.55702,-19.63131 -11.31509,-22.84626 -7.17235,-8.36045 -12.95343,-9.60152 -18.98047,-4.07469 -3.53064,3.23763 -3.72948,3.74447 -3.62892,9.25 0.0799,4.37182 1.36906,9.19796 5.16854,19.34841 7.97453,21.30423 9.62207,33.08208 6.68206,47.76844 -1.53369,7.6613 -8.37879,23.52591 -12.10726,28.06051 -1.72845,2.10217 -2.07298,2.18573 -3.23563,0.78482 z M 335.89335,483.53106 c 0.55,-0.0299 0.2125,-0.51294 -0.75,-1.07355 -2.32164,-1.35222 -2.20666,-2.8049 0.44543,-5.62793 2.09309,-2.22799 2.1361,-2.62722 0.92269,-8.56445 -0.8394,-4.10718 -2.15792,-7.16028 -3.87253,-8.96709 -2.93908,-3.0971 -3.97499,-2.99183 -2.25136,0.2288 1.95604,3.6549 1.4808,14.14845 -0.88276,19.49167 -1.16131,2.62534 -2.11147,5.11875 -2.11147,5.54091 0,0.42216 1.6875,0.3757 3.75,-0.10326 2.0625,-0.47896 4.2,-0.89525 4.75,-0.9251 z m 10.12787,-7.54426 c 8.84335,-3.54183 10.13905,-4.59012 10.80263,-8.73993 0.34684,-2.16903 0.32948,-9.64796 -0.0386,-16.61984 -0.77945,-14.76441 0.45746,-23.86118 4.28013,-31.47807 1.65519,-3.29806 7.28801,-9.90057 15.87795,-18.61135 18.45141,-18.71095 21.18373,-24.88091 18.48539,-41.74252 -1.47,-9.18585 -2.95958,-12.6334 -3.00499,-6.95488 -0.0559,6.99625 -3.08013,17.41828 -6.8428,23.58182 -2.93176,4.80245 -6.14721,7.937 -15.6876,15.29286 -14.91686,11.50124 -24.59788,21.32979 -28.29276,28.72391 -1.56163,3.12509 -3.70236,9.61828 -4.75717,14.4293 -1.67492,7.63937 -2.16922,8.71072 -3.9025,8.45842 -2.69629,-0.3925 -5.40666,-9.25185 -5.48648,-17.93357 -0.12038,-13.09332 4.33647,-22.0915 19.93891,-40.25575 9.89114,-11.51519 12.0271,-15.56877 11.90032,-22.58412 -0.0548,-3.03351 -0.43473,-6.64047 -0.84422,-8.01547 -0.68612,-2.30383 -0.84186,-2.1469 -1.98474,2 -1.92088,6.96987 -6.75324,13.66099 -14.09879,19.52188 -9.1048,7.26458 -14.38106,13.59718 -18.5233,22.23179 -4.79207,9.98922 -6.69304,18.86249 -6.2844,29.33409 0.39407,10.09814 1.69509,12.48565 13.67654,25.09792 6.01822,6.33507 7.68072,8.81811 9.22394,13.77647 1.11045,3.56789 1.63688,7.27671 1.28358,9.04319 -0.69702,3.48508 -0.7625,3.46299 4.27894,1.44385 z m -38.12787,107.55081 c 0.33991,-0.55 0.81647,-1 1.05901,-1 0.24254,0 0.44099,0.45 0.44099,1 0,0.55 -0.47656,1 -1.05902,1 -0.58246,0 -0.7809,-0.45 -0.44098,-1 z"
       id="path1" /></g></svg>
