<?xml version="1.0" encoding="UTF-8" standalone="no"?>
<!-- Created with Inkscape (http://www.inkscape.org/) -->

<svg
   version="1.1"
   id="svg1"
   width="1300"
   height="1294"
   viewBox="0 0 1300 1294"
   sodipodi:docname="io.svg"
   inkscape:version="1.3 (0e150ed6c4, 2023-07-21)"
   xml:space="preserve"
   xmlns:inkscape="http://www.inkscape.org/namespaces/inkscape"
   xmlns:sodipodi="http://sodipodi.sourceforge.net/DTD/sodipodi-0.dtd"
   xmlns="http://www.w3.org/2000/svg"
   xmlns:svg="http://www.w3.org/2000/svg"><defs
     id="defs1" /><sodipodi:namedview
     id="namedview1"
     pagecolor="#505050"
     bordercolor="#ffffff"
     borderopacity="1"
     inkscape:showpageshadow="0"
     inkscape:pageopacity="0"
     inkscape:pagecheckerboard="1"
     inkscape:deskcolor="#505050"
     inkscape:zoom="0.62673879"
     inkscape:cx="649.39335"
     inkscape:cy="597.53761"
     inkscape:window-width="1920"
     inkscape:window-height="1046"
     inkscape:window-x="-11"
     inkscape:window-y="-11"
     inkscape:window-maximized="1"
     inkscape:current-layer="g1" /><g
     inkscape:groupmode="layer"
     inkscape:label="Image"
     id="g1"><path
       style="fill:#000000"
       d="m 50.988906,1205.9371 c 0,-41.5555 0.187719,-47.5 1.5,-47.5 1.083333,0 1.5,-1.1111 1.5,-4 0,-3.6 0.25,-4 2.5,-4 2.25,0 2.5,-0.4 2.5,-4 v -4 l -4.25,-0.1219 c -4.163405,-0.1195 -4.137936,-0.1385 1.25,-0.9317 3.025,-0.4453 10.45,-0.4556 16.5,-0.023 l 11,0.787 -8.25,0.1447 -8.25,0.1447 v 4 4 h 7.862318 7.862319 l 0.633918,-5.3936 c 0.348654,-2.9665 0.349992,-8.7525 0.003,-12.8578 -0.432095,-5.1116 -0.273327,-7.6851 0.503764,-8.1653 0.624091,-0.3857 1.13471,-1.7998 1.13471,-3.1423 0,-1.3893 0.584916,-2.441 1.357543,-2.441 1.484728,0 2.642457,-7.914 2.642457,-18.0633 0,-3.1735 0.405687,-5.92 0.901527,-6.1034 0.49584,-0.1833 1.192324,-5.423 1.547742,-11.6438 0.355419,-6.2207 1.116965,-12.5207 1.692325,-14 0.57536,-1.4792 1.032082,-4.377 1.014937,-6.4395 -0.01714,-2.0625 0.36305,-3.75 0.844876,-3.75 0.481826,0 1.145731,-2.1375 1.475344,-4.75 0.329613,-2.6125 1.23666,-7.225 2.01566,-10.25 1.473977,-5.7237 2.515194,-12.018 2.977584,-18 0.1488,-1.925 1.00115,-4.85 1.89411,-6.5 0.89297,-1.65 1.62931,-4.575 1.63632,-6.5 0.007,-1.925 0.90682,-4.85 1.99957,-6.5 1.09276,-1.65 1.98979,-3.7722 1.99342,-4.7161 0.004,-0.9438 0.6374,-3.19379 1.4084,-4.99999 0.771,-1.8061 2.21466,-5.9839 3.20813,-9.2839 0.99347,-3.3 2.39812,-6.722 3.12145,-7.6044 0.72332,-0.8825 2.0943,-3.8075 3.04662,-6.5 0.95233,-2.6926 2.78265,-6.5897 4.06738,-8.6603 1.28474,-2.0706 2.42025,-4.3395 2.52337,-5.0421 0.10311,-0.7026 1.81505,-4.6334 3.8043,-8.7353 6.10541,-12.5894 8.69375,-20.2294 9.18693,-27.1173 0.25991,-3.6298 0.89597,-7.4413 1.41349,-8.4701 3.08197,-6.1267 4.656,-8.9287 5.26384,-9.3705 1.46745,-1.0665 9.81251,-14.9309 14.14483,-23.5 2.50259,-4.95 7.14622,-13.95 10.31919,-20 3.17296,-6.04999 8.32464,-15.94999 11.44817,-21.99999 13.91371,-26.9496 32.20394,-53.94824 50.13131,-74 20.48296,-22.9102 33.46893,-35.09107 46.91917,-44.0103 2.475,-1.64124 4.725,-3.22174 5,-3.51221 0.275,-0.29048 7.25,-4.77254 15.5,-9.96013 24.60311,-15.4704 43.96496,-24.70103 68.13495,-32.48285 11.47578,-3.69476 22.21505,-7.2832 23.86505,-7.97431 1.65,-0.6911 5.475,-2.05992 8.5,-3.04181 3.025,-0.98189 6.85,-2.33909 8.5,-3.01599 1.65,-0.67689 5.22961,-1.87031 7.95468,-2.65204 4.94327,-1.41804 4.95908,-1.43619 6.86942,-7.88583 1.05311,-3.55549 2.46778,-7.58953 3.14371,-8.96453 2.02657,-4.1225 3.81437,-11.81294 3.24887,-13.97541 -1.44521,-5.52649 4.36044,-14.30192 12.65628,-19.13039 8.37154,-4.87253 8.78408,-5.155 16.27844,-11.14573 8.94753,-7.15234 21.26067,-14.77158 27.8486,-17.23243 2.75,-1.02723 6.41394,-3.32174 8.14208,-5.09892 1.72814,-1.77717 4.20314,-3.79609 5.5,-4.48648 4.28033,-2.27866 10.04138,-7.38572 11.48915,-10.1849 1.96289,-3.79513 8.3024,-7.76655 12.65903,-7.93033 3.81438,-0.1434 6.70974,1.4994 6.70974,3.80704 0,0.75765 0.35961,1.37755 0.79912,1.37755 0.43951,0 1.34532,1.51052 2.0129,3.3567 1.64398,4.54633 3.95901,6.42315 8.89684,7.21274 4.11372,0.65781 4.16218,0.62993 4.69715,-2.70239 2.25858,-14.06865 4.58237,-67.80152 3.53427,-81.72292 -0.31653,-4.20427 -1.27281,-9.21913 -2.12508,-11.14413 -3.17003,-7.1601 -6.75617,-16.59346 -7.41301,-19.5 -0.37288,-1.65 -1.00374,-3.45 -1.40192,-4 -0.39818,-0.55 -1.00108,-3.025 -1.33977,-5.5 -0.3387,-2.475 -0.87311,-5.625 -1.18759,-7 -1.45897,-6.37904 -3.35923,-22.13265 -2.83463,-23.49973 0.74398,-1.9388 -1.34032,-4.50027 -3.66194,-4.50027 -1.98513,0 -5.97634,-6.04868 -5.97634,-9.05716 0,-1.06856 -0.45,-1.94284 -1,-1.94284 -1.27848,0 -1.31576,-10.28423 -0.0419,-11.5581 0.6108,-0.6108 0.49859,-2.7676 -0.30956,-5.95 -1.05709,-4.1627 -1.68236,-5.04135 -3.76424,-5.28961 -1.98723,-0.23698 -2.71991,-1.13442 -3.59122,-4.39877 -0.91661,-3.4341 -0.7149,-5.6625 1.24033,-13.70228 4.17424,-17.16425 8.28698,-23.18039 11.31033,-16.54485 0.64063,1.40601 1.61286,2.27946 2.16052,1.94098 0.60575,-0.37437 0.96822,1.07229 0.92546,3.69362 -0.0526,3.22239 -0.27459,3.80466 -0.88044,2.30901 -0.68545,-1.69213 -0.92247,-1.42376 -1.53978,1.74343 -0.40128,2.05888 -0.44651,4.87138 -0.1005,6.25 0.34601,1.37862 0.20183,2.50657 -0.32039,2.50657 -0.52223,0 -1.14452,-1.0125 -1.38287,-2.25 -0.37631,-1.95372 -0.4513,-1.89251 -0.56955,0.46482 -0.0896,1.78598 0.54808,3.08102 1.86381,3.78518 1.69548,0.9074 2,0.76049 2,-0.96481 0,-1.71632 0.64302,-2.03519 4.10409,-2.03519 h 4.10408 l -0.68726,-7.76382 -0.68725,-7.76382 4.83317,0.20864 c 2.65825,0.11476 4.04567,-0.0245 3.08317,-0.3095 -2.14564,-0.63529 -2.22688,-1.73083 -0.25,-3.3715 1.03637,-0.8601 1.5,-0.89795 1.5,-0.12244 0,0.64285 1.7091,1.12244 4,1.12244 h 4 v 5 c 0,3.77778 -0.36666,5 -1.5,5 -1.07911,0 -1.5,1.10373 -1.5,3.93358 0,3.52352 -0.28667,3.97701 -2.75,4.35017 -1.99148,0.30168 -1.60988,0.45792 1.38351,0.56642 l 4.1335,0.14983 0.67799,6.33093 c 0.37289,3.482 0.38346,7.50438 0.0235,8.9386 -0.70492,2.80862 1.98255,7.64125 4.28151,7.69905 0.78643,0.0198 1.25,1.51485 1.25,4.03142 0,4.43585 1.96011,5.62082 2.06769,1.25 l 0.0677,-2.75 1.16245,2.42329 c 0.89973,1.8756 0.88444,2.51596 -0.0677,2.83333 -0.67657,0.22553 -1.23014,1.2948 -1.23014,2.37615 0,1.71636 0.61926,1.93785 4.8752,1.74365 2.68136,-0.12235 6.28136,0.36 8,1.07189 2.61003,1.08111 3.1248,1.83983 3.1248,4.60563 0,2.42807 0.53108,3.47984 1.99106,3.94322 2.70306,0.85792 4.00894,-0.1376 4.00894,-3.05617 0,-1.70314 0.55592,-2.44099 1.83912,-2.44099 1.1587,0 2.5461,-1.47565 3.75,-3.98852 1.05099,-2.19369 2.24838,-3.99369 2.66088,-4 0.4125,-0.006 0.75,-1.81148 0.75,-4.01148 0,-3.56027 0.26497,-4 2.41024,-4 2.31007,0 2.43927,-0.36359 3.10926,-8.75 0.59159,-7.40513 1.08327,-9.16018 3.199,-11.41874 1.37499,-1.4678 2.21929,-3.1229 1.87622,-3.678 -0.34306,-0.5551 0.22919,-1.27998 1.27168,-1.61085 1.07973,-0.3427 2.15331,-1.89093 2.49464,-3.59757 0.32955,-1.64778 1.68055,-4.07733 3.0022,-5.39899 1.32166,-1.32165 2.93713,-4.62943 3.58993,-7.35061 1.72161,-7.17647 1.96905,-17.41588 0.45739,-18.92754 -0.90027,-0.90027 -1.35582,-0.93191 -1.62875,-0.11312 -0.25028,0.75086 -3.24776,1.06994 -8.83036,0.93998 -12.31687,-0.28671 -12.58547,-0.40974 -14.04594,-6.43327 -0.68827,-2.83871 -1.32224,-6.06129 -1.4088,-7.16129 -0.14788,-1.87907 -1.11999,-2.0404 -16.07705,-2.66827 -8.75581,-0.36755 -17.04466,-0.87262 -18.41966,-1.12238 -1.375,-0.24975 -3.33564,-0.51153 -4.35698,-0.58172 -1.29189,-0.0888 -1.66494,-0.62811 -1.22589,-1.77224 1.00688,-2.6239 -2.24962,-5.35539 -6.38472,-5.35539 h -3.65762 l 0.0626,-6.23779 c 0.0461,-4.59036 0.53442,-6.71283 1.84908,-8.03647 0.98256,-0.98928 1.55633,-2.17107 1.27504,-2.62621 -0.28129,-0.45513 0.31599,-2.57622 1.32729,-4.71352 1.83485,-3.87781 3.87072,-19.17214 2.19687,-16.50388 -0.68886,1.09812 -0.99522,0.97825 -1.49084,-0.58333 -0.55254,-1.74091 -3.54381,-2.88066 -3.62736,-1.38213 -0.0313,0.56151 -2.21159,16.78289 -3.5058,26.08333 -0.71946,5.17015 -3.39115,11 -5.04106,11 -0.69635,0 -1.3781,-3.33185 -1.79039,-8.75 -0.36619,-4.8125 -1.15197,-12.8 -1.74616,-17.75 -0.5942,-4.95 -1.29183,-14.625 -1.5503,-21.5 -0.25846,-6.875 -0.70763,-16.88446 -0.99815,-22.24325 -0.39374,-7.26274 -0.13881,-10.8861 1.00133,-14.23224 0.90098,-2.6442 1.14603,-4.72601 0.5963,-5.06576 -1.41044,-0.87171 -1.13271,-3.12571 0.95663,-7.76361 1.03944,-2.30733 2.58754,-6.44514 3.44023,-9.19514 1.48162,-4.77833 5.70395,-26.5656 5.68091,-29.31351 -0.006,-0.72244 1.96089,-5.92982 4.37101,-11.57196 2.41011,-5.64214 4.70133,-12.25106 5.09159,-14.68648 0.39026,-2.43543 1.95815,-7.12805 3.4842,-10.42805 1.52605,-3.3 3.1087,-7.07094 3.51701,-8.37986 0.83649,-2.68155 12.25386,-18.841814 16.95039,-23.991774 1.69113,-1.8544 6.22478,-5.39679 10.07478,-7.87197 3.85,-2.47519 8.87633,-6.02094 11.16962,-7.87945 2.29329,-1.85851 6.2074,-4.2526 8.69802,-5.32021 2.49062,-1.0676 8.48929,-4.78519 13.33038,-8.2613 8.13945,-5.84447 14.84003,-9.18362 26.30198,-13.10725 6.13394,-2.09975 11.28324,-2.5835 34.2018,-3.21304 20.76922,-0.57051 22.76818,-0.34471 41.2982,4.66492 5.00198,1.35229 9.12426,3.16527 11,4.83779 3.52467,3.1428 15.49062,10.13014 20.5,11.97067 6.86699,2.52305 9.98221,4.15482 14.46603,7.5774 2.50031,1.90853 4.88081,3.41767 5.29,3.35364 2.80104,-0.43829 4.60914,0.64831 7.27239,4.37043 4.84393,6.7698 5.83663,7.75 7.84878,7.75 1.04323,0 4.14962,1.4625 6.90311,3.25 3.64882,2.36874 5.64536,4.59513 7.36301,8.21067 2.33624,4.917654 10.68169,14.539334 12.6108,14.539334 0.55179,0 1.57104,1.37078 2.26501,3.04616 0.69396,1.67539 3.42806,5.38789 6.07577,8.25 5.88711,6.36383 9.35385,14.80615 9.52838,23.20384 0.15122,7.27606 0.5176,9.29294 2.24816,12.37587 0.73351,1.30672 1.36418,4.00672 1.40149,6 0.0373,1.99327 0.66616,4.51176 1.39745,5.59664 0.73129,1.08488 1.32962,3.20711 1.32962,4.71607 0,1.50896 0.63442,4.22134 1.40983,6.0275 5.47181,12.74561 6.45704,75.17167 1.34406,85.16177 -0.5286,1.03282 -1.31138,4.18282 -1.73951,7 -1.08554,7.14303 -5.43909,23.23378 -7.74408,28.62215 -1.05873,2.475 -2.52272,6.75 -3.25329,9.5 -1.92132,7.23212 -3.7836,10.5 -5.98367,10.5 -1.05341,0 -2.16865,-0.40993 -2.4783,-0.91095 -0.30965,-0.50103 -1.2058,-7.36353 -1.99144,-15.25 -1.39933,-14.04681 -1.41695,-58.66363 -0.0303,-76.66849 0.66757,-8.66788 -1.86779,-28.83367 -4.73616,-37.67056 -1.07115,-3.3 -3.15121,-8.02207 -4.62235,-10.49349 -1.47114,-2.47142 -3.79981,-6.72571 -5.17481,-9.45397 -1.93531,-3.84003 -3.96818,-5.91482 -9,-9.18561 -3.575,-2.32382 -7.625,-5.06781 -9,-6.09774 -1.375,-1.02993 -4.525,-2.44233 -7,-3.13866 -2.475,-0.69632 -5.85,-1.6651 -7.5,-2.15284 -3.16688,-0.93612 -12.96114,-0.30369 -15.5,1.00086 -0.825,0.42392 -4.2,1.09769 -7.5,1.49727 -3.3,0.39959 -6.75111,1.12736 -7.66913,1.61726 -0.91803,0.48991 -5.09751,0.99297 -9.28774,1.11792 -7.11031,0.21203 -7.7662,0.0534 -9.83086,-2.37718 -3.9263,-4.62219 -17.63024,-6.97337 -27.91872,-4.79 -4.85499,1.0303 -6.32589,1.00924 -8.43733,-0.12077 -2.19288,-1.17359 -2.72104,-1.15875 -3.70673,0.10418 -0.67354,0.86297 -3.01272,1.52844 -5.64949,1.60721 -2.475,0.0739 -7.82496,0.24387 -11.88881,0.37764 -5.67198,0.1867 -7.58137,-0.10087 -8.21751,-1.23759 -0.59964,-1.0715 -2.90254,-1.53568 -8.33171,-1.67938 -4.12666,-0.10922 -8.41628,-0.37447 -9.53249,-0.58943 -1.11621,-0.21496 -2.02948,0.0333 -2.02948,0.55174 0,0.51842 -0.92958,0.94258 -2.06574,0.94258 -1.13615,0 -2.98337,0.4911 -4.10491,1.09134 -1.12155,0.60023 -3.45447,1.24404 -5.18426,1.43069 -7.29655,0.78732 -11.24628,1.8665 -12.82677,3.50466 -1.27519,1.3217 -2.74338,1.62337 -6.07384,1.24798 -3.23147,-0.36423 -5.48522,0.0626 -8.52847,1.61514 -2.38661,1.21755 -6.03177,2.11019 -8.61715,2.11019 -2.46445,0 -4.74679,0.43035 -5.07186,0.95633 -0.32508,0.52598 -1.24784,0.70429 -2.05059,0.39624 -0.81607,-0.31315 -1.73087,0.14698 -2.07496,1.04368 -0.68259,1.7788 -3.40145,2.21422 -3.40145,0.54474 0,-0.58246 0.39902,-0.81242 0.8867,-0.51101 1.46834,0.90748 3.32498,-2.18768 2.62854,-4.38199 -0.6401,-2.01677 -3.51524,-2.93082 -3.51524,-1.11754 0,0.51175 -1.0125,1.12547 -2.25,1.36382 l -2.25,0.43337 2.25,0.13618 c 3.0374,0.18384 2.88366,2.13618 -0.16821,2.13618 -3.17803,0 -5.69738,1.00395 -5.06935,2.02012 0.27551,0.44579 -0.6487,2.17681 -2.05382,3.8467 -2.46066,2.92432 -3.06258,4.42193 -4.17325,10.38318 -0.2818,1.5125 -0.91129,2.75 -1.39886,2.75 -0.48758,0 -0.88928,2.1375 -0.89267,4.75 -0.003,2.6125 -0.56588,5.875 -1.25,7.25 -1.42004,2.85416 -1.13802,18 0.33517,18 0.50655,0 0.92099,-2.89844 0.92099,-6.44098 0,-3.54254 0.45,-6.7191 1,-7.05902 0.55,-0.33992 1.01432,0.19603 1.03181,1.19099 0.0302,1.7159 0.10018,1.71893 1.36024,0.059 0.73064,-0.9625 2.06633,-1.75 2.9682,-1.75 0.90186,0 1.63975,-0.675 1.63975,-1.5 0,-1.08333 1.11112,-1.5 4,-1.5 2.2,0 4,-0.45 4,-1 0,-0.55 -1.8,-1 -4,-1 -3.77777,0 -4,-0.16666 -4,-3 0,-2.83333 0.22223,-3 4,-3 2.88889,0 4,0.41667 4,1.5 0,1 1,1.5 3,1.5 2.83334,0 3,-0.22222 3,-4 0,-2.2 0.45,-4 1,-4 0.55,0 1,1.8 1,4 0,3.77778 0.16667,4 3,4 2.84061,0 3,0.21567 3,4.05902 0,2.45137 -0.39606,3.81423 -1,3.44098 -1.37629,-0.85059 -1.26224,0.83775 0.15213,2.25213 0.8695,0.8695 0.48397,1.45656 -1.57161,2.39314 -2.24038,1.02079 -2.87766,0.99198 -3.59108,-0.16236 -0.72181,-1.16791 -1.21315,-1.09042 -2.92839,0.46184 -1.13357,1.02588 -2.06105,2.37336 -2.06105,2.9944 0,0.62105 -2.43156,3.53053 -5.40346,6.46552 -4.54661,4.49013 -5.47967,5.03973 -5.884,3.46584 -0.26429,-1.02878 -0.53273,0.0154 -0.59653,2.32048 -0.0638,2.30504 0.28319,4.43769 0.77109,4.73923 0.4879,0.30154 0.8254,-0.2344 0.75,-1.19098 -0.12517,-1.58797 1.3849,-1.74751 17.3629,-1.83431 19.63882,-0.10669 40,1.69548 40,3.54039 0,0.40439 2.5875,1.34311 5.75,2.08605 3.1625,0.74294 7.55,2.40958 9.75,3.70364 2.2,1.29407 4.7726,2.60667 5.71689,2.91689 0.94428,0.31023 1.98147,1.30296 2.30485,2.20607 0.32339,0.90312 3.48829,4.05457 7.03312,7.00322 3.54483,2.94865 6.44514,6.15457 6.44514,7.12427 0,0.9697 0.66927,3.65998 1.48725,5.97839 1.07887,3.05785 1.20303,4.74636 0.45218,6.14934 -0.78259,1.46228 -0.65096,2.31813 0.53963,3.50872 1.65079,1.6508 1.50484,4.59262 -0.64939,13.08891 -0.5872,2.31595 -0.88225,7.12244 -0.65565,10.68109 0.2266,3.55865 0.15055,6.30869 -0.16899,6.1112 -0.31954,-0.19748 -0.33478,1.74603 -0.0339,4.31891 0.6263,5.35508 -1.15348,13.51253 -3.74786,17.17798 -0.97321,1.375 -2.83683,4.62681 -4.14138,7.22623 -1.30455,2.59943 -3.20666,5.48167 -4.22692,6.40499 -1.02025,0.92332 -1.85501,2.50901 -1.85501,3.52377 0,1.01476 -0.34175,1.84501 -0.75945,1.84501 -1.28202,0 -3.3489,4.01566 -2.64942,5.14744 0.43978,0.71159 0.94984,0.61493 1.53387,-0.29067 0.72537,-1.12474 1.03873,-1.10024 1.83237,0.14323 2.73402,4.28367 4.50262,6 6.18271,6 1.02296,0 1.85992,0.37372 1.85992,0.83048 0,1.25184 8.59523,7.16952 10.41348,7.16952 0.87259,0 1.58652,0.36538 1.58652,0.81194 0,0.44657 1.396,1.84405 3.10222,3.10551 2.70976,2.00341 4.19236,2.27824 11.71957,2.1724 l 8.61737,-0.12115 6.28042,6.72818 c 5.29578,5.67333 6.28042,7.29201 6.28042,10.32452 0,4.94483 -1.84462,7.03453 -7.05926,7.99715 -5.99849,1.10731 -11.35864,-1.21734 -10.51917,-4.56207 0.36894,-1.46998 0.0475,-2.44622 -0.92868,-2.82083 -0.82109,-0.31508 -1.49289,-1.24617 -1.49289,-2.06908 0,-1.60801 -2.61275,-3.30832 -7.03068,-4.57537 -2.70368,-0.7754 -2.74315,-0.72393 -2.25212,2.93697 0.35547,2.65028 -0.15125,5.00233 -1.75493,8.1458 -1.63537,3.20559 -2.20564,5.92141 -2.07606,9.88691 0.27097,8.29203 -0.58672,11.03912 -3.44661,11.03912 -1.80478,0 -2.55356,-0.6833 -3.01349,-2.75 -1.19491,-5.36933 -1.58039,-6.27267 -2.44793,-5.73651 -0.4828,0.29839 -1.34875,-0.3374 -1.92432,-1.41286 -0.8376,-1.56507 -0.6979,-2.04654 0.69982,-2.41201 0.96048,-0.25114 -0.13544,-0.50881 -2.43537,-0.57262 -3.45595,-0.0959 -4.96346,0.53482 -8.68625,3.634 -2.4775,2.0625 -4.53324,4.5375 -4.5683,5.5 -0.0351,0.9625 -0.51376,1.75 -1.06376,1.75 -1.48523,0 -1.2103,2.93255 0.42858,4.57143 0.78571,0.78572 2.0984,1.42857 2.91709,1.42857 0.81869,0 3.66333,0.95066 6.32143,2.11258 3.45346,1.50958 7.28825,2.18122 13.43523,2.35308 5.18587,0.145 9.75315,0.82991 11.5,1.72454 5.37542,2.75299 14.89032,8.01727 15.89767,8.79566 1.53589,1.18678 11.41523,3.76803 17,4.44172 3.05916,0.36902 6.70235,0.0822 9.38559,-0.73881 4.13195,-1.26434 4.52692,-1.21097 6.82943,0.92292 1.34411,1.24568 2.55353,2.85515 2.68761,3.57659 0.13407,0.72145 0.99833,3.05418 1.92057,5.18385 2.12198,4.90013 2.12562,4.85761 -0.63765,7.45356 -3.01356,2.8311 -6.01492,2.75403 -9.00004,-0.2311 -1.86741,-1.8674 -3.94647,-2.56489 -9.29546,-3.11847 -3.78952,-0.39219 -8.46505,-1.24333 -10.39005,-1.89143 -1.925,-0.6481 -5.71865,-1.04849 -8.43035,-0.88976 -3.39849,0.19894 -5.46763,-0.19762 -6.6596,-1.27633 -1.37789,-1.24698 -3.48209,-1.47523 -10.35621,-1.12336 -5.0066,0.25627 -11.22244,-0.10004 -14.81173,-0.84905 -3.40162,-0.70986 -6.64766,-0.99616 -7.21343,-0.63623 -0.56577,0.35993 -3.17906,0.88743 -5.80731,1.17223 -2.62824,0.2848 -4.7619,0.96307 -4.74145,1.50727 0.0204,0.5442 0.59582,0.9942 1.27863,1 0.6828,0.006 2.48582,1.11016 4.00671,2.45415 3.17912,2.80931 3.78583,2.97765 13.23474,3.67217 6.90443,0.50749 14.5,2.88365 14.5,4.5361 0,0.46647 -0.45,0.84812 -1,0.84812 -0.55,0 -1,0.43845 -1,0.97432 0,1.19315 5.29243,4.02568 7.52177,4.02568 2.07396,0 4.47823,2.39091 4.47823,4.45333 0,2.37319 -4.24039,3.55413 -11.92957,3.32237 -3.76562,-0.1135 -7.45944,0.28361 -8.2085,0.88248 -1.87397,1.49823 -11.53191,2.27184 -12.78005,1.0237 -0.55836,-0.55837 -3.03541,-1.01521 -5.50455,-1.01521 -2.46914,0 -4.25759,-0.375 -3.97432,-0.83333 0.28327,-0.45834 -0.63653,-0.83334 -2.04399,-0.83334 -2.09628,0 -2.58043,0.49727 -2.67744,2.75 -0.0651,1.5125 0.023,3.2 0.19583,3.75 0.17283,0.55 0.26,2.43538 0.19371,4.18973 -0.0899,2.37877 0.24168,3.05073 1.30417,2.64301 0.78359,-0.30069 1.43161,-1.06107 1.44003,-1.68973 0.0114,-0.85193 0.2024,-0.85036 0.75,0.006 0.40408,0.63205 1.85968,1.30705 3.23468,1.5 2.10548,0.29545 2.51607,0.90927 2.60178,3.8896 0.16785,5.83617 4.0154,11.15301 10.96036,15.14587 2.46838,1.41915 2.8756,2.20718 2.58375,5 -0.19054,1.82344 -0.76715,4.10284 -1.28135,5.06534 -0.81557,1.52663 -0.43962,1.75 2.94529,1.75 4.7946,0 8.23375,3.03765 6.20574,5.48125 -0.69325,0.83531 -2.07406,1.51875 -3.06846,1.51875 -1.11362,0 -1.93073,0.86414 -2.12755,2.25 -0.20536,1.44596 -1.1236,2.3642 -2.56956,2.56955 -2.16555,0.30756 -3.29467,3.18045 -1.25,3.18045 0.55,0 1,0.68614 1,1.52475 0,2.01651 3.70024,3.33308 11.11012,3.95309 6.76434,0.56599 8.80358,1.33943 6.79862,2.57857 -0.71763,0.44352 0.52598,0.56084 2.76359,0.26072 2.48212,-0.33293 4.33689,-0.11123 4.75705,0.56859 1.10854,1.79366 6.83979,1.28594 11.6328,-1.03052 2.80751,-1.35688 7.00939,-2.28732 11.43782,-2.53275 6.49238,-0.3598 13.5,-2.72156 13.5,-4.54985 0,-0.42493 0.56676,-0.7726 1.25946,-0.7726 0.6927,0 1.82151,-0.9 2.50847,-2 0.68696,-1.1 1.88514,-2 2.66263,-2 0.77748,0 3.04896,-1.91055 5.04773,-4.24566 2.2362,-2.6125 5.05502,-4.66186 7.32792,-5.32761 2.03159,-0.59506 3.58494,-1.59857 3.4519,-2.23002 -0.13304,-0.63145 2.00446,-2.11444 4.75,-3.29554 2.74554,-1.1811 4.99189,-2.76704 4.99189,-3.52431 0,-0.94775 1.29215,-1.37686 4.14603,-1.37686 h 4.14602 l -2.64602,2.45225 c -1.48883,1.3798 -2.64603,3.53524 -2.64603,4.92858 0,1.36197 -0.675,3.15132 -1.5,3.97632 -0.825,0.825 -1.5,2.20714 -1.5,3.07142 0,0.86429 -0.675,1.57143 -1.5,1.57143 -0.825,0 -1.5,0.83932 -1.5,1.86514 0,1.02583 -0.8348,2.93833 -1.85511,4.25 -1.02032,1.31168 -2.16571,4.07236 -2.54532,6.13486 -0.3796,2.0625 -1.27646,3.75 -1.993,3.75 -0.71655,0 -2.1145,1.8 -3.10657,4 -0.99206,2.2 -2.1854,4 -2.65187,4 -0.46647,0 -0.84813,0.9 -0.84813,2 0,1.1 -0.60525,2 -1.34501,2 -0.73975,0 -2.17386,0.91587 -3.1869,2.03527 -1.04703,1.15695 -2.50329,1.78147 -3.37451,1.44715 -0.84294,-0.32347 -1.21487,-0.27038 -0.82652,0.11797 0.38835,0.38835 -0.75037,1.78975 -2.53048,3.11421 -2.25569,1.67832 -4.05275,2.24902 -5.92967,1.88315 -2.10944,-0.41121 -3.13201,0.0631 -4.71832,2.18863 -1.11387,1.49249 -2.03948,2.1663 -2.0569,1.49735 -0.0286,-1.0998 -6.59783,1.96613 -8.03169,3.7485 -0.275,0.34184 -2.91735,1.40151 -5.87189,2.35483 -2.95454,0.95332 -6.64463,2.67429 -8.20021,3.82437 -2.54806,1.88387 -3.73104,2.03258 -11.93879,1.50082 -7.42255,-0.48088 -10.23502,-0.23099 -15.18007,1.34876 -3.33827,1.06644 -7.02346,1.94123 -8.18931,1.94396 -2.2383,0.005 -9.01525,4.89734 -6.86973,4.95907 0.6875,0.0198 1.25,0.48596 1.25,1.03596 0,1.18351 -2.21486,0.89454 -3.15924,-0.41218 -0.36259,-0.50169 -1.40723,-0.16419 -2.32143,0.75 -0.9142,0.9142 -2.03081,1.66218 -2.48135,1.66218 -0.45054,0 -1.02138,1.4625 -1.26854,3.25 -0.24716,1.7875 -0.6339,3.925 -0.85941,4.75 -0.26881,0.98339 0.1927,1.3988 1.33997,1.20617 1.45021,-0.2435 1.75,0.47445 1.75,4.19098 0,2.46665 0.46194,4.77031 1.02653,5.11924 0.56458,0.34894 0.90208,1.38799 0.75,2.30902 -0.17902,1.08414 0.51682,1.78727 1.97347,1.99414 1.2375,0.17576 2.25,0.89103 2.25,1.58949 0,0.69846 1.11259,1.77686 2.47242,2.39644 1.35982,0.61958 2.75861,2.26681 3.10841,3.66051 0.34979,1.39371 1.03721,2.53401 1.52758,2.53401 2.15358,0 0.54674,1.6363 -3.11858,3.17574 -2.68833,1.12911 -3.98983,2.30283 -3.98983,3.59813 0,1.27549 -1.34602,2.52936 -4,3.72613 -2.2,0.99206 -4,2.18541 -4,2.65188 0,0.46647 -1.74472,0.84812 -3.87716,0.84812 h -3.87716 l 0.49674,4.40711 c 0.33018,2.92931 -0.0463,5.49574 -1.12283,7.65364 -1.8451,3.69857 -2.07884,5.93925 -0.61959,5.93925 0.55,0 1.01887,0.7875 1.04192,1.75 0.0846,3.53003 6.76863,13.1943 9.97978,14.42941 0.81307,0.31273 2.50823,2.50047 3.76703,4.86165 1.77951,3.33789 2.00386,4.4691 1.00836,5.08435 -1.0197,0.63021 -1.02758,1.0441 -0.0387,2.03295 0.68291,0.6829 1.24164,1.84546 1.24164,2.58346 0,0.73799 0.9,2.30785 2,3.48856 1.1,1.18071 2,2.96189 2,3.95818 0,1.48023 0.82281,1.81144 4.5,1.81144 h 4.5 v 3.7775 c 0,5.44016 2.17458,7.97618 7.52771,8.77893 2.47329,0.37089 4.74393,1.07408 5.04588,1.56263 0.30194,0.48856 1.58518,0.62821 2.85165,0.31035 1.80333,-0.4526 2.45519,-0.0739 3.00602,1.74633 0.42038,1.38919 0.91095,1.82137 1.21938,1.07426 0.28382,-0.6875 1.82853,-1.25 3.4327,-1.25 1.85342,0 2.91666,-0.51784 2.91666,-1.42054 0,-0.7813 1.34452,-1.71585 2.98782,-2.07678 1.6433,-0.36093 3.7808,-1.66236 4.75,-2.89208 0.9692,-1.22971 2.66218,-2.73674 3.76218,-3.34895 2.03792,-1.13421 5.79563,-4.4743 19.99559,-17.77334 4.39758,-4.11857 8.76925,-7.48831 9.71482,-7.48831 0.94558,0 2.17319,-0.84823 2.72803,-1.88497 0.55485,-1.03673 2.18659,-2.18058 3.62611,-2.54187 1.92818,-0.48394 2.44779,-1.09862 1.97352,-2.33455 -0.35407,-0.9227 -0.33582,-1.36969 0.0406,-0.99331 0.9405,0.94051 4.6091,-1.13251 3.93485,-2.22347 -0.29839,-0.48281 0.41211,-1.18082 1.57889,-1.55115 2.82479,-0.89655 5.90762,-3.60642 5.90762,-5.19292 0,-0.70277 0.47297,-1.27776 1.05103,-1.27776 0.57807,0 1.69037,-1.53016 2.47179,-3.40036 0.78142,-1.87019 2.17357,-4.15317 3.09368,-5.07327 0.9201,-0.92011 1.82116,-3.32497 2.00234,-5.34414 0.18118,-2.01918 0.90704,-4.1237 1.61302,-4.67673 0.70598,-0.55302 1.13308,-2.04277 0.94911,-3.31054 -0.18397,-1.26777 0.0914,-2.84277 0.61188,-3.5 1.46579,-1.8508 2.47623,-8.5839 2.28032,-15.19496 -0.10604,-3.57864 0.49847,-7.81601 1.49795,-10.5 1.24362,-3.33959 1.79369,-8.98748 2.13313,-21.90225 0.2999,-11.41013 0.85998,-17.79081 1.62657,-18.53073 1.20614,-1.16415 7.06935,-2.16624 33.66918,-5.75446 18.97407,-2.55953 43.18897,-2.98306 50.4305,-0.88206 9.03397,2.62105 15.40146,12.15885 17.72208,26.54576 0.53019,3.28694 1.87035,7.4428 2.97814,9.23525 1.1078,1.79245 3.41466,6.07813 5.12637,9.52374 2.29546,4.62068 5.91315,9.0203 13.7852,16.76475 12.47895,12.27667 13.92005,15.12197 12.00139,23.69545 -0.87611,3.91488 -0.90826,5.7628 -0.11683,6.7164 0.6005,0.72357 4.80012,2.34437 9.33249,3.60178 13.7617,3.81792 16.7996,6.5602 17.70966,15.98637 l 0.531,5.5 19,4.12234 c 10.45,2.26728 19.9,4.47225 21,4.89992 1.1,0.42767 6.275,3.56342 11.5,6.96833 11.6924,7.61944 37.12507,22.81014 54.49997,32.55236 10.7704,6.03897 14.4635,8.76143 21.5327,15.87311 11.5861,11.65576 27.1367,35.09015 33.4297,50.37752 5.1933,12.6161 8.1296,18.71719 12.8531,26.70642 7.931,13.41429 24.6467,59.39519 28.1741,77.49999 1.6931,8.6904 2.9529,11.9473 14.6984,38 4.6732,10.3656 10.8055,22.5772 17.0192,33.8915 0.9631,1.7537 1.6642,5.0698 1.6086,7.6085 -0.063,2.8575 1.4085,8.9503 4.0305,16.6925 3.7907,11.1931 7.0883,21.8968 10.7236,34.80748 2.867,10.182 10.3621,42.5484 13.8857,59.9628 4.5735,22.6033 6.4849,31.3479 12.0299,55.0372 7.6834,32.8242 14.4917,71.8865 18.5622,106.5 1.1319,9.625 2.2896,18.2875 2.5726,19.25 0.4896,1.6653 -28.0546,1.75 -589.55288,1.75 H 50.988906 Z m 34.544267,-79.2891 c -1.384515,-1.3845 -1.661809,1.2631 -0.886557,8.4647 l 0.84229,7.8244 0.294267,-7.8724 c 0.161848,-4.3298 0.04935,-8.1173 -0.25,-8.4167 z M 641.18339,712.23161 c -0.92598,-0.92598 -1.19449,-0.81235 -1.19449,0.50551 0,0.935 -0.50248,1.7 -1.11663,1.7 -0.6243,0 -0.88603,-0.88181 -0.59362,-2 0.3473,-1.32806 0.0307,-2 -0.94238,-2 -0.80597,0 -1.2065,0.41891 -0.89007,0.9309 0.31643,0.512 0.0887,1.23168 -0.50613,1.59928 -0.72328,0.44702 -0.5289,1.27894 0.58691,2.51189 1.61959,1.78964 1.72948,1.78657 3.75962,-0.10479 1.62118,-1.51035 1.82277,-2.21682 0.89679,-3.14279 z m 14.80551,-0.79449 c 0,-0.55 -0.9551,-1 -2.12244,-1 -1.66218,0 -1.88092,-0.29102 -1.00868,-1.34201 1.10047,-1.32598 0.58153,-2.65799 -1.03554,-2.65799 -1.26031,0 -0.99788,3.43546 0.36666,4.8 1.45619,1.45619 3.8,1.57955 3.8,0.2 z m -21,-7 c 0,-0.55 -0.675,-1 -1.5,-1 -0.825,0 -1.5,0.45 -1.5,1 0,0.55 0.675,1 1.5,1 0.825,0 1.5,-0.45 1.5,-1 z m 40.68312,-5.1875 c -0.31923,-0.79773 -0.55618,-0.56077 -0.60417,0.60417 -0.0434,1.05417 0.19293,1.64479 0.52522,1.3125 0.33229,-0.33229 0.36782,-1.19479 0.0789,-1.91667 z m -71.18312,-43.8125 c 0.33992,-0.55 0.14148,-1 -0.44098,-1 -0.58246,0 -1.05902,0.45 -1.05902,1 0,0.55 0.19845,1 0.44099,1 0.24254,0 0.7191,-0.45 1.05901,-1 z m -1.16486,-6.17354 c 0.31261,-1.19545 0.33854,-2.54545 0.0576,-3 -0.7212,-1.16692 -8.14802,-1.03144 -8.88567,0.16209 -0.35175,0.56914 0.0546,0.73314 0.95783,0.38655 0.98736,-0.37889 2.33067,0.36659 3.62451,2.01145 2.5032,3.1823 3.50152,3.28574 4.24572,0.43991 z m 47.34798,-161.01396 c -0.31923,-0.79773 -0.55618,-0.56077 -0.60417,0.60417 -0.0434,1.05417 0.19293,1.64479 0.52522,1.3125 0.33229,-0.33229 0.36782,-1.19479 0.0789,-1.91667 z m -59.45468,-49.86096 c -0.36144,-3.09856 -0.88576,-3.48082 -2.70427,-1.97159 -1.25904,1.04491 -1.52417,0.98272 -1.52417,-0.3575 0,-0.89235 -0.64467,-1.62245 -1.43261,-1.62245 -0.78793,0 -1.71826,-0.9 -2.06739,-2 -0.34912,-1.1 -1.50445,-2 -2.56738,-2 -1.08373,0 -1.93262,-0.68478 -1.93262,-1.55901 0,-0.85746 -0.45,-1.28091 -1,-0.94099 -0.55,0.33992 -1,2.84148 -1,5.55902 0,4.80128 0.0832,4.94098 2.94099,4.94098 1.61754,0 3.24333,0.48921 3.61286,1.08712 0.36953,0.59792 1.52064,0.86516 2.55802,0.59388 1.03738,-0.27128 2.15283,-0.0617 2.47878,0.46567 1.06663,1.72584 2.91568,0.18709 2.63779,-2.19513 z m 46.77156,-35.95154 c 0,-0.62857 -0.675,-1.81785 -1.5,-2.64285 -0.825,-0.825 -1.5,-1.01786 -1.5,-0.42858 0,0.58929 -0.675,1.07143 -1.5,1.07143 -2.03056,0 -1.90277,2.985 0.19342,4.51777 1.35357,0.98976 1.95563,0.97604 3,-0.0683 0.71862,-0.71862 1.30658,-1.82087 1.30658,-2.44944 z m -35,-8 c 0,-0.55 -0.45,-1 -1,-1 -0.55,0 -1,0.45 -1,1 0,0.55 0.45,1 1,1 0.55,0 1,-0.45 1,-1 z m -72.75,-0.66228 c -1.56903,-0.63312 -1.62618,-2.98719 -0.0955,-3.93321 0.76394,-0.47213 0.88082,-0.27068 0.34549,0.59549 -0.53532,0.86617 -0.41844,1.06763 0.3455,0.59549 0.63498,-0.39243 1.1023,-2.59946 1.0385,-4.9045 -0.0638,-2.30504 -0.31646,-3.43116 -0.56148,-2.50248 -0.24501,0.92868 -1.42571,1.82868 -2.62378,2 -1.19807,0.17132 -2.33266,1.12112 -2.52131,2.11066 -0.41668,2.18559 2.39485,6.73132 4.09563,6.62189 0.94467,-0.0608 0.93937,-0.19499 -0.0231,-0.58334 z m 12.75,-143.2787 c 0,-2.16754 0.45,-4.2191 1,-4.55902 0.55,-0.33992 1,-1.90467 1,-3.47723 0,-3.68402 0.96288,-6.16374 2.11653,-5.45075 0.49883,0.30829 1.17718,-0.79052 1.50743,-2.44181 0.33026,-1.65129 1.22498,-3.242 1.98826,-3.53489 1.48056,-0.56815 1.81769,-5.19578 0.76278,-10.47032 -0.73788,-3.68941 -2.375,-4.17768 -2.375,-0.70833 0,1.32917 -0.50315,2.58438 -1.11811,2.78937 -0.61497,0.20499 -1.17687,2.15499 -1.24868,4.33334 -0.0718,2.17834 -0.63969,4.41062 -1.26195,4.96062 -0.62226,0.55 -1.47361,2.35 -1.89191,4 -1.17186,4.62253 -2.10579,18.5 -1.24501,18.5 0.42111,0 0.76566,-1.77344 0.76566,-3.94098 z m 12,-30.05902 c 0,-1.1 -0.17251,-2 -0.38336,-2 -0.21086,0 -0.61873,0.9 -0.90638,2 -0.28766,1.1 -0.11514,2 0.38336,2 0.49851,0 0.90638,-0.9 0.90638,-2 z m -3,-8.55901 c 0,-1.45137 -0.43284,-2.29151 -1,-1.94099 -0.55,0.33992 -1,1.49148 -1,2.55902 0,1.06754 0.45,1.94098 1,1.94098 0.55,0 1,-1.15155 1,-2.55901 z M 84.610843,1113.6118 c -0.442502,-1.279 -0.538462,-2.5915 -0.213243,-2.9167 1.036609,-1.0366 1.765246,0.4919 1.385352,2.9061 l -0.36756,2.3359 z M 717.72447,559.83936 c -0.80111,-0.80112 0.24738,-3.40224 1.37142,-3.40224 0.49116,0 0.89301,0.9 0.89301,2 0,1.94919 -1.06066,2.606 -2.26443,1.40224 z m 75.8932,-132.88293 c -1.35331,-1.02487 -1.69402,-2.12319 -1.23095,-3.9682 0.35216,-1.40311 1.08833,-2.55111 1.63594,-2.55111 0.98456,0 4.95529,5.80105 4.96251,7.25 0.006,1.24261 -3.36842,0.78321 -5.3675,-0.73069 z m -68.62877,-9.51931 c 0,-0.55 0.47656,-1 1.05902,-1 0.58246,0 0.7809,0.45 0.44098,1 -0.33991,0.55 -0.81647,1 -1.05901,1 -0.24254,0 -0.44099,-0.45 -0.44099,-1 z m 81.39302,-22.58178 c 0.33384,-0.86999 0.60698,-1.76999 0.60698,-2 0,-0.23002 0.45,-0.41822 1,-0.41822 0.55,0 1,0.9 1,2 0,1.17029 -0.66666,2 -1.60698,2 -1.05452,0 -1.39832,-0.5438 -1,-1.58178 z m 8.88515,-3.82509 c -1.74179,-0.97951 -1.95965,-1.51164 -1.00835,-2.46294 0.95129,-0.95129 0.89725,-1.4089 -0.25015,-2.11803 -1.25835,-0.77771 -1.23449,-0.99249 0.17012,-1.53149 2.50312,-0.96054 2.30888,-13.90409 -0.2716,-18.0987 -1.055,-1.71492 -1.91819,-4.20229 -1.91819,-5.52749 0,-3.10546 2.6327,-6.85627 4.80671,-6.84815 2.468,0.009 5.19329,5.49427 5.19329,10.45227 0,2.66623 0.58988,4.78607 1.5546,5.58671 4.12339,3.42211 3.66898,9.37742 -1.52261,19.95469 -0.94479,1.9249 -3.92087,2.18627 -6.75382,0.59313 z m 15.34683,-47.71813 c -1.20154,-6.0077 -0.70423,-9.45194 1.68946,-11.70068 3.86363,-3.6297 5.03589,-2.87304 4.28765,2.76753 -0.73123,5.51228 -3.16895,12.05815 -4.49053,12.05815 -0.47386,0 -1.14283,-1.40625 -1.48658,-3.125 z M 524.308,328.20343 c -1.14749,-1.77399 -3.02773,-17.76631 -2.08881,-17.76631 0.42334,0 0.76971,0.6375 0.76971,1.41667 0,0.77917 0.38675,1.56667 0.85943,1.75 1.4657,0.56848 5.07551,9.75551 4.07592,10.37329 -0.51444,0.31794 -0.93535,1.42496 -0.93535,2.46004 0,2.37773 -1.60248,3.43353 -2.6809,1.76631 z m 59.28635,-2.59569 c -0.32088,-0.5192 -0.002,-1.42616 0.7076,-2.01546 1.5814,-1.31244 5.91044,-0.33279 5.40073,1.22217 -0.466,1.42161 -5.32963,2.05325 -6.10833,0.79329 z m 136.21291,-11.09886 c -1.4486,-1.13947 -3.12534,-2.07176 -3.72608,-2.07176 -0.60075,0 -1.09228,-0.66642 -1.09228,-1.48095 0,-0.81452 -1.2375,-1.78128 -2.75,-2.14836 -3.65723,-0.88759 -14.62561,-11.94056 -16.64481,-16.77317 -1.71878,-4.11364 -2.18164,-13.12322 -0.72057,-14.0262 0.48653,-0.3007 1.19597,-2.623 1.57651,-5.16067 0.38055,-2.53767 1.55579,-6.03071 2.61165,-7.7623 2.13088,-3.4946 2.50252,-8.70488 0.84219,-11.80723 -1.2375,-2.31229 -0.42719,-6.84112 1.22404,-6.84112 0.6055,0 3.04113,-2.025 5.41252,-4.5 2.3714,-2.475 4.90492,-4.53037 5.63005,-4.56749 3.80272,-0.19465 8.1485,-1.03879 9.74407,-1.89271 3.19178,-1.70819 27.80935,-1.37039 35.57435,0.48814 3.85,0.92149 9.96493,2.00684 13.58872,2.41189 6.54746,0.73183 19.91128,6.19747 19.91128,8.14347 0,0.50418 0.7969,0.9167 1.77089,0.9167 2.0233,0 5.82659,6.72202 6.6481,11.75 0.51601,3.15817 0.43029,3.25 -3.03369,3.25 -2.38316,0 -4.11503,-0.67792 -5.225,-2.04527 -1.49477,-1.84136 -3.05607,-2.08812 -15.6603,-2.47513 -13.12767,-0.40308 -16.53135,-0.71275 -22.34565,-2.03307 -3.12933,-0.7106 -4.98274,1.00033 -4.39788,4.05982 0.27794,1.45395 0.0111,2.49365 -0.63989,2.49365 -0.61412,0 -1.11658,0.8037 -1.11658,1.786 0,1.93403 7.47197,8.214 9.77309,8.214 0.77523,0 4.89327,1.83702 9.1512,4.08226 5.26363,2.77556 8.32059,5.09623 9.55024,7.25 0.9947,1.74226 2.97903,4.43132 4.40961,5.97568 2.21665,2.39295 2.60216,3.72308 2.60847,9 l 0.007,6.19206 -7,1.16491 c -3.85,0.6407 -12.625,1.28877 -19.5,1.44015 -14.2959,0.31479 -15.45001,0.59514 -20.42249,4.96104 -2.00457,1.76003 -3.91373,2.93101 -4.24257,2.60217 -0.32885,-0.32885 -1.43873,-0.1479 -2.46642,0.4021 -1.25334,0.67077 -2.50042,0.66182 -3.78784,-0.0272 -1.33033,-0.71197 -2.02815,-0.70075 -2.27392,0.0366 -0.20565,0.61693 -1.46093,0.19352 -2.9884,-1.00799 z m -197.81637,-9.69931 c -0.002,-3.50035 1.99465,-5.71233 4.68849,-5.19354 2.02998,0.39094 2.76571,2.86736 1.88931,6.35924 -0.47973,1.91139 -1.18587,2.3388 -3.58657,2.17091 -2.63676,-0.18441 -2.98947,-0.57785 -2.99123,-3.33661 z"
       id="path1" /></g></svg>
