<?xml version="1.0" encoding="UTF-8" standalone="no"?>
<!-- Created with Inkscape (http://www.inkscape.org/) -->

<svg
   version="1.1"
   id="svg1"
   width="1300"
   height="1294"
   viewBox="0 0 1300 1294"
   sodipodi:docname="pipistrello.svg"
   inkscape:version="1.3 (0e150ed6c4, 2023-07-21)"
   xml:space="preserve"
   xmlns:inkscape="http://www.inkscape.org/namespaces/inkscape"
   xmlns:sodipodi="http://sodipodi.sourceforge.net/DTD/sodipodi-0.dtd"
   xmlns="http://www.w3.org/2000/svg"
   xmlns:svg="http://www.w3.org/2000/svg"><defs
     id="defs1" /><sodipodi:namedview
     id="namedview1"
     pagecolor="#505050"
     bordercolor="#ffffff"
     borderopacity="1"
     inkscape:showpageshadow="0"
     inkscape:pageopacity="0"
     inkscape:pagecheckerboard="1"
     inkscape:deskcolor="#505050"
     inkscape:zoom="0.62673879"
     inkscape:cx="649.39335"
     inkscape:cy="597.53761"
     inkscape:window-width="1920"
     inkscape:window-height="1046"
     inkscape:window-x="-11"
     inkscape:window-y="-11"
     inkscape:window-maximized="1"
     inkscape:current-layer="g1" /><g
     inkscape:groupmode="layer"
     inkscape:label="Image"
     id="g1"><path
       style="fill:#000000"
       d="m 390.78326,1049.0825 c 0,-1.4577 3.90198,-10.2282 8.67106,-19.49 18.55673,-36.03805 54.70627,-63.91298 99.83269,-76.98101 34.49775,-9.99011 38.8101,-10.34305 127.97878,-10.47433 45.90543,-0.0676 87.22032,-0.80444 91.81087,-1.63745 26.36265,-4.78382 36.25738,-20.87968 31.66623,-51.51178 -2.94646,-19.65877 -7.00839,-26.15847 -20.53764,-32.86334 -12.62474,-6.2566 -25.59035,-9.64826 -55.05717,-14.40234 -40.18117,-6.4827 -58.18686,-14.32724 -70.08797,-30.53524 -3.71566,-5.06032 -8.43985,-8.74808 -13.96223,-10.89906 -10.11155,-3.93849 -26.30176,-13.89188 -51.02768,-31.37073 -36.67788,-25.92772 -56.91059,-32.87417 -95.49875,-32.78734 -18.65145,0.042 -28.11498,0.92575 -37.0953,3.46429 -17.98403,5.08367 -35.24054,13.17728 -35.24054,16.52845 0,4.1411 -6.02195,3.54102 -9.92993,-0.98952 -4.70375,-5.45307 -27.50146,-15.42526 -43.29701,-18.93901 -35.0562,-7.79831 -69.28435,1.76299 -100.40898,28.04828 -6.9563,5.87471 -10.59088,7.83875 -12.24793,6.6185 -1.29596,-0.95434 -6.44312,-4.8207 -11.43815,-8.59191 -18.51102,-13.97567 -49.68142,-25.44848 -68.81985,-25.33034 -16.08343,0.0993 -45.398184,10.31496 -58.966976,20.54897 -11.668226,8.80054 -26.918723,26.26966 -32.81482,37.58869 -3.374384,6.47796 -6.761227,11.78119 -7.526317,11.78493 -0.765091,0.004 -1.390931,-8.07097 -1.390756,-17.9438 0.0015,-82.94292 55.457488,-175.32464 145.645349,-242.62413 38.44458,-28.6879 71.28054,-47.94074 137.20598,-80.44852 22.44266,-11.06645 43.38568,-21.41613 46.54005,-22.99927 7.88704,-3.95843 22.42981,-2.41291 30.07253,3.19594 3.23291,2.37257 11.52232,10.88247 18.4209,18.91089 6.89859,8.02841 17.73458,18.70237 24.07999,23.71989 19.1725,15.16036 36.8787,37.03025 48.45467,59.849 3.17316,6.25498 6.41433,11.76835 7.20261,12.25195 1.61396,0.99013 1.63768,-26.75903 0.0251,-29.34903 -1.48438,-2.38407 -9.7278,-34.15264 -13.08545,-50.42881 -7.82482,-37.93074 -13.55015,-108.62423 -8.79727,-108.62423 2.82493,0 20.78584,19.69804 29.1397,31.95801 13.85922,20.33954 24.96374,46.01998 29.36986,67.92105 0.90226,4.48474 1.84458,5.06299 8.25062,5.06299 3.97761,0 8.34359,0.42232 9.70218,0.93847 1.99331,0.75731 2.47958,-4.84029 2.51901,-28.99714 0.0504,-30.89687 1.86999,-42.97426 9.99413,-66.33606 4.90777,-14.11282 13.34467,-32.64039 14.86345,-32.64039 0.66842,0 4.58832,3.52109 8.71089,7.82463 29.78907,31.09672 55.49898,89.54013 57.21367,130.05729 l 0.65382,15.44952 8.97316,3.82967 c 4.93523,2.10632 15.23298,7.2609 22.88389,11.45463 13.42383,7.35806 13.94963,7.48877 15.02206,3.73442 2.32669,-8.14526 9.06956,-19.10027 15.67799,-25.47169 6.40378,-6.17411 31.81305,-18.00226 38.67251,-18.00226 1.5338,0 4.8445,-0.92976 7.35711,-2.06614 4.85876,-2.19748 5.10019,-3.31587 7.70137,-35.67618 4.88072,-60.71927 25.61278,-127.71292 53.99558,-174.48152 22.6638,-37.34496 52.31528,-54.8434 106.85383,-63.05844 44.47784,-6.69961 135.87614,-0.85742 190.27114,12.16216 43.9855,10.528 94.0401,34.45797 133.2475,63.70258 15.7502,11.74796 34.1226,27.60776 36.6105,31.60363 0.5816,0.93406 -5.8191,2.66273 -14.2238,3.84149 -45.1275,6.32913 -82.8449,24.58448 -116.0471,56.16719 -18.9697,18.04444 -36.4901,43.11785 -34.8,49.80221 0.9737,3.85075 0.3777,4.6884 -3.9803,5.59418 -29.5727,6.14637 -43.726,11.65411 -64.8049,25.21871 -30.7043,19.75862 -64.78654,63.66874 -62.27685,80.2348 0.76213,5.03069 0.25372,6.2708 -2.90721,7.09131 -2.32848,0.60442 -4.2939,3.08708 -5.01156,6.33044 -1.34072,6.05924 -4.59548,7.2306 -4.59548,1.65386 0,-2.02519 -1.21969,-3.68217 -2.71043,-3.68217 -4.69774,0 -42.24457,19.90589 -53.8599,28.55447 -42.73341,31.81853 -73.35149,78.28502 -84.302,127.93807 -1.22825,5.56929 -2.62454,11.33015 -3.10286,12.80192 -0.59739,1.83815 -4.07922,-0.75566 -11.12129,-8.2849 -5.63839,-6.02846 -9.65891,-9.30385 -8.93447,-7.27866 7.70349,21.53552 8.70973,28.07646 8.78004,57.07375 0.0653,26.94242 -0.36157,30.87211 -5.00024,46.02722 -2.78943,9.11339 -7.84067,21.74786 -11.22499,28.0766 -5.64184,10.55034 -6.322,14.14634 -1.85165,9.78954 4.90358,-4.77901 32.25294,-11.63447 49.98592,-12.52961 43.13882,-2.17758 76.2941,9.24244 148.30286,51.08151 48.63741,28.25969 81.18921,42.23285 111.79391,47.9886 14.8211,2.78736 59.912,1.19742 77.4704,-2.73168 24.0041,-5.37144 51.4646,-14.738 98.7663,-33.68836 1.2751,-0.51086 2.3184,-0.0946 2.3184,0.92509 0,4.1213 -71.8916,30.20313 -100.1573,36.33643 -21.8866,4.74913 -64.3297,5.66 -83.4659,1.79125 -30.5496,-6.17618 -58.985,-18.66115 -109.42962,-48.04673 -64.10872,-37.34534 -99.78334,-50.45577 -137.29451,-50.45577 -32.77634,0 -57.6861,9.39008 -76.68302,28.9067 -6.52758,6.70617 -12.88716,11.71108 -14.29076,11.24666 -1.65334,-0.54705 2.15603,-5.75022 11.00126,-15.02648 35.72023,-37.4609 46.68521,-97.33505 27.97647,-152.76517 -4.44871,-13.1806 -8.66364,-20.8864 -19.92543,-36.428 l -14.28319,-19.71122 -1.13163,14.10276 c -2.25022,28.04296 -18.69139,47.98683 -47.36791,57.4594 -10.28642,3.39786 -15.00511,3.86155 -31.86607,3.13136 -19.24288,-0.83335 -28.09035,-2.94735 -47.07495,-11.24802 l -6.88085,-3.00853 -4.60253,7.81843 c -2.5314,4.30013 -7.27787,15.68908 -10.54771,25.30877 -5.07106,14.91874 -6.07256,20.87403 -6.81157,40.50395 l -0.8664,23.01361 7.63521,8.57322 c 13.5215,15.18269 31.01383,22.29059 66.97737,27.21584 23.21149,3.17884 50.74625,10.86855 60.17853,16.80622 10.19203,6.41593 14.55012,14.66893 17.72069,33.55801 5.26255,31.35235 -6.92306,50.53543 -35.42853,55.77304 -4.48665,0.82438 -45.2992,1.54777 -90.69458,1.60754 -70.77618,0.0932 -84.91563,0.56866 -99.22992,3.3369 -27.91311,5.39812 -52.32601,14.15138 -72.33583,25.93607 -9.19282,5.41406 -28.43231,20.78621 -34.88375,27.87176 -7.57251,8.3168 -21.60304,31.0193 -24.47525,39.6029 -2.91035,8.6977 -6.48516,12.3003 -6.48516,6.5357 z M 604.78714,740.04878 c 2.68737,-7.89152 7.43847,-19.36709 10.55799,-25.50127 3.11953,-6.13418 5.40856,-11.30389 5.08674,-11.48825 -13.98313,-8.01006 -60.4065,-42.17522 -66.42929,-48.88845 -0.51006,-0.56853 -7.18722,-6.36036 -14.83812,-12.87072 -7.65091,-6.51036 -16.28856,-13.96677 -19.19478,-16.5698 l -5.28403,-4.73277 4.56298,8.2849 c 27.60156,50.11545 54.46508,110.55489 67.51046,151.88981 2.55663,8.10079 6.03938,15.8037 7.73944,17.11758 2.83581,2.19163 3.18645,0.51953 4.24675,-20.25197 0.88776,-17.39124 2.28865,-25.96769 6.04186,-36.98906 z M 46.511787,771.25597 c 8.650722,-10.3729 30.362771,-25.17433 44.784972,-30.53057 19.694581,-7.31436 34.239001,-8.7084 52.446021,-5.0268 18.68821,3.77889 41.89918,14.25207 55.85658,25.20341 7.22373,5.66792 10.24469,7.0721 12.0375,5.59517 1.64243,-1.35304 2.79944,-10.62517 3.68716,-29.54843 4.83101,-102.98038 47.16032,-199.76818 118.9844,-272.06295 8.29954,-8.35394 14.79566,-15.18899 14.43581,-15.18899 -0.35985,0 -18.05564,8.64401 -39.32397,19.20891 -88.76831,44.09506 -141.31098,78.95164 -186.4541,123.69284 -37.407577,37.07452 -66.016382,81.56979 -81.011465,125.9971 -7.187655,21.29552 -12.85303,49.90936 -12.842651,64.86376 l 0.0079,11.44152 5.092663,-7.50192 c 2.800965,-4.12605 8.335578,-11.39043 12.29914,-16.14305 z m 530.303793,2.93273 c -11.67315,-22.47128 -43.13199,-78.96421 -62.283,-111.84614 -49.66834,-85.27961 -87.06465,-151.93853 -96.64806,-172.27516 -4.1986,-8.9097 -31.39552,-39.62411 -38.16159,-43.09718 -5.8354,-2.99535 -12.66489,-3.58456 -16.08434,-1.38766 -2.45909,1.57989 -9.95062,38.034 -9.95062,48.42015 0,3.90559 1.65929,21.42482 3.68732,38.93161 2.02803,17.5068 4.52452,39.70119 5.54776,49.32088 1.02324,9.61969 3.99341,36.13137 6.60038,58.91484 11.00845,96.20785 11.6116,101.98267 10.75548,102.97823 -3.78323,4.39942 -21.76814,-55.31472 -28.2428,-93.77279 -6.97264,-41.41592 -9.10334,-88.97035 -5.69188,-127.03512 1.3159,-14.68268 2.07934,-30.83823 1.69654,-35.90123 -0.3828,-5.06299 -0.64494,-13.14077 -0.58254,-17.95061 0.0624,-4.80985 -0.042,-8.74517 -0.23197,-8.74517 -1.63653,0 -29.94526,37.16276 -42.18193,55.37504 -42.91749,63.87567 -74.93153,148.44189 -83.93179,221.7088 -0.62195,5.063 -1.55619,11.93476 -2.07609,15.27059 l -0.94526,6.06515 10.76437,-7.2291 c 15.62213,-10.49147 24.88829,-14.73271 40.98497,-18.75936 26.73712,-6.6884 51.03742,-3.52638 79.93697,10.4016 l 17.41934,8.39515 14.11167,-6.50332 c 23.06606,-10.62994 34.81676,-13.01799 64.19032,-13.04515 21.97952,-0.0203 28.09198,0.63116 39.80765,4.24279 19.96065,6.15334 33.42811,13.18569 57.56751,30.06024 21.73825,15.19603 40.73569,27.24137 42.9775,27.24989 0.6849,0.003 -3.38126,-8.90154 -9.03591,-19.78697 z m -10.82979,-39.25189 c -17.3412,-43.42712 -47.4214,-103.09508 -70.00976,-138.87345 -23.76592,-37.64352 -64.23791,-94.81606 -67.11955,-94.81606 -1.81914,0 34.61227,66.50859 62.02231,113.22695 24.57559,41.88724 61.22935,106.03393 74.3899,130.18762 6.46204,11.85986 11.98474,21.32955 12.27265,21.04376 0.28791,-0.28579 -4.91209,-14.13176 -11.55555,-30.76882 z M 369.41043,673.29477 c -2.64547,-23.23789 -5.60462,-49.70713 -6.57589,-58.82052 -0.97128,-9.11339 -3.02994,-27.34017 -4.57481,-40.50395 -1.54487,-13.16378 -3.71235,-32.21905 -4.81661,-42.34504 -1.10427,-10.12599 -2.24734,-18.66851 -2.54016,-18.98339 -1.62448,-1.74685 -3.03213,53.11883 -1.91592,74.67632 1.3444,25.96426 6.20657,62.88361 11.16495,84.77752 5.09231,22.48528 12.86634,49.20605 13.47199,46.30574 0.32802,-1.57078 -1.56808,-21.86878 -4.21355,-45.10668 z m 350.32656,35.14618 c 14.54281,-7.13275 23.19165,-15.30624 29.73589,-28.1016 3.88644,-7.59879 5.54157,-24.53017 3.58725,-36.69612 -1.44308,-8.98338 -2.77309,-10.7654 -24.73374,-33.1396 -31.26911,-31.85796 -45.47821,-48.59963 -48.20275,-56.79418 -2.01009,-6.04572 -1.85173,-7.40044 1.36752,-11.6992 4.51924,-6.03465 15.22079,-7.48202 22.12398,-2.99223 2.69783,1.75465 7.37333,8.97008 11.11271,17.1496 13.5491,29.63727 28.94288,58.77601 37.34645,70.69274 38.08096,54.00095 41.78917,58.9757 55.05281,73.85608 l 6.30664,7.07538 1.96599,-7.99592 c 10.86287,-44.18075 28.75222,-76.06445 60.43625,-107.71387 20.68183,-20.65924 44.02192,-36.88548 67.27366,-46.76927 7.86737,-3.34423 14.58737,-6.27794 14.93335,-6.51935 1.04484,-0.72904 -7.07512,-40.98226 -11.93082,-59.14483 -10.34119,-38.68084 -28.50939,-80.22378 -47.31884,-108.19804 -16.47804,-24.50689 -67.50175,-72.76723 -90.3569,-85.4633 -5.15323,-2.86263 -0.69316,-4.63298 4.77233,-1.8943 10.2754,5.14885 39.2904,27.7825 52.32812,40.81944 23.90912,23.90769 53.47142,65.17282 71.33668,99.57672 14.86731,28.63062 32.59635,78.3007 32.59635,91.32265 0,3.57751 1.88921,1.55265 8.51447,-9.12585 19.71124,-31.77031 42.72031,-53.09197 74.02261,-68.5939 13.1248,-6.49988 35.6813,-14.17043 41.6703,-14.17043 2.5454,0 3.0507,-1.10612 2.3129,-5.06299 -2.362,-12.66722 -29.7001,-42.06898 -56.9666,-61.26687 -29.0634,-20.46306 -99.46306,-53.45869 -139.10736,-65.19823 -6.12073,-1.81248 -15.71914,-4.72456 -21.3298,-6.47128 -5.61066,-1.74673 -20.4256,-5.58372 -32.92208,-8.52665 -12.49648,-2.94293 -22.72087,-5.97508 -22.72087,-6.73811 0,-4.07153 49.40588,1.188 84.02941,8.9454 46.61841,10.44485 103.5887,33.6757 136.8162,55.78977 26.3114,17.51114 44.8565,40.32008 52.6686,64.77797 l 4.0897,12.80392 8.6236,-12.87312 c 22.4094,-33.45218 58.3367,-61.41909 99.4548,-77.41875 13.2857,-5.16965 38.2064,-11.03837 46.9416,-11.05457 3.8255,-0.007 6.9554,-0.41008 6.9554,-0.89552 0,-1.38585 -15.8409,-15.52735 -27.4647,-24.51829 -49.1746,-38.03644 -109.3239,-63.73395 -172.8499,-73.84654 -24.4477,-3.89178 -75.10894,-7.53569 -104.76856,-7.53569 -74.76427,0 -118.56274,15.81568 -144.48624,52.17415 -25.0996,35.20295 -45.65643,88.69592 -56.71508,147.58397 -1.82783,9.7333 -7.45775,63.23966 -7.47785,71.06893 -0.005,2.08957 -3.65516,3.89669 -12.52724,6.20262 -6.88581,1.78968 -18.45215,6.02957 -25.70298,9.42197 -14.89436,6.96854 -22.02969,14.69776 -26.98694,29.2331 -1.72044,5.04455 -3.9235,9.43509 -4.8957,9.75677 -0.9722,0.32168 -6.93721,-2.42259 -13.25557,-6.09838 -6.31836,-3.67578 -17.48155,-9.36242 -24.80709,-12.63696 -10.86384,-4.85618 -14.34491,-5.65017 -18.88345,-4.30711 -5.85289,1.73201 -16.20937,-1.10479 -48.05302,-13.16249 -16.40547,-6.21198 -21.14081,-9.39109 -13.98818,-9.39109 9.14523,0 53.81396,10.92931 61.81338,15.12417 5.36535,2.81356 7.00993,-1.55533 5.69321,-15.12417 -3.65048,-37.61832 -22.65899,-82.52883 -49.05237,-115.89375 -5.61066,-7.09266 -10.71321,-12.91526 -11.33899,-12.9391 -1.55064,-0.0591 -10.32485,19.60551 -14.54927,32.60757 -6.95579,21.40874 -8.38898,32.40221 -8.40702,64.48718 -0.0155,27.58037 -0.38548,31.61194 -2.80002,30.51167 -1.53018,-0.69727 -6.7467,-1.61503 -11.59228,-2.03945 -8.58457,-0.75192 -8.81013,-0.6406 -8.81013,4.348 0,6.87675 -6.87191,20.59072 -11.5678,23.08535 -6.30281,3.34829 -13.76948,4.97285 -16.14835,3.51348 -6.43146,-3.94556 9.27335,-29.93285 19.65177,-32.51846 3.97695,-0.99079 4.31686,-1.80954 3.23837,-7.80045 -1.81425,-10.07806 -9.80827,-33.11237 -15.06565,-43.41081 -6.66601,-13.05775 -12.78212,-22.12969 -25.50379,-37.82947 l -11.17488,-13.79089 -0.64692,6.42653 c -0.84203,8.36476 2.99362,53.27564 6.39788,74.91145 3.30465,21.0028 10.45259,52.68882 15.66417,69.43755 2.55416,8.20841 3.52884,14.81517 2.7745,18.8065 -3.52061,18.62809 12.28077,37.50589 31.39374,37.50589 3.60319,0 6.55125,0.82849 6.55125,1.84109 0,2.87018 -14.52185,2.16282 -21.31803,-1.03841 -3.36224,-1.58372 -9.73641,-5.93329 -14.16482,-9.66571 l -8.05167,-6.78623 4.22884,6.44382 c 2.32586,3.54409 8.47752,13.54423 13.67035,22.22253 5.19283,8.67829 11.35026,16.96319 13.68319,18.41088 2.33293,1.4477 10.78951,8.4316 18.79241,15.51979 57.00573,50.49013 90.28222,72.97217 121.63661,82.17932 8.803,2.58498 16.22391,3.25941 31.13391,2.82953 18.40136,-0.53054 20.43827,-0.9873 33.9451,-7.61195 z M 231.49765,667.86582 c 5.53776,-18.97049 16.7168,-51.27968 22.93272,-66.27919 13.34419,-32.2006 40.84097,-79.78156 65.96522,-114.1475 2.65384,-3.63002 1.58152,-2.9523 -3.12832,1.97714 -17.68503,18.50959 -38.68316,50.4905 -55.51676,84.55403 -18.69921,37.83866 -26.71144,60.989 -35.11872,101.47111 -5.411,26.05461 -5.97177,35.93778 -0.82373,14.51748 1.9469,-8.10079 4.50721,-18.04267 5.68959,-22.09307 z m 497.97607,-72.26273 c -5.4929,-10.88543 -12.66158,-26.21351 -15.9304,-34.06239 -6.35826,-15.26704 -12.33402,-21.63054 -20.31255,-21.63054 -6.56204,0 -9.39465,3.13532 -9.39465,10.39862 0,4.50008 2.39569,8.85138 9.6803,17.5824 9.27029,11.11097 43.97956,47.50362 45.3063,47.50362 0.35095,0 -3.85609,-8.90627 -9.349,-19.79171 z M 467.5458,541.29098 c -5.61549,-11.05542 -19.36998,-28.75553 -29.68664,-38.20259 -7.33712,-6.71867 -6.2641,-4.7148 4.9293,9.20544 3.66409,4.55669 11.4642,15.11994 17.33358,23.47388 5.86939,8.35394 11.04551,15.18898 11.50249,15.18898 0.45699,0 -1.37844,-4.34957 -4.07873,-9.66571 z M 966.52203,519.8351 c -3.84592,-22.06282 -14.23226,-53.99442 -25.3677,-77.99011 -8.16957,-17.60455 -11.30686,-20.66679 -4.9329,-4.81489 10.21482,25.40402 18.44643,56.65445 24.91151,94.57394 l 1.25197,7.34313 2.64561,-6.24568 c 1.6292,-3.84614 2.20222,-8.78929 1.49151,-12.86639 z M 509.34386,503.51492 c 4.77245,-4.73726 9.15204,-17.87421 6.75284,-20.25572 -1.78501,-1.77185 -10.439,3.78017 -14.31568,9.18432 -2.02654,2.82503 -4.40177,7.61855 -5.2783,10.65228 -1.46804,5.08101 -1.22708,5.51585 3.05644,5.51585 2.60729,0 6.90577,-2.23902 9.7847,-5.09673 z m 111.43025,0.55891 c 0,-1.02972 -35.19932,-12.08166 -37.94894,-11.91528 -2.37408,0.14367 3.62122,2.70506 19.4013,8.28888 11.54725,4.08602 18.54764,5.45473 18.54764,3.6264 z M 328.64864,477.31314 c 1.84639,-2.02519 2.93976,-3.68217 2.42969,-3.68217 -0.51006,0 -2.43806,1.65698 -4.28446,3.68217 -1.84639,2.0252 -2.93975,3.68218 -2.42969,3.68218 0.51006,0 2.43807,-1.65698 4.28446,-3.68218 z m 25.79195,-14.56039 c 1.28055,-6.16817 2.03174,-11.21485 1.6693,-11.21485 -1.3009,0 -4.52235,10.17817 -5.52143,17.44496 -1.51471,11.01722 1.17438,6.66811 3.85213,-6.23011 z m 734.98151,-70.87408 c -9.8031,-21.25494 -23.2171,-36.42095 -46.1042,-52.12617 -41.8572,-28.72246 -107.76387,-53.27577 -167.03771,-62.22931 -25.44014,-3.84282 -25.64123,-3.33048 -1.40328,3.57533 69.58781,19.82677 134.50029,49.32382 173.62869,78.89908 12.6876,9.58996 36.1954,32.14332 40.8441,39.18575 5.0358,7.62899 5.0763,3.54475 0.072,-7.30468 z"
       id="path1" /></g></svg>
