<?xml version="1.0" encoding="UTF-8" standalone="no"?>
<!-- Created with Inkscape (http://www.inkscape.org/) -->

<svg
   version="1.1"
   id="svg1"
   width="1300"
   height="1294"
   viewBox="0 0 1300 1294"
   sodipodi:docname="pipistrello.svg"
   inkscape:version="1.3 (0e150ed6c4, 2023-07-21)"
   xml:space="preserve"
   xmlns:inkscape="http://www.inkscape.org/namespaces/inkscape"
   xmlns:sodipodi="http://sodipodi.sourceforge.net/DTD/sodipodi-0.dtd"
   xmlns="http://www.w3.org/2000/svg"
   xmlns:svg="http://www.w3.org/2000/svg"><defs
     id="defs1" /><sodipodi:namedview
     id="namedview1"
     pagecolor="#505050"
     bordercolor="#ffffff"
     borderopacity="1"
     inkscape:showpageshadow="0"
     inkscape:pageopacity="0"
     inkscape:pagecheckerboard="1"
     inkscape:deskcolor="#505050"
     inkscape:zoom="0.3133694"
     inkscape:cx="6.3822442"
     inkscape:cy="939.78546"
     inkscape:window-width="1920"
     inkscape:window-height="1046"
     inkscape:window-x="-11"
     inkscape:window-y="-11"
     inkscape:window-maximized="1"
     inkscape:current-layer="g1" /><g
     inkscape:groupmode="layer"
     inkscape:label="Image"
     id="g1"><path
       style="fill:#000000;stroke-width:0.972562"
       d="m 477.13793,1235.8587 c -1.0297,-0.7919 -2.58999,-1.4399 -3.46733,-1.4399 -1.87187,0 -5.08606,-3.2924 -4.14667,-4.2475 0.3548,-0.3608 -0.0865,-0.656 -0.98075,-0.656 -1.24496,0 -1.48654,-0.5644 -1.03122,-2.4091 0.8699,-3.5242 -1.42173,-3.7872 -22.3808,-2.5687 -10.01174,0.582 -22.54333,1.3 -27.84799,1.5956 -12.31941,0.6863 -16.1078,1.2891 -15.40161,2.451 0.31425,0.517 -0.85343,0.9245 -2.62553,0.9162 -2.41542,-0.012 -2.8397,-0.2462 -1.74477,-0.9657 1.91623,-1.2592 -1.14769,-1.2616 -14.89842,-0.012 -16.74488,1.5221 -42.19042,1.7305 -40.76639,0.3339 0.64432,-0.6318 3.95547,-1.3121 7.35812,-1.5116 5.96142,-0.3496 6.1908,-0.4595 6.30099,-3.0191 0.10169,-2.3618 -0.22982,-2.6564 -2.98927,-2.6564 -4.44044,0 -7.39991,1.3679 -11.89621,5.4983 -2.83687,2.6061 -4.77581,3.6004 -6.90086,3.539 -1.62549,-0.047 -3.15987,-0.2933 -3.40974,-0.5474 -0.78795,-0.8012 2.23918,-5.8669 6.31965,-10.5755 l 3.93209,-4.5374 -4.20182,-1.1962 c -2.31101,-0.6579 -5.01338,-0.9842 -6.00527,-0.7251 -1.16301,0.3038 -0.77592,0.5168 1.09001,0.5999 3.11658,0.1388 6.08612,1.5925 5.16536,2.5287 -0.68351,0.6951 -9.50554,-1.5983 -9.50554,-2.471 0,-0.3383 -2.68578,-0.2415 -5.96841,0.2149 -3.54588,0.4931 -6.32897,0.4634 -6.85671,-0.074 -0.48856,-0.4968 -0.94315,-2.9292 -1.01021,-5.4055 l -0.12192,-4.5022 h -6.52414 c -5.90328,0 -8.4402,1.0746 -5.31854,2.2531 1.62295,0.6126 -4.65458,0.066 -9.16259,-0.7977 -2.14965,-0.4119 -3.61682,-1.2547 -3.61682,-2.0775 0,-1.1901 -0.30482,-1.189 -2.17009,0.01 -1.56037,1.0008 -5.80685,1.4333 -15.11399,1.5391 -7.11915,0.081 -13.32299,0.3856 -13.7863,0.6767 -0.46332,0.2912 -2.00476,-0.2449 -3.4254,-1.1915 -1.61558,-1.0764 -4.39925,-1.712 -7.43234,-1.6972 -4.55504,0.023 -4.60057,-10e-4 -0.75027,-0.3814 2.25448,-0.2229 4.13226,-0.7108 4.17284,-1.0843 0.0406,-0.3736 0.22652,-1.5022 0.41319,-2.5082 0.30626,-1.6505 -0.20547,-1.7889 -5.24372,-1.4184 -4.8094,0.3538 -6.29224,0.9848 -10.70023,4.5536 -2.81441,2.2785 -5.58764,3.9718 -6.16275,3.7629 -0.5751,-0.2088 -0.95808,-1.6555 -0.85105,-3.2147 0.14026,-2.0433 1.6776,-4.2276 5.50493,-7.8214 5.80509,-5.4508 11.63568,-7.9218 21.05522,-8.9229 3.05551,-0.3247 5.55546,-0.9689 5.55546,-1.4314 0,-0.4626 6.00391,-0.841 13.34202,-0.841 7.33811,0 13.64255,-0.3056 14.00986,-0.6791 0.36732,-0.3735 1.6332,-0.8037 2.81308,-0.956 1.17988,-0.1522 4.53233,-0.7445 7.44989,-1.3162 2.91757,-0.5716 11.38091,-1.1791 18.80743,-1.3499 7.42653,-0.1709 17.19192,-1.0333 21.70088,-1.9167 4.50896,-0.8833 12.32128,-2.3348 17.36071,-3.2254 5.03942,-0.8905 10.29226,-2.0192 11.67298,-2.5081 2.34831,-0.8317 7.61669,-7.6143 7.61669,-9.806 0,-0.5426 0.59815,-2.158 1.32923,-3.5897 0.73108,-1.4317 1.92462,-3.9271 2.65233,-5.5452 0.7277,-1.6182 1.86562,-3.5253 2.5287,-4.2381 0.66308,-0.7127 1.2056,-1.9864 1.2056,-2.8302 0,-0.8439 1.69458,-5.1152 3.76572,-9.4919 2.07115,-4.3767 4.92031,-10.6054 6.33146,-13.8418 1.41116,-3.2363 3.14989,-7.2082 3.86385,-8.8263 0.71397,-1.6182 2.4642,-6.0314 3.8894,-9.8071 1.42522,-3.7757 2.94944,-7.7476 3.38716,-8.8264 0.43773,-1.0788 1.71795,-5.2713 2.84494,-9.3167 1.12699,-4.0454 2.86027,-9.5619 3.85173,-12.2588 6.38948,-17.3804 8.67208,-28.9309 5.71735,-28.9309 -2.05194,0 -4.89676,-3.7637 -4.29706,-5.685 0.47201,-1.5121 0.0473,-2.075 -1.95111,-2.5849 -1.40496,-0.3586 -2.30356,-0.9071 -1.9969,-1.2189 0.30667,-0.3118 -0.0761,-1.8131 -0.85067,-3.336 -0.77455,-1.5231 -1.44252,-3.784 -1.48441,-5.0244 -0.0419,-1.2404 -0.29505,-1.7037 -0.56261,-1.0294 -1.29065,3.2524 -2.04517,0.4402 -1.91553,-7.1394 0.0902,-5.2728 -0.25781,-8.6263 -0.94136,-9.0715 -0.59643,-0.3885 -1.40893,-2.251 -1.80554,-4.1388 -0.39661,-1.8879 -1.55844,-5.11423 -2.58183,-7.16959 -1.0234,-2.05547 -2.75125,-6.68931 -3.83969,-10.29743 -1.53051,-5.0737 -2.90816,-7.44926 -6.07928,-10.48318 -2.25519,-2.15756 -4.82568,-5.35712 -5.71223,-7.11013 -1.58375,-3.1316 -4.41803,-4.36837 -4.495,-1.96142 -0.0631,1.97348 -5.62416,-5.22893 -6.77501,-8.77471 -0.57818,-1.78142 -1.56011,-3.24351 -2.18206,-3.24908 -0.62195,-0.006 -1.99885,-1.1369 -3.05978,-2.51407 -1.06093,-1.37716 -2.64259,-3.31185 -3.5148,-4.29931 -0.87221,-0.98747 -1.89699,-3.71768 -2.27731,-6.06713 -0.83387,-5.15149 -3.71487,-11.97117 -6.85219,-16.21998 -1.26785,-1.71702 -2.30519,-3.48646 -2.30519,-3.93209 0,-0.44563 -0.86804,-1.36145 -1.92897,-2.03516 -1.06093,-0.67372 -1.92897,-1.84639 -1.92897,-2.60595 0,-0.75956 -0.33417,-1.52813 -0.74261,-1.70793 -0.66037,-0.2907 -3.50326,-4.35368 -10.6299,-15.19198 -1.21545,-1.84849 -5.33862,-6.65687 -9.16259,-10.6853 -6.55009,-6.90032 -7.67868,-7.64254 -19.49096,-12.81831 -6.89606,-3.02164 -13.22349,-6.10612 -14.06096,-6.85441 -0.83747,-0.74828 -2.25293,-1.36052 -3.14548,-1.36052 -0.89254,0 -4.1135,-1.65649 -7.15768,-3.68109 -7.24614,-4.81921 -8.69811,-5.72291 -13.00962,-8.09706 -1.98925,-1.09539 -3.61844,-2.31364 -3.62043,-2.70722 -0.002,-0.39357 -2.06357,-1.54388 -4.5813,-2.55625 -3.16153,-1.27122 -6.74087,-4.13086 -11.57018,-9.24375 -3.84588,-4.0717 -6.99251,-7.76692 -6.99251,-8.2116 0,-0.44467 -0.62946,-0.8085 -1.3988,-0.8085 -0.76934,0 -1.74588,-0.608 -2.17009,-1.35112 -1.0755,-1.88402 -8.47802,-10.7153 -14.51517,-17.31673 -2.78495,-3.04526 -5.06354,-6.26924 -5.06354,-7.1644 0,-0.89516 -0.36402,-1.62757 -0.80892,-1.62757 -0.71628,0 -8.70303,-11.69738 -9.70933,-14.22026 -0.21514,-0.53939 -1.40869,-2.34631 -2.65233,-4.0154 -1.24364,-1.66908 -2.26116,-3.54468 -2.26116,-4.16801 0,-0.62332 -0.36567,-1.13331 -0.8126,-1.13331 -0.44694,0 -1.64048,-1.64287 -2.65233,-3.65083 -1.01185,-2.00796 -2.18159,-4.10423 -2.59941,-4.65837 -4.12694,-5.47329 -9.36739,-13.43496 -9.36739,-14.23161 0,-0.54789 -0.40217,-0.99618 -0.8937,-0.99618 -0.49153,0 -2.29151,-2.53758 -3.99994,-5.63907 -1.70844,-3.10148 -4.3353,-6.97447 -5.83746,-8.60665 -1.50216,-1.63217 -3.85734,-5.78564 -5.23374,-9.22995 -1.37639,-3.4443 -3.55558,-7.83815 -4.84265,-9.76409 -1.28707,-1.92595 -2.34012,-4.06127 -2.34012,-4.74513 0,-0.68388 -0.43402,-1.24341 -0.96448,-1.24341 -0.53047,0 -0.96449,-0.44014 -0.96449,-0.97809 0,-0.53795 -1.3518,-3.88732 -3.00401,-7.44304 -1.6522,-3.55574 -4.43975,-10.65742 -6.19455,-15.78155 -1.75479,-5.12412 -3.44111,-9.57137 -3.74737,-9.88279 -0.30625,-0.31141 -0.55684,-1.59594 -0.55684,-2.85451 0,-1.25859 -0.36495,-2.28833 -0.811,-2.28833 -0.44606,0 -1.34025,-2.53758 -1.9871,-5.63907 -0.64685,-3.10149 -2.41487,-10.05225 -3.92893,-15.44614 -1.51405,-5.3939 -3.45535,-14.44092 -4.31399,-20.10451 -0.85863,-5.66359 -2.06095,-13.166 -2.67184,-16.67203 -2.61246,-14.99375 -1.0755,-61.36919 2.56767,-77.4759 2.93308,-12.96733 4.35309,-18.59506 5.3203,-21.08522 0.41901,-1.07878 1.49037,-4.60932 2.3808,-7.84566 0.89043,-3.23634 1.98492,-6.76688 2.43219,-7.84566 0.44727,-1.07878 1.75418,-5.35814 2.90424,-9.50968 1.15006,-4.15154 2.93084,-9.31571 3.95728,-11.47594 1.02644,-2.16022 1.86625,-4.77774 1.86625,-5.8167 0,-3.5242 6.73214,-18.91763 13.58347,-31.05943 9.43916,-16.72791 12.30863,-26.71221 11.97876,-41.68008 -0.20274,-9.19916 -2.44311,-29.61783 -3.46879,-31.61451 -0.48115,-0.93662 -0.88144,-2.70189 -0.88957,-3.92283 -0.033,-4.95197 -1.57832,-4.61878 -3.22578,0.69548 -0.91812,2.9616 -3.07862,7.2684 -4.80113,9.57068 -2.50271,3.3451 -3.82029,4.2453 -6.55906,4.48134 -2.32459,0.20034 -4.56183,1.38356 -6.95377,3.67765 -2.37044,2.27348 -4.45474,3.38228 -6.35789,3.38228 -3.88833,0 -15.14838,-2.63683 -19.82953,-4.64361 -3.8134,-1.63477 -10.32575,-5.99912 -10.91209,-7.31291 -0.16652,-0.37311 -2.26133,-1.64246 -4.65513,-2.82077 -2.71994,-1.33885 -5.74085,-4.02706 -8.05435,-7.16727 -2.03608,-2.7637 -5.42971,-6.79017 -7.541373,-8.94773 -4.70197,-4.80412 -7.30226,-8.8984 -6.49497,-10.2266 0.333,-0.54787 -0.12562,-2.13065 -1.01914,-3.51728 -1.88403,-2.92377 -2.22645,-12.43994 -0.52272,-14.52734 0.82632,-1.0124 0.82498,-2.15762 -0.006,-4.57962 -0.80836,-2.3579 -0.8246,-4.0515 -0.0601,-6.2746 0.5759,-1.67474 0.88049,-5.11364 0.67688,-7.64199 -0.33081,-4.10781 -0.1476,-4.62964 1.72154,-4.90354 1.62905,-0.23873 2.27927,-1.27485 2.93948,-4.68411 0.46624,-2.40766 1.52117,-4.87829 2.34428,-5.49028 4.871333,-3.62192 -5.93785,-4.48078 -16.64109,-1.32224 -6.59134,1.94511 -15.936741,3.88684 -26.425451,5.49048 -3.678463,0.56241 -5.51864,1.37181 -6.269143,2.7575 -0.584284,1.07877 -1.194436,2.16929 -1.355891,2.42336 -0.161464,0.25408 -0.714605,-0.18724 -1.229215,-0.9807 -1.65487,-2.55162 0.107492,-12.4623 3.46268,-19.47243 3.705835,-7.74276 9.390626,-14.1965 16.867524,-19.14914 2.917563,-1.93256 5.828866,-3.95658 6.469563,-4.49782 0.640687,-0.54123 1.617226,-0.98406 2.170088,-0.98406 0.552851,0 1.005184,-0.66198 1.005184,-1.47106 0,-0.80908 -0.542522,-1.47626 -1.205604,-1.4826 -0.663083,-0.006 -2.868799,-3.63291 -4.901602,-8.05899 -3.494555,-7.60884 -3.704822,-8.61297 -3.857934,-18.42405 -0.156044,-9.99919 -0.06549,-10.49356 2.490393,-13.59184 2.262505,-2.74264 2.653564,-4.10502 2.660711,-9.26938 0.0048,-3.3298 0.282082,-8.3711 0.616585,-11.2029 0.501319,-4.24383 0.939474,-5.14871 2.493122,-5.14871 1.073789,0 2.101995,-0.84405 2.389354,-1.96142 0.277443,-1.07878 0.840788,-1.96141 1.25187,-1.96141 1.537107,0 1.999256,-5.12644 0.650805,-7.21905 -1.698031,-2.63512 -0.501445,-6.47985 2.243911,-7.20985 1.32346,-0.35192 1.92735,-1.32782 1.91508,-3.0948 -0.041,-5.89797 1.14434,-9.75393 3.16338,-10.2908 1.88392,-0.50095 7.54995,1.93038 8.25437,3.54198 0.17682,0.40454 0.91479,0.73553 1.63992,0.73553 0.72513,0 1.67457,0.64711 2.10986,1.43801 0.49594,0.9011 1.580763,1.22812 2.905473,0.87587 1.75847,-0.46758 2.06858,-1.16304 1.84379,-4.13494 -0.23883,-3.15774 0.66687,-22.14742 1.57363,-32.99406 0.18036,-2.15756 -0.0761,-4.47448 -0.56991,-5.14871 -0.49382,-0.67424 -0.57456,-1.22589 -0.17942,-1.22589 0.39514,0 0.24943,-0.57461 -0.32378,-1.27691 -1.291,-1.58172 -0.43798,-5.26913 1.3833,-5.97978 2.99503,-1.16863 5.00457,1.38536 4.35935,5.54045 -0.0628,0.40454 0.39246,0.6252 1.01173,0.49036 0.61926,-0.13485 1.56827,1.29943 2.10889,3.1873 0.54062,1.88786 1.55301,3.78539 2.24975,4.21674 0.69675,0.43134 1.2668,1.86562 1.2668,3.1873 0,1.32167 0.43402,2.40303 0.96449,2.40303 0.53046,0 0.96448,0.66797 0.96448,1.48437 0,0.8164 0.38338,2.25069 0.85196,3.1873 0.46857,0.93662 1.37676,3.02689 2.01818,4.64506 0.64143,1.61816 1.77711,4.19151 2.52374,5.71854 0.74664,1.52703 1.35751,3.3766 1.35751,4.11014 0,1.93769 1.80993,2.77078 3.2957,1.51697 0.70522,-0.59514 1.98826,-0.80657 2.85119,-0.46986 1.03506,0.40386 1.56898,0.0925 1.56898,-0.91506 0,-0.83999 0.61959,-1.88017 1.37687,-2.31152 0.75728,-0.43134 2.22176,-3.87349 3.2544,-7.64921 1.03264,-3.77573 2.51316,-8.40957 3.29004,-10.29743 0.77688,-1.88787 1.22327,-4.00258 0.99196,-4.69937 -0.53157,-1.60135 3.84697,-11.10589 5.92355,-12.85828 0.85767,-0.72378 1.5594,-2.11852 1.5594,-3.09941 0,-0.9809 0.43402,-2.05621 0.96448,-2.38957 0.53047,-0.33337 0.96449,-1.62932 0.96449,-2.87992 0,-1.2506 0.65102,-2.8232 1.44672,-3.49468 0.7957,-0.67148 1.44673,-2.40644 1.44673,-3.85547 0,-2.56713 2.80134,-7.671271 2.86278,-5.21608 0.0169,0.67424 0.61443,1.22589 1.32791,1.22589 0.71348,0 2.08192,0.88164 3.04096,1.9592 1.47502,1.65729 1.79094,4.11309 2.05011,15.9365 0.16851,7.68751 0.46019,15.19092 0.64818,16.67424 0.188,1.48332 0.41776,4.25542 0.51059,6.16021 0.11163,2.29056 0.74031,3.68131 1.85663,4.10723 0.92832,0.35418 2.17223,1.3011 2.76426,2.10427 0.91178,1.23696 1.68824,0.87127 5.07672,-2.39099 7.20041,-6.93218 8.98282,-8.40179 9.52338,-7.85213 0.70915,0.72107 5.05988,-5.32828 5.05988,-7.03536 0,-0.73612 0.43402,-1.06566 0.96449,-0.7323 0.53046,0.33336 0.96448,-0.003 0.96448,-0.74738 0,-1.58019 8.18379,-10.53076 9.62861,-10.53076 0.53939,0 0.98071,-0.84564 0.98071,-1.87921 0,-1.14481 1.13078,-2.38816 2.89345,-3.18152 1.5914,-0.71627 2.89345,-1.87662 2.89345,-2.57855 0,-0.70193 1.08504,-2.37954 2.41121,-3.72801 1.32616,-1.34847 2.41121,-3.23977 2.41121,-4.20288 0,-1.91292 3.28064,-3.94083 6.15336,-3.80366 2.23959,0.10695 5.91244,7.943 4.8623,10.37375 -0.39083,0.90463 -0.60219,4.18236 -0.46972,7.28384 0.15256,3.57186 -0.14524,5.63907 -0.81237,5.63907 -0.57926,0 -1.05322,1.05609 -1.05322,2.34685 0,1.29076 -0.64371,2.59802 -1.43046,2.905 -0.79629,0.31071 -1.18396,1.21135 -0.87443,2.03153 0.30581,0.81035 -0.39988,2.83841 -1.56821,4.50677 -1.16832,1.66837 -1.96838,3.16887 -1.7779,3.33444 1.85541,1.61279 4.65202,2.39761 5.21907,1.46466 0.3573,-0.58783 1.46825,-0.85113 2.46878,-0.58508 1.00054,0.26606 2.06222,0.0839 2.35928,-0.40491 0.29708,-0.48875 2.4676,-0.88864 4.82339,-0.88864 h 4.28325 v 3.77084 c 0,2.52534 -0.63713,4.35713 -1.92897,5.54588 -2.13013,1.96017 -2.49032,4.43082 -0.88407,6.06408 0.7502,0.76282 0.44689,1.62897 -1.07545,3.07111 -1.68742,1.59852 -2.2454,3.54571 -2.73275,9.53672 l -0.61239,7.52808 -3.85793,2.10097 c -2.12187,1.15554 -4.19711,2.63826 -4.61164,3.29492 -0.93609,1.48285 -9.92404,7.5964 -13.76057,9.35985 -5.51774,2.53623 -9.11374,5.15062 -8.68396,6.31348 0.23905,0.64676 -0.0857,0.99083 -0.72185,0.76459 -1.22534,-0.43584 -6.08577,3.18124 -5.32045,3.95943 0.2472,0.25136 2.93397,-0.20099 5.97058,-1.00523 6.65839,-1.76347 6.44129,-1.75472 5.86848,-0.23638 -0.44764,1.18661 10.1399,5.63907 13.40918,5.63907 0.78819,0 2.72259,1.1033 4.29864,2.45177 1.57607,1.34847 3.77945,2.45177 4.89643,2.45177 1.11696,0 2.03085,0.45224 2.03085,1.00498 0,0.55275 1.06876,1.41816 2.37503,1.92316 1.30627,0.50499 4.11973,2.09219 6.25216,3.5271 2.50306,1.68431 4.61603,2.41244 5.96202,2.05455 1.56492,-0.41613 1.8097,-0.27457 0.98146,0.56759 -1.65623,1.68409 -1.34233,2.36513 1.05023,2.27862 1.18451,-0.0429 2.16105,0.50315 2.17008,1.21327 0.009,0.71012 3.05457,2.88221 6.76783,4.82687 11.11899,5.82311 17.47306,9.78979 19.65524,12.27027 0.83042,0.94393 2.38993,1.72299 3.46559,1.73126 1.8591,0.0142 5.77189,1.89989 4.00774,1.93137 -1.88116,0.0335 2.02155,3.28781 7.05289,5.88099 2.94931,1.52009 6.41456,3.91133 7.70059,5.31387 1.28601,1.40254 2.89429,2.55007 3.57398,2.55007 0.67967,0 2.88261,1.14044 4.89541,2.53431 4.09106,2.83307 20.9215,11.19559 22.53227,11.19559 0.57038,0 1.74536,0.72021 2.61104,1.60045 1.45564,1.48013 1.39608,1.54623 -0.79226,0.87928 -2.302,-0.7016 -2.31386,-0.67933 -0.43725,0.82013 1.06093,0.84772 2.40811,1.55534 2.99373,1.57249 0.58563,0.0172 2.23555,1.13449 3.66651,2.48296 1.43095,1.34847 3.66442,2.45177 4.96325,2.45177 2.5472,0 2.99513,0.92487 1.28843,2.66028 -1.47043,1.49515 1.15751,4.89793 6.52552,8.44953 2.30582,1.52559 4.1924,3.18053 4.1924,3.67765 0,0.49713 0.6663,0.90386 1.48066,0.90386 2.16958,0 6.23521,2.95114 6.23521,4.52598 0,0.74705 -0.65103,1.35827 -1.44673,1.35827 -0.79569,0 -1.44672,0.38728 -1.44672,0.86063 0,0.47334 0.65103,1.41001 1.44672,2.08149 1.76927,1.49306 1.97888,4.36368 0.24113,3.3021 -0.94876,-0.57958 -0.95839,-0.42561 -0.0452,0.72275 2.19936,2.76578 17.95128,18.53145 18.52195,18.53813 0.3145,0.004 1.56736,1.49349 2.78414,3.31067 2.74799,4.10395 11.25227,12.37395 12.72448,12.37395 0.60005,0 0.80658,0.46795 0.45895,1.0399 -0.96963,1.59528 1.46296,6.66722 3.51539,7.3296 1.00389,0.32397 1.82524,0.94826 1.82524,1.38729 0,0.43905 1.38445,2.17458 3.07655,3.85676 1.6921,1.68216 2.74861,3.05848 2.3478,3.05848 -1.32636,0 -4.92306,-2.25657 -6.11704,-3.83784 -0.6462,-0.85583 -1.18873,-1.10275 -1.2056,-0.54873 -0.0349,1.1462 5.29571,7.32869 6.3189,7.32869 0.80386,0 3.22114,3.11177 3.26459,4.20252 0.0169,0.42352 -0.94587,0.24018 -2.13942,-0.40743 -1.19877,-0.65044 -0.0354,1.08993 2.59916,3.88833 2.62309,2.78618 5.3357,5.06578 6.02802,5.06578 0.72665,0 1.25878,1.1269 1.25878,2.66573 0,1.67097 0.9579,3.50267 2.567,4.90858 1.41184,1.23357 2.25628,2.55879 1.87652,2.94495 -0.37976,0.38614 -1.07729,0.0657 -1.55007,-0.71218 -0.47278,-0.77784 -1.16206,-1.10671 -1.53173,-0.73083 -0.36966,0.37589 -0.16103,1.30962 0.46365,2.07497 0.62467,0.76534 1.05104,1.76897 0.94748,2.23028 -0.27942,1.24476 3.58196,9.25113 4.17224,8.65091 0.27866,-0.28334 0.3782,1.13102 0.22119,3.14304 -0.17465,2.23827 0.0254,3.14689 0.51525,2.34086 1.10897,-1.82453 6.05652,6.22613 5.58528,9.08839 -0.30669,1.86274 -0.54863,1.69798 -1.90793,-1.29922 -0.85618,-1.88786 -1.5921,-2.75349 -1.63536,-1.9236 -0.0433,0.82988 0.77979,3.22104 1.82903,5.3137 1.04925,2.09265 2.41441,5.38552 3.03372,7.31749 0.61929,1.93197 1.93851,4.57498 2.93159,5.87336 0.99308,1.29838 1.56334,3.13684 1.26723,4.08547 -0.29611,0.94864 -0.0934,2.00446 0.45059,2.34628 0.54393,0.34182 0.9105,1.59259 0.8146,2.77948 -0.18318,2.26736 2.17193,8.53259 3.20742,8.53259 0.33203,0 1.17439,2.09626 1.87192,4.65836 1.37489,5.05019 7.56394,18.18437 8.8189,18.71517 0.42508,0.1798 0.77289,1.17276 0.77289,2.2066 0,4.75664 -4.36119,-0.008 -8.60258,-9.39846 -1.70539,-3.77572 -4.04811,-8.95435 -5.20605,-11.50806 -1.93861,-4.27539 -3.55208,-5.98218 -3.55208,-3.75755 0,0.96669 3.79475,10.61042 6.77873,17.22703 4.34832,9.64185 7.83735,21.02485 7.13455,23.27644 -0.31343,1.00414 0.009,2.53829 0.71541,3.40921 0.98094,1.20852 1.00804,1.67839 0.11446,1.9843 -0.78956,0.27028 -0.8829,0.93689 -0.28667,2.0471 0.48628,0.90546 1.82323,4.51487 2.971,8.0209 1.14776,3.50603 2.47032,6.79385 2.939,7.30627 0.46869,0.51242 0.85216,1.73402 0.85216,2.71467 0,0.98065 1.80036,4.75392 4.00081,8.38505 2.20044,3.63113 4.59655,7.76924 5.32467,9.19581 0.72812,1.42656 1.96588,3.13554 2.75058,3.79773 0.78469,0.66219 1.42671,1.77515 1.42671,2.47324 0,0.6981 0.32551,1.41637 0.72336,1.59616 0.39785,0.17979 1.57998,2.09217 2.62696,4.24973 2.2056,4.54522 6.0919,10.24132 8.20461,12.02542 4.77397,4.03142 13.20595,9.9921 14.1663,10.01437 0.6198,0.0143 2.93381,1.7914 5.14224,3.94896 2.20844,2.15756 4.84796,3.92283 5.8656,3.92283 1.01765,0 1.85027,0.41336 1.85027,0.91857 0,0.50522 1.37714,1.05687 3.0603,1.22589 3.93805,0.39546 4.47301,2.09349 1.05515,3.3492 -2.54498,0.93502 -2.35567,1.07892 4.08266,3.10358 7.32355,2.30303 14.20376,5.56405 13.42019,6.3608 -0.26928,0.27381 1.1582,0.81097 3.17218,1.19368 2.01398,0.38271 4.0958,1.05451 4.62627,1.4929 0.53046,0.43838 2.84533,1.30846 5.14414,1.93351 2.97176,0.80805 4.02682,1.5414 3.65085,2.53767 -0.35346,0.93657 0.3394,1.59733 2.08949,1.99269 5.11455,1.15544 6.2318,1.61313 9.58347,3.92589 1.86482,1.28679 3.74315,2.11805 4.17407,1.84724 0.83878,-0.52712 2.32436,1.35272 2.34875,2.97209 0.008,0.53939 1.75084,1.22739 3.8727,1.5289 2.12526,0.302 5.02276,1.62257 6.4515,2.94037 1.42646,1.31569 4.46455,2.84971 6.75134,3.40894 2.69381,0.65874 4.4807,1.75238 5.07473,3.10581 1.01348,2.30935 4.19232,3.23624 11.09899,3.23624 5.0918,0 6.31447,0.67293 4.73619,2.60671 -1.17436,1.43876 -0.35599,1.52741 15.55818,1.68525 5.87795,0.0583 9.63943,-0.45663 13.29107,-1.81947 4.68208,-1.74742 5.19306,-2.24977 6.33328,-6.22593 1.18554,-4.13406 0.93381,-9.71668 -0.79975,-17.74266 -0.50925,-2.35754 -0.32523,-3.02159 0.83746,-3.02159 1.06074,0 1.67531,-1.41924 2.13266,-4.92555 0.35349,-2.70905 0.95156,-5.11971 1.32926,-5.35702 0.37759,-0.23732 0.50288,-3.45417 0.27854,-7.14859 -0.32011,-5.26854 -0.082,-6.99226 1.10375,-7.99298 1.25711,-1.06084 1.60857,-1.01989 2.08512,0.24306 0.38936,1.03168 1.7978,1.50173 4.39062,1.46535 2.23779,-0.0314 4.535,0.60692 5.55195,1.54271 1.63355,1.50324 1.80108,1.37109 2.8731,-2.26734 0.6408,-2.17478 1.83561,-4.00063 2.73344,-4.17707 1.17841,-0.23159 1.64474,-1.51511 1.78546,-4.91486 0.122,-2.94706 0.8228,-5.23894 1.94922,-6.3746 1.62795,-1.64127 1.71128,-1.6455 1.11967,-0.057 -0.46508,1.24891 -0.1549,1.71624 1.13905,1.71624 1.20406,0 1.96494,-0.94977 2.35681,-2.94212 0.3394,-1.72562 1.1868,-2.94213 2.04953,-2.94213 0.80891,0 1.47084,-0.47283 1.47084,-1.05076 0,-0.57791 0.69038,-1.75277 1.5342,-2.61081 1.30331,-1.32524 1.6648,-1.3516 2.40108,-0.17513 0.47675,0.76172 0.67331,1.92245 0.43682,2.57942 -0.68922,1.91458 1.07578,2.36397 2.48817,0.63352 0.71054,-0.87057 1.18101,-2.96198 1.0455,-4.64756 -0.22038,-2.74225 -0.10783,-2.88755 1.07039,-1.38098 1.21621,1.55515 1.54973,1.43927 4.36843,-1.51776 1.6784,-1.7608 3.05163,-3.73209 3.05163,-4.38064 0,-0.64856 0.353,-1.1792 0.78451,-1.1792 0.43151,0 2.00545,-3.17849 3.4977,-7.0633 2.47747,-6.44951 10.61944,-20.42938 12.35513,-21.21377 0.39785,-0.17979 0.72336,-0.95809 0.72336,-1.72955 0,-0.77145 0.41299,-2.16896 0.91771,-3.10557 1.41287,-2.62162 3.67921,-8.29583 4.40132,-11.01966 0.9722,-3.66733 6.48914,-15.77989 6.96627,-15.29471 0.2281,0.23189 2.58029,-3.78773 5.22721,-8.93247 4.64505,-9.02861 5.38163,-10.22732 8.52855,-13.87788 0.7957,-0.92307 2.66236,-3.31868 4.14814,-5.3236 1.48579,-2.00491 3.33037,-3.6453 4.09906,-3.6453 0.76869,0 1.39763,-0.57942 1.39763,-1.28759 0,-1.49592 4.94018,-6.55808 6.40002,-6.55808 0.54446,0 1.57057,-1.10329 2.28033,-2.45176 0.70967,-1.34848 1.6755,-2.45177 2.14617,-2.45177 0.47067,0 3.04449,-2.19076 5.71968,-4.86836 2.67519,-2.6776 5.5804,-5.13219 6.45606,-5.45466 0.87565,-0.32248 3.43742,-2.65523 5.69286,-5.18389 11.59782,-13.00294 22.31352,-23.00748 29.84865,-27.8678 2.28119,-1.47145 4.14911,-3.01606 4.15094,-3.43248 0.01,-1.47232 11.24009,-13.93241 15.95371,-17.69558 6.76074,-5.39749 22.54249,-15.10047 23.54054,-14.47327 0.87373,0.54905 6.80877,-1.92495 12.58458,-5.24581 1.85663,-1.06749 4.60618,-2.21079 6.1102,-2.54067 1.50401,-0.32988 3.72387,-1.68523 4.93304,-3.01189 1.20917,-1.32667 2.88265,-2.41211 3.71876,-2.41211 0.83621,0 1.76076,-0.39561 2.05474,-0.87914 0.82608,-1.35917 7.99913,-4.94323 8.62325,-4.30865 0.30497,0.31006 1.10742,0.11709 1.78333,-0.42883 0.67591,-0.54592 2.88805,-1.29681 4.91597,-1.66865 2.02783,-0.37183 5.01705,-1.49854 6.64279,-2.50379 2.37706,-1.46993 3.31174,-1.60261 4.77429,-0.6777 1.4528,0.91866 2.41207,0.80475 4.76811,-0.5662 1.62217,-0.94394 3.97368,-1.71624 5.22558,-1.71624 1.25189,0 2.5444,-0.44132 2.87223,-0.98071 0.32783,-0.53939 2.25332,-0.98071 4.27893,-0.98071 2.1696,0 4.19917,-0.63248 4.93931,-1.53924 0.69096,-0.84658 2.04615,-1.32922 3.0115,-1.07252 0.96536,0.2567 1.75527,0.0667 1.75527,-0.42217 0,-0.4889 1.13047,-0.8889 2.51219,-0.8889 2.78572,0 11.028,-4.00409 20.15317,-9.79037 3.19755,-2.02759 6.26914,-2.51626 6.26914,-0.99741 0,0.53939 -0.59788,0.9807 -1.32867,0.9807 -0.73069,0 -1.86888,0.66198 -2.52926,1.47107 -1.69527,2.07697 -0.93401,1.86588 5.30466,-1.47107 3.02529,-1.61816 6.18803,-2.94212 7.02829,-2.94212 0.84026,0 2.47505,-0.90496 3.63292,-2.01101 1.4203,-1.35677 3.79389,-2.14122 7.29583,-2.41123 2.85478,-0.22012 8.41464,-1.5165 12.35524,-2.88086 8.0494,-2.78692 9.8087,-2.65312 4.2589,0.32391 -4.8803,2.61799 -4.0602,2.56395 3.53,-0.23257 4.0755,-1.5015 9.4673,-2.5121 15.42773,-2.89158 5.4789,-0.34882 8.1931,-0.2487 6.7513,0.24905 -2.4091,0.83169 -2.4088,0.8325 0.4033,0.93017 1.5479,0.0537 5.5155,-0.38053 8.8168,-0.9651 3.3013,-0.58457 7.026,-0.89244 8.2771,-0.68417 1.8323,0.30505 1.4306,0.63204 -2.0654,1.6813 -2.3871,0.71643 -6.5103,2.1046 -9.1626,3.08483 l -4.8224,1.78223 4.3401,0.0451 c 2.3871,0.0248 5.4983,-0.56932 6.9137,-1.32021 4.3134,-2.28835 9.6593,-2.74744 12.7274,-1.09301 1.5193,0.81931 4.6414,1.48965 6.9378,1.48965 3.2365,0 4.517,0.49611 5.6952,2.2066 0.836,1.21362 1.6201,2.00614 1.7425,1.76114 0.1224,-0.245 1.6095,0.38762 3.3047,1.40582 1.6952,1.01821 2.8748,2.19224 2.6216,2.60896 -0.2533,0.41673 0.7469,1.54294 2.2225,2.50268 1.4757,0.95975 5.6397,4.73034 9.2531,8.37911 3.6135,3.64875 7.1942,6.63409 7.957,6.63409 0.7629,0 1.387,0.61414 1.387,1.36474 0,0.75062 1.0332,1.62843 2.296,1.9507 2.5578,0.65277 3.8955,3.95043 2.1857,5.3881 -0.6083,0.51149 -2.4081,1.14791 -3.9995,1.41425 -2.0657,0.34572 -1.6517,0.47315 1.4468,0.44542 2.3871,-0.0214 4.8827,0.0204 5.5457,0.0929 2.0305,0.22181 1.3385,1.93067 -0.9644,2.3817 -1.9875,0.38926 -1.9616,0.43625 0.3082,0.55857 2.5462,0.13721 6.6843,4.05485 6.6843,6.32817 0,0.70188 -0.6373,2.13281 -1.4161,3.17984 -0.7788,1.04702 -1.4298,2.14508 -1.4467,2.44012 -0.016,0.29505 3.1517,2.17932 7.0414,4.18728 3.8897,2.00796 7.9947,4.5248 9.1223,5.59299 1.1276,1.06817 2.6108,1.95195 3.2961,1.96394 0.6853,0.012 2.331,0.88482 3.6571,1.93961 1.3262,1.05479 2.7048,1.92762 3.0638,1.93961 3.4331,0.11473 29.9727,20.07874 43.7037,32.87551 1.1575,1.07878 5.7565,5.23295 10.2199,9.23149 10.526,9.42977 31.4884,30.8531 35.1089,35.88106 1.5536,2.15756 4.3877,5.46745 6.2978,7.35531 1.9103,1.88786 4.9553,5.41841 6.7667,7.84566 1.8116,2.42725 3.739,4.73742 4.2831,5.1337 0.5442,0.39628 0.601,0.72727 0.1262,0.73553 -0.4748,0.008 1.2704,2.33194 3.8784,5.16373 5.5604,6.0379 11.9344,14.75042 11.9344,16.31307 0,0.60197 0.3643,1.09449 0.8097,1.09449 0.4453,0 1.3148,0.99297 1.9324,2.20659 0.6176,1.21363 2.4291,4.41319 4.0256,7.11013 2.629,4.44128 7.6243,14.61942 9.6264,19.61416 0.4324,1.07878 1.486,4.82998 2.3412,8.33601 0.8552,3.50603 2.1414,8.69382 2.8581,11.52842 1.4636,5.78807 0.7107,12.35447 -1.8772,16.37038 l -1.566,2.43034 -2.806,-2.10944 c -1.5432,-1.1602 -2.8059,-2.49382 -2.8059,-2.9636 0,-0.46979 -0.4937,-0.54398 -1.0968,-0.16488 -0.6033,0.3791 -1.7969,-0.21623 -2.6524,-1.32298 -0.8556,-1.10674 -2.5358,-3.26648 -3.7339,-4.79941 -6.1954,-7.92692 -10.8421,-14.38542 -10.8421,-15.06947 0,-0.42249 -1.3822,-2.46566 -3.0715,-4.54036 -4.7915,-5.88444 -49.1146,-50.3558 -50.1881,-50.3558 -0.7972,0 -3.7509,-2.14418 -11.8431,-8.59711 -0.5304,-0.42301 -3.5685,-2.83235 -6.7513,-5.35407 -6.8996,-5.46643 -17.843,-16.66628 -17.843,-18.26094 0,-0.97007 -2.6803,-1.6307 -5.0635,-1.24807 -0.3979,0.0638 -0.7234,-0.32518 -0.7234,-0.86457 0,-1.43861 -2.8825,-1.19942 -2.9546,0.24517 -0.034,0.67424 -0.4366,0.27977 -0.8955,-0.87661 -0.4999,-1.25949 -3.4724,-3.36643 -7.4136,-5.25482 -3.6187,-1.73377 -8.5323,-4.49015 -10.9194,-6.12528 -9.9919,-6.84428 -19.7954,-12.6474 -28.4738,-16.85486 -5.0797,-2.46271 -9.4619,-4.47766 -9.7381,-4.47766 -0.2762,0 -2.3946,-1.32396 -4.7076,-2.94213 -6.2245,-4.35454 -6.0102,-3.60303 0.7317,2.56637 8.9657,8.20438 15.0023,14.94998 21.4514,23.97071 3.1828,4.452 7.9069,10.34243 10.4981,13.08984 9.302,9.86282 12.9389,15.52003 27.1704,42.26217 12.0689,22.67873 12.3772,23.30495 16.4136,33.34406 1.9518,4.85451 4.3482,10.59165 5.3254,12.7492 0.9771,2.15756 2.4159,6.35008 3.1972,9.31673 2.9283,11.1185 4.8027,17.17741 5.4609,17.65273 1.0085,0.72819 4.4809,13.29507 5.6908,20.59486 0.581,3.50603 1.4494,7.25724 1.9297,8.33602 1.6832,3.78052 4.7859,20.72197 6.2862,34.32477 0.8329,7.55145 1.9209,16.81913 2.4179,20.59486 2.7216,20.67828 3.2299,28.58358 3.2163,50.01609 -0.023,35.87301 -2.8717,52.20873 -10.4493,59.91377 -1.2771,1.29864 -3.2099,2.36116 -4.2949,2.36116 -1.88,0 -2.4157,-1.58877 -2.2319,-6.61977 0.025,-0.67424 -0.2994,-1.22589 -0.72,-1.22589 -0.4207,0 -0.9889,-11.80527 -1.2628,-26.23393 -0.5565,-29.31881 -0.6828,-31.06966 -2.9866,-41.4349 -0.8991,-4.04541 -2.7409,-12.43047 -4.0928,-18.63344 -1.3519,-6.20298 -2.8232,-12.16078 -3.2695,-13.23955 -0.4464,-1.07878 -1.3167,-4.58634 -1.9343,-7.79458 -1.8171,-9.44107 -9.2907,-33.33671 -13.512,-43.20222 -0.4615,-1.07878 -2.1675,-5.49197 -3.7908,-9.80708 -3.9144,-10.40462 -4.0462,-10.72521 -7.5669,-18.40683 -1.6734,-3.65109 -3.0424,-7.25519 -3.0424,-8.00912 0,-0.75392 -0.3491,-1.51787 -0.7757,-1.69766 -0.4266,-0.1798 -3.0995,-4.7401 -5.9398,-10.13399 -2.8404,-5.39389 -6.441,-12.23433 -8.0013,-15.20097 -1.5604,-2.96664 -3.7864,-6.71784 -4.9466,-8.33601 -1.1603,-1.61817 -3.1785,-5.13179 -4.4848,-7.80805 -1.3064,-2.67626 -3.1297,-5.73295 -4.052,-6.79266 -0.9222,-1.0597 -1.9519,-2.808 -2.288,-3.88511 -0.3363,-1.07711 -0.9887,-2.4336 -1.4499,-3.01442 -4.1981,-5.28693 -9.0148,-12.05858 -11.5079,-16.17856 -1.6581,-2.74009 -3.3203,-4.98198 -3.6938,-4.98198 -0.3736,0 -1.9466,-2.2066 -3.4956,-4.90354 -1.5491,-2.69695 -3.1594,-4.90354 -3.5784,-4.90354 -0.419,0 -0.6737,0.33099 -0.566,0.73553 0.1076,0.40454 -0.4107,2.38227 -1.1518,4.39493 -1.0828,2.94047 -2.1161,3.91892 -5.2593,4.98036 -2.7584,0.93147 -4.0026,1.94893 -4.22,3.45073 -0.2047,1.41438 0.2003,2.12977 1.2056,2.12977 0.8326,0 1.5138,-0.42746 1.5138,-0.94992 0,-0.52246 0.6511,-0.69591 1.4468,-0.38543 1.601,0.62471 2.0016,3.29677 0.4943,3.29677 -0.928,0 -3.5547,3.86192 -7.3179,10.75842 -2.2408,4.10669 -4.2549,6.43802 -6.197,7.17281 -0.9555,0.3615 -0.7098,0.57366 0.7234,0.6248 2.4216,0.0864 2.8705,1.52512 0.8504,2.72563 -1.0996,0.65344 -1.0334,1.66942 0.397,6.09065 0.9441,2.91852 2.4061,5.69869 3.2486,6.17816 0.8817,0.50172 1.532,2.15196 1.532,3.88774 0,2.82869 0.1798,2.97941 2.8963,2.42698 l 2.8962,-0.58899 -0.339,10.02831 c -0.3543,10.48199 0.625,14.57345 3.7828,15.80562 0.9999,0.39012 1.4107,1.32545 1.1048,2.5149 -0.2891,1.12422 0.2636,2.58448 1.3601,3.59353 1.4192,1.30591 1.5625,1.88343 0.6187,2.49247 -0.885,0.57112 -0.7373,0.79692 0.5284,0.80773 0.9662,0.008 2.4472,0.71705 3.291,1.57508 1.3027,1.3247 1.3288,1.69122 0.1723,2.42939 -0.7492,0.47812 -2.1216,0.62899 -3.0499,0.33526 -0.9284,-0.29373 -1.6879,-0.11084 -1.6879,0.40643 0,0.51726 1.0908,1.21887 2.4241,1.55914 2.0713,0.52859 2.3327,1.00808 1.7956,3.29361 -0.9449,4.02159 -1.1136,4.14602 -5.6202,4.14602 -2.9877,0 -4.3535,0.45965 -4.7882,1.61143 -0.7117,1.88597 -0.9366,1.61903 3.1411,3.7287 2.7827,1.4396 3.1369,2.02459 2.5996,4.29272 -0.3422,1.4443 -1.1409,3.06731 -1.7749,3.6067 -0.7855,0.66824 -1.1528,5.04271 -1.1528,13.72991 0,13.1978 -1.3277,24.63889 -4.4539,38.38163 -0.9984,4.38883 -1.8152,8.55235 -1.8152,9.25227 0,0.69991 -0.8249,3.06685 -1.8332,5.25986 -1.0082,2.19301 -2.3697,5.72177 -3.0256,7.84171 -2.1682,7.00804 -9.2162,18.04556 -11.6091,18.18031 -0.9545,0.0537 -2.6836,-18.08861 -1.7574,-18.43881 0.4755,-0.17979 0.8213,-1.50375 0.7684,-2.94212 l -0.096,-2.61523 -0.7227,2.45177 c -0.6291,2.13389 -0.8201,1.83559 -1.474,-2.30067 -0.4132,-2.61384 -0.5062,-6.85637 -0.2067,-9.42783 0.2995,-2.57148 0.1573,-5.06919 -0.316,-5.5505 -0.4734,-0.4813 -0.9884,-4.62382 -1.1445,-9.2056 -0.263,-7.71172 -0.4273,-8.30573 -2.213,-7.99682 -1.0609,0.18353 -2.6142,0.95583 -3.4516,1.71624 -0.8375,0.7604 -2.3978,1.38254 -3.4674,1.38254 -1.0695,0 -2.7137,0.86419 -3.6538,1.92041 -1.6489,1.85265 -1.5971,2.06892 1.4676,6.12942 1.7472,2.31496 4.2326,5.38679 5.523,6.82627 1.3365,1.49095 2.0415,3.11865 1.638,3.78236 -0.3909,0.64318 -0.9781,0.76909 -1.3109,0.28107 -1.3298,-1.95024 -7.9319,-5.11081 -9.4437,-4.52092 -1.0816,0.42201 -1.3745,0.25002 -0.901,-0.52897 0.6903,-1.13588 -1.9227,-2.84608 -2.8728,-1.88009 -0.2613,0.26584 1.2151,4.1819 3.2811,8.70234 6.1663,13.49166 7.1157,15.83794 8.4846,20.96818 1.6801,6.29692 1.7533,15.87048 0.1256,16.44028 -1.6093,0.56337 -6.5102,-1.19415 -6.5102,-2.33463 0,-0.4969 -0.9941,-0.64977 -2.2091,-0.3397 -1.8003,0.45944 -2.7819,-0.24735 -5.3046,-3.81929 -1.7026,-2.41068 -3.0956,-4.79334 -3.0956,-5.29482 0,-1.76668 -9.712,-14.94927 -11.01363,-14.94927 -2.1398,0 -2.4658,2.22653 -2.9923,20.43262 -0.5753,19.89746 -0.9993,24.442 -2.8512,30.56418 -0.7342,2.42725 -1.817,6.39912 -2.4061,8.82637 -0.5892,2.42725 -1.9541,7.0611 -3.0333,10.29743 -1.0792,3.23634 -2.4642,7.64952 -3.0779,9.80708 -0.6136,2.15755 -1.3543,4.14349 -1.6461,4.41318 -0.5801,0.5362 -2.4529,8.15221 -3.43648,13.97509 -0.34171,2.02271 -0.92339,3.67765 -1.29279,3.67765 -0.3693,0 -1.4392,1.8756 -2.37755,4.16801 -4.29889,10.50222 -6.32161,14.90675 -7.50918,16.35127 -0.70571,0.8584 -2.14134,3.21251 -3.19022,5.23135 -1.04897,2.01883 -2.24252,3.6706 -2.65233,3.6706 -0.40991,0 -0.7495,0.55165 -0.7548,1.22588 -0.0145,1.8068 -10.95798,13.77933 -11.80528,12.91498 -0.39785,-0.40581 -0.72337,-1.98826 -0.72337,-3.51652 0,-1.52828 -0.43401,-2.77868 -0.96448,-2.77868 -1.15776,0 -1.18901,-19.77275 -0.0424,-26.96946 0.42958,-2.69695 1.7163,-11.02121 2.85941,-18.49837 1.1432,-7.47716 2.63275,-16.08287 3.3102,-19.1238 1.23705,-5.55258 2.29991,-46.22833 1.20792,-46.22833 -0.30854,0 -4.23071,1.54461 -8.71584,3.43247 -4.48514,1.88786 -8.61159,3.43248 -9.16983,3.43248 -0.55824,0 -4.30362,1.54461 -8.32311,3.43248 -4.01948,1.88786 -7.90191,3.43247 -8.6275,3.43247 -0.72567,0 -1.55233,0.38316 -1.83695,0.85144 -0.28462,0.4683 -2.67943,1.14308 -5.32192,1.49951 -7.32015,0.98738 -6.96927,2.53478 0.60521,2.66873 3.61189,0.0638 6.95499,0.0428 7.42913,-0.047 0.47404,-0.0897 2.15938,0.12666 3.74518,0.48081 4.13667,0.92386 1.40969,2.46062 -4.1249,2.32455 -6.37823,-0.1568 -6.9357,-0.0482 -6.1753,1.20279 0.47279,0.77789 0.0347,0.96102 -1.39107,0.58182 -1.14465,-0.30437 -1.83792,-0.15323 -1.54067,0.33586 0.29725,0.48909 3.99074,0.88925 8.20766,0.88925 7.00273,0 7.58894,0.14871 6.76479,1.71624 -0.49623,0.94393 -1.13732,2.48854 -1.42454,3.43247 -0.51783,1.70125 -1.48984,1.92311 -8.60117,1.96331 -2.6071,0.0147 -3.3782,0.32562 -2.64838,1.06775 0.56635,0.57582 2.51432,0.94528 4.3288,0.82102 1.81458,-0.12426 3.57447,0.22698 3.91088,0.78053 0.58101,0.95585 -0.61379,1.39633 -3.00234,1.10689 -0.97866,-0.1186 -2.62397,3.28622 -2.41053,4.98852 0.10956,0.87369 -2.95171,1.84956 -7.00292,2.23241 -1.76105,0.16642 -4.10456,0.79379 -5.20773,1.39415 -1.10327,0.60036 -3.33644,1.09157 -4.96275,1.09157 -1.62622,0 -2.95682,0.40896 -2.95682,0.9088 0,1.3853 3.01102,1.7507 6.57604,0.79801 3.64006,-0.97275 6.87253,0.70195 5.01011,2.59571 -1.21544,1.23595 -12.52739,0.93432 -16.05132,-0.42799 -1.32646,-0.51282 -3.79409,-0.92709 -5.48357,-0.92059 l -3.07179,0.0118 4.12597,2.39866 c 2.26933,1.31927 4.72105,2.1665 5.44827,1.88274 0.72722,-0.28374 1.60866,-0.0445 1.95886,0.53166 0.35021,0.57615 3.18965,1.04756 6.30985,1.04756 3.1202,0 5.94131,0.44132 6.26914,0.98071 0.3394,0.55841 -0.49121,0.9807 -1.92897,0.9807 -1.38876,0 -2.27618,0.40955 -1.97188,0.91011 0.3042,0.50055 -0.27073,1.176 -1.27775,1.50098 -1.00702,0.32498 -1.77282,1.34972 -1.70183,2.2772 0.11603,1.51593 -1.0891,1.67748 -11.927,1.59884 -6.63082,-0.0481 -14.66015,-0.61429 -17.84294,-1.25819 -9.07357,-1.8356 -14.38759,-3.28395 -15.38351,-4.19281 -1.33032,-1.21397 -3.76496,-1.02553 -5.74206,0.44443 -1.58088,1.17541 -1.6048,1.5665 -0.29127,4.763 0.78702,1.91535 2.59224,4.57732 4.01148,5.9155 1.41933,1.33817 2.69149,3.20198 2.82719,4.14179 0.13561,0.93981 0.65893,2.00444 1.16288,2.36585 1.7269,1.23849 3.28821,6.14417 3.26699,10.26515 -0.0251,4.94444 -2.31244,10.32595 -7.06918,16.63437 -2.93126,3.8874 -3.51892,5.45903 -3.51892,9.4099 0,3.49757 0.50655,5.20917 1.92897,6.51811 2.43474,2.24054 2.45528,3.43248 0.0588,3.43248 -1.47672,0 -2.0067,0.92787 -2.52068,4.41318 -0.35792,2.42725 -0.97914,4.41319 -1.38046,4.41319 -0.40132,0 -1.26646,-2.09627 -1.9226,-4.65836 -0.65614,-2.5621 -1.39281,-5.43067 -1.63702,-6.3746 -0.2443,-0.94394 -1.04839,-1.71624 -1.7869,-1.71624 -1.01618,0 -1.41085,1.96771 -1.62284,8.09084 -0.17852,5.15733 -0.67244,8.09083 -1.36224,8.09083 -1.56227,0 -9.03441,-6.64725 -9.0401,-8.0421 0,-0.64744 -0.59219,-1.53007 -1.31015,-1.96142 -0.71787,-0.43134 -1.69441,-1.99789 -2.17009,-3.48121 -1.74321,-5.43628 -2.80086,-2.58218 -3.44977,9.30879 -1.09854,20.13065 -2.63313,35.37251 -3.66725,36.42405 -0.6655,0.67671 -1.01724,-0.56459 -1.09276,-3.85662 -0.0858,-3.7293 -0.39033,-2.63138 -1.31488,4.73682 -1.11331,8.87193 -1.81844,11.47328 -2.82748,10.43146 -0.21769,-0.22475 -0.76021,-9.67632 -1.20561,-21.00349 -1.14214,-29.04631 -0.88202,-40.69702 0.90845,-40.69867 0.41463,-3.8e-4 0.46363,4.56416 0.10889,10.14343 -0.41126,6.4676 -0.2796,10.80803 0.36323,11.976 0.74535,1.35433 1.03768,-1.52577 1.1214,-11.04811 0.10195,-11.606 -0.0559,-12.91435 -1.59931,-13.22752 -2.13932,-0.43417 -14.0177,1.17674 -14.9085,2.02185 -0.36168,0.34321 -0.0849,7.2909 0.61602,15.43932 0.85376,9.92953 0.99997,17.52983 0.44356,23.04663 -0.45659,4.52722 -0.57859,9.05968 -0.27102,10.07211 0.71681,2.35966 -0.59065,18.61334 -1.42869,17.76149 -0.34712,-0.35279 -1.15198,-8.8795 -1.78854,-18.94823 -0.63656,-10.06873 -1.45907,-19.58601 -1.82769,-21.14949 -0.49584,-2.10289 -0.36574,-2.65134 0.49989,-2.10739 0.6435,0.40442 0.93709,1.35265 0.65228,2.10716 -0.28472,0.75453 -0.0973,1.37187 0.41656,1.37187 0.51378,0 0.9342,1.76527 0.9342,3.92283 0,2.27502 0.46035,3.92283 1.09584,3.92283 0.77709,0 0.94327,-2.63946 0.57136,-9.07155 -0.78653,-13.60017 -2.60314,-24.22208 -4.04649,-23.65893 -0.86012,0.33562 -0.99448,1.61918 -0.47298,4.51887 0.79117,4.39957 0.2959,6.96363 -1.16751,6.04399 -1.38721,-0.87178 -4.65845,2.56509 -4.67533,4.91206 -0.0116,1.55543 -0.2199,1.72529 -0.85907,0.69912 -0.67494,-1.08362 -0.94567,-0.98528 -1.3496,0.49036 -1.12767,4.11893 -2.6667,12.31959 -4.57956,24.40209 -1.11012,7.01206 -2.18465,13.79632 -2.38777,15.07613 -0.20312,1.2798 -0.62894,2.59098 -0.94635,2.91372 -1.45618,1.48069 -1.87611,-2.44468 -1.25971,-11.77539 0.91336,-13.82595 -0.10976,-26.31896 -2.15543,-26.31896 -0.53741,0 -1.36976,0.99296 -1.84949,2.20659 -0.66829,1.69064 -0.88656,1.80529 -0.93334,0.49035 -0.0646,-1.80223 -3.91908,-2.52571 -3.91908,-0.73553 0,0.53939 -0.86803,0.98071 -1.92896,0.98071 -2.25516,0 -2.60286,2.46935 -0.46517,3.30345 0.89031,0.34738 1.39589,1.6374 1.29028,3.29223 -0.0955,1.49658 0.14882,4.57804 0.54301,6.84769 0.77399,4.45708 0.01,8.50656 -1.43757,7.59821 -0.49227,-0.30936 -0.92841,-1.52939 -0.96921,-2.71118 -0.0405,-1.1818 -0.66183,-3.914 -1.38008,-6.07156 -1.21177,-3.63984 -1.27176,-3.14464 -0.83138,6.86496 0.88048,20.01115 0.91664,30.05004 0.11005,30.55691 -0.44135,0.27733 -1.43438,-0.0291 -2.20684,-0.68098 -1.20136,-1.01378 -1.40448,-0.38764 -1.40448,4.32876 0,5.5834 -1.22036,7.34926 -2.28554,3.30738 -0.31991,-1.21363 -0.58756,-4.70808 -0.59479,-7.76545 -0.0154,-6.46163 -0.6572,-8.66141 -2.52753,-8.66141 -0.73899,0 -1.34352,-0.46735 -1.34352,-1.03858 0,-0.57122 0.48253,-0.73534 1.07231,-0.36471 2.36665,1.48727 2.27917,-2.14631 -0.37306,-15.50314 -2.80819,-14.14258 -4.76089,-19.8121 -3.5685,-10.36117 0.74989,5.94328 0.27778,8.63416 -1.51491,8.63416 -0.79888,0 -1.24052,1.17538 -1.1975,3.1873 0.0376,1.75301 -0.41502,8.26246 -1.00567,14.46543 -1.10848,11.64268 -1.91759,27.41479 -1.31141,25.56579 0.18894,-0.57645 0.7414,-1.04809 1.22769,-1.04809 1.15536,0 1.14484,10.04125 -0.0135,12.94823 -0.49382,1.23901 -1.17879,3.57045 -1.52224,5.181 -1.15546,5.41812 -2.31775,0.39393 -2.85671,-12.34867 -0.28278,-6.68534 -0.75027,-13.92044 -1.03875,-16.07799 -0.28847,-2.15756 -0.51812,-6.12943 -0.5103,-8.82637 0.0212,-7.33499 -1.5671,-2.57224 -2.87388,8.61709 -0.58042,4.96961 -1.43852,9.91828 -1.90688,10.99706 -0.46835,1.07878 -1.05533,3.06471 -1.30436,4.41318 -0.24903,1.34848 -0.25993,0.46584 -0.0241,-1.96141 0.23572,-2.42725 0.68672,-7.50241 1.00229,-11.27814 0.31558,-3.77572 0.91443,-7.30627 1.3308,-7.84566 1.17194,-1.51828 2.29036,-37.75724 1.16529,-37.75724 -1.56999,0 -2.12505,4.02468 -1.55542,11.27813 0.39283,5.00168 0.26012,6.46568 -0.4888,5.3939 -0.80139,-1.14703 -1.03113,-0.64822 -1.04261,2.26447 -0.01,2.55673 0.33342,3.51673 1.08851,3.04217 0.60686,-0.38135 0.30989,0.67239 -0.6598,2.34164 -1.47122,2.53245 -1.58908,3.61185 -0.71169,6.51876 1.1024,3.65237 0.55737,4.87966 -1.57259,3.54112 -1.02939,-0.6469 -1.0646,-2.975 -0.18836,-12.4393 0.9938,-10.73236 0.7927,-14.73914 -1.19924,-23.90231 -0.18248,-0.83931 -1.62892,-1.60304 -3.36817,-1.77838 -3.47388,-0.35022 -3.76573,0.85914 -2.04172,8.46002 0.52767,2.32643 1.15661,6.21118 1.39763,8.63279 0.24093,2.42159 0.69221,4.821 1.00287,5.33202 0.31057,0.51101 0.12471,0.92912 -0.41299,0.92912 -0.5377,0 -1.22788,-1.65495 -1.53362,-3.67766 -1.7951,-11.87382 -5.93283,-18.52089 -5.60124,-8.998 0.0829,2.38681 -0.0829,3.45701 -0.36901,2.37823 -0.58872,-2.21972 -2.14993,-4.41319 -3.14113,-4.41319 -0.36487,0 -0.73687,4.74418 -0.82666,10.54261 -0.0897,5.79843 -0.49767,12.7492 -0.90642,15.44615 -0.60782,4.01106 -0.83081,2.40459 -1.22528,-8.82637 -0.3965,-11.2877 -0.73957,-13.7429 -1.92897,-13.80296 -0.7957,-0.0402 -3.15839,-0.57987 -5.25045,-1.1993 -2.09207,-0.61944 -4.00898,-0.91756 -4.25984,-0.66248 -0.25086,0.25507 0.15876,0.47053 0.91028,0.47879 1.15584,0.0127 1.16047,0.14757 0.0309,0.87529 -1.05784,0.68119 -0.87353,1.1119 0.88521,2.06899 l 2.22111,1.20871 -2.31988,1.26243 c -1.27591,0.69433 -2.65078,1.05444 -3.05529,0.80024 -1.51163,-0.94996 -2.78948,0.77039 -1.62862,2.19265 0.8933,1.0945 0.80225,1.38375 -0.43547,1.38375 -2.44381,0 -1.83917,1.47253 1.08755,2.64847 l 2.65233,1.0657 -2.58848,0.10433 c -2.26142,0.0911 -2.52945,0.43512 -2.12157,2.72245 0.25684,1.43997 1.67984,4.19821 3.16225,6.12943 4.38213,5.70863 11.50127,17.17944 16.00647,25.79057 2.24831,4.29737 2.36906,5.20445 1.69682,12.7492 -0.71594,8.03463 -0.75674,8.13253 -3.76264,9.03363 -2.54875,0.76401 -3.134,1.51546 -3.6282,4.65836 -0.32416,2.06106 -1.05273,3.74739 -1.61908,3.74739 -0.62604,0 -0.79714,1.07663 -0.43643,2.74647 0.55776,2.58244 0.34635,2.8021 -3.54023,3.67766 -4.02807,0.90746 -4.1304,1.02771 -4.0137,4.71982 0.0656,2.08376 0.66395,4.13068 1.32916,4.54872 0.6652,0.41804 0.89822,1.27216 0.51783,1.89805 -0.5161,0.84898 -1.07743,0.81455 -2.2105,-0.13554 -1.35404,-1.13538 -1.38809,-1.02428 -0.31433,1.02443 1.39696,2.66541 0.62807,7.01879 -1.23974,7.01879 -1.25104,0 -4.47125,3.00831 -4.47125,4.17702 0,0.32452 0.97654,0.78133 2.17008,1.01513 1.93428,0.37885 1.893,0.43946 -0.37904,0.55851 -2.50081,0.13103 -4.24797,2.3945 -3.1908,4.13369 0.29446,0.48456 -0.13811,0.61814 -0.9614,0.29695 -1.79094,-0.69885 -1.81168,-0.33402 -0.38916,6.8681 0.85308,4.31923 0.84112,5.87816 -0.0521,6.78336 -0.90169,0.91382 -1.53594,0.66903 -2.85082,-1.10036 l -1.69122,-2.27563 0.40209,3.50152 c 0.45177,3.93479 -0.60048,4.44368 -3.18472,1.5401 -2.62966,-2.95458 -4.68835,-2.56946 -3.93268,0.73553 0.58496,2.55867 0.44192,2.49629 -2.7889,-1.2152 -2.4033,-2.76079 -3.4055,-3.41011 -3.4055,-2.20659 0,2.22984 -1.12381,2.1553 -3.85793,-0.25586 -1.22326,-1.07878 -2.91727,-1.91023 -3.76438,-1.84766 -1.20541,0.0892 -1.1622,0.2135 0.19878,0.57234 1.31382,0.34639 1.48203,0.77339 0.68787,1.74635 -0.57811,0.70837 -1.90322,1.06132 -2.94467,0.78437 -1.07231,-0.28509 -1.89347,-0.0137 -1.89347,0.62618 0,1.42213 -3.95496,-0.52389 -5.11147,-2.51512 -0.42418,-0.73033 -1.20937,-1.32788 -1.74475,-1.32788 -0.53548,0 -0.70523,0.44132 -0.37741,0.98071 0.81229,1.33651 0.0627,1.23814 -4.13001,-0.54145 -2.16411,-0.91873 -3.1258,-1.05357 -2.42539,-0.34021 0.76108,0.77535 0.85772,1.75723 0.28086,2.85327 -0.69587,1.32219 -1.84448,1.58081 -5.50064,1.23864 -3.8563,-0.3609 -4.81306,-0.10867 -5.78112,1.52372 -0.98946,1.66848 -0.79068,2.33173 1.35173,4.51018 1.38152,1.40476 2.22178,2.84895 1.86733,3.20936 -0.35444,0.36041 -1.15805,0.13309 -1.78574,-0.50526 -1.38316,-1.40643 -9.43583,-1.55991 -9.43583,-0.17976 0,0.53939 0.43402,0.98071 0.96448,0.98071 0.53047,0 0.96449,0.46858 0.96449,1.04122 0,0.65011 -1.35867,0.8284 -3.61682,0.47466 l -3.61681,-0.56666 2.89316,2.3744 c 1.59121,1.30581 3.13293,1.97975 3.42594,1.49763 0.29301,-0.48211 0.5757,0.66316 0.62817,2.54504 0.0762,2.74237 -0.26851,3.42147 -1.73809,3.42147 -1.00847,0 -1.78208,-0.331 -1.71929,-0.7355 0.29908,-1.9261 -0.23437,-2.55112 -1.05331,-1.234 -0.72443,1.1649 -1.15333,1.2149 -2.10711,0.2451 -1.63586,-1.66343 -2.74068,-1.52829 -2.74068,0.3351 0,2.3541 -2.23779,1.1163 -3.77103,-2.08582 -1.14263,-2.38655 -1.45492,-2.56396 -1.95607,-1.11153 -0.5078,1.47214 -1.06199,1.19362 -3.73554,-1.87698 -3.62656,-4.16526 -4.50414,-4.00883 -2.94959,0.52566 0.85647,2.49816 0.83014,3.37567 -0.11921,3.97227 -0.67012,0.4211 -0.93882,1.2259 -0.59691,1.7883 0.34181,0.5624 0.22588,1.2712 -0.25762,1.5751 -0.48359,0.3039 -1.16654,-0.2089 -1.51771,-1.1395 -0.35117,-0.9305 -0.17959,-1.8473 0.38116,-2.0374 0.56085,-0.1901 1.01917,-0.8605 1.0186,-1.48977 0,-1.70516 -4.7225,-6.96548 -5.52167,-6.15276 -0.37982,0.3861 -0.11786,1.06191 0.58206,1.50175 0.69993,0.43985 1.10704,1.62945 0.90469,2.6436 -0.27671,1.38692 -1.27013,0.41974 -4.0082,-3.90224 -3.81077,-6.01507 -5.43487,-6.74511 -3.69127,-1.65916 0.56422,1.64563 0.79251,2.99214 0.50722,2.99214 -1.34333,0 -4.14275,-4.69102 -4.17139,-6.98999 -0.0174,-1.41732 -0.69356,-3.13513 -1.50209,-3.81741 -1.9089,-1.61091 -3.02703,-0.47407 -1.44277,1.46695 1.77185,2.17089 -0.26398,1.83147 -3.22629,-0.53783 -1.39764,-1.1179 -2.59128,-1.66955 -2.65253,-1.22588 -0.0608,0.44377 -0.21209,1.24805 -0.33535,1.78744 -0.12316,0.53939 -0.29011,1.53235 -0.37094,2.20659 -0.16618,1.38633 -3.04034,1.70879 -3.04034,0.34109 0,-0.48663 -1.32694,-1.35504 -2.94862,-1.92993 -2.59581,-0.9201 -2.88978,-0.84351 -2.45702,0.63961 1.70337,5.83757 1.73945,7.07865 0.20553,7.07865 -0.85318,0 -1.55417,0.77231 -1.55764,1.71624 0,0.94393 -0.86871,3.0402 -1.9226,4.65841 -1.78642,2.7427 -1.91672,2.7912 -1.9226,0.7169 -0.01,-1.88301 -0.37731,-2.13074 -2.41738,-1.61008 -3.47991,0.88818 -10.25562,0.90728 -12.78438,0.0363 -1.65628,-0.57058 -2.31348,-0.32393 -2.75627,1.03468 -1.30391,4.0005 -5.66774,12.7627 -7.77233,15.6063 -1.23533,1.6691 -2.24873,4.0963 -2.252,5.3939 -0.003,1.2976 -0.58363,3.4847 -1.2897,4.8605 -0.70607,1.3757 -2.04009,6.6715 -2.9645,11.7685 -0.92442,5.0969 -2.0439,10.1498 -2.48772,11.2286 -0.44384,1.0787 -1.30057,4.83 -1.90385,8.336 -0.60327,3.506 -1.49733,7.6985 -1.98678,9.3167 -0.48947,1.6182 -1.11768,4.4867 -1.39602,6.3746 -0.27835,1.8879 -0.94868,5.8597 -1.48963,8.8264 -0.54095,2.9666 -1.14204,6.7178 -1.33576,8.336 -0.19372,1.6182 -0.85772,6.3548 -1.47555,10.5258 -1.40858,9.5096 -0.6705,14.982 2.41247,17.8873 1.76122,1.6597 2.34918,3.2311 2.34918,6.2786 0,3.6264 -0.41098,4.3549 -3.80975,6.7525 -2.09536,1.4782 -4.05791,3.3005 -4.36123,4.0495 -1.17172,2.8936 -2.45192,20.4999 -1.89765,26.098 0.40008,4.0407 1.31316,6.8623 2.91441,9.0061 1.28249,1.717 2.3318,3.4317 2.3318,3.8103 0,0.9689 3.73077,4.3373 8.49125,7.6666 2.22587,1.5567 4.04704,3.4339 4.04704,4.1715 0,0.7377 0.87357,2.9946 1.94127,5.0154 3.7508,7.0988 1.71832,22.6586 -2.90576,22.2453 -2.90911,-0.2601 -3.10742,-0.4553 -1.92896,-1.8992 0.66037,-0.809 0.82202,-1.5187 0.35922,-1.5769 -1.61428,-0.2031 -5.7069,0.041 -11.69191,0.6977 -5.73172,0.6288 -7.46982,1.5953 -4.82241,2.6815 0.66308,0.272 0.0527,0.5295 -1.35643,0.5721 -1.91594,0.058 -2.4981,-0.3554 -2.30851,-1.6388 0.13943,-0.944 0.0669,-1.1646 -0.16102,-0.4904 -0.228,0.6743 -0.72198,1.2259 -1.09774,1.2259 -0.37576,0 -1.23724,1.908 -1.9144,4.24 -1.34849,4.6438 0.24085,3.7634 -17.21241,9.535 -3.81201,1.2606 -6.90724,2.5385 -6.87829,2.8397 0.23707,2.4667 -0.37779,3.1606 -2.3539,2.6562 -2.51697,-0.6424 -3.97385,0.1229 -4.85449,2.5498 -0.76921,2.1199 -5.22424,2.2413 -7.86012,0.214 z m 34.79809,-19.583 c 0.30534,-0.8091 1.14448,-1.471 1.86476,-1.471 0.72028,0 1.82744,-0.9839 2.46034,-2.1864 1.46874,-2.7905 3.36855,-4.7289 4.00273,-4.0841 0.27105,0.2756 2.16729,-0.2738 4.21387,-1.2209 5.13866,-2.3779 5.87687,-2.6282 4.2033,-1.4246 -1.2195,0.8769 -1.14376,1.0405 0.48224,1.0419 2.95278,0 6.26914,-1.0806 6.26914,-2.0474 0,-0.4765 -1.23211,-0.8663 -2.73804,-0.8663 -2.94723,0 -9.80024,-5.1901 -9.80024,-7.4222 0,-1.8656 -2.01545,-2.8487 -2.89007,-1.4098 -0.40998,0.6745 -1.02224,3.7143 -1.36057,6.7551 -0.69835,6.2764 -2.66994,9.8642 -7.34983,13.375 -2.24391,1.6834 -2.72931,2.4318 -1.57716,2.4318 0.9154,0 1.91419,-0.662 2.21953,-1.4711 z m 11.92258,-13.2395 c 0,-0.5394 0.43402,-0.9807 0.96449,-0.9807 0.53046,0 0.96448,0.4413 0.96448,0.9807 0,0.5394 -0.43402,0.9807 -0.96448,0.9807 -0.53047,0 -0.96449,-0.4413 -0.96449,-0.9807 z m -175.80354,8.7164 c 9.28537,-1.6443 6.69378,-2.0204 -3.17417,-0.4608 -4.73788,0.7488 -7.34783,1.4042 -5.79988,1.4565 1.54794,0.052 5.58627,-0.3959 8.97405,-0.9957 z m -20.46886,-2.8322 c -0.32784,-0.5394 -1.22148,-0.9807 -1.98589,-0.9807 -0.76439,0 -1.3898,0.4413 -1.3898,0.9807 0,0.5394 0.89365,0.9807 1.98589,0.9807 1.09224,0 1.71765,-0.4413 1.3898,-0.9807 z m 30.12002,0.3882 c -0.32048,-0.3258 -1.15235,-0.3607 -1.84859,-0.078 -0.7694,0.313 -0.54086,0.5455 0.58271,0.5925 1.01672,0.042 1.58637,-0.1892 1.26588,-0.5151 z m 3.85794,0 c -0.32049,-0.3258 -1.15236,-0.3607 -1.8486,-0.078 -0.7694,0.313 -0.54085,0.5455 0.58271,0.5925 1.01672,0.042 1.58638,-0.1892 1.26589,-0.5151 z m 177.04115,-3.3303 c -0.48388,-1.8815 -2.20842,-2.8005 -2.20842,-1.1769 0,0.6832 1.96657,3.1383 2.51381,3.1383 0.10948,0 -0.028,-0.8826 -0.30539,-1.9614 z m -154.85803,0.3882 c -0.32049,-0.3258 -1.15236,-0.3608 -1.8486,-0.078 -0.76939,0.313 -0.54085,0.5454 0.58272,0.5925 1.01672,0.042 1.58637,-0.1893 1.26588,-0.5151 z m -87.31389,-3.5265 c -0.61888,-0.6293 -1.44541,-0.8186 -1.83674,-0.4206 -0.39133,0.3979 -0.0856,1.1167 0.67936,1.5975 1.80126,1.1319 2.61462,0.3049 1.15738,-1.1769 z m 118.92082,-4.6623 c 3.53184,-1.4023 4.17713,-1.9186 2.4112,-1.9294 -1.32616,-0.01 -3.21292,0.6029 -4.1928,1.3578 -0.97987,0.7549 -2.46163,1.1072 -3.29278,0.7829 -0.99731,-0.3892 -1.27406,-0.1995 -0.81383,0.5577 0.85591,1.4081 0.18387,1.4959 5.88821,-0.769 z m 7.71586,-2.0065 c 0.32785,-0.5394 0.38896,-0.9807 0.13581,-0.9807 -0.25315,0 -1.15173,-0.2698 -1.99683,-0.5995 -1.12462,-0.4389 -1.37667,-0.1759 -0.94017,0.9807 0.67531,1.7894 1.91649,2.0551 2.80119,0.5995 z m 3.3757,-1.9035 c 0,-0.5076 -0.43402,-1.1956 -0.96449,-1.529 -0.53046,-0.3333 -0.96448,0.081 -0.96448,0.9229 0,0.8409 0.43402,1.5289 0.96448,1.5289 0.53047,0 0.96449,-0.4152 0.96449,-0.9228 z m -11.92258,-1.529 c -0.37763,-1.0006 0.0521,-1.471 1.34353,-1.471 1.46746,0 1.93375,-0.7239 2.05305,-3.1873 l 0.15436,-3.1873 0.3818,3.0892 c 0.34507,2.7921 0.70136,3.0892 3.70357,3.0892 3.91257,0 4.02722,-0.3262 1.15169,-3.2766 -1.19354,-1.2247 -2.75297,-2.9556 -3.46539,-3.8464 -2.19395,-2.7434 -5.3394,-1.4942 -6.08237,2.4156 -0.35875,1.8879 -0.95775,4.4255 -1.33109,5.6391 -0.52352,1.7018 -0.29852,2.2066 0.9836,2.2066 1.08144,0 1.46839,-0.5141 1.10725,-1.4711 z m 46.64456,-0.9808 c 11.34311,-2.4262 13.04784,-3.9476 13.97765,-12.4742 0.36941,-3.3875 1.28158,-7.1366 2.02706,-8.3312 0.74548,-1.1947 1.35542,-3.4133 1.35542,-4.9305 0,-1.5172 0.59728,-3.6289 1.32729,-4.6929 0.73001,-1.0639 1.84963,-4.5823 2.48804,-7.8187 2.48363,-12.5902 4.11695,-19.8276 5.64378,-25.008 0.87436,-2.9667 1.52762,-6.0155 1.45166,-6.7752 -0.0759,-0.7597 0.86597,-8.0414 2.09312,-16.1817 1.22716,-8.1402 2.51711,-18.381 2.86657,-22.7574 0.34946,-4.3764 1.1679,-9.8929 1.81875,-12.2589 1.57344,-5.7197 1.516,-17.7324 -0.0874,-18.2764 -0.66308,-0.225 -1.2056,-1.2009 -1.2056,-2.1687 0,-2.3339 -2.2603,-4.1466 -4.21793,-3.3828 -1.10697,0.432 -1.56898,0.068 -1.56898,-1.2362 0,-1.0166 -0.86803,-2.6041 -1.92896,-3.5278 -1.06093,-0.9237 -1.92897,-2.3457 -1.92897,-3.1601 0,-0.8143 -0.44476,-1.4806 -0.98835,-1.4806 -0.5436,0 -1.40089,-1.1033 -1.9051,-2.4518 -0.5042,-1.3485 -1.48562,-2.4518 -2.18094,-2.4518 -1.48309,0 -7.46389,-7.6083 -7.46389,-9.495 0,-0.711 -0.3869,-1.2928 -0.85976,-1.2928 -1.04326,0 -3.96266,7.1625 -3.96266,9.7221 0,1.0101 -0.65103,2.0907 -1.44673,2.4011 -0.7957,0.3105 -1.44672,1.6556 -1.44672,2.9892 0,1.3335 -0.39388,2.6722 -0.87528,2.9747 -0.4814,0.3025 -1.64697,3.0868 -2.59014,6.1873 -0.94317,3.1004 -2.28536,5.9902 -2.98266,6.4215 -0.69728,0.4313 -1.26779,1.3886 -1.26779,2.1272 0,0.7385 -0.63385,2.5922 -1.40855,4.1192 -2.076,4.092 -5.71121,12.7524 -8.1636,19.4484 -1.18528,3.2364 -2.81685,7.4289 -3.62573,9.3168 -2.52042,5.8824 -5.18985,14.979 -5.98303,20.3881 -0.73218,4.9931 -0.65973,5.2478 1.93563,6.8067 1.48295,0.8907 3.22016,2.9697 3.86048,4.6199 0.64032,1.6502 1.79519,3.7549 2.5664,4.6771 2.69537,3.2231 0.80496,6.1073 -5.30864,8.0992 -3.06561,0.9988 -6.96263,1.7332 -8.66005,1.6318 -2.33229,-0.1394 -3.37489,0.3614 -4.26792,2.0497 -1.57404,2.9756 -2.82573,8.9726 -3.12727,14.9831 -0.1353,2.697 -0.54002,5.7871 -0.89939,6.8669 -0.47548,1.4287 0.32643,3.1645 2.94508,6.3746 5.59699,6.8611 10.0176,10.9358 13.01845,11.9995 1.51215,0.536 2.52533,1.2023 2.25152,1.4807 -0.27381,0.2785 1.01529,2.3037 2.86467,4.5007 1.84939,2.1969 3.85603,5.6693 4.45921,7.7164 1.26286,4.286 1.5872,4.35 11.40125,2.2508 z m 7.23305,-6.3745 c -0.32785,-0.5394 -0.13645,-0.9807 0.42532,-0.9807 0.56177,0 1.0214,0.4413 1.0214,0.9807 0,0.5394 -0.19139,0.9807 -0.42531,0.9807 -0.23393,0 -0.69356,-0.4413 -1.02141,-0.9807 z m 27.22657,-12.361 c -0.32049,-0.3258 -1.15236,-0.3607 -1.8486,-0.078 -0.7694,0.3131 -0.54085,0.5455 0.58271,0.5926 1.01672,0.042 1.58638,-0.1893 1.26589,-0.5152 z m 7.41595,-33.3468 c 2.21453,-0.8641 1.87434,-2.2559 -0.40336,-1.6503 -1.06093,0.2821 -1.92896,0.9028 -1.92896,1.3792 0,1.0253 0.30767,1.0611 2.33232,0.2711 z m 1.2644,-48.0519 c -0.32049,-0.3258 -1.15235,-0.3607 -1.8486,-0.078 -0.76939,0.313 -0.54085,0.5455 0.58272,0.5925 1.01672,0.042 1.58637,-0.1893 1.26588,-0.5151 z m 2.89345,-1.9615 c -0.32049,-0.3257 -1.15235,-0.3607 -1.8486,-0.077 -0.76939,0.313 -0.54085,0.5454 0.58272,0.5925 1.01672,0.042 1.58637,-0.1893 1.26588,-0.5152 z m -30.60226,-63.5859 c 0,-0.2378 -0.43402,-0.7052 -0.96448,-1.0386 -0.53047,-0.3333 -0.96449,-0.1387 -0.96449,0.4325 0,0.5713 0.43402,1.0386 0.96449,1.0386 0.53046,0 0.96448,-0.1946 0.96448,-0.4325 z m 95.48387,-33.4598 c 0,-0.84095 -0.4411,-1.25177 -0.98022,-0.91294 -0.53911,0.33884 -0.73051,1.0268 -0.42531,1.52892 0.82679,1.36034 1.40553,1.10663 1.40553,-0.61598 z m -4.16356,-1.59708 c -0.30789,-0.78231 -0.53644,-0.54998 -0.58271,0.59254 -0.0419,1.03377 0.18607,1.61307 0.50656,1.28718 0.32049,-0.32589 0.35476,-1.17175 0.0762,-1.87972 z m 75.27409,-12.17715 c -0.3205,-0.32579 -1.15237,-0.36071 -1.84853,-0.0775 -0.76946,0.31304 -0.54088,0.54547 0.58264,0.59254 1.01676,0.0422 1.58639,-0.18927 1.26589,-0.51516 z M 743.78055,865.01406 c -0.62701,-2.12513 -0.81306,-1.1684 -0.7956,4.09115 0.0212,6.28793 0.0897,6.52108 0.81836,2.7738 0.43759,-2.25013 0.42736,-5.33936 -0.0231,-6.86495 z m 4.52642,-0.79915 c -0.30034,-2.95935 -0.1441,-5.63331 0.34731,-5.94212 1.15728,-0.72724 1.165,-4.36855 0.01,-4.36855 -0.48629,0 -1.06614,0.33099 -1.28864,0.73553 -0.22251,0.40454 -0.25482,0.13769 -0.0723,-0.593 0.48485,-1.93609 -1.75575,-8.9689 -2.85738,-8.9689 -0.94934,0 -0.60994,3.3789 1.18198,11.76849 0.5185,2.42726 0.96159,6.28879 0.98464,8.5812 0.0241,2.44092 0.49757,4.168 1.14146,4.168 0.75568,0 0.92861,-1.68231 0.55323,-5.38065 z m -31.75119,-11.40976 c -0.40334,-1.23026 -7.51631,-1.97138 -7.51631,-0.78314 0,0.86619 2.34234,1.60247 5.62612,1.76847 1.27109,0.0642 2.0937,-0.36452 1.89019,-0.98533 z m 4.53973,-2.82374 c -0.32783,-0.53939 -1.33002,-0.94969 -2.22699,-0.91177 -1.32954,0.0562 -1.27447,0.22468 0.29802,0.91177 2.58087,1.1277 2.61433,1.1277 1.92897,0 z m 100.51616,-6.60629 c -0.22173,-1.49074 -0.40904,-0.50384 -0.41627,2.19311 -0.01,2.69694 0.17409,3.91664 0.40306,2.71043 0.22897,-1.20621 0.23485,-3.4128 0.0135,-4.90354 z m -107.04658,5.03308 c -0.3205,-0.32589 -1.15236,-0.36073 -1.84853,-0.0774 -0.76946,0.31307 -0.54088,0.54545 0.58265,0.59251 1.01675,0.0426 1.58638,-0.1892 1.26588,-0.51508 z m 23.40888,-1.31103 c 0,-0.50756 -0.43401,-1.19558 -0.96448,-1.52894 -0.53047,-0.33337 -0.96448,0.0819 -0.96448,0.92283 0,0.84092 0.43401,1.52893 0.96448,1.52893 0.53047,0 0.96448,-0.41527 0.96448,-0.92282 z m 85.43289,-17.28783 c 0.35513,-1.92503 0.16252,-5.94675 -0.42813,-8.93717 -0.59065,-2.99041 -0.85444,-5.79809 -0.58631,-6.23926 0.26813,-0.44118 0.0463,-1.07935 -0.49266,-1.41815 -0.64032,-0.4024 -0.9802,2.9747 -0.9802,9.73932 0,10.31645 1.22547,13.69418 2.4873,6.85526 z m -29.49284,-12.19128 c 0,-1.61817 -0.43402,-2.94213 -0.96449,-2.94213 -1.07279,0 -1.33118,4.20379 -0.32155,5.23045 1.08967,1.10798 1.28604,0.75861 1.28604,-2.28832 z m 92.91043,-74.60271 c 0.61968,-0.038 0.25868,-0.44821 -0.80226,-0.91178 -2.84387,-1.24261 -3.37569,-1.14883 -3.37569,0.59528 0,1.03417 0.52449,1.37133 1.52562,0.98071 0.83901,-0.3274 2.03255,-0.6263 2.65233,-0.66421 z m 8.09906,0.45713 c -0.3205,-0.32589 -1.15237,-0.36072 -1.84853,-0.0774 -0.76946,0.31307 -0.54088,0.54545 0.58264,0.59252 1.01676,0.0426 1.58639,-0.18921 1.26589,-0.51509 z m -19.99288,-4.31103 c 0,-0.53939 -0.84247,-0.98071 -1.87206,-0.98071 -1.02968,0 -2.14028,-0.44132 -2.46811,-0.98071 -0.78046,-1.28403 -2.41121,-1.26266 -2.41121,0.0316 0,1.02404 3.3294,2.73407 5.54578,2.84836 0.66308,0.0342 1.2056,-0.37916 1.2056,-0.91855 z m -12.53828,-0.98071 c 0,-0.53939 -0.19145,-0.98071 -0.42534,-0.98071 -0.23398,0 -0.69356,0.44132 -1.02139,0.98071 -0.32782,0.53939 -0.13647,0.98071 0.42534,0.98071 0.56172,0 1.02139,-0.44132 1.02139,-0.98071 z m 1.92897,-2.94213 c 0,-0.53938 -0.43402,-0.9807 -0.96449,-0.9807 -0.53046,0 -0.96448,0.44132 -0.96448,0.9807 0,0.53939 0.43402,0.98071 0.96448,0.98071 0.53047,0 0.96449,-0.44132 0.96449,-0.98071 z m 48.22417,-7.84566 c 0,-0.53939 -0.45967,-0.9807 -1.02139,-0.9807 -0.56181,0 -0.75316,0.44131 -0.42533,0.9807 0.32782,0.53939 0.7874,0.98071 1.02138,0.98071 0.23389,0 0.42534,-0.44132 0.42534,-0.98071 z m 107.05771,-42.17043 c 0,-0.53938 -0.4597,-0.9807 -1.0214,-0.9807 -0.5618,0 -0.7532,0.44132 -0.4253,0.9807 0.3278,0.53939 0.7874,0.98071 1.0214,0.98071 0.2338,0 0.4253,-0.44132 0.4253,-0.98071 z m 14.4672,-54.91962 c 0,-0.53939 -0.7595,-0.97395 -1.6878,-0.96569 -1.4425,0.0128 -1.4775,0.15325 -0.2411,0.96569 1.8202,1.19608 1.9289,1.19608 1.9289,0 z m 35.2037,-287.34735 c 0.3278,-0.53939 0.162,-0.9807 -0.3684,-0.9807 -0.5305,0 -1.2327,0.44131 -1.5606,0.9807 -0.3278,0.53939 -0.1621,0.98071 0.3684,0.98071 0.5304,0 1.2328,-0.44132 1.5606,-0.98071 z m -85.35683,-31.89818 c 0,-1.05773 -1.8588,-0.33849 -3.99219,1.54476 l -2.27695,2.00992 3.13457,-1.54475 c 1.72397,-0.84961 3.13457,-1.75408 3.13457,-2.00993 z m -19.28967,-1.03118 2.41121,-1.47722 -2.41121,0.64149 c -1.32616,0.35282 -2.82352,1.0332 -3.32747,1.51197 -1.47324,1.39961 0.64023,0.9701 3.32747,-0.67624 z m 22.66537,-0.4147 c 0.3278,-0.53939 0.162,-0.9807 -0.3684,-0.9807 -0.5305,0 -1.2327,0.44131 -1.5606,0.9807 -0.3278,0.53939 -0.1621,0.98071 0.3684,0.98071 0.5304,0 1.2328,-0.44132 1.5606,-0.98071 z m -15.42933,-3.75691 c -0.59866,-0.60868 -4.34259,0.91676 -4.34259,1.76932 0,0.4523 1.05341,0.31685 2.3409,-0.30099 1.28759,-0.61783 2.18832,-1.27858 2.00169,-1.46833 z m 4.33776,1.7955 c 0.7957,-0.52287 1.01271,-0.95067 0.48225,-0.95067 -0.53047,0 -1.61551,0.4278 -2.41121,0.95067 -0.7957,0.52287 -1.01271,0.95068 -0.48224,0.95068 0.53046,0 1.61551,-0.42781 2.4112,-0.95068 z m 21.21867,-4.87276 c 0,-0.52246 -0.6511,-0.69591 -1.4468,-0.38542 -0.7957,0.31047 -1.4467,0.73794 -1.4467,0.94992 0,0.21199 0.651,0.38543 1.4467,0.38543 0.7957,0 1.4468,-0.42746 1.4468,-0.94993 z m 4.34013,-0.0308 c 0.3279,-0.53939 -0.055,-0.98071 -0.8506,-0.98071 -0.7957,0 -1.71503,0.44132 -2.04283,0.98071 -0.3278,0.53939 0.055,0.98071 0.8506,0.98071 0.79573,0 1.71503,-0.44132 2.04283,-0.98071 z M 487.69047,1235.3995 c -0.32785,-0.5394 -0.13645,-0.9807 0.42532,-0.9807 0.56177,0 1.02141,0.4413 1.02141,0.9807 0,0.5394 -0.1914,0.9807 -0.42532,0.9807 -0.23393,0 -0.69356,-0.4413 -1.02141,-0.9807 z m -76.39009,-6.0849 c 0.6382,-0.4125 4.63252,-0.6967 8.87624,-0.6315 8.65425,0.133 7.34756,0.5822 -3.08934,1.062 -3.82101,0.1757 -6.42511,-0.018 -5.7869,-0.4305 z m 86.03493,0.5107 c 1.06093,-0.2438 3.23102,-1.0229 4.82241,-1.7314 4.23441,-1.8851 10.12708,-2.7959 10.12708,-1.5652 0,0.5638 -0.69746,1.0252 -1.54992,1.0252 -0.98144,0 -1.34629,0.5395 -0.99474,1.471 0.63512,1.683 -2.73176,2.1236 -3.72609,0.4877 -0.39954,-0.6573 -1.19679,-0.6573 -2.40473,0 -0.99386,0.5409 -3.24612,0.9322 -5.00501,0.8696 -1.94327,-0.069 -2.44115,-0.2876 -1.269,-0.5569 z m -37.8293,-2.0163 c 3.18991,-0.203 5.33053,-0.7527 5.00662,-1.2856 -0.31122,-0.512 -0.10621,-0.931 0.45555,-0.931 0.56178,0 1.02141,0.662 1.02141,1.4711 0,1.1705 -1.23171,1.4332 -6.02802,1.2856 l -6.02802,-0.1854 z m 75.50616,-14.2725 c 0.3622,-0.9672 0.9015,-1.5115 1.19845,-1.2095 0.29695,0.3019 6.1e-4,1.0932 -0.65853,1.7585 -0.95255,0.9613 -1.06333,0.8487 -0.53992,-0.549 z m -258.78471,-7.2535 c 0.92831,-0.2467 2.44737,-0.2467 3.37569,0 0.92831,0.2466 0.16878,0.4485 -1.68785,0.4485 -1.85663,0 -2.61616,-0.2019 -1.68784,-0.4485 z m 30.39247,-0.9983 c 1.19973,-0.2346 2.93581,-0.2257 3.85794,0.02 0.92213,0.2455 -0.0595,0.4374 -2.18134,0.4266 -2.12186,-0.011 -2.87633,-0.2118 -1.6766,-0.4463 z m 243.46775,-8.6231 c 0.0197,-1.6182 0.23582,-2.1614 0.48035,-1.2073 0.24455,0.9542 0.22846,2.2782 -0.0358,2.9421 -0.26419,0.6641 -0.46427,-0.1167 -0.44461,-1.7348 z m 37.90911,-205.4583 c -0.32783,-0.53939 -0.13648,-0.98071 0.42533,-0.98071 0.56172,0 1.02139,0.44132 1.02139,0.98071 0,0.53939 -0.19145,0.98071 -0.42534,0.98071 -0.23398,0 -0.69356,-0.44132 -1.02138,-0.98071 z m 141.29683,-62.7074 c 0,-2.12572 0.38975,-4.10991 0.8662,-4.40931 0.47636,-0.29939 1.20513,-3.74565 1.61928,-7.65835 0.41424,-3.91271 0.82637,-7.55534 0.91587,-8.09472 0.0897,-0.53939 0.22887,-1.97368 0.3097,-3.1873 0.081,-1.21363 0.63395,-2.2066 1.22933,-2.2066 1.65196,0 0.5078,16.02042 -1.66345,23.29046 -1.00663,3.37042 -2.15572,6.12866 -2.55357,6.12942 -0.39784,7.4e-4 -0.72336,-1.73787 -0.72336,-3.8636 z m 0.81258,-54.44111 c -0.18171,-2.94132 -0.0579,-5.03758 0.27546,-4.65836 0.93911,1.06874 1.66412,10.00621 0.81171,10.00621 -0.41628,0 -0.90546,-2.40653 -1.08717,-5.34785 z m 21.55852,0.93467 c 0.0193,-1.61817 0.23582,-2.16142 0.48041,-1.20723 0.2445,0.9542 0.22839,2.27816 -0.0357,2.94213 -0.26417,0.66397 -0.4643,-0.11674 -0.44462,-1.7349 z m -48.8944,-4.41319 c -0.32782,-0.53939 -0.13647,-0.98071 0.42534,-0.98071 0.56172,0 1.02139,0.44132 1.02139,0.98071 0,0.53939 -0.19145,0.98071 -0.42534,0.98071 -0.23398,0 -0.69356,-0.44132 -1.02139,-0.98071 z m 82.17825,-12.50402 c 0.77284,-5.09235 1.24958,-5.24826 1.24958,-0.40862 0,2.24745 -0.40672,4.08627 -0.90391,4.08627 -0.50067,0 -0.65489,-1.64045 -0.34567,-3.67765 z m 11.935,-26.31565 c 0.0463,-1.14247 0.27487,-1.37486 0.58274,-0.59252 0.27864,0.70796 0.2443,1.55382 -0.0762,1.87969 -0.32049,0.32588 -0.5484,-0.25334 -0.50654,-1.28717 z M 180.72623,421.41217 c 0,-1.88787 0.19849,-2.66017 0.44108,-1.71624 0.24259,0.94393 0.24259,2.48854 0,3.43247 -0.24259,0.94394 -0.44108,0.17163 -0.44108,-1.71623 z m 67.77233,-198.10295 c 0.32784,-0.53939 0.78748,-0.98071 1.0214,-0.98071 0.23393,0 0.42532,0.44132 0.42532,0.98071 0,0.53939 -0.45963,0.98071 -1.02141,0.98071 -0.56176,0 -0.75316,-0.44132 -0.42531,-0.98071 z"
       id="path1" /></g></svg>
